<svg width="24" height="26" viewBox="0 0 24 26" fill="none" xmlns="http://www.w3.org/2000/svg">
<path d="M2.50153 24.7384L2.19679 25.4237H2.19679L2.50153 24.7384ZM1.29973 23.6896L0.652038 24.0677L0.652038 24.0677L1.29973 23.6896ZM22.7003 23.6896L23.348 24.0677L22.7003 23.6896ZM21.4985 24.7384L21.8032 25.4237L21.4985 24.7384ZM21.4985 3.66166L21.8032 2.97636L21.4985 3.66166ZM22.7003 4.71049L22.0526 5.08864L22.7003 4.71049ZM2.50153 3.66166L2.80626 4.34696H2.80626L2.50153 3.66166ZM1.29973 4.71049L0.652038 4.33235L1.29973 4.71049ZM6.5 8.65C6.08579 8.65 5.75 8.98579 5.75 9.4C5.75 9.81421 6.08579 10.15 6.5 10.15V8.65ZM17.5 10.15C17.9142 10.15 18.25 9.81421 18.25 9.4C18.25 8.98579 17.9142 8.65 17.5 8.65V10.15ZM6.5 13.45C6.08579 13.45 5.75 13.7858 5.75 14.2C5.75 14.6142 6.08579 14.95 6.5 14.95V13.45ZM12 14.95C12.4142 14.95 12.75 14.6142 12.75 14.2C12.75 13.7858 12.4142 13.45 12 13.45V14.95ZM6.5 18.25C6.08579 18.25 5.75 18.5858 5.75 19C5.75 19.4142 6.08579 19.75 6.5 19.75V18.25ZM17.5 19.75C17.9142 19.75 18.25 19.4142 18.25 19C18.25 18.5858 17.9142 18.25 17.5 18.25V19.75ZM22.25 7.24007V21.16H23.75V7.24007H22.25ZM18.6 24.25H5.4V25.75H18.6V24.25ZM1.75 21.16V7.24007H0.25V21.16H1.75ZM5.4 24.25C4.61911 24.25 4.07284 24.2496 3.64715 24.2192C3.22765 24.1893 2.98652 24.1333 2.80626 24.0531L2.19679 25.4237C2.60479 25.6051 3.04282 25.6799 3.54046 25.7154C4.03191 25.7504 4.64074 25.75 5.4 25.75V24.25ZM0.25 21.16C0.25 21.8179 0.249236 22.363 0.290732 22.8062C0.333377 23.2617 0.425296 23.6794 0.652038 24.0677L1.94743 23.3114C1.87444 23.1864 1.81649 23.0113 1.7842 22.6664C1.75076 22.3092 1.75 21.8462 1.75 21.16H0.25ZM2.80626 24.0531C2.41993 23.8813 2.12512 23.6158 1.94743 23.3114L0.652038 24.0677C1.00165 24.6665 1.54823 25.1353 2.19679 25.4237L2.80626 24.0531ZM22.25 21.16C22.25 21.8462 22.2492 22.3092 22.2158 22.6664C22.1835 23.0113 22.1256 23.1864 22.0526 23.3114L23.348 24.0677C23.5747 23.6794 23.6666 23.2617 23.7093 22.8062C23.7508 22.363 23.75 21.8179 23.75 21.16H22.25ZM18.6 25.75C19.3593 25.75 19.9681 25.7504 20.4595 25.7154C20.9572 25.6799 21.3952 25.6051 21.8032 25.4237L21.1937 24.0531C21.0135 24.1333 20.7724 24.1893 20.3529 24.2192C19.9272 24.2496 19.3809 24.25 18.6 24.25V25.75ZM22.0526 23.3114C21.8749 23.6158 21.5801 23.8813 21.1937 24.0531L21.8032 25.4237C22.4518 25.1353 22.9984 24.6665 23.348 24.0677L22.0526 23.3114ZM18.6 4.15007C19.3809 4.15007 19.9272 4.15052 20.3529 4.18087C20.7724 4.21078 21.0135 4.2668 21.1937 4.34696L21.8032 2.97636C21.3952 2.79493 20.9572 2.72015 20.4595 2.68467C19.9681 2.64963 19.3593 2.65007 18.6 2.65007V4.15007ZM23.75 7.24007C23.75 6.58217 23.7508 6.03709 23.7093 5.59385C23.6666 5.13833 23.5747 4.72072 23.348 4.33235L22.0526 5.08864C22.1256 5.21366 22.1835 5.38878 22.2158 5.73366C22.2492 6.09083 22.25 6.55385 22.25 7.24007H23.75ZM21.1937 4.34696C21.5801 4.51875 21.8749 4.78428 22.0526 5.08864L23.348 4.33235C22.9984 3.73353 22.4518 3.26476 21.8032 2.97636L21.1937 4.34696ZM5.4 2.65007C4.64074 2.65007 4.03191 2.64963 3.54046 2.68467C3.04282 2.72015 2.60479 2.79493 2.19679 2.97636L2.80626 4.34696C2.98652 4.2668 3.22765 4.21078 3.64715 4.18087C4.07284 4.15052 4.61911 4.15007 5.4 4.15007V2.65007ZM1.75 7.24007C1.75 6.55385 1.75076 6.09083 1.7842 5.73366C1.81649 5.38878 1.87444 5.21366 1.94743 5.08864L0.652038 4.33235C0.425296 4.72072 0.333377 5.13833 0.290732 5.59385C0.249236 6.03709 0.25 6.58217 0.25 7.24007H1.75ZM2.19679 2.97636C1.54822 3.26476 1.00165 3.73353 0.652038 4.33235L1.94743 5.08864C2.12512 4.78428 2.41994 4.51875 2.80626 4.34696L2.19679 2.97636ZM5.4 4.15007H6.5V2.65007H5.4V4.15007ZM18.6 2.65007H17.5V4.15007H18.6V2.65007ZM7.1875 1.75H16.8125V0.25H7.1875V1.75ZM16.75 1.6V4H18.25V1.6H16.75ZM16.8125 3.85H7.1875V5.35H16.8125V3.85ZM7.25 4V1.6H5.75V4H7.25ZM7.1875 3.85C7.17344 3.85 7.17819 3.84495 7.19451 3.8592C7.21234 3.87475 7.25 3.92272 7.25 4H5.75C5.75 4.83822 6.49274 5.35 7.1875 5.35V3.85ZM16.75 4C16.75 3.92272 16.7877 3.87475 16.8055 3.8592C16.8218 3.84495 16.8266 3.85 16.8125 3.85V5.35C17.5073 5.35 18.25 4.83822 18.25 4H16.75ZM16.8125 1.75C16.8266 1.75 16.8218 1.75505 16.8055 1.7408C16.7877 1.72525 16.75 1.67728 16.75 1.6H18.25C18.25 0.76178 17.5073 0.25 16.8125 0.25V1.75ZM7.1875 0.25C6.49274 0.25 5.75 0.76178 5.75 1.6H7.25C7.25 1.67728 7.21234 1.72525 7.19451 1.7408C7.17819 1.75505 7.17344 1.75 7.1875 1.75V0.25ZM6.5 10.15H17.5V8.65H6.5V10.15ZM6.5 14.95H12V13.45H6.5V14.95ZM6.5 19.75H17.5V18.25H6.5V19.75Z" fill="white"/>
</svg>
