<svg width="49" height="49" viewBox="0 0 49 49" fill="none" xmlns="http://www.w3.org/2000/svg">
<path d="M39.457 11.7963C40.8334 13.8561 40.8334 16.7235 40.8334 22.4584C40.8334 28.1933 40.8334 31.0607 39.457 33.1206C38.8612 34.0123 38.0956 34.7779 37.2038 35.3738C35.4044 36.5761 32.9887 36.7281 28.5834 36.7473V36.7501L26.3261 41.2645C25.5737 42.7693 23.4263 42.7693 22.6739 41.2645L20.4167 36.7501V36.7473C16.0114 36.7281 13.5956 36.5761 11.7962 35.3738C10.9045 34.7779 10.1388 34.0123 9.54302 33.1206C8.16669 31.0607 8.16669 28.1933 8.16669 22.4584C8.16669 16.7235 8.16669 13.8561 9.54302 11.7963C10.1388 10.9045 10.9045 10.1389 11.7962 9.54308C13.856 8.16675 16.7235 8.16675 22.4584 8.16675H26.5417C32.2766 8.16675 35.144 8.16675 37.2038 9.54308C38.0956 10.1389 38.8612 10.9045 39.457 11.7963Z" stroke="#578AD6" stroke-width="2" stroke-linecap="round" stroke-linejoin="round"/>
<path d="M18.375 18.375L30.625 18.375" stroke="#578AD6" stroke-linecap="round" stroke-linejoin="round"/>
<path d="M18.375 26.5417H24.5" stroke="#578AD6" stroke-linecap="round" stroke-linejoin="round"/>
</svg>
