<svg width="35" height="37" viewBox="0 0 35 37" fill="none" xmlns="http://www.w3.org/2000/svg">
<path d="M32.457 4.79626C33.8334 6.85608 33.8334 9.72353 33.8334 15.4584C33.8334 21.1933 33.8334 24.0607 32.457 26.1206C31.8612 27.0123 31.0956 27.7779 30.2038 28.3738C28.4044 29.5761 25.9887 29.7281 21.5834 29.7473V29.7501L19.3261 34.2645C18.5737 35.7693 16.4263 35.7693 15.6739 34.2645L13.4167 29.7501V29.7473C9.01138 29.7281 6.59562 29.5761 4.7962 28.3738C3.90448 27.7779 3.13885 27.0123 2.54302 26.1206C1.16669 24.0607 1.16669 21.1933 1.16669 15.4584C1.16669 9.72353 1.16669 6.85608 2.54302 4.79626C3.13885 3.90454 3.90448 3.13891 4.7962 2.54308C6.85602 1.16675 9.72347 1.16675 15.4584 1.16675H19.5417C25.2766 1.16675 28.144 1.16675 30.2038 2.54308C31.0956 3.13891 31.8612 3.90454 32.457 4.79626Z" stroke="#578AD6" stroke-width="2" stroke-linecap="round" stroke-linejoin="round"/>
<path d="M11.375 11.375L23.625 11.375" stroke="#578AD6" stroke-linecap="round" stroke-linejoin="round"/>
<path d="M11.375 19.5417H17.5" stroke="#578AD6" stroke-linecap="round" stroke-linejoin="round"/>
</svg>
