<svg width="34" height="34" viewBox="0 0 34 34" fill="none" xmlns="http://www.w3.org/2000/svg">
<path fill-rule="evenodd" clip-rule="evenodd" d="M6.83824 8.25482C5.66667 9.4264 5.66667 11.312 5.66667 15.0833V18.4166V24.0833V27.3357C5.66667 28.2266 6.74381 28.6728 7.37378 28.0428L11.1869 24.2297C11.2591 24.1574 11.2953 24.1213 11.3412 24.1023C11.3872 24.0833 11.4383 24.0833 11.5404 24.0833H20.3333C24.1046 24.0833 25.9902 24.0833 27.1618 22.9117C28.3333 21.7401 28.3333 19.8545 28.3333 16.0833V15.0833C28.3333 11.312 28.3333 9.4264 27.1618 8.25482C25.9902 7.08325 24.1046 7.08325 20.3333 7.08325H13.6667C9.89544 7.08325 8.00982 7.08325 6.83824 8.25482Z" fill="white" fill-opacity="0.83"/>
<path d="M12.0417 13.4583L21.9583 13.4583" stroke="#001427" stroke-linecap="round" stroke-linejoin="round"/>
<path d="M12.0417 17.7083L19.125 17.7083" stroke="#222222" stroke-linecap="round" stroke-linejoin="round"/>
</svg>
