<svg width="33" height="28" viewBox="0 0 33 28" fill="none" xmlns="http://www.w3.org/2000/svg">
<path d="M13.9346 7.73228C14.9823 5.44445 15.5062 4.30054 16.4071 4.30054C17.308 4.30054 17.8318 5.44445 18.8796 7.73229L18.9284 7.83882C19.5203 9.13133 19.8163 9.77759 20.4195 10.1704C21.0227 10.5632 21.8145 10.6253 23.3982 10.7495L23.6845 10.772C26.2763 10.9753 27.5722 11.0769 27.8495 11.7991C28.1268 12.5212 27.1644 13.2881 25.2396 14.8219L24.5972 15.3339C23.6228 16.1103 23.1357 16.4985 22.9086 17.0073C22.8662 17.1022 22.831 17.1995 22.8032 17.2984C22.6539 17.8289 22.7966 18.3921 23.0819 19.5184L23.1707 19.869C23.6951 21.9391 23.9573 22.9741 23.4995 23.4206C23.3284 23.5874 23.1061 23.7075 22.8591 23.7665C22.1982 23.9245 21.2598 23.2548 19.3831 21.9153C18.1507 21.0358 17.5346 20.596 16.8271 20.4971C16.5489 20.4582 16.2653 20.4582 15.987 20.4971C15.2796 20.596 14.6634 21.0358 13.4311 21.9153C11.5544 23.2548 10.616 23.9245 9.95505 23.7665C9.70807 23.7075 9.48575 23.5874 9.31469 23.4206C8.8569 22.9741 9.11909 21.9391 9.64347 19.869L9.73228 19.5184C10.0176 18.3921 10.1603 17.8289 10.011 17.2984C9.98317 17.1995 9.94796 17.1022 9.9056 17.0073C9.67853 16.4985 9.19134 16.1103 8.21697 15.3339L7.57456 14.8219C5.64975 13.2881 4.68734 12.5212 4.96464 11.7991C5.24194 11.0769 6.53786 10.9753 9.1297 10.772L9.416 10.7495C10.9996 10.6253 11.7915 10.5632 12.3947 10.1704C12.9979 9.77759 13.2938 9.13133 13.8858 7.83882L13.9346 7.73228Z" stroke="#C1965D" stroke-width="2"/>
</svg>
