<svg width="39" height="37" viewBox="0 0 39 37" fill="none" xmlns="http://www.w3.org/2000/svg">
<path d="M15.7102 7.53119C17.3162 3.52749 18.1192 1.52563 19.5 1.52563C20.8809 1.52563 21.6839 3.52749 23.2898 7.5312L23.3646 7.71763C24.2719 9.97953 24.7256 11.1105 25.6501 11.7979C26.5747 12.4853 27.7884 12.594 30.2158 12.8114L30.6546 12.8507C34.6273 13.2065 36.6137 13.3844 37.0387 14.6481C37.4637 15.9119 35.9886 17.2539 33.0383 19.9381L32.0536 20.8339C30.5601 22.1927 29.8134 22.8721 29.4653 23.7625C29.4004 23.9286 29.3464 24.0988 29.3037 24.2719C29.075 25.2002 29.2936 26.1858 29.731 28.1569L29.8671 28.7705C30.6709 32.3931 31.0727 34.2044 30.3711 34.9857C30.1089 35.2776 29.7681 35.4878 29.3895 35.5911C28.3764 35.8676 26.9381 34.6955 24.0615 32.3515C22.1726 30.8123 21.2282 30.0428 20.1439 29.8696C19.7173 29.8015 19.2827 29.8015 18.8562 29.8696C17.7719 30.0428 16.8274 30.8123 14.9385 32.3515C12.0619 34.6955 10.6236 35.8676 9.61053 35.5911C9.23197 35.4878 8.8912 35.2776 8.629 34.9857C7.92732 34.2044 8.32919 32.3931 9.13295 28.7705L9.26908 28.1569C9.70642 26.1858 9.92509 25.2002 9.69631 24.2719C9.65364 24.0988 9.59966 23.9286 9.53474 23.7625C9.18669 22.8721 8.43994 22.1927 6.94645 20.8339L5.96179 19.9381C3.01149 17.2539 1.53634 15.9119 1.96137 14.6481C2.38641 13.3844 4.37276 13.2065 8.34546 12.8507L8.78429 12.8114C11.2117 12.594 12.4253 12.4853 13.3499 11.7979C14.2745 11.1105 14.7281 9.97953 15.6354 7.71763L15.7102 7.53119Z" stroke="#6D6D6D" stroke-width="2"/>
</svg>
