<svg width="595" height="362" viewBox="0 0 595 362" fill="none" xmlns="http://www.w3.org/2000/svg">
<g clip-path="url(#clip0_232_2002)">
<path d="M549.568 282.957H479.892C487.352 276.115 492.113 265.724 492.113 254.124V245.597C492.113 220.869 510.088 200.84 532.268 200.84C555.004 200.84 573.435 180.296 573.435 154.953C573.435 129.61 555.004 109.066 532.268 109.066H525.523C503.342 109.066 485.368 89.0177 485.368 64.3093C485.368 43.6859 470.37 26.9492 451.86 26.9492H189.981C169.388 26.9492 152.683 45.5698 152.683 68.5133C152.683 84.2188 160.48 97.8818 172.007 104.941H126.019C106.835 104.941 91.2806 120.984 91.2806 140.774C91.2806 164.491 72.6515 183.707 49.6577 183.707H42.6743C19.1052 183.727 0 203.418 0 227.73C0 252.042 19.1052 271.753 42.6743 271.753C65.668 271.753 84.2971 290.968 84.2971 314.685V322.875C84.2971 342.666 99.8511 358.708 119.036 358.708H280.666C281.877 358.827 283.126 358.887 284.376 358.887H549.588C570.558 358.887 587.56 341.892 587.56 320.932C587.54 299.951 570.538 282.957 549.568 282.957Z" fill="#B9CEED"/>
<path d="M149.112 237.01H150.858C150.58 236.812 150.223 236.693 149.826 236.693H106.08C103.799 236.693 101.934 238.339 101.934 240.361V242.701C101.934 244.724 103.799 246.37 106.08 246.37L149.35 246.35L149.112 237.01Z" fill="#86B1F2"/>
<path d="M124.273 236.693C122.091 236.693 120.305 238.259 120.305 240.203V242.84C120.305 244.784 122.071 246.35 124.273 246.35H151.512V245.755H151.393L144.469 245.18L143.061 240.322C143.061 240.322 145.759 237.625 145.938 237.565C146.116 237.506 151.393 237.288 151.393 237.288H151.512V236.693H124.273Z" fill="#466EB6"/>
<path d="M149.747 241.511C149.747 238.676 151.413 237.288 151.413 237.288H124.829C122.825 237.288 121.178 238.735 121.178 240.52V242.543C121.178 244.327 122.805 245.775 124.829 245.775H151.393C151.413 245.775 149.747 245.101 149.747 241.511Z" fill="#FAE0B2"/>
<path d="M121.198 240.52V242.543C121.198 242.8 121.238 243.078 121.297 243.316C122.19 241.373 123.916 239.509 127.19 238.894C134.828 237.486 151.413 237.288 151.413 237.288H124.829C122.825 237.288 121.198 238.735 121.198 240.52Z" fill="#DAEEF7"/>
<path d="M148.398 256.344H150.382C150.064 256.106 149.647 255.948 149.211 255.948H99.6723C97.0734 255.948 94.9902 258.01 94.9902 260.548V263.463C94.9902 266.002 97.0932 268.064 99.6723 268.064L148.636 268.044L148.398 256.344Z" fill="#50BFA5"/>
<path d="M120.285 255.968C117.806 255.968 115.802 257.931 115.802 260.37V263.662C115.802 266.081 117.806 268.064 120.285 268.064H151.116V267.33H150.977L143.14 266.597L141.553 260.509C141.553 260.509 144.608 257.138 144.807 257.058C145.005 256.979 150.977 256.701 150.977 256.701H151.096V255.968H120.285Z" fill="#3C8F7C"/>
<path d="M149.112 261.996C149.112 258.427 150.997 256.702 150.997 256.702H120.901C118.619 256.702 116.774 258.506 116.774 260.747V263.285C116.774 265.506 118.619 267.331 120.901 267.331H150.977C150.997 267.311 149.112 266.478 149.112 261.996Z" fill="#FAE0B2"/>
<path d="M116.793 260.747V263.285C116.793 263.622 116.833 263.94 116.912 264.257C117.924 261.818 119.869 259.478 123.578 258.724C132.228 256.959 150.996 256.702 150.996 256.702H120.9C118.639 256.702 116.793 258.506 116.793 260.747Z" fill="#DAEEF7"/>
<path d="M93.3633 246.648H91.3794C91.6968 246.45 92.1134 246.331 92.5499 246.331H142.089C144.688 246.331 146.791 247.957 146.791 249.979V252.299C146.791 254.322 144.688 255.948 142.089 255.948L93.1054 255.928L93.3633 246.648Z" fill="#8BBF9F"/>
<path d="M121.476 246.35C123.956 246.35 125.959 247.917 125.959 249.84V252.458C125.959 254.381 123.956 255.948 121.476 255.948H90.6455V255.353H90.7645L98.6011 254.778L100.188 249.939C100.188 249.939 97.133 247.262 96.9346 247.203C96.7362 247.143 90.7645 246.925 90.7645 246.925H90.6455V246.35H121.476Z" fill="#B75742"/>
<path d="M92.6494 251.129C92.6494 248.313 90.7646 246.925 90.7646 246.925H120.861C123.142 246.925 124.987 248.353 124.987 250.138V252.16C124.987 253.925 123.142 255.373 120.861 255.373H90.7646C90.7646 255.353 92.6494 254.679 92.6494 251.129Z" fill="#FAE0B2"/>
<path d="M124.967 250.138V252.161C124.967 252.418 124.928 252.676 124.848 252.934C123.837 251.01 121.892 249.146 118.182 248.552C109.532 247.163 90.7446 246.945 90.7446 246.945H120.841C123.122 246.945 124.967 248.373 124.967 250.138Z" fill="#DAEEF7"/>
<path d="M275.203 251.793L270.563 250.914L250.394 357.292L255.033 358.171L275.203 251.793Z" fill="#184655"/>
<path d="M409.146 358.688H414.72L393.909 250.911L389.267 251.803L409.146 358.688Z" fill="#184655"/>
<path d="M306.854 358.688H312.429L291.617 250.911L286.975 251.803L306.854 358.688Z" fill="#184655"/>
<path d="M358.238 358.689L353.695 358.748L373.653 251.407L378.296 252.28L358.238 358.689Z" fill="#184655"/>
<path d="M337.962 105.774C356.353 107.738 380.16 109.82 404.047 150.353C430.155 194.653 416.407 260.827 395.794 279.209C375.181 297.592 307.866 320.297 251.265 286.308C251.265 286.308 217.101 265.705 234.639 231.518C261.621 178.908 257.812 167.942 269.874 147.319C281.936 126.695 298.919 101.59 337.962 105.774Z" fill="#75A0D3"/>
<path d="M404.066 150.352C387.759 122.689 371.49 112.933 356.968 108.907C362.583 114.717 368.296 122.193 373.99 131.871C400.099 176.171 386.35 242.345 365.737 260.727C347.465 277.028 292.451 296.739 240.75 277.265C246.066 283.135 251.284 286.288 251.284 286.288C307.886 320.277 375.2 297.572 395.813 279.189C416.426 260.826 430.175 194.653 404.066 150.352Z" fill="#578AD6"/>
<path d="M366.193 0.000140659C347.148 -0.11884 331.673 9.28067 331.594 20.9606C331.554 26.8105 335.383 32.125 341.593 35.9919L333.756 53.1847L350.104 39.8786C354.845 41.4254 360.222 42.2979 365.935 42.3376C384.981 42.4566 400.456 33.0571 400.535 21.3771C400.614 9.67727 385.239 0.119122 366.193 0.000140659Z" fill="#578AD6"/>
<path d="M353 23.1814C354.687 29.5866 361.253 33.4138 367.681 31.7282C374.089 30.0427 377.918 23.459 376.232 17.0539C374.546 10.6487 367.979 6.82152 361.551 8.50709C355.143 10.1927 351.314 16.7763 353 23.1814Z" fill="#244D89"/>
<path d="M371.312 20.3257C372.224 23.7563 370.161 27.2662 366.729 28.1784C363.297 29.0906 359.785 27.0283 358.873 23.5977L371.312 20.3257Z" fill="#EFEFEF"/>
<path d="M169.705 165.959L222.26 165.562C223.45 165.562 224.422 164.571 224.422 163.381L224.164 128.262C224.164 127.072 223.172 126.1 221.982 126.1L169.428 126.497C168.237 126.497 167.265 127.488 167.265 128.678L167.523 163.797C167.523 165.007 168.495 165.959 169.705 165.959Z" fill="#244D89"/>
<path d="M222.537 145.633L239.52 162.925L218.569 159.018L222.537 145.633Z" fill="#244D89"/>
<path d="M207.222 143.194L202.123 143.095C202.123 143.095 195.695 138.296 195.497 136.59C195.298 134.885 196.35 131.296 195.358 130.839C194.366 130.383 192.243 130.026 190.914 132.287C189.942 133.913 190.755 139.882 190.16 140.279C189.783 140.536 186.847 140.556 184.704 140.536C183.295 140.536 182.006 141.31 181.331 142.559C180.875 143.392 181.093 144.443 181.827 145.058L182.958 146.01L182.065 147.199C181.391 148.092 181.569 149.341 182.462 150.015L183.355 150.709L182.74 151.403C181.946 152.316 182.105 153.704 183.097 154.378L183.891 154.933L183.772 155.151C183.276 156.063 183.553 157.214 184.426 157.789L185.22 158.324L198.83 158.562C200.099 158.582 201.369 158.344 202.54 157.868L207.341 157.154C207.856 157.075 208.233 156.639 208.233 156.123L208.273 144.225C208.273 143.67 207.797 143.214 207.222 143.194Z" fill="white"/>
<path d="M278.92 173.118L274.179 187.296L288.602 181.625L278.92 173.118Z" fill="#F79C8D"/>
<path d="M293.76 130.919C292.808 130.959 290.17 131.831 286.321 139.089C281.401 148.35 274.219 176.29 274.219 176.29L295.665 184.242L298.423 178.412L302.966 133.497C302.966 133.497 294.038 130.919 293.76 130.919Z" fill="#042A44"/>
<path d="M322.111 126.894C315.98 126.894 300.803 128.678 293.76 130.919C293.76 130.919 288.582 175.2 298.423 208.872C300.625 216.407 296.597 240.104 296.597 240.104L360.143 239.271C360.143 239.271 352.624 181.982 355.461 172.741C358.298 163.48 358.357 131.236 358.357 131.236C358.357 131.236 357.921 131.177 344.073 128.777C337.625 127.667 328.658 126.894 322.111 126.894Z" fill="#07345A"/>
<path d="M329.51 322.3C329.51 322.3 328.102 338.461 325.523 342.943C322.944 347.425 325.662 355.02 325.801 356.071C325.939 357.122 331.236 358.609 339.668 357.717C348.1 356.824 347.961 354.881 347.286 351.748C346.612 348.614 342.108 344.589 341.851 341.595C341.573 338.62 344.43 327.872 344.43 327.872L329.51 322.3Z" fill="#F7A491"/>
<path d="M303.779 226.758C303.779 226.758 259.915 224.339 250.134 230.248C240.333 236.158 251.899 248.294 251.899 248.294C251.899 248.294 287.61 263.761 347.386 267.192C361.551 268.005 362.761 230.427 360.123 227.313C357.464 224.2 303.779 226.758 303.779 226.758Z" fill="#7DAA8D"/>
<path d="M340.72 358.966C349.41 358.054 348.338 353.79 347.624 350.578C347.188 348.555 344.688 346.176 343.2 343.915C342.426 344.53 341.157 345.62 337.387 346.731C333.479 347.881 328.102 345.601 324.69 344.173C323.48 348.694 323.42 354.465 323.519 355.337C323.678 356.408 332.03 359.878 340.72 358.966Z" fill="#355389"/>
<path d="M335.938 258.011C334.193 271.218 325.503 336.974 325.503 336.974L345.64 339.453C345.64 339.453 370.399 253.628 369.13 240.501C367.86 227.373 358.595 226.262 358.595 226.262C358.595 226.262 340.561 223.05 335.938 258.011Z" fill="#8BBF9F"/>
<path d="M316.655 71.0121C316.655 71.0121 323.341 63.9724 328.717 72.539C328.717 72.539 332.864 70.2189 335.76 74.3634C335.76 74.3634 343.24 72.1027 345.065 83.3068C345.065 83.3068 348.914 82.5731 349.429 87.1539C349.945 91.7346 347.604 94.7885 347.604 94.7885C347.604 94.7885 349.767 96.4145 348.795 100.619C347.961 104.188 345.005 104.743 345.005 104.743C345.005 104.743 344.212 110.772 341.593 112.596C338.974 114.42 335.423 113.548 335.423 113.548C335.423 113.548 334.471 116.82 331.415 116.522C328.36 116.225 324.591 113.33 321.158 114.638C317.746 115.947 308.878 114.559 308.878 114.559C308.878 114.559 298.919 110.117 301.894 99.9443C301.894 99.9443 296.657 95.2247 301.24 89.5533C301.24 89.5533 297.887 80.6892 304.513 75.454C311.12 70.2189 316.655 71.0121 316.655 71.0121Z" fill="#07345A"/>
<path d="M317.766 118.882L316.556 127.865C316.556 127.865 313.838 140.794 317.329 143.293C320.821 145.792 332.169 127.488 332.169 127.488L330.979 104.743L317.766 118.882Z" fill="#F7A491"/>
<path d="M331.375 112.1C328.499 119.854 321.634 124.633 316.754 126.477L317.786 118.862L330.999 104.723L331.375 112.1Z" fill="#F47458"/>
<path d="M322.924 80.828C315.841 78.3888 308.302 83.0886 307.211 90.3861C306.735 93.5589 306.319 97.5448 306.239 101.907C306.041 112.398 311.477 122.59 316.238 122.59C321 122.59 334.173 115.808 334.649 100.916C334.947 91.7346 330.344 83.3861 322.924 80.828Z" fill="#F7A491"/>
<path d="M331.138 102.106C331.138 104.426 332.665 106.29 334.57 106.29C336.474 106.29 338.002 104.406 338.002 102.106C338.002 99.7854 336.474 97.9214 334.57 97.9214C332.665 97.9214 331.138 99.7854 331.138 102.106Z" fill="#F7A491"/>
<path d="M302.272 75.6127C297.351 79.4994 295.625 85.4286 298.423 88.8394C301.22 92.2502 307.469 91.8536 312.39 87.9471C317.31 84.0604 319.036 78.1311 316.238 74.7203C313.461 71.3294 307.192 71.726 302.272 75.6127Z" fill="#07345A"/>
<path d="M359.051 136.154C353.12 133.933 350.203 187.257 349.41 209.209C338.895 210.22 320.543 209.209 315.98 208.872C313.838 208.713 308.878 206.908 306.755 206.631C304.573 206.353 302.589 206.194 301.498 206.393C301.101 206.452 290.13 210.934 289.197 211.906C288.027 213.115 284.892 216.189 285.428 217.517C285.964 218.846 291.479 213.829 291.479 213.829L294.177 212.322C290.824 215.594 284.416 219.897 285.349 221.464C286.241 222.991 292.015 218.628 296.141 215.653C292.61 218.826 288.225 224.518 289.237 225.41C290.15 226.203 295.129 219.619 300.466 217.736C302.45 217.042 304.414 218.985 305.962 219.223C307.112 219.401 308.858 219.758 309.989 219.441L315.762 217.815C317.726 217.993 317.786 219.144 319.77 219.58C322.071 220.076 325.86 220.591 328.797 221.305C345.7 225.43 351.354 227.333 356.532 227.333C372.185 227.234 373.078 141.389 359.051 136.154Z" fill="#F7A491"/>
<path d="M370.32 186.205C371.431 163.718 371.272 136.015 358.615 131.295C353.615 129.431 344.826 140.655 346.414 186.661C353.159 187.217 363.079 187.673 370.32 186.205Z" fill="#07345A"/>
<path d="M299.553 176.548H300.843L320.226 224.002L318.877 223.804L299.553 176.548Z" fill="#F79C8D"/>
<path d="M270.648 336.122C270.648 336.122 272.413 341.734 269.259 345.442C266.105 349.15 253.05 352.799 251.324 354.802C249.618 356.804 249.737 358.53 249.737 358.53L286.42 357.518L286.023 346.473L284.337 338.541L270.648 336.122Z" fill="#F7A491"/>
<path d="M266.977 347.306C266.977 347.306 276.401 351.113 280.964 348.852C285.507 346.612 285.388 345.977 286.698 346.81C288.007 347.643 288.483 357.994 288.483 357.994L247.237 359.204C244.361 359.144 242.912 357.022 245.253 355.238C246.86 354.008 248.705 353.175 249.757 352.58C252.971 350.716 266.977 347.306 266.977 347.306Z" fill="#355389"/>
<path d="M272.036 237.109C269.199 231.16 262.751 223.427 251.403 228.087C240.591 232.529 237.675 243.455 241.087 254.639C244.499 265.824 266.977 331.58 267.751 340.623L285.706 340.742C285.706 340.742 282.452 288.668 281.638 276.076C280.885 263.999 276.937 247.401 272.036 237.109Z" fill="#8BBF9F"/>
<path d="M242.912 176.548H302.906C304.493 176.548 305.922 177.5 306.517 178.968L324.987 224.002H358.059C358.992 224.002 359.726 224.756 359.726 225.668C359.726 226.6 358.972 227.333 358.059 227.333H263.942C261.363 227.333 259.002 225.807 257.95 223.447L239.361 182.041C238.171 179.463 240.075 176.548 242.912 176.548Z" fill="#244D89"/>
<path d="M275.211 202.764C275.607 204.786 277.373 206.135 279.159 205.778C280.924 205.421 282.035 203.497 281.638 201.475C281.242 199.452 279.476 198.104 277.69 198.461C275.905 198.818 274.794 200.741 275.211 202.764Z" fill="white"/>
<path opacity="0.3" d="M443.864 112.853C460.223 112.853 473.484 99.5715 473.484 83.1874C473.484 66.8034 460.223 53.5215 443.864 53.5215C427.505 53.5215 414.244 66.8034 414.244 83.1874C414.244 99.5715 427.505 112.853 443.864 112.853Z" fill="#9BC1F9"/>
<path d="M422.914 82.5928H412.002V83.4256H422.914V82.5928Z" fill="#184655"/>
<path d="M475.766 82.5928H464.854V83.4256H475.766V82.5928Z" fill="#184655"/>
<path d="M444.221 51.499H443.388V62.4453H444.221V51.499Z" fill="#184655"/>
<path d="M444.221 104.228H443.388V115.174H444.221V104.228Z" fill="#184655"/>
<path d="M444.757 83.1876C444.757 83.6833 444.36 84.0998 443.844 84.0998C443.348 84.0998 442.932 83.7032 442.932 83.1876C442.932 82.6918 443.329 82.2754 443.844 82.2754C444.36 82.2754 444.757 82.6918 444.757 83.1876Z" fill="#184655"/>
<path d="M443.864 83.584C443.765 83.584 443.666 83.5444 443.587 83.4651L427.338 67.2043C427.18 67.0457 427.18 66.7879 427.338 66.6292C427.497 66.4706 427.755 66.4706 427.914 66.6292L444.162 82.89C444.321 83.0486 444.321 83.3064 444.162 83.4651C444.063 83.5444 443.964 83.584 443.864 83.584Z" fill="#184655"/>
<path d="M449.082 99.6268C449.023 99.5871 448.963 99.5276 448.943 99.4483L443.686 83.5643C443.626 83.4057 443.726 83.247 443.864 83.1875C444.023 83.128 444.182 83.2272 444.241 83.366L449.499 99.25C449.558 99.4086 449.459 99.5673 449.32 99.6268C449.221 99.6664 449.142 99.6664 449.082 99.6268Z" fill="#184655"/>
<path d="M491.062 150.095L493.7 145.811L491.578 144.959C491.121 144.78 490.883 144.245 491.082 143.769C491.26 143.313 491.796 143.075 492.272 143.273L494.712 144.265L497.073 140.418L494.811 139.505C494.355 139.327 494.117 138.792 494.315 138.316C494.494 137.86 495.03 137.622 495.506 137.82L498.105 138.871L500.843 134.449C501.081 134.072 501.537 133.913 501.954 134.092L502.35 134.25C502.866 134.469 503.084 135.083 502.787 135.559L500.228 139.724L503.997 141.25L506.735 136.828C506.973 136.452 507.429 136.293 507.846 136.471L508.282 136.65C508.798 136.868 509.016 137.483 508.719 137.959L506.16 142.123L508.282 142.976C508.739 143.154 508.977 143.69 508.778 144.166C508.6 144.622 508.064 144.86 507.588 144.661L505.148 143.67L502.827 147.537L505.088 148.449C505.544 148.627 505.783 149.163 505.584 149.639C505.406 150.095 504.87 150.333 504.394 150.134L501.795 149.083L498.998 153.644C498.759 154.021 498.303 154.18 497.887 154.001L497.43 153.823C496.914 153.605 496.696 152.99 496.994 152.514L499.632 148.231L495.863 146.704L493.066 151.265C492.828 151.642 492.371 151.8 491.955 151.622L491.498 151.443C490.982 151.205 490.764 150.591 491.062 150.095ZM500.644 146.664L503.005 142.817L499.236 141.29L496.875 145.137L500.644 146.664Z" fill="#07345A"/>
<path d="M259.121 33.3542L261.819 27.2465L258.327 21.5552C257.93 20.9009 258.446 20.0878 259.2 20.1671L265.846 20.8612L270.171 15.7847C270.667 15.2096 271.6 15.4476 271.758 16.1813L273.167 22.7054L279.337 25.2437C280.031 25.5411 280.111 26.493 279.456 26.8896L273.683 30.2409L273.167 36.884C273.108 37.6375 272.215 37.9945 271.639 37.4987L266.68 33.0369L260.192 34.6035C259.438 34.782 258.823 34.0483 259.121 33.3542Z" fill="#244D89"/>
<path d="M454.954 33.3345L456.978 28.7537L454.359 24.4902C454.062 24.0143 454.458 23.3798 455.014 23.4392L459.994 23.9548L463.247 20.1474C463.624 19.7112 464.319 19.8896 464.438 20.4449L465.489 25.3429L470.112 27.2466C470.647 27.4648 470.687 28.1985 470.191 28.4761L465.866 30.9945L465.489 35.9917C465.449 36.5668 464.775 36.8246 464.338 36.4478L460.609 33.1164L455.748 34.2864C455.173 34.4252 454.716 33.8699 454.954 33.3345Z" fill="#F7CC7F"/>
<path d="M434.817 164.035L434.5 160.248L431.187 158.364C430.81 158.146 430.85 157.59 431.246 157.432L434.758 155.964L435.532 152.236C435.611 151.82 436.147 151.681 436.444 151.998L438.924 154.874L442.714 154.457C443.15 154.417 443.448 154.874 443.209 155.25L441.245 158.502L442.813 161.973C442.991 162.369 442.634 162.786 442.218 162.706L438.508 161.834L435.69 164.392C435.373 164.67 434.857 164.471 434.817 164.035Z" fill="#244D89"/>
<path d="M131.534 108.332L133.022 104.981L131.098 101.848C130.88 101.491 131.157 101.035 131.574 101.074L135.224 101.451L137.605 98.655C137.883 98.3377 138.399 98.4765 138.478 98.8731L139.252 102.462L142.644 103.87C143.021 104.029 143.061 104.564 142.704 104.763L139.53 106.607L139.252 110.256C139.212 110.672 138.716 110.87 138.419 110.593L135.681 108.134L132.11 108.987C131.713 109.125 131.376 108.709 131.534 108.332Z" fill="#F7CC7F"/>
<path d="M246.622 102.264L248.11 98.9129L246.186 95.7798C245.968 95.4228 246.245 94.9667 246.662 95.0064L250.312 95.3832L252.693 92.5871C252.971 92.2698 253.487 92.4086 253.566 92.8052L254.34 96.3945L257.732 97.8025C258.109 97.9611 258.149 98.4965 257.792 98.6948L254.617 100.539L254.34 104.188C254.3 104.604 253.804 104.803 253.506 104.525L250.769 102.066L247.198 102.919C246.801 103.057 246.463 102.641 246.622 102.264Z" fill="#50BFA5"/>
<path d="M189.326 47.9095L195.218 47.0568L197.639 56.3968L206.408 56.1985L209.364 62.8813L212.756 61.394L208.788 52.4506L200.496 52.6291L197.956 42.9321L189.108 44.2211L189.326 47.9095Z" fill="#50BFA5"/>
<path d="M176.689 204.112L181.153 200.166L188.295 206.631L195.516 201.673L201.666 205.639L203.67 202.546L195.457 197.231L188.612 201.931L181.172 195.208L174.467 201.138L176.689 204.112Z" fill="#07345A"/>
<path d="M106.656 208.99L110.406 202.922L107.41 201.712C106.755 201.455 106.438 200.701 106.696 200.047C106.954 199.392 107.707 199.075 108.362 199.333L111.834 200.741L115.187 195.287L111.973 193.979C111.318 193.721 111.001 192.967 111.259 192.313C111.517 191.659 112.27 191.341 112.925 191.599L116.595 193.086L120.484 186.84C120.821 186.304 121.476 186.086 122.051 186.324L122.607 186.542C123.341 186.84 123.638 187.732 123.222 188.406L119.611 194.296L124.928 196.457L128.816 190.211C129.154 189.676 129.808 189.457 130.384 189.695L130.999 189.953C131.733 190.251 132.03 191.143 131.614 191.817L128.003 197.707L130.999 198.916C131.653 199.174 131.971 199.928 131.713 200.582C131.455 201.237 130.701 201.554 130.046 201.296L126.575 199.888L123.281 205.361L126.495 206.67C127.15 206.928 127.467 207.681 127.209 208.336C126.952 208.99 126.198 209.307 125.543 209.05L121.873 207.562L117.905 214.007C117.568 214.543 116.913 214.761 116.338 214.523L115.683 214.265C114.949 213.968 114.651 213.075 115.068 212.401L118.817 206.333L113.5 204.171L109.533 210.616C109.195 211.152 108.541 211.37 107.965 211.132L107.311 210.874C106.537 210.557 106.239 209.664 106.656 208.99ZM120.226 204.132L123.579 198.678L118.242 196.517L114.889 201.97L120.226 204.132Z" fill="#50BFA5"/>
<path d="M446.562 285.852C446.185 282.5 445.729 279.05 444.162 276.056C442.257 272.407 438.924 269.789 436.028 266.874C430.592 261.461 426.406 254.798 423.886 247.54C421.942 241.928 420.97 235.959 418.291 230.645C416.665 227.412 414.423 224.517 412.578 221.404C408.193 214.047 405.793 205.341 399.841 199.194C398.69 206.67 400.952 214.582 405.872 220.313C407.34 222.018 409.046 223.565 410.157 225.508C412.181 229.058 412.002 233.381 412.24 237.466C412.677 245.14 414.859 252.716 418.529 259.458C422.438 266.616 428.072 273.002 430.155 280.894C431.723 286.804 431.246 293.447 434.599 298.563C434.956 299.118 435.373 299.673 435.472 300.328C435.532 300.705 435.472 301.061 435.413 301.438C435.333 301.914 435.254 302.39 435.194 302.866C434.441 307.705 433.647 313.872 437.813 317.481C440.69 319.999 444.42 320.039 446.483 316.708C448.566 313.356 448.388 308.438 448.229 304.651C447.951 298.404 447.277 292.098 446.562 285.852Z" fill="#8BBF9F"/>
<path d="M454.062 281.945C452.435 276.333 449.935 270.999 448.665 265.308C447.435 259.775 447.435 254.064 447.435 248.413C447.435 242.206 447.435 236.019 447.416 229.812C447.416 225.945 447.415 222.078 446.761 218.271C445.392 210.081 441.126 202.506 440.412 194.236C440.095 190.667 440.472 187.038 440.075 183.469C439.857 181.426 439.321 179.344 438.389 177.539C437.377 175.596 434.56 175.675 433.647 177.678C431.584 182.16 430.274 186.998 431.108 191.797C431.604 194.673 432.853 197.37 433.786 200.126C437.932 212.46 435.73 226.123 438.944 238.735C439.916 242.543 441.384 246.271 441.543 250.197C441.96 259.597 434.937 268.183 435.571 277.563C436.107 285.257 441.622 291.623 443.963 298.98C445.273 303.104 445.551 307.487 446.939 311.572C448.031 314.745 450.53 318.592 454.439 317.64C458.149 316.728 457.038 313.694 456.859 310.798C456.304 301.002 456.819 291.504 454.062 281.945Z" fill="#7DAA8D"/>
<path d="M462.553 287.082C462.394 284.166 461.898 281.251 462.315 278.356C462.652 275.917 463.624 273.617 464.318 271.257C465.628 266.835 465.945 262.175 466.263 257.574C466.838 249.206 467.413 240.838 467.989 232.469C468.881 219.461 469.774 206.412 472.214 193.602C472.889 190.052 473.643 186.186 472.056 182.933C471.718 182.239 471.064 181.525 470.33 181.744C469.814 181.902 469.556 182.477 469.377 182.993C464.061 197.449 462.037 212.996 456.105 227.214C454.677 230.625 453.03 233.976 452.296 237.585C451.403 241.928 451.899 246.41 452.018 250.832C452.177 257.178 451.562 263.583 449.816 269.69C448.903 272.883 447.673 276.016 447.157 279.288C446.523 283.393 447.058 287.557 447.455 291.682C448.209 299.614 448.467 307.606 448.229 315.558C448.09 320.238 452.038 320.119 454.657 317.243C456.482 315.24 456.482 313.019 457.097 310.521C459.101 302.311 463.069 296.005 462.553 287.082Z" fill="#8BBF9F"/>
<path d="M437.853 299.793C434.361 294.181 427.398 290.988 425.156 284.761C424.581 283.175 424.362 281.47 423.668 279.943C422.12 276.532 418.609 274.608 415.157 273.042C414.681 272.824 414.125 273.181 414.125 273.696C414.105 274.529 414.502 275.342 415.197 275.798C417.855 277.583 419.879 280.319 420.771 283.393C421.843 287.042 421.367 291.048 422.696 294.617C423.807 297.611 426.088 300.051 427.179 303.065C428.171 305.821 428.052 308.815 428.529 311.691C428.985 314.566 430.274 317.64 432.913 318.85C442.495 323.252 440.115 303.422 437.853 299.793Z" fill="#7DAA8D"/>
<path d="M477.69 297.929C477.532 300.645 477.948 303.501 476.897 306C476.222 307.606 474.992 308.895 473.98 310.323C470.449 315.3 469.179 322.379 463.763 325.175C463.406 325.354 463.009 325.532 462.612 325.453C462.057 325.354 461.7 324.818 461.462 324.303C460.132 321.209 461.62 317.719 462.513 314.467C462.672 313.892 462.791 313.257 462.533 312.742C462.235 312.167 461.561 311.909 461.085 311.473C460.152 310.58 460.252 309.093 460.43 307.804C460.886 304.611 461.541 301.439 462.354 298.325C462.831 296.56 463.366 294.776 464.378 293.249C465.509 291.583 467.136 290.334 468.663 289.005C475.409 283.195 480.587 275.58 483.463 267.152C484.098 265.328 484.654 263.404 485.943 261.977C487.233 260.549 489.534 259.815 491.121 260.926C492.252 261.719 487.65 269.096 487.114 269.988C485.586 272.526 485.566 274.727 484.694 277.523C482.591 284.385 478.107 290.552 477.69 297.929Z" fill="#8BBF9F"/>
<path d="M472.354 301.062C473.365 298.464 474.357 295.846 474.695 293.09C475.072 290.016 474.576 286.883 475.091 283.849C475.766 279.942 478.047 276.492 479.178 272.685C479.992 269.928 480.19 267.053 480.686 264.217C482.095 256.146 485.884 248.254 484.793 240.123C484.555 238.359 483.761 236.296 481.995 235.999C480.408 235.721 478.96 237.169 478.543 238.735C478.127 240.302 478.444 241.948 478.543 243.554C478.861 248.036 477.571 252.636 474.972 256.305C472.473 259.835 468.862 262.492 466.6 266.18C463.843 270.721 463.466 276.254 462.057 281.37C459.26 291.543 452.256 300.427 450.967 310.897C450.451 315.062 451.443 320.138 455.292 321.804C466.481 326.623 469.834 307.586 472.354 301.062Z" fill="#7DAA8D"/>
<path d="M452.891 313.991H451.106H427.338C425.592 313.991 424.303 315.617 424.7 317.323L434.004 356.567C434.302 357.796 435.373 358.649 436.643 358.649H451.086H452.871H467.314C468.564 358.649 469.655 357.796 469.953 356.567L479.258 317.323C479.654 315.617 478.365 313.991 476.619 313.991H452.891Z" fill="#244D89"/>
<path d="M196.627 268.044H72.4526V274.45H196.627V268.044Z" fill="#184655"/>
<path d="M155.877 305.226H74.6948V310.838H155.877V305.226Z" fill="#184655"/>
<path d="M184.426 271.257H179.188V358.688H184.426V271.257Z" fill="#184655"/>
<path d="M110.365 271.257H105.128V358.688H110.365V271.257Z" fill="#184655"/>
<path d="M141.95 358.668L170.162 272.011L165.539 270.503L136.832 358.668H141.95Z" fill="#184655"/>
<path d="M62.5729 358.669L86.7173 271.812L82.0154 270.523L57.5337 358.669H62.5729Z" fill="#184655"/>
<path d="M443.864 48.5444C424.759 48.5444 409.265 64.0516 409.265 83.1878C409.265 102.324 424.759 117.831 443.864 117.831C462.97 117.831 478.464 102.324 478.464 83.1878C478.444 64.0516 462.97 48.5444 443.864 48.5444ZM445.709 112.794C429.382 113.825 415.316 101.392 414.284 85.0518C413.252 68.6919 425.672 54.6125 441.999 53.5813C458.327 52.5501 472.393 64.9837 473.425 81.3237C474.437 97.6836 462.037 111.763 445.709 112.794Z" fill="#184655"/>
<path d="M595 358.133H24.6997V362H595V358.133Z" fill="#042A44"/>
<path d="M311.933 110.97L321.158 110.811C321.158 110.811 321 114.321 316.952 114.499C311.993 114.737 311.933 110.97 311.933 110.97Z" fill="white"/>
</g>
<defs>
<clipPath id="clip0_232_2002">
<rect width="595" height="362" fill="white"/>
</clipPath>
</defs>
</svg>
