<svg width="441" height="440" viewBox="0 0 441 440" fill="none" xmlns="http://www.w3.org/2000/svg">
<path d="M421.554 292.317C377.322 394.067 260.554 437.784 169.058 430.32C144.084 428.293 93.82 424.191 54.5673 387.671C-20.7966 317.538 -9.1889 170.924 62.955 84.6055C72.2538 73.4798 136.56 -0.990251 236.773 0.0154634C310.142 0.738321 361.646 41.5326 367.914 46.624C375.83 53.0512 393.265 68.294 409.004 92.494C445.948 149.348 449.199 228.721 421.554 292.317Z" fill="url(#paint0_linear_232_2101)"/>
<g opacity="0.81">
<path d="M155.676 397.555C155.676 397.555 211.861 164.277 330.42 38.0282C338.384 29.5425 353.101 33.0154 356.337 44.1882C377.95 118.878 419.905 345.132 155.676 397.555Z" fill="#578AD6"/>
<path d="M179.802 382.753C179.205 383.302 180.006 384.198 180.666 383.727C205.107 366.441 299.492 281.207 333.514 109.544C333.624 108.994 332.776 108.774 332.619 109.308C320.949 149.065 273.104 295.57 179.802 382.753Z" fill="#91B3FA"/>
</g>
<path d="M173.205 414.103C173.205 414.103 280.785 223.08 418.915 142.953C428.198 137.563 440.702 144.508 440.921 155.226C442.398 226.835 425.528 437.548 173.205 414.103Z" fill="#578AD6"/>
<g opacity="0.34">
<path d="M198.682 407.409C198.007 407.739 198.51 408.729 199.232 408.493C225.589 399.693 331.865 349.376 404.386 206.879C404.622 206.423 403.899 205.999 403.632 206.439C383.385 238.433 304.44 355.08 198.682 407.409Z" fill="#BDD0FB"/>
</g>
<path d="M148.026 357.39C148.34 357.484 150.178 357.987 151.843 357.217C161.833 352.597 132.963 316.753 140.644 276.32C143.769 259.836 151.623 249.7 146.518 233.435C145.592 230.481 142.623 221.414 134.172 213.148C128.863 207.947 125.36 206.957 118.685 202.667C97.7469 189.184 96.6474 176.031 88.2754 176.126C78.9295 176.236 67.8715 192.751 71.4842 206.376C75.4582 221.383 94.7468 223.535 95.972 236.751C96.9301 247.028 85.5109 248.49 85.1182 260.983C84.5841 277.577 104.156 291.217 106.653 292.898C117.742 300.425 120.711 296.67 128.046 302.468C147.963 318.245 136.356 354.184 148.026 357.39Z" fill="#578AD6"/>
<path d="M99.4748 208.968C101.046 209.77 102.538 210.665 103.998 211.608C105.459 212.551 106.889 213.557 108.271 214.61C109.653 215.663 111.004 216.763 112.292 217.91C113.58 219.073 114.837 220.235 116.03 221.477C116.643 222.09 117.193 222.734 117.79 223.363C118.339 224.023 118.92 224.651 119.455 225.327C119.989 225.987 120.538 226.663 121.025 227.354C121.277 227.7 121.544 228.03 121.779 228.391L122.502 229.444C122.989 230.135 123.413 230.874 123.868 231.597C124.308 232.32 124.701 233.074 125.125 233.797C125.502 234.551 125.895 235.29 126.24 236.06L126.743 237.207C126.916 237.584 127.088 237.977 127.214 238.37C128.423 241.481 129.256 244.718 129.664 247.971L129.821 249.197L129.931 250.375L130.151 252.748C130.293 254.32 130.465 255.907 130.607 257.478C131.251 263.78 132.005 270.081 132.884 276.367C134.659 288.938 137 301.447 140.707 313.767C142.482 320.005 143.817 326.275 144.995 332.577C146.157 338.878 147.1 345.18 147.838 351.497L147.445 351.528C146.346 345.243 145.058 338.973 143.675 332.734C142.968 329.623 142.23 326.495 141.413 323.4C140.612 320.304 139.764 317.208 138.775 314.16C136.748 308.031 135.068 301.745 133.654 295.475C132.272 289.19 131.141 282.888 130.167 276.571C129.193 270.254 128.439 263.921 127.748 257.588C127.591 256.001 127.402 254.43 127.261 252.843L127.026 250.47L126.916 249.275L126.774 248.128C126.413 245.08 125.659 242.031 124.559 239.093C124.308 238.354 123.978 237.631 123.68 236.893C123.366 236.17 123.02 235.447 122.675 234.724C122.298 234.017 121.936 233.31 121.544 232.603C121.135 231.911 120.758 231.204 120.303 230.528C118.591 227.778 116.643 225.138 114.428 222.655C113.344 221.398 112.198 220.188 111.02 218.994C109.826 217.815 108.601 216.653 107.328 215.537C104.784 213.321 102.114 211.168 99.2549 209.267L99.4748 208.968Z" fill="#BDD0FB"/>
<path d="M122.879 316.517C124.465 317.067 126.853 317.036 128.125 315.904C133.041 311.536 115.433 295.994 106.857 272.203C96.93 244.656 107.69 229.774 93.2388 217.879C86.2962 212.159 81.5368 213.73 74.7041 206.313C65.1855 195.989 69.7249 187.864 62.1696 179.803C53.4835 170.547 33.9592 166.901 22.43 173.894C6.92684 183.276 10.0369 209.346 21.5661 221.776C29.0585 229.853 41.0589 233.2 40.2107 235.809C39.394 238.291 28.7444 234.363 23.985 238.841C17.7649 244.703 23.0426 263.686 34.8545 269.233C45.7397 274.34 61.0387 267.536 62.3738 270.459C62.8922 271.606 60.5361 272.674 60.7089 274.183C61.0387 276.87 69.3479 279.809 97.7468 282.197C105.977 285.717 110.203 290.023 112.543 293.37C119.486 303.254 116.8 314.459 122.879 316.517Z" fill="#B9CEED"/>
<path d="M40.8391 192.704C42.1271 198.534 43.9962 204.254 46.6037 209.723C49.1954 215.191 52.4939 220.346 56.4522 225.076C58.4313 227.433 60.5518 229.727 62.7665 231.943C63.8975 233.043 64.997 234.143 66.1593 235.227C67.2903 236.327 68.4369 237.411 69.5992 238.496L76.5576 245.017L78.2854 246.667L79.9975 248.348C81.1441 249.464 82.2594 250.596 83.3746 251.727C85.6207 253.99 87.7884 256.3 89.9403 258.641C91.0084 259.82 92.0765 260.983 93.0975 262.193L94.6525 263.984L96.1761 265.791L97.6997 267.598L99.1919 269.437L100.684 271.276L102.145 273.13L103.59 275L104.988 276.886C105.915 278.143 106.857 279.4 107.752 280.688L109.103 282.606L109.779 283.564L110.423 284.538C111.271 285.843 112.15 287.147 112.983 288.451L115.433 292.411C116.234 293.731 116.973 295.098 117.742 296.434C120.727 301.84 123.381 307.403 125.47 313.091L125.125 313.186C122.517 307.67 119.533 302.296 116.282 297.078L115.041 295.13C114.617 294.486 114.24 293.826 113.784 293.181L111.177 289.347C109.37 286.833 107.58 284.303 105.695 281.836C104.768 280.594 103.81 279.368 102.836 278.143L101.391 276.304L99.8987 274.497L98.4222 272.69L96.9143 270.898L95.4064 269.107L93.8671 267.347C89.7361 262.648 85.4794 258.028 81.0342 253.566C76.589 249.103 71.971 244.781 67.3531 240.381C66.2064 239.281 65.0441 238.181 63.9132 237.066C62.7665 235.95 61.667 234.787 60.5518 233.656C58.3528 231.33 56.2166 228.957 54.2531 226.458C53.7662 225.83 53.3107 225.186 52.8238 224.557L52.1169 223.598L51.4572 222.608C51.0174 221.948 50.5619 221.304 50.1535 220.628L48.9441 218.617C48.52 217.957 48.1744 217.25 47.8131 216.558L47.2634 215.521C47.0749 215.176 46.9021 214.83 46.745 214.484C46.101 213.07 45.4256 211.687 44.8601 210.257C42.5669 204.553 41.0747 198.644 40.4778 192.72L40.8391 192.704Z" fill="#B9CEED"/>
<path d="M162.32 369.317C164.189 369.427 166.671 368.689 167.582 367.086C171.116 360.895 147.037 349.439 129.382 326.355C108.946 299.625 114.727 280.343 95.2965 271.873C85.9506 267.803 81.5526 270.93 71.7041 264.99C57.9758 256.725 59.7665 246.589 48.9127 240.177C36.441 232.807 14.702 234.756 5.21479 245.756C-7.5553 260.543 5.21479 287.729 21.8175 297.66C32.5927 304.103 46.3838 304.119 46.4466 307.183C46.5095 310.106 33.9278 309.085 30.5979 315.339C26.2312 323.542 38.6872 342.415 53.0751 344.835C66.3164 347.066 79.8248 335.123 82.2908 337.873C83.2647 338.957 81.1756 340.812 81.9138 342.383C83.249 345.196 93.0032 345.856 123.554 339.869C133.434 341.189 139.434 344.552 143.11 347.459C153.916 356.039 155.204 368.925 162.32 369.317Z" fill="#578AD6"/>
<path d="M31.3047 260.496C34.776 266.405 38.8285 271.999 43.5407 277.106C48.2372 282.213 53.5778 286.786 59.4366 290.699C62.3739 292.648 65.4211 294.47 68.5469 296.215C70.1333 297.063 71.6883 297.928 73.2905 298.745C74.8769 299.578 76.4791 300.41 78.0812 301.228L87.7413 306.178L90.1602 307.435L92.5634 308.723C94.1656 309.572 95.752 310.468 97.3385 311.348C100.511 313.108 103.637 314.962 106.731 316.832C108.271 317.775 109.826 318.718 111.334 319.708L113.611 321.169L115.873 322.662L118.135 324.155L120.365 325.679L122.596 327.203L124.795 328.775L126.978 330.346L129.13 331.965C130.56 333.049 132.005 334.118 133.403 335.233L135.523 336.899L136.575 337.732L137.612 338.58C138.979 339.728 140.361 340.875 141.712 342.022L145.717 345.558C147.052 346.752 148.309 347.993 149.613 349.203C154.717 354.138 159.524 359.323 163.796 364.839L163.482 365.043C158.739 359.873 153.665 354.986 148.34 350.335L146.33 348.606C145.654 348.04 145.01 347.443 144.319 346.893L140.204 343.546C137.392 341.362 134.596 339.193 131.722 337.088C130.308 336.019 128.847 334.998 127.387 333.976L125.203 332.436L122.989 330.928L120.79 329.419L118.559 327.942L116.329 326.465L114.067 325.019C108.019 321.185 101.894 317.492 95.6107 314.019C89.3277 310.546 82.9348 307.262 76.4948 303.915C74.8926 303.082 73.2748 302.233 71.6883 301.369C70.0862 300.505 68.5155 299.593 66.929 298.698C63.7875 296.859 60.6775 294.926 57.7088 292.836C56.9705 292.302 56.248 291.752 55.5255 291.202L54.4417 290.385L53.3893 289.52C52.6981 288.939 51.9756 288.389 51.3002 287.792L49.2896 285.985C48.5985 285.388 47.9859 284.743 47.3576 284.115L46.4152 283.156C46.101 282.842 45.7869 282.528 45.4885 282.182C44.3104 280.862 43.0852 279.558 41.97 278.19C37.4934 272.722 33.7708 266.798 30.9749 260.59L31.3047 260.496Z" fill="url(#paint1_linear_232_2101)"/>
<path d="M219.856 322.096H14.3093C16.634 345.431 21.4876 368.013 28.9015 389.856C35.8912 410.457 53.3892 425.747 74.7356 429.88C89.1078 432.661 104.58 433.73 117.837 433.887C131.706 434.044 146.644 432.709 159.917 430.241C182.017 426.156 200.175 410.331 207.086 388.944C214.782 365.121 219.149 342.336 219.856 322.096Z" fill="#244D89"/>
<path d="M117.083 340.073C173.843 340.073 219.856 332.214 219.856 322.52C219.856 312.825 173.843 304.967 117.083 304.967C60.3225 304.967 14.3093 312.825 14.3093 322.52C14.3093 332.214 60.3225 340.073 117.083 340.073Z" fill="#B9CEED"/>
<path d="M117.083 336.458C173.843 336.458 219.856 329.409 219.856 320.713C219.856 312.016 173.843 304.967 117.083 304.967C60.3225 304.967 14.3093 312.016 14.3093 320.713C14.3093 329.409 60.3225 336.458 117.083 336.458Z" fill="#578AD6"/>
<path d="M117.083 306.759C171.179 306.759 215.505 313.909 219.557 322.991C219.762 322.551 219.856 322.096 219.856 321.64C219.856 311.929 173.849 304.056 117.083 304.056C60.3162 304.056 14.3093 311.929 14.3093 321.64C14.3093 322.096 14.4036 322.551 14.6078 322.991C18.6446 313.909 62.9865 306.759 117.083 306.759Z" fill="#B9CEED"/>
<path d="M32.9853 250.061L63.599 282.385C69.1594 287.555 73.4475 291.075 78.1597 294.265C98.2494 307.795 110.391 320.98 127.418 336.474C94.1655 336.474 105.585 336.725 74.9554 335.075C57.4574 307.512 70.3218 327.784 58.3213 308.864C54.85 303.395 50.8446 298.288 46.3837 293.59L17.4822 263.277L32.9853 250.061Z" fill="#244D89"/>
<path d="M33.7236 250.816L30.4093 237.945C30.0481 236.547 28.7758 236.17 27.2836 237.05C17.4665 243.367 10.0369 250.517 5.18329 258.076C4.7749 258.908 4.74349 259.946 5.67022 260.244L18.5974 264.456C22.1472 259.364 27.1265 254.807 33.7236 250.816Z" fill="#244D89"/>
<path d="M242.443 240.287H162.351V262.004H242.443V240.287Z" fill="#578AD6"/>
<path d="M247.815 435.506H156.995C143.078 435.506 131.785 424.38 131.785 410.661V277.341C131.785 263.623 143.063 252.497 156.995 252.497H247.815C261.732 252.497 273.025 263.623 273.025 277.341V410.661C273.025 424.38 261.732 435.506 247.815 435.506Z" fill="#578AD6"/>
<path d="M246.778 406.937H158.032C153.414 406.937 149.66 403.244 149.66 398.687V298.792C149.66 294.234 153.398 290.542 158.032 290.542H246.778C251.396 290.542 255.15 294.234 255.15 298.792V398.687C255.15 403.244 251.396 406.937 246.778 406.937Z" fill="#B9CEED"/>
<path d="M251.286 247.264H153.524C151.089 247.264 149.11 245.316 149.11 242.911V221.367C149.11 216.826 152.848 213.133 157.466 213.133H247.375C251.993 213.133 255.731 216.81 255.731 221.367V242.911C255.7 245.316 253.721 247.264 251.286 247.264Z" fill="#244D89"/>
<path opacity="0.6" d="M161.016 218.004H157.184V242.77H161.016V218.004Z" fill="white"/>
<path opacity="0.6" d="M168.886 218.004H165.053V242.77H168.886V218.004Z" fill="white"/>
<path opacity="0.6" d="M176.755 218.004H172.922V242.77H176.755V218.004Z" fill="white"/>
<path opacity="0.6" d="M184.64 218.004H180.807V242.77H184.64V218.004Z" fill="white"/>
<path opacity="0.6" d="M192.509 218.004H188.677V242.77H192.509V218.004Z" fill="white"/>
<path opacity="0.6" d="M200.379 218.004H196.546V242.77H200.379V218.004Z" fill="white"/>
<path opacity="0.6" d="M208.264 218.004H204.431V242.77H208.264V218.004Z" fill="white"/>
<path opacity="0.6" d="M216.133 218.004H212.301V242.77H216.133V218.004Z" fill="white"/>
<path opacity="0.6" d="M224.003 218.004H220.17V242.77H224.003V218.004Z" fill="white"/>
<path opacity="0.6" d="M231.888 218.004H228.055V242.77H231.888V218.004Z" fill="white"/>
<path opacity="0.6" d="M239.757 218.004H235.925V242.77H239.757V218.004Z" fill="white"/>
<path opacity="0.6" d="M247.627 218.004H243.794V242.77H247.627V218.004Z" fill="white"/>
<path d="M250.375 439.984C273.13 439.984 291.576 421.805 291.576 399.379C291.576 376.953 273.13 358.773 250.375 358.773C227.621 358.773 209.175 376.953 209.175 399.379C209.175 421.805 227.621 439.984 250.375 439.984Z" fill="#244D89"/>
<path d="M278.9 394.067L225.275 415.548C224.144 416.004 222.872 415.47 222.4 414.354L220.091 408.744C219.636 407.629 220.17 406.371 221.301 405.916L274.926 384.434C276.057 383.978 277.329 384.513 277.8 385.628L280.109 391.238C280.58 392.354 280.031 393.611 278.9 394.067Z" fill="#B9CEED"/>
<path d="M366.264 60.3896C366.264 85.8782 342.373 106.527 316.912 106.527C291.434 106.527 270.795 85.8782 270.795 60.3896C270.795 34.901 291.434 14.2524 316.912 14.2524C342.373 14.2524 366.264 34.9167 366.264 60.3896Z" fill="#244D89"/>
<path opacity="0.65" d="M356.18 60.3895C356.18 65.2137 355.254 70.0695 353.431 74.548C351.609 79.0423 348.923 83.1752 345.531 86.6795C342.154 90.168 338.085 93.0437 333.577 95.0237C329.085 97.0037 324.184 98.1195 319.237 98.2295C314.289 98.3552 309.278 97.5066 304.613 95.6837C299.948 93.8609 295.628 91.1109 292.016 87.6066C288.403 84.1023 285.481 79.8595 283.502 75.1923C282.513 72.8509 281.759 70.4309 281.256 67.9323C280.754 65.4495 280.502 62.9037 280.502 60.3737C280.518 57.8437 280.769 55.3137 281.256 52.8152C281.759 50.3323 282.513 47.8966 283.502 45.5552C285.481 40.888 288.403 36.6452 292.016 33.1409C295.628 29.6366 299.948 26.8866 304.613 25.0637C309.278 23.2409 314.289 22.3923 319.237 22.518C324.184 22.6437 329.085 23.7437 333.577 25.7237C338.07 27.688 342.138 30.5637 345.531 34.068C348.908 37.5723 351.609 41.7052 353.431 46.1995C355.254 50.7252 356.18 55.5652 356.18 60.3895ZM351.138 60.3895C351.122 58.2995 350.918 56.2095 350.479 54.1666C350.054 52.1237 349.395 50.128 348.546 48.2109C346.834 44.3766 344.321 40.888 341.195 38.0123C338.07 35.1366 334.331 32.8895 330.342 31.4123C326.336 29.9352 322.048 29.2752 317.791 29.3852C309.278 29.6052 301.095 33.1566 295.346 38.9237C292.471 41.7995 290.178 45.178 288.639 48.8395C287.099 52.5009 286.298 56.4295 286.314 60.3737C286.314 64.318 287.099 68.2623 288.639 71.908C290.178 75.5695 292.471 78.948 295.346 81.8237C301.079 87.5909 309.278 91.1423 317.791 91.3623C322.048 91.4723 326.336 90.8123 330.342 89.3352C334.347 87.858 338.07 85.6109 341.195 82.7352C344.321 79.8595 346.85 76.3709 348.546 72.5366C349.395 70.6195 350.054 68.6237 350.479 66.5809C350.903 64.5695 351.122 62.4952 351.138 60.3895Z" fill="white"/>
<path d="M329.132 42.1924C324.844 42.1924 321.011 44.4395 318.53 47.9595C316.048 44.4552 312.231 42.1924 307.927 42.1924C300.451 42.1924 294.387 49.0124 294.387 57.4352C294.387 58.111 294.497 58.8495 294.702 59.6195H297.639L304.644 51.9352C305.068 51.4795 305.697 51.2595 306.309 51.3538C306.922 51.4481 307.456 51.8567 307.707 52.4224L313.378 64.9152L319.158 54.4652C319.504 53.8367 320.179 53.4752 320.886 53.5067C321.593 53.5381 322.221 53.9781 322.504 54.6381L324.907 60.3424H331.535C332.556 60.3424 333.389 61.1752 333.389 62.1967C333.389 63.2181 332.556 64.051 331.535 64.051H323.666C322.912 64.051 322.237 63.5952 321.954 62.9195L320.556 59.6038L314.838 69.9438C314.509 70.541 313.88 70.9024 313.205 70.9024C313.173 70.9024 313.158 70.9024 313.126 70.9024C312.42 70.871 311.791 70.4467 311.508 69.8181L305.461 56.5238L299.791 62.731C299.445 63.1238 298.943 63.3438 298.424 63.3438H296.162C300.011 70.761 309.247 79.9381 315.765 84.1181C317.414 85.1709 319.551 85.0767 321.106 83.8981C328.362 78.3352 342.64 64.8524 342.64 57.451C342.656 49.0124 336.609 42.1924 329.132 42.1924Z" fill="white"/>
<path d="M259.831 48.7614C259.831 75.5071 234.762 97.1771 208.028 97.1771C181.294 97.1771 159.634 75.4914 159.634 48.7614C159.634 22.0157 181.31 0.345712 208.028 0.345712C234.746 0.329997 259.831 22.0157 259.831 48.7614Z" fill="#578AD6"/>
<path opacity="0.65" d="M249.244 48.7613C249.26 53.837 248.27 58.9128 246.354 63.627C244.454 68.3413 241.626 72.6942 238.076 76.3556C234.527 80.0328 230.254 83.0342 225.542 85.1085C220.83 87.1985 215.678 88.3456 210.494 88.4713C205.311 88.5971 200.049 87.7013 195.148 85.7999C190.263 83.8828 185.724 81.007 181.923 77.3299C178.121 73.6528 175.058 69.1899 172.985 64.3028C171.948 61.8513 171.147 59.3056 170.629 56.6813C170.111 54.0728 169.844 51.417 169.828 48.7613C169.844 46.1056 170.095 43.4499 170.629 40.8413C171.147 38.2328 171.948 35.6713 172.985 33.2199C175.058 28.317 178.121 23.8699 181.923 20.1928C185.724 16.5156 190.247 13.6242 195.148 11.7228C200.049 9.80561 205.295 8.92561 210.494 9.05133C215.678 9.17704 220.83 10.3399 225.542 12.4142C230.27 14.4885 234.527 17.4899 238.076 21.167C241.626 24.8442 244.454 29.1813 246.354 33.8956C248.255 38.5942 249.244 43.6856 249.244 48.7613ZM243.951 48.7613C243.935 46.5613 243.715 44.3771 243.26 42.2242C242.804 40.0713 242.113 37.9813 241.218 35.9699C239.427 31.947 236.773 28.2856 233.49 25.2685C230.207 22.2513 226.296 19.8942 222.086 18.3542C217.877 16.8142 213.369 16.107 208.908 16.2328C199.97 16.4685 191.378 20.1928 185.347 26.2428C182.331 29.2599 179.928 32.8113 178.31 36.6456C176.692 40.4799 175.86 44.6128 175.86 48.7613C175.86 52.9099 176.692 57.027 178.31 60.877C179.928 64.7113 182.331 68.2628 185.347 71.2799C191.378 77.3456 199.955 81.0542 208.908 81.2899C213.369 81.4156 217.877 80.7085 222.086 79.1685C226.28 77.6128 230.207 75.2713 233.49 72.2542C236.773 69.237 239.427 65.5756 241.218 61.5528C242.113 59.5413 242.804 57.4513 243.26 55.2985C243.7 53.1456 243.935 50.9456 243.951 48.7613Z" fill="white"/>
<g opacity="0.96">
<path d="M194.991 67.4302H186.666C186.446 67.4302 186.273 67.2573 186.273 67.0373V32.6702C186.273 32.4502 186.446 32.2773 186.666 32.2773H194.991C195.211 32.2773 195.384 32.4502 195.384 32.6702V67.0373C195.384 67.2573 195.211 67.4302 194.991 67.4302Z" fill="white"/>
<path d="M183.352 56.0372C182.457 56.0372 181.718 55.3143 181.718 54.4029V45.2886C181.718 44.3929 182.441 43.6543 183.352 43.6543C184.247 43.6543 184.985 44.3772 184.985 45.2886V54.4029C184.97 55.3143 184.247 56.0372 183.352 56.0372Z" fill="white"/>
<path d="M224.411 67.4302H232.736C232.956 67.4302 233.128 67.2573 233.128 67.0373V32.6702C233.128 32.4502 232.956 32.2773 232.736 32.2773H224.411C224.191 32.2773 224.018 32.4502 224.018 32.6702V67.0373C224.018 67.2573 224.191 67.4302 224.411 67.4302Z" fill="white"/>
<path d="M236.05 56.0372C236.945 56.0372 237.684 55.3143 237.684 54.4029V45.2886C237.684 44.3929 236.961 43.6543 236.05 43.6543C235.155 43.6543 234.417 44.3772 234.417 45.2886V54.4029C234.432 55.3143 235.155 56.0372 236.05 56.0372Z" fill="white"/>
<path d="M222.322 52.1717H197.08C196.86 52.1717 196.687 51.9988 196.687 51.7788V47.6145C196.687 47.3945 196.86 47.2217 197.08 47.2217H222.322C222.542 47.2217 222.714 47.3945 222.714 47.6145V51.7788C222.714 51.9831 222.542 52.1717 222.322 52.1717Z" fill="white"/>
</g>
<path d="M164.346 107.784C164.346 133.273 140.455 153.921 114.994 153.921C89.5319 153.921 68.8767 133.257 68.8767 107.784C68.8767 82.2956 89.5162 61.647 114.994 61.647C140.471 61.647 164.346 82.2956 164.346 107.784Z" fill="#244D89"/>
<path opacity="0.65" d="M154.262 107.784C154.262 112.608 153.335 117.464 151.513 121.943C149.691 126.437 147.005 130.57 143.612 134.074C140.235 137.563 136.167 140.438 131.659 142.418C127.167 144.398 122.266 145.514 117.318 145.624C112.371 145.75 107.36 144.901 102.695 143.078C98.0297 141.255 93.7102 138.505 90.0975 135.001C86.4848 131.497 83.5632 127.254 81.5841 122.587C80.5945 120.245 79.8406 117.825 79.3379 115.327C78.8353 112.844 78.584 110.298 78.584 107.768C78.5997 105.238 78.851 102.708 79.3379 100.21C79.8406 97.7268 80.5945 95.2911 81.5841 92.9497C83.5632 88.2826 86.4848 84.0397 90.0975 80.5354C93.7102 77.0311 98.0297 74.2811 102.695 72.4583C107.36 70.6354 112.371 69.7868 117.318 69.9126C122.266 70.0383 127.167 71.1383 131.659 73.1183C136.151 75.0826 140.22 77.9583 143.612 81.4626C146.99 84.9668 149.691 89.0997 151.513 93.594C153.335 98.104 154.278 102.944 154.262 107.784ZM149.22 107.784C149.204 105.694 149 103.604 148.56 101.561C148.136 99.5183 147.476 97.5226 146.628 95.6054C144.916 91.7711 142.403 88.2826 139.277 85.4068C136.151 82.5311 132.413 80.284 128.423 78.8068C124.418 77.3297 120.13 76.6697 115.873 76.7797C107.36 76.9997 99.1763 80.5511 93.4274 86.3183C90.553 89.194 88.2597 92.5726 86.7204 96.234C85.1811 99.8954 84.38 103.824 84.3957 107.768C84.3957 111.713 85.1811 115.657 86.7204 119.303C88.2597 122.964 90.553 126.343 93.4274 129.218C99.1606 134.985 107.36 138.537 115.873 138.757C120.13 138.867 124.418 138.207 128.423 136.73C132.429 135.253 136.151 133.005 139.277 130.13C142.403 127.254 144.932 123.765 146.628 119.931C147.476 118.014 148.136 116.018 148.56 113.975C149 111.964 149.22 109.874 149.22 107.784Z" fill="white"/>
<g opacity="0.89">
<path d="M106.684 94.5998C106.574 94.6156 106.449 94.647 106.339 94.6784C106.025 94.7884 105.758 94.977 105.538 95.2441C104.957 95.9827 105.098 97.067 105.852 97.6484C106.213 97.9313 106.669 98.057 107.109 97.9941C107.564 97.9313 107.957 97.7113 108.239 97.3498C108.821 96.6113 108.679 95.527 107.925 94.9456C107.58 94.6627 107.14 94.537 106.684 94.5998Z" fill="white"/>
<path d="M115.7 90.8757L114.255 89.0371C114.208 88.99 114.145 88.9586 114.083 88.99L112.245 89.6343C111.507 89.0529 110.706 88.5971 109.842 88.2829L109.433 86.3814C109.418 86.3186 109.37 86.2714 109.292 86.2557L106.967 85.9571C106.904 85.9414 106.841 85.9886 106.81 86.0514L105.962 87.8114C105.051 87.9057 104.156 88.1571 103.307 88.55L101.674 87.4971C101.611 87.4657 101.548 87.4657 101.485 87.5129L99.6475 88.9586C99.6004 89.0057 99.569 89.0686 99.6004 89.1314L100.244 90.97C99.6632 91.7086 99.2077 92.51 98.8936 93.3743L96.993 93.7829C96.9301 93.7986 96.883 93.8457 96.8673 93.9243L96.5846 96.25C96.5689 96.3129 96.616 96.3757 96.6788 96.4071L98.4381 97.2557C98.5323 98.1672 98.7836 99.0629 99.1763 99.9114L98.1239 101.546C98.0925 101.609 98.0925 101.671 98.1396 101.734L99.5847 103.573C99.6318 103.62 99.6946 103.651 99.7575 103.62L101.595 102.976C102.333 103.557 103.135 104.013 103.998 104.327L104.407 106.229C104.423 106.291 104.47 106.339 104.548 106.354L106.873 106.637C106.936 106.653 106.999 106.606 107.03 106.543L107.878 104.783C108.789 104.689 109.685 104.437 110.533 104.044L112.166 105.097C112.229 105.129 112.292 105.129 112.355 105.081L114.193 103.636C114.24 103.589 114.271 103.526 114.24 103.463L113.596 101.624C114.177 100.886 114.632 100.084 114.946 99.22L116.847 98.8114C116.91 98.7957 116.957 98.7486 116.973 98.67L117.255 96.3443C117.271 96.2814 117.224 96.2186 117.161 96.1871L115.402 95.3386C115.308 94.4271 115.056 93.5314 114.664 92.6829L115.716 91.0486C115.748 91.0014 115.732 90.9229 115.7 90.8757ZM112.088 94.16C111.899 94.2543 111.679 94.1757 111.601 93.9871C111.444 93.6571 111.24 93.3271 111.004 93.0286C110.14 91.9129 108.883 91.2214 107.485 91.0486C106.088 90.8757 104.705 91.2686 103.606 92.1329C102.491 92.9971 101.799 94.2543 101.627 95.6529C101.532 96.4543 101.611 97.2557 101.862 97.9943C102.051 98.5443 102.333 99.0786 102.71 99.55C103.574 100.666 104.831 101.357 106.229 101.53C107.627 101.703 109.009 101.31 110.109 100.446C110.863 99.8486 111.444 99.0786 111.774 98.1829C111.852 97.9943 112.056 97.9 112.245 97.9786C112.355 98.0257 112.433 98.1043 112.465 98.1986C112.496 98.2772 112.496 98.3714 112.465 98.45C112.072 99.4557 111.428 100.351 110.564 101.027C110.03 101.451 109.433 101.781 108.789 101.986C107.941 102.269 107.046 102.379 106.135 102.269C104.548 102.08 103.119 101.279 102.129 100.006C101.705 99.4714 101.375 98.8743 101.171 98.2457C100.888 97.3972 100.778 96.5014 100.888 95.59C101.077 94.0029 101.878 92.5729 103.15 91.5829C104.407 90.5929 105.978 90.1529 107.58 90.3414C109.166 90.53 110.596 91.3314 111.585 92.6043C111.601 92.62 111.617 92.6514 111.632 92.6671C111.836 92.9343 112.009 93.2014 112.166 93.5C112.182 93.5157 112.182 93.5472 112.198 93.5629C112.198 93.5629 112.198 93.5786 112.213 93.5786C112.229 93.61 112.245 93.6414 112.261 93.6729C112.261 93.6886 112.276 93.7043 112.276 93.72C112.323 93.8772 112.261 94.0657 112.088 94.16ZM108.836 97.79C108.538 98.1829 108.129 98.45 107.705 98.6071C106.951 98.8586 106.088 98.7486 105.412 98.23C104.344 97.4129 104.156 95.8729 104.972 94.8043C105.365 94.2857 105.946 93.9557 106.59 93.8772C107.234 93.7986 107.878 93.9714 108.397 94.3643C109.465 95.1814 109.653 96.7214 108.836 97.79Z" fill="white"/>
</g>
<g opacity="0.85">
<path d="M124.402 113.064C124.214 113.033 124.041 113.001 123.853 113.001C123.319 113.001 122.816 113.159 122.36 113.457C121.104 114.29 120.758 115.971 121.591 117.229C121.999 117.841 122.612 118.25 123.319 118.391C124.025 118.533 124.764 118.391 125.36 117.999C126.617 117.166 126.963 115.484 126.13 114.227C125.722 113.63 125.109 113.206 124.402 113.064Z" fill="white"/>
<path d="M139.905 112.09L138.68 108.57C138.649 108.46 138.555 108.397 138.445 108.397L135.335 108.413C134.534 107.156 133.544 106.056 132.413 105.144L132.774 102.064C132.79 101.954 132.727 101.844 132.633 101.797L129.272 100.178C129.177 100.131 129.052 100.147 128.973 100.226L126.79 102.426C125.376 102.111 123.9 102.017 122.407 102.174L120.491 99.7385C120.428 99.6599 120.303 99.6128 120.208 99.6599L116.69 100.886C116.58 100.917 116.517 101.011 116.517 101.121L116.533 104.233C115.276 105.034 114.177 106.024 113.266 107.156L110.187 106.794C110.077 106.778 109.967 106.841 109.92 106.936L108.302 110.298C108.255 110.393 108.271 110.518 108.349 110.597L110.548 112.781C110.234 114.196 110.14 115.673 110.297 117.166L107.862 119.083C107.784 119.146 107.737 119.271 107.784 119.366L109.009 122.886C109.041 122.996 109.135 123.058 109.245 123.058L112.355 123.043C113.156 124.3 114.145 125.4 115.276 126.311L114.915 129.391C114.899 129.501 114.962 129.611 115.056 129.658L118.418 131.277C118.512 131.324 118.638 131.308 118.716 131.23L120.9 129.03C122.313 129.344 123.79 129.438 125.282 129.281L127.198 131.717C127.261 131.796 127.387 131.843 127.481 131.796L130.999 130.57C131.109 130.538 131.172 130.444 131.172 130.334L131.156 127.223C132.413 126.421 133.513 125.431 134.424 124.3L137.502 124.661C137.612 124.677 137.722 124.614 137.769 124.52L139.387 121.157C139.434 121.063 139.419 120.937 139.34 120.858L137.141 118.674C137.455 117.26 137.549 115.783 137.392 114.29L139.827 112.373C139.905 112.31 139.937 112.2 139.905 112.09ZM132.774 115.186C132.46 115.233 132.162 114.997 132.13 114.683C132.052 114.086 131.926 113.504 131.722 112.938C130.984 110.817 129.46 109.12 127.434 108.13C125.408 107.156 123.13 107.03 121.01 107.768C118.889 108.507 117.193 110.031 116.203 112.058C115.638 113.221 115.371 114.463 115.371 115.704C115.371 116.631 115.528 117.574 115.842 118.486C116.58 120.607 118.104 122.304 120.13 123.294C122.156 124.268 124.434 124.394 126.554 123.656C127.999 123.153 129.272 122.273 130.23 121.11C130.434 120.858 130.811 120.827 131.047 121.031C131.188 121.141 131.251 121.314 131.251 121.487C131.251 121.613 131.204 121.754 131.109 121.864C130.01 123.184 128.549 124.19 126.916 124.771C125.879 125.133 124.811 125.306 123.758 125.306C122.345 125.306 120.931 124.991 119.612 124.347C117.303 123.231 115.575 121.298 114.727 118.878C114.365 117.841 114.193 116.773 114.193 115.72C114.193 114.306 114.507 112.876 115.151 111.571C116.266 109.261 118.198 107.533 120.617 106.684C123.036 105.836 125.628 105.993 127.936 107.093C130.245 108.208 131.973 110.141 132.821 112.561C132.837 112.608 132.853 112.656 132.869 112.687C133.041 113.19 133.167 113.693 133.246 114.211C133.246 114.243 133.261 114.29 133.261 114.321C133.261 114.337 133.261 114.353 133.261 114.368C133.277 114.431 133.277 114.478 133.277 114.541C133.277 114.573 133.277 114.588 133.277 114.62C133.277 114.887 133.073 115.154 132.774 115.186ZM125.989 118.988C125.329 119.428 124.591 119.633 123.853 119.633C122.58 119.633 121.339 119.02 120.601 117.888C119.423 116.097 119.91 113.677 121.701 112.498C122.565 111.933 123.601 111.728 124.622 111.933C125.643 112.137 126.523 112.734 127.088 113.598C128.282 115.374 127.779 117.794 125.989 118.988Z" fill="white"/>
</g>
<path d="M355.316 420.608C355.316 420.608 356.447 427.004 356.997 433.353C357.217 435.836 355.3 437.973 352.819 438.083C344.384 438.428 326.336 439.12 319.865 438.821C318.891 438.774 318.262 437.784 318.608 436.873C318.906 436.118 319.488 435.506 320.242 435.16L350.054 421.457L355.316 420.608Z" fill="#578AD6"/>
<path d="M356.243 416.852L355.332 424.505C355.332 424.505 350.117 426.941 346.552 424.191L348.719 415.658L356.243 416.852Z" fill="url(#paint2_linear_232_2101)"/>
<path d="M355.552 272.878C355.944 274.874 357.656 372.68 347.211 416.507C347.038 417.23 347.4 417.953 348.091 418.236C349.693 418.896 352.834 419.838 356.604 419.964C357.766 419.996 358.819 419.241 359.149 418.126C362.133 407.958 376.442 357.013 378.312 308.346C380.401 253.958 378.312 306.491 378.312 306.491L377.086 272.878H355.552Z" fill="#B9CEED"/>
<path d="M389.605 423.955C389.605 423.955 391.412 427.192 393.139 435.772C393.454 437.328 392.37 438.805 390.799 438.962C388.019 439.229 383.731 439.591 380.291 439.559C378.704 439.544 377.479 438.177 377.668 436.589C378.045 433.462 379.238 428.308 382.898 424.301L389.605 423.955Z" fill="#578AD6"/>
<path d="M391.176 414.103L389.055 425.684C389.055 425.684 386.951 427.24 382.804 426.108L383.809 413.647L391.176 414.103Z" fill="url(#paint3_linear_232_2101)"/>
<path d="M396.909 275.879C405.454 327.485 395.056 403.417 391.553 418.267C391.333 419.178 390.611 419.869 389.684 420.027C388.113 420.294 385.537 420.498 382.993 419.759C382.113 419.508 381.5 418.722 381.469 417.811C380.998 405.789 381.846 332.027 373.882 302.877C373.474 301.399 372.579 300.111 371.322 299.231L355.866 288.231L354.688 270.458L396.909 275.879Z" fill="#B9CEED"/>
<path d="M343.394 180.636C367.772 173.218 388.443 192.028 388.443 192.028C396.077 236.594 397.647 280.798 397.647 280.798C377.825 286 355.458 277.624 355.458 277.624C352.159 259.003 336.781 206.58 336.781 206.58C324.263 205.024 326.98 194.747 318.498 189.97C324.97 182.458 314.995 186.104 316.33 180.447C325.394 183.26 335.839 182.93 343.394 180.636Z" fill="#B9CEED"/>
<path d="M266.805 140.36C269.318 137.327 272.507 138.757 272.507 138.757C276.277 154.691 296.037 167.592 316.346 173.91C315.027 179.551 311.964 189.105 305.492 196.617C271.8 177.665 266.805 140.36 266.805 140.36Z" fill="url(#paint4_linear_232_2101)"/>
<path d="M267.418 141.13C267.151 141.963 270.198 143.235 272.004 139.81C272.067 138.175 273.072 131.135 272.083 129.8C266.868 122.681 256.737 113.755 256.737 113.755C255.025 115.437 256.438 117.103 256.438 117.103L261.355 122.225C260.334 124.08 259.077 125.651 258.48 127.898C258.04 129.595 258.307 131.418 259.171 132.958C260.035 134.514 261.213 136.525 262.329 138.113C264.418 141.114 267.418 141.13 267.418 141.13Z" fill="url(#paint5_linear_232_2101)"/>
<path d="M263.491 125.557L267.968 129.344L269.366 133.115L265.376 137.547C265.376 137.547 264.041 130.051 263.035 128.432C262.046 126.814 262.564 126.028 263.491 125.557Z" fill="url(#paint6_linear_232_2101)"/>
<path d="M386.511 209.644L396.328 184.831C396.328 184.831 420.25 201.095 424.177 221.712C419.654 222.042 411.439 223.221 403.381 227.291C401.621 217.548 386.511 209.644 386.511 209.644Z" fill="white"/>
<path d="M368.4 157.3L376.553 180.871C376.694 181.264 376.521 181.688 376.16 181.893C373.945 183.118 365.934 186.67 356.29 180.557C355.285 179.913 354.594 178.876 354.452 177.697L351.813 157.284H368.4V157.3Z" fill="url(#paint7_linear_232_2101)"/>
<path d="M383.872 182.175L374.149 173.91L359.604 209.44L370.207 350.633L403.334 351.623C403.569 351.623 403.789 351.544 403.962 351.371C404.135 351.198 404.213 350.978 404.213 350.743L399.595 214.908C399.595 214.908 399.47 185.554 396.344 184.815C393.218 184.093 383.872 182.175 383.872 182.175Z" fill="url(#paint8_linear_232_2101)"/>
<path d="M359.589 207.617L353.95 173.91L349.127 178.153L338.965 178.058L336.781 206.564L351.279 352.455C351.295 352.691 351.421 352.895 351.594 353.037C351.782 353.178 352.002 353.241 352.238 353.21L370.175 350.617L359.589 207.617Z" fill="url(#paint9_linear_232_2101)"/>
<path d="M340.316 178.09C340.316 178.09 323.98 176.958 314.54 173.328C303.466 193.018 300.592 193.6 300.592 193.6C300.592 193.6 314.006 205.511 336.813 206.564C359.589 207.617 340.316 178.09 340.316 178.09Z" fill="url(#paint10_linear_232_2101)"/>
<path d="M353.635 209.157V212.614L340.457 211.844V208.01L353.635 209.157Z" fill="#7D97F4"/>
<path d="M360.374 217.784C360.452 217.784 360.531 217.768 360.609 217.721L371.793 211.718C371.934 211.64 372.029 211.498 372.06 211.341L373.568 201.143L377.526 200.435C377.715 200.404 377.872 200.263 377.919 200.09L382.238 186.073C382.317 185.805 382.176 185.523 381.909 185.444C381.642 185.365 381.359 185.507 381.28 185.774L377.055 199.493L373.034 200.2C372.814 200.231 372.657 200.404 372.626 200.624L371.102 210.933L360.154 216.81C359.903 216.935 359.808 217.25 359.95 217.501C360.028 217.69 360.201 217.784 360.374 217.784Z" fill="#91B3FA"/>
<path d="M357.719 214.296C357.782 214.296 357.845 214.28 357.908 214.248C358.096 214.138 358.159 213.918 358.049 213.73L352.206 203.484L353.164 197.717C353.196 197.56 353.117 197.387 352.976 197.324L348.326 194.841L349.52 178.2C349.536 177.996 349.379 177.807 349.175 177.791C348.923 177.76 348.782 177.933 348.766 178.137L347.557 195.03C347.541 195.187 347.62 195.328 347.761 195.391L352.395 197.858L351.452 203.484C351.436 203.563 351.452 203.657 351.499 203.736L357.405 214.107C357.468 214.217 357.594 214.296 357.719 214.296Z" fill="#91B3FA"/>
<path d="M365.573 232.257C365.573 232.257 392.433 247.437 401.496 234.473C403.381 231.786 403.82 229.098 403.365 226.553C411.423 222.483 419.638 221.304 424.162 220.974C425.355 227.197 424.727 233.797 421.067 240.476C405.187 269.531 362.023 238.873 362.023 238.873L365.573 232.257Z" fill="white"/>
<path d="M368.793 251.475L354.138 200.262C353.965 199.681 353.478 199.257 352.881 199.194C350.227 198.88 342.53 198.015 333.64 197.261C322.943 196.35 310.503 195.627 303.073 196.24C302.021 196.334 301.377 197.45 301.848 198.392C306.073 206.941 323.446 241.717 332.148 253.11C332.43 253.487 332.886 253.707 333.357 253.707L367.364 253.392C368.369 253.377 369.076 252.418 368.793 251.475Z" fill="#B9CEED"/>
<path d="M332.116 192.814L321.482 191.038C320.917 190.944 320.446 191.478 320.634 192.028L321.687 195.218C321.781 195.501 322.016 195.69 322.315 195.737L332.54 197.104C333.074 197.167 333.499 196.695 333.389 196.177L332.745 193.395C332.666 193.081 332.43 192.861 332.116 192.814Z" fill="#578AD6"/>
<path d="M340.08 201.802L339.2 197.245C339.106 196.79 338.729 196.444 338.274 196.397L316.802 194.212C316.079 194.134 315.498 194.794 315.671 195.501L317.037 201.19C317.147 201.645 317.54 201.975 318.011 201.991L338.98 203.044C339.671 203.091 340.206 202.478 340.08 201.802Z" fill="#578AD6"/>
<path d="M365.259 239.093C365.259 239.093 367.301 230.686 366.484 227.716C365.667 224.73 364.065 220.911 358.74 221.76C353.415 222.608 347.148 224.856 347.148 224.856C347.148 224.856 347.462 228.737 351.515 227.48L349.002 229.413C349.002 229.413 349.363 232.524 352.771 230.858L350.447 233.436C350.447 233.436 351.907 235.981 354.421 234.347C356.934 232.713 358.128 240.114 365.259 239.093Z" fill="url(#paint11_linear_232_2101)"/>
<path d="M390.862 239.957C393.391 239.957 395.7 239.58 397.459 238.621C397.71 238.48 397.789 238.181 397.663 237.93C397.522 237.678 397.223 237.6 396.972 237.725C389.888 241.623 372.28 234.913 372.107 234.85C372.06 234.834 368.683 233.655 367.489 231.33C367.364 231.078 367.05 230.984 366.798 231.11C366.547 231.235 366.453 231.55 366.578 231.801C367.961 234.504 371.605 235.777 371.762 235.824C372.312 236.012 382.663 239.957 390.862 239.957Z" fill="#91B3FA"/>
<path d="M400.538 253.487C400.805 253.487 401.04 253.267 401.04 252.999C401.056 252.717 400.836 252.481 400.553 252.465C380.228 251.758 368.636 242.455 368.526 242.361C368.306 242.188 367.992 242.219 367.803 242.439C367.631 242.659 367.662 242.974 367.882 243.162C367.992 243.257 379.835 252.779 400.522 253.502C400.538 253.487 400.538 253.487 400.538 253.487Z" fill="#91B3FA"/>
<path d="M349.19 130.931C348.923 131.293 340.661 160.128 340.661 160.128L357.217 164.497L369.107 138.348C369.107 138.348 353.635 124.771 349.19 130.931Z" fill="url(#paint12_linear_232_2101)"/>
<path d="M362.526 140.281C362.934 140.925 363.013 141.727 362.761 142.434L357.656 156.483C357.578 156.703 357.484 156.891 357.342 157.08C356.604 158.085 353.997 161.118 350.981 158.274C348.405 155.838 346.002 153.638 343.771 152.978C342.467 152.585 341.101 153.371 340.724 154.675C339.954 157.378 338.525 162.878 337.928 167.938C337.787 169.211 338.651 170.374 339.891 170.61C343.19 171.254 349.693 172.323 355.206 172.024C356.117 171.977 356.918 171.427 357.295 170.61C358.992 166.995 363.798 156.875 365.589 154.22C367.254 151.753 371.228 151.8 373.034 151.957C373.725 152.02 374.4 151.8 374.919 151.328C376.458 149.945 378.987 146.74 375.359 142.843C374.448 141.868 374.526 140.344 375.469 139.417C377.165 137.751 378.814 134.938 376.05 131.434C373.254 127.883 369.547 128.244 367.128 129.03C366.06 129.375 364.835 129.014 364.206 128.071C363.924 127.647 363.484 127.333 362.777 127.333C361.426 127.317 360.342 126.295 360.342 124.944C360.342 122.634 359.463 119.79 355.52 118.533C348.295 116.207 343.708 123.168 343.206 128.385C342.703 133.603 350.682 135.677 355.395 135.378C358.85 135.174 361.411 138.505 362.526 140.281Z" fill="#B9CEED"/>
<path d="M363.672 159.421C363.672 159.421 364.929 150.354 368.699 149.945C372.468 149.537 376.113 152.68 372.327 157.724C367.599 164.025 363.672 159.421 363.672 159.421Z" fill="url(#paint13_linear_232_2101)"/>
<defs>
<linearGradient id="paint0_linear_232_2101" x1="464.323" y1="489.313" x2="145.045" y2="144.847" gradientUnits="userSpaceOnUse">
<stop stop-color="#DAE3FE"/>
<stop offset="1" stop-color="#E9EFFD"/>
</linearGradient>
<linearGradient id="paint1_linear_232_2101" x1="49.3455" y1="326.261" x2="145.399" y2="299.317" gradientUnits="userSpaceOnUse">
<stop stop-color="#41A362"/>
<stop offset="1" stop-color="#204F2E"/>
</linearGradient>
<linearGradient id="paint2_linear_232_2101" x1="356.239" y1="420.582" x2="346.544" y2="420.582" gradientUnits="userSpaceOnUse">
<stop stop-color="#FEBBBA"/>
<stop offset="1" stop-color="#FF928E"/>
</linearGradient>
<linearGradient id="paint3_linear_232_2101" x1="391.182" y1="420.085" x2="382.811" y2="420.085" gradientUnits="userSpaceOnUse">
<stop stop-color="#FEBBBA"/>
<stop offset="1" stop-color="#FF928E"/>
</linearGradient>
<linearGradient id="paint4_linear_232_2101" x1="296.229" y1="129.7" x2="286.416" y2="187.495" gradientUnits="userSpaceOnUse">
<stop stop-color="#DAE3FE"/>
<stop offset="1" stop-color="#E9EFFD"/>
</linearGradient>
<linearGradient id="paint5_linear_232_2101" x1="277.842" y1="159.216" x2="311.105" y2="234.863" gradientUnits="userSpaceOnUse">
<stop stop-color="#FEBBBA"/>
<stop offset="1" stop-color="#FF928E"/>
</linearGradient>
<linearGradient id="paint6_linear_232_2101" x1="267.046" y1="134.019" x2="253.168" y2="112.691" gradientUnits="userSpaceOnUse">
<stop stop-color="#FEBBBA"/>
<stop offset="1" stop-color="#FF928E"/>
</linearGradient>
<linearGradient id="paint7_linear_232_2101" x1="376.598" y1="170.672" x2="351.814" y2="170.672" gradientUnits="userSpaceOnUse">
<stop stop-color="#FEBBBA"/>
<stop offset="1" stop-color="#FF928E"/>
</linearGradient>
<linearGradient id="paint8_linear_232_2101" x1="359.596" y1="262.768" x2="404.198" y2="262.768" gradientUnits="userSpaceOnUse">
<stop stop-color="#DAE3FE"/>
<stop offset="1" stop-color="#E9EFFD"/>
</linearGradient>
<linearGradient id="paint9_linear_232_2101" x1="336.799" y1="263.571" x2="370.204" y2="263.571" gradientUnits="userSpaceOnUse">
<stop stop-color="#DAE3FE"/>
<stop offset="1" stop-color="#E9EFFD"/>
</linearGradient>
<linearGradient id="paint10_linear_232_2101" x1="334.472" y1="136.193" x2="324.658" y2="193.988" gradientUnits="userSpaceOnUse">
<stop stop-color="#DAE3FE"/>
<stop offset="1" stop-color="#E9EFFD"/>
</linearGradient>
<linearGradient id="paint11_linear_232_2101" x1="366.67" y1="230.414" x2="347.141" y2="230.414" gradientUnits="userSpaceOnUse">
<stop stop-color="#FEBBBA"/>
<stop offset="1" stop-color="#FF928E"/>
</linearGradient>
<linearGradient id="paint12_linear_232_2101" x1="354.554" y1="135.043" x2="355.883" y2="192.077" gradientUnits="userSpaceOnUse">
<stop stop-color="#FEBBBA"/>
<stop offset="1" stop-color="#FF928E"/>
</linearGradient>
<linearGradient id="paint13_linear_232_2101" x1="374.378" y1="193.73" x2="368.523" y2="154.634" gradientUnits="userSpaceOnUse">
<stop stop-color="#FEBBBA"/>
<stop offset="1" stop-color="#FF928E"/>
</linearGradient>
</defs>
</svg>
