<svg width="24" height="27" viewBox="0 0 24 27" fill="none" xmlns="http://www.w3.org/2000/svg">
<path fill-rule="evenodd" clip-rule="evenodd" d="M4.88477 9.79056C4.88477 5.58061 7.94278 2.17566 11.7238 2.17566C15.5048 2.17566 18.5628 5.58061 18.5628 9.79056C18.5628 14.3269 14.2444 20.582 12.4761 22.9643C12.0853 23.4865 11.3721 23.4865 10.9813 22.9643C9.20311 20.582 4.88477 14.3269 4.88477 9.79056ZM9.28127 9.79056C9.28127 11.2918 10.3755 12.5102 11.7238 12.5102C13.072 12.5102 14.1663 11.2918 14.1663 9.79056C14.1663 8.28933 13.072 7.07095 11.7238 7.07095C10.3755 7.07095 9.28127 8.28933 9.28127 9.79056Z" fill="#568BD7"/>
</svg>
