<svg width="27" height="31" viewBox="0 0 27 31" fill="none" xmlns="http://www.w3.org/2000/svg">
<path d="M8 8.625C8 9.17728 8.44772 9.625 9 9.625C9.55229 9.625 10 9.17728 10 8.625H8ZM10 22.375C10 21.8227 9.55229 21.375 9 21.375C8.44772 21.375 8 21.8227 8 22.375H10ZM10.5015 28.9503L10.9555 28.0593H10.9555L10.5015 28.9503ZM9.29974 27.7485L10.1907 27.2945L9.29974 27.7485ZM25.2003 27.7485L24.3093 27.2945V27.2945L25.2003 27.7485ZM23.9985 28.9503L23.5445 28.0593H23.5445L23.9985 28.9503ZM23.9985 2.04973L23.5445 2.94074L23.5445 2.94074L23.9985 2.04973ZM25.2003 3.25153L24.3093 3.70552V3.70552L25.2003 3.25153ZM9.29974 3.25153L10.1907 3.70552L9.29974 3.25153ZM10.5015 2.04973L10.0475 1.15873L10.0475 1.15873L10.5015 2.04973ZM2.125 14.5C1.57272 14.5 1.125 14.9477 1.125 15.5C1.125 16.0523 1.57272 16.5 2.125 16.5L2.125 14.5ZM17.25 16.5C17.8023 16.5 18.25 16.0523 18.25 15.5C18.25 14.9477 17.8023 14.5 17.25 14.5V16.5ZM5.58211 12.0821C5.97263 11.6916 5.97263 11.0584 5.58211 10.6679C5.19159 10.2774 4.55842 10.2774 4.1679 10.6679L5.58211 12.0821ZM2.30564 13.9444L1.59853 13.2373H1.59853L2.30564 13.9444ZM2.30564 17.0556L1.59853 17.7627L1.59853 17.7627L2.30564 17.0556ZM4.1679 20.3321C4.55842 20.7226 5.19159 20.7226 5.58211 20.3321C5.97264 19.9416 5.97264 19.3084 5.58211 18.9179L4.1679 20.3321ZM1.38685 15.0751L2.3379 15.3841H2.3379L1.38685 15.0751ZM1.38685 15.9249L0.43579 16.2339L0.43579 16.2339L1.38685 15.9249ZM10 8.625V6.15H8V8.625H10ZM13.4 2.75H21.1V0.75H13.4V2.75ZM24.5 6.15V24.85H26.5V6.15H24.5ZM21.1 28.25H13.4V30.25H21.1V28.25ZM10 24.85V22.375H8V24.85H10ZM13.4 28.25C12.6134 28.25 12.0836 28.2492 11.6752 28.2159C11.2785 28.1834 11.0852 28.1253 10.9555 28.0593L10.0475 29.8413C10.5061 30.0749 10.992 30.1667 11.5124 30.2092C12.0211 30.2508 12.6464 30.25 13.4 30.25V28.25ZM8 24.85C8 25.6036 7.99923 26.2289 8.04079 26.7376C8.08331 27.258 8.17506 27.7439 8.40873 28.2025L10.1907 27.2945C10.1247 27.1648 10.0666 26.9715 10.0341 26.5748C10.0008 26.1664 10 25.6366 10 24.85H8ZM10.9555 28.0593C10.6262 27.8915 10.3585 27.6238 10.1907 27.2945L8.40873 28.2025C8.76825 28.9081 9.34193 29.4818 10.0475 29.8413L10.9555 28.0593ZM24.5 24.85C24.5 25.6366 24.4992 26.1664 24.4659 26.5748C24.4334 26.9715 24.3753 27.1648 24.3093 27.2945L26.0913 28.2025C26.3249 27.7439 26.4167 27.258 26.4592 26.7376C26.5008 26.2289 26.5 25.6036 26.5 24.85H24.5ZM21.1 30.25C21.8536 30.25 22.4789 30.2508 22.9876 30.2092C23.508 30.1667 23.9939 30.0749 24.4525 29.8413L23.5445 28.0593C23.4148 28.1253 23.2215 28.1834 22.8248 28.2159C22.4164 28.2492 21.8866 28.25 21.1 28.25V30.25ZM24.3093 27.2945C24.1415 27.6238 23.8738 27.8915 23.5445 28.0593L24.4525 29.8413C25.1581 29.4818 25.7318 28.9081 26.0913 28.2025L24.3093 27.2945ZM21.1 2.75C21.8866 2.75 22.4164 2.75078 22.8248 2.78415C23.2215 2.81656 23.4148 2.87467 23.5445 2.94074L24.4525 1.15873C23.9939 0.925059 23.508 0.833307 22.9876 0.790788C22.4789 0.749222 21.8536 0.75 21.1 0.75V2.75ZM26.5 6.15C26.5 5.39643 26.5008 4.77111 26.4592 4.26237C26.4167 3.74196 26.3249 3.25613 26.0913 2.79754L24.3093 3.70552C24.3753 3.83518 24.4334 4.02851 24.4659 4.42524C24.4992 4.83364 24.5 5.36343 24.5 6.15H26.5ZM23.5445 2.94074C23.8738 3.10852 24.1415 3.37623 24.3093 3.70552L26.0913 2.79754C25.7318 2.09193 25.1581 1.51825 24.4525 1.15873L23.5445 2.94074ZM10 6.15C10 5.36343 10.0008 4.83364 10.0341 4.42524C10.0666 4.02851 10.1247 3.83518 10.1907 3.70552L8.40873 2.79754C8.17506 3.25613 8.08331 3.74196 8.04079 4.26237C7.99923 4.77111 8 5.39643 8 6.15H10ZM13.4 0.75C12.6464 0.75 12.0211 0.749222 11.5124 0.790788C10.992 0.833307 10.5061 0.925059 10.0475 1.15873L10.9555 2.94074C11.0852 2.87467 11.2785 2.81656 11.6752 2.78415C12.0836 2.75078 12.6134 2.75 13.4 2.75V0.75ZM10.1907 3.70552C10.3585 3.37623 10.6262 3.10852 10.9555 2.94074L10.0475 1.15873C9.34193 1.51825 8.76825 2.09193 8.40873 2.79754L10.1907 3.70552ZM2.125 16.5L17.25 16.5V14.5L2.125 14.5L2.125 16.5ZM4.1679 10.6679L1.59853 13.2373L3.01275 14.6515L5.58211 12.0821L4.1679 10.6679ZM1.59853 17.7627L4.1679 20.3321L5.58211 18.9179L3.01274 16.3485L1.59853 17.7627ZM1.59853 13.2373C1.33794 13.4978 1.09942 13.7353 0.917961 13.949C0.728924 14.1717 0.543835 14.4336 0.43579 14.7661L2.3379 15.3841C2.33187 15.4027 2.33391 15.3714 2.44264 15.2434C2.55895 15.1064 2.72882 14.9354 3.01275 14.6515L1.59853 13.2373ZM3.01275 16.3485C2.72882 16.0646 2.55895 15.8936 2.44264 15.7566C2.33391 15.6285 2.33187 15.5973 2.3379 15.6159L0.43579 16.2339C0.543835 16.5664 0.728928 16.8283 0.917962 17.051C1.09942 17.2647 1.33794 17.5021 1.59853 17.7627L3.01275 16.3485ZM0.435791 14.7661C0.280803 15.2431 0.280803 15.7569 0.43579 16.2339L2.3379 15.6159C2.31343 15.5406 2.31343 15.4594 2.3379 15.3841L0.435791 14.7661Z" fill="#E67A79"/>
</svg>
