<svg width="37" height="39" viewBox="0 0 37 39" fill="none" xmlns="http://www.w3.org/2000/svg">
<path d="M6.96875 2.84375H4.40625C4.06644 2.84375 3.74055 2.97874 3.50027 3.21902C3.25999 3.4593 3.125 3.78519 3.125 4.125V11.8125H0.5625V4.125C0.5625 3.10557 0.967465 2.1279 1.68831 1.40706C2.40915 0.686215 3.38682 0.28125 4.40625 0.28125H6.96875C7.30856 0.28125 7.63445 0.416238 7.87473 0.656519C8.11501 0.8968 8.25 1.22269 8.25 1.5625C8.25 1.90231 8.11501 2.2282 7.87473 2.46848C7.63445 2.70876 7.30856 2.84375 6.96875 2.84375Z" fill="#244D89"/>
<path d="M21.0625 11.8125H18.5V4.125C18.5 3.78519 18.365 3.4593 18.1247 3.21902C17.8844 2.97874 17.5586 2.84375 17.2188 2.84375H14.6562C14.3164 2.84375 13.9906 2.70876 13.7503 2.46848C13.51 2.2282 13.375 1.90231 13.375 1.5625C13.375 1.22269 13.51 0.8968 13.7503 0.656519C13.9906 0.416238 14.3164 0.28125 14.6562 0.28125H17.2188C18.2382 0.28125 19.2158 0.686215 19.9367 1.40706C20.6575 2.1279 21.0625 3.10557 21.0625 4.125V11.8125Z" fill="#244D89"/>
<path d="M6.96875 2.84375H5.6875V0.28125H6.96875C7.30856 0.28125 7.63445 0.416238 7.87473 0.656519C8.11501 0.8968 8.25 1.22269 8.25 1.5625C8.25 1.90231 8.11501 2.2282 7.87473 2.46848C7.63445 2.70876 7.30856 2.84375 6.96875 2.84375Z" fill="#578AD6"/>
<path d="M14.6562 2.84375H15.9375V0.28125H14.6562C14.3164 0.28125 13.9906 0.416238 13.7503 0.656519C13.51 0.8968 13.375 1.22269 13.375 1.5625C13.375 1.90231 13.51 2.2282 13.7503 2.46848C13.9906 2.70876 14.3164 2.84375 14.6562 2.84375Z" fill="#578AD6"/>
<path d="M21.0625 11.8125C21.0625 15.4384 20.2681 16.1175 16.8728 22.0625C16.4224 22.8427 15.7742 23.4904 14.9937 23.9403C14.2131 24.3902 13.3278 24.6263 12.4269 24.625C11.9784 24.625 12.0938 24.2022 12.0938 27.1875H9.53125V24.625C8.57473 24.6875 7.61983 24.4806 6.77504 24.0276C5.93025 23.5746 5.22943 22.8938 4.75219 22.0625C1.51063 16.3866 0.5625 15.4512 0.5625 11.8125H3.125C3.125 14.5928 3.47094 14.6441 6.96875 20.7812C7.19452 21.1723 7.51961 21.4967 7.9111 21.7217C8.30259 21.9467 8.74659 22.0643 9.19812 22.0625C11.9144 22.0625 13.6825 22.4469 14.6562 20.7812C18.0259 14.8875 18.5 14.6569 18.5 11.8125H21.0625Z" fill="#578AD6"/>
<path d="M30.0313 22.0625V27.1875C30.0313 27.8671 29.7613 28.5189 29.2807 28.9995C28.8002 29.48 28.1484 29.75 27.4688 29.75H12.0938V27.1875H9.53125V29.75H7.60938C6.72245 29.75 5.85544 30.013 5.11799 30.5058C4.38054 30.9985 3.80577 31.6989 3.46635 32.5183C3.12694 33.3377 3.03814 34.2393 3.21117 35.1092C3.3842 35.9791 3.81129 36.7782 4.43845 37.4053C5.0656 38.0325 5.86464 38.4596 6.73452 38.6326C7.6044 38.8056 8.50606 38.7168 9.32547 38.3774C10.1449 38.038 10.8452 37.4632 11.338 36.7258C11.8307 35.9883 12.0938 35.1213 12.0938 34.2344V32.3125H27.4688C28.828 32.3125 30.1315 31.7725 31.0927 30.8114C32.0538 29.8503 32.5938 28.5467 32.5938 27.1875V22.0625H30.0313ZM9.53125 34.2344C9.53125 34.6145 9.41854 34.9861 9.20736 35.3021C8.99618 35.6182 8.69602 35.8645 8.34485 36.01C7.99367 36.1554 7.60724 36.1935 7.23444 36.1193C6.86163 36.0452 6.51918 35.8621 6.25041 35.5933C5.98163 35.3246 5.79859 34.9821 5.72443 34.6093C5.65027 34.2365 5.68833 33.8501 5.8338 33.4989C5.97926 33.1477 6.22559 32.8476 6.54164 32.6364C6.85769 32.4252 7.22927 32.3125 7.60938 32.3125H9.53125V34.2344Z" fill="#244D89"/>
<path d="M31.3125 24.625C34.143 24.625 36.4375 22.3305 36.4375 19.5C36.4375 16.6695 34.143 14.375 31.3125 14.375C28.482 14.375 26.1875 16.6695 26.1875 19.5C26.1875 22.3305 28.482 24.625 31.3125 24.625Z" fill="#578AD6"/>
<path d="M31.3125 22.0625C32.7277 22.0625 33.875 20.9152 33.875 19.5C33.875 18.0848 32.7277 16.9375 31.3125 16.9375C29.8973 16.9375 28.75 18.0848 28.75 19.5C28.75 20.9152 29.8973 22.0625 31.3125 22.0625Z" fill="#244D89"/>
</svg>
