<svg width="39" height="39" viewBox="0 0 39 39" fill="none" xmlns="http://www.w3.org/2000/svg">
<mask id="path-1-inside-1_47_96" fill="white">
<path fill-rule="evenodd" clip-rule="evenodd" d="M19.5 39C30.2696 39 39 30.2696 39 19.5C39 8.73045 30.2696 0 19.5 0C8.73045 0 0 8.73045 0 19.5C0 30.2696 8.73045 39 19.5 39ZM12.75 19.75C12.75 18.7835 11.9105 18 10.875 18C9.83947 18 9 18.7835 9 19.75C9 20.7165 9.83947 21.5 10.875 21.5C11.9105 21.5 12.75 20.7165 12.75 19.75ZM19.875 18C20.9105 18 21.75 18.7835 21.75 19.75C21.75 20.7165 20.9105 21.5 19.875 21.5C18.8395 21.5 18 20.7165 18 19.75C18 18.7835 18.8395 18 19.875 18ZM30.75 19.75C30.75 18.7835 29.9105 18 28.875 18C27.8395 18 27 18.7835 27 19.75C27 20.7165 27.8395 21.5 28.875 21.5C29.9105 21.5 30.75 20.7165 30.75 19.75Z"/>
</mask>
<path fill-rule="evenodd" clip-rule="evenodd" d="M19.5 39C30.2696 39 39 30.2696 39 19.5C39 8.73045 30.2696 0 19.5 0C8.73045 0 0 8.73045 0 19.5C0 30.2696 8.73045 39 19.5 39ZM12.75 19.75C12.75 18.7835 11.9105 18 10.875 18C9.83947 18 9 18.7835 9 19.75C9 20.7165 9.83947 21.5 10.875 21.5C11.9105 21.5 12.75 20.7165 12.75 19.75ZM19.875 18C20.9105 18 21.75 18.7835 21.75 19.75C21.75 20.7165 20.9105 21.5 19.875 21.5C18.8395 21.5 18 20.7165 18 19.75C18 18.7835 18.8395 18 19.875 18ZM30.75 19.75C30.75 18.7835 29.9105 18 28.875 18C27.8395 18 27 18.7835 27 19.75C27 20.7165 27.8395 21.5 28.875 21.5C29.9105 21.5 30.75 20.7165 30.75 19.75Z" fill="#EEF5FF"/>
<path d="M38 19.5C38 29.7173 29.7173 38 19.5 38V40C30.8218 40 40 30.8218 40 19.5H38ZM19.5 1C29.7173 1 38 9.28273 38 19.5H40C40 8.17816 30.8218 -1 19.5 -1V1ZM1 19.5C1 9.28273 9.28273 1 19.5 1V-1C8.17816 -1 -1 8.17816 -1 19.5H1ZM19.5 38C9.28273 38 1 29.7173 1 19.5H-1C-1 30.8218 8.17816 40 19.5 40V38ZM10.875 19C11.4244 19 11.75 19.3997 11.75 19.75H13.75C13.75 18.1674 12.3967 17 10.875 17V19ZM10 19.75C10 19.3997 10.3256 19 10.875 19V17C9.35328 17 8 18.1674 8 19.75H10ZM10.875 20.5C10.3256 20.5 10 20.1004 10 19.75H8C8 21.3326 9.35328 22.5 10.875 22.5V20.5ZM11.75 19.75C11.75 20.1004 11.4244 20.5 10.875 20.5V22.5C12.3967 22.5 13.75 21.3326 13.75 19.75H11.75ZM22.75 19.75C22.75 18.1674 21.3967 17 19.875 17V19C20.4244 19 20.75 19.3997 20.75 19.75H22.75ZM19.875 22.5C21.3967 22.5 22.75 21.3326 22.75 19.75H20.75C20.75 20.1004 20.4244 20.5 19.875 20.5V22.5ZM17 19.75C17 21.3326 18.3533 22.5 19.875 22.5V20.5C19.3256 20.5 19 20.1004 19 19.75H17ZM19.875 17C18.3533 17 17 18.1674 17 19.75H19C19 19.3997 19.3256 19 19.875 19V17ZM28.875 19C29.4244 19 29.75 19.3997 29.75 19.75H31.75C31.75 18.1674 30.3967 17 28.875 17V19ZM28 19.75C28 19.3997 28.3256 19 28.875 19V17C27.3533 17 26 18.1674 26 19.75H28ZM28.875 20.5C28.3256 20.5 28 20.1004 28 19.75H26C26 21.3326 27.3533 22.5 28.875 22.5V20.5ZM29.75 19.75C29.75 20.1004 29.4244 20.5 28.875 20.5V22.5C30.3967 22.5 31.75 21.3326 31.75 19.75H29.75Z" fill="black" fill-opacity="0.25" mask="url(#path-1-inside-1_47_96)"/>
</svg>
