<svg width="37" height="32" viewBox="0 0 37 32" fill="none" xmlns="http://www.w3.org/2000/svg">
<circle cx="14" cy="7" r="5.75" stroke="#578AD6" stroke-width="2" stroke-linecap="round"/>
<path d="M22.3696 8.0625C22.9829 7.00021 23.9931 6.22507 25.178 5.90759C26.3628 5.59012 27.6252 5.75632 28.6875 6.36963C29.7498 6.98295 30.5249 7.99313 30.8424 9.17796C31.1599 10.3628 30.9937 11.6252 30.3804 12.6875C29.7671 13.7498 28.7569 14.5249 27.572 14.8424C26.3872 15.1599 25.1248 14.9937 24.0625 14.3804C23.0002 13.7671 22.2251 12.7569 21.9076 11.572C21.5901 10.3872 21.7563 9.12479 22.3696 8.0625L22.3696 8.0625Z" stroke="#578AD6" stroke-width="2"/>
<path d="M1.68163 29.6326L0.685763 29.5417L1.68163 29.6326ZM26.3184 29.6325L27.3143 29.5417L26.3184 29.6325ZM25.375 29.625H2.62503V31.625H25.375V29.625ZM2.67749 29.7234C2.81391 28.2279 3.29211 25.2884 4.91914 22.7493C6.50693 20.2714 9.21196 18.125 14 18.125V16.125C8.46727 16.125 5.1553 18.6737 3.23519 21.6702C1.35432 24.6055 0.833725 27.9197 0.685763 29.5417L2.67749 29.7234ZM14 18.125C18.7881 18.125 21.4931 20.2714 23.0809 22.7493C24.7079 25.2884 25.1861 28.2279 25.3226 29.7234L27.3143 29.5417C27.1663 27.9197 26.6457 24.6055 24.7649 21.6702C22.8448 18.6737 19.5328 16.125 14 16.125V18.125ZM2.62503 29.625C2.61876 29.625 2.63057 29.6236 2.64699 29.6406C2.65522 29.6491 2.66432 29.6622 2.67067 29.6798C2.6774 29.6984 2.67829 29.7146 2.67749 29.7234L0.685763 29.5417C0.577249 30.7312 1.54001 31.625 2.62503 31.625V29.625ZM25.375 31.625C26.46 31.625 27.4228 30.7312 27.3143 29.5417L25.3226 29.7234C25.3218 29.7146 25.3227 29.6984 25.3294 29.6798C25.3357 29.6622 25.3448 29.6491 25.3531 29.6406C25.3695 29.6236 25.3813 29.625 25.375 29.625V31.625Z" fill="#578AD6"/>
<path d="M35.21 29.5354L36.1936 29.355V29.355L35.21 29.5354ZM22.5508 20.4567L22.015 19.6124L20.9847 20.2663L21.8282 21.148L22.5508 20.4567ZM26.3184 29.6325L27.3143 29.5417L26.3184 29.6325ZM34.2701 29.625H25.375V31.625H34.2701V29.625ZM34.2264 29.7158C34.2252 29.7095 34.2246 29.6948 34.2296 29.677C34.2343 29.6606 34.2419 29.6484 34.2487 29.6406C34.2625 29.6248 34.2746 29.625 34.2701 29.625V31.625C35.4375 31.625 36.4216 30.5982 36.1936 29.355L34.2264 29.7158ZM26.3751 20.375C29.0895 20.375 30.8928 21.9121 32.132 23.9213C33.3849 25.9525 33.9759 28.3501 34.2264 29.7158L36.1936 29.355C35.9262 27.897 35.2794 25.2143 33.8343 22.8713C32.3755 20.5062 30.0203 18.375 26.3751 18.375V20.375ZM23.0866 21.3011C23.9833 20.732 25.0597 20.375 26.3751 20.375V18.375C24.6713 18.375 23.2246 18.8448 22.015 19.6124L23.0866 21.3011ZM21.8282 21.148C24.4699 23.9095 25.1536 27.8718 25.3225 29.7234L27.3143 29.5417C27.1353 27.58 26.4022 23.0362 23.2734 19.7655L21.8282 21.148ZM25.3225 29.7234C25.3217 29.7146 25.3226 29.6984 25.3294 29.6798C25.3357 29.6622 25.3448 29.6491 25.353 29.6406C25.3695 29.6236 25.3813 29.625 25.375 29.625V31.625C26.46 31.625 27.4228 30.7312 27.3143 29.5417L25.3225 29.7234Z" fill="#578AD6"/>
</svg>
