<svg width="39" height="39" viewBox="0 0 39 39" fill="none" xmlns="http://www.w3.org/2000/svg">
<path d="M8.53125 29.25H5.97188C5.68097 29.25 5.40197 29.1344 5.19627 28.9287C4.99056 28.723 4.875 28.444 4.875 28.1531V10.8469C4.875 10.556 4.99056 10.277 5.19627 10.0713C5.40197 9.86556 5.68097 9.75 5.97188 9.75H25.5938C25.917 9.75 26.227 9.6216 26.4555 9.39304C26.6841 9.16448 26.8125 8.85448 26.8125 8.53125C26.8125 8.20802 26.6841 7.89802 26.4555 7.66946C26.227 7.4409 25.917 7.3125 25.5938 7.3125H5.97188C5.50773 7.3125 5.04814 7.40392 4.61933 7.58154C4.19052 7.75916 3.80089 8.0195 3.47269 8.34769C2.80987 9.01052 2.4375 9.9095 2.4375 10.8469V28.1531C2.4375 29.0905 2.80987 29.9895 3.47269 30.6523C3.80089 30.9805 4.19052 31.2408 4.61933 31.4185C5.04814 31.5961 5.50773 31.6875 5.97188 31.6875H8.53125C8.85448 31.6875 9.16448 31.5591 9.39304 31.3305C9.6216 31.102 9.75 30.792 9.75 30.4688C9.75 30.1455 9.6216 29.8355 9.39304 29.607C9.16448 29.3784 8.85448 29.25 8.53125 29.25Z" fill="#244D89"/>
<path d="M33.0281 7.3125H30.4688C30.1455 7.3125 29.8355 7.4409 29.607 7.66946C29.3784 7.89802 29.25 8.20802 29.25 8.53125C29.25 8.85448 29.3784 9.16448 29.607 9.39304C29.8355 9.6216 30.1455 9.75 30.4688 9.75H33.0281C33.319 9.75 33.598 9.86556 33.8037 10.0713C34.0094 10.277 34.125 10.556 34.125 10.8469V28.1531C34.125 28.444 34.0094 28.723 33.8037 28.9287C33.598 29.1344 33.319 29.25 33.0281 29.25H13.4062C13.083 29.25 12.773 29.3784 12.5445 29.607C12.3159 29.8355 12.1875 30.1455 12.1875 30.4688C12.1875 30.792 12.3159 31.102 12.5445 31.3305C12.773 31.5591 13.083 31.6875 13.4062 31.6875H33.0281C33.9655 31.6875 34.8645 31.3151 35.5273 30.6523C36.1901 29.9895 36.5625 29.0905 36.5625 28.1531V10.8469C36.5625 9.9095 36.1901 9.01052 35.5273 8.34769C34.8645 7.68487 33.9655 7.3125 33.0281 7.3125Z" fill="#244D89"/>
<path d="M17.0625 25.5938V23.1562H19.5C19.8232 23.1562 20.1332 23.0278 20.3618 22.7993C20.5903 22.5707 20.7188 22.2607 20.7188 21.9375V17.0625C20.7188 16.7393 20.5903 16.4293 20.3618 16.2007C20.1332 15.9722 19.8232 15.8438 19.5 15.8438H17.0625V13.4062C17.0625 13.083 16.9341 12.773 16.7055 12.5445C16.477 12.3159 16.167 12.1875 15.8438 12.1875H10.9688C10.6455 12.1875 10.3355 12.3159 10.107 12.5445C9.8784 12.773 9.75 13.083 9.75 13.4062V15.8438H7.3125C6.98927 15.8438 6.67927 15.9722 6.45071 16.2007C6.22215 16.4293 6.09375 16.7393 6.09375 17.0625V21.9375C6.09375 22.2607 6.22215 22.5707 6.45071 22.7993C6.67927 23.0278 6.98927 23.1562 7.3125 23.1562H9.75V25.5938C9.75 25.917 9.8784 26.227 10.107 26.4555C10.3355 26.6841 10.6455 26.8125 10.9688 26.8125H15.8438C16.167 26.8125 16.477 26.6841 16.7055 26.4555C16.9341 26.227 17.0625 25.917 17.0625 25.5938ZM14.625 21.9375V24.375H12.1875V21.9375C12.1875 21.6143 12.0591 21.3043 11.8305 21.0757C11.602 20.8472 11.292 20.7188 10.9688 20.7188H8.53125V18.2812H10.9688C11.292 18.2812 11.602 18.1528 11.8305 17.9243C12.0591 17.6957 12.1875 17.3857 12.1875 17.0625V14.625H14.625V17.0625C14.625 17.3857 14.7534 17.6957 14.982 17.9243C15.2105 18.1528 15.5205 18.2812 15.8438 18.2812H18.2812V20.7188H15.8438C15.5205 20.7188 15.2105 20.8472 14.982 21.0757C14.7534 21.3043 14.625 21.6143 14.625 21.9375Z" fill="#578AD6"/>
<path d="M31.6875 13.4062H24.375C24.0518 13.4062 23.7418 13.5347 23.5132 13.7632C23.2847 13.9918 23.1562 14.3018 23.1562 14.625C23.1562 14.9482 23.2847 15.2582 23.5132 15.4868C23.7418 15.7153 24.0518 15.8438 24.375 15.8438H31.6875C32.0107 15.8438 32.3207 15.7153 32.5493 15.4868C32.7778 15.2582 32.9062 14.9482 32.9062 14.625C32.9062 14.3018 32.7778 13.9918 32.5493 13.7632C32.3207 13.5347 32.0107 13.4062 31.6875 13.4062Z" fill="#578AD6"/>
<path d="M31.6875 18.2812H24.375C24.0518 18.2812 23.7418 18.4097 23.5132 18.6382C23.2847 18.8668 23.1562 19.1768 23.1562 19.5C23.1562 19.8232 23.2847 20.1332 23.5132 20.3618C23.7418 20.5903 24.0518 20.7188 24.375 20.7188H31.6875C32.0107 20.7188 32.3207 20.5903 32.5493 20.3618C32.7778 20.1332 32.9062 19.8232 32.9062 19.5C32.9062 19.1768 32.7778 18.8668 32.5493 18.6382C32.3207 18.4097 32.0107 18.2812 31.6875 18.2812Z" fill="#578AD6"/>
<path d="M31.6875 23.1562H24.375C24.0518 23.1562 23.7418 23.2847 23.5132 23.5132C23.2847 23.7418 23.1562 24.0518 23.1562 24.375C23.1562 24.6982 23.2847 25.0082 23.5132 25.2368C23.7418 25.4653 24.0518 25.5938 24.375 25.5938H31.6875C32.0107 25.5938 32.3207 25.4653 32.5493 25.2368C32.7778 25.0082 32.9062 24.6982 32.9062 24.375C32.9062 24.0518 32.7778 23.7418 32.5493 23.5132C32.3207 23.2847 32.0107 23.1562 31.6875 23.1562Z" fill="#578AD6"/>
</svg>
