<svg width="30" height="30" viewBox="0 0 24 24" fill="none" xmlns="http://www.w3.org/2000/svg">
<path d="M8.80739 12.1778L8.80739 12.1778C8.80659 12.1786 8.80579 12.1794 8.80499 12.1802C8.79478 12.1904 8.78463 12.2005 8.77456 12.2106C8.61209 12.3727 8.46826 12.5162 8.36689 12.6953C8.26553 12.8743 8.21646 13.0715 8.16102 13.2942C8.15732 13.3091 8.15358 13.3241 8.1498 13.3392L7.71704 15.0703C7.71483 15.0791 7.7126 15.088 7.71036 15.097C7.67112 15.2537 7.62921 15.421 7.61546 15.5615C7.60032 15.7163 7.60385 15.9773 7.81326 16.1867L8.16682 15.8332L7.81326 16.1867C8.02267 16.3961 8.28373 16.3997 8.43846 16.3845C8.579 16.3708 8.74634 16.3289 8.90303 16.2896C8.91196 16.2874 8.92086 16.2852 8.92972 16.283L10.6608 15.8502C10.6759 15.8464 10.6909 15.8427 10.7058 15.839C10.9285 15.7835 11.1257 15.7345 11.3047 15.6331L11.0584 15.198L11.3047 15.6331C11.4838 15.5317 11.6273 15.3879 11.7894 15.2254C11.8002 15.2146 11.8112 15.2036 11.8222 15.1926L17.1997 9.81509L17.1997 9.81508L17.2141 9.80074C17.4104 9.60439 17.5798 9.43501 17.7071 9.28376C17.8416 9.12399 17.9597 8.95 18.0235 8.73546C18.1065 8.45633 18.1065 8.15905 18.0235 7.87992C17.9597 7.66539 17.8416 7.49139 17.7071 7.33162C17.5798 7.18038 17.4104 7.01101 17.2141 6.81467L17.1997 6.80029L17.1853 6.78593C16.989 6.58957 16.8196 6.42018 16.6684 6.29288C16.5086 6.15841 16.3346 6.04034 16.1201 5.9765C15.8409 5.89345 15.5437 5.89345 15.2645 5.9765C15.05 6.04034 14.876 6.15841 14.7162 6.29288C14.565 6.42018 14.3956 6.58956 14.1993 6.78592L14.1849 6.80029L8.80739 12.1778Z" stroke="#568BD7"/>
<path d="M12.5 7.5L15.5 5.5L18.5 8.5L16.5 11.5L12.5 7.5Z" fill="#568BD7"/>
</svg>
