<svg width="27" height="29" viewBox="0 0 27 29" fill="none" xmlns="http://www.w3.org/2000/svg">
<g clip-path="url(#clip0_310_1171)">
<path d="M7.08517 12.2702L6.84262 12.5223L6.99643 12.8366C8.66176 16.2391 11.3455 19.0182 14.6224 20.7638L14.9559 20.9414L15.2178 20.6691L17.6922 18.0966C17.8628 17.9193 18.1071 17.8676 18.3112 17.9403L18.3112 17.9404L18.3167 17.9423C19.6283 18.3927 21.0441 18.6359 22.4943 18.6359C22.8187 18.6359 23.1191 18.9197 23.1191 19.3052V23.386C23.1191 23.7715 22.8187 24.0553 22.4943 24.0553C12.2275 24.0553 3.87402 15.3993 3.87402 4.67723C3.87402 4.29177 4.17443 4.00793 4.49875 4.00793H8.43528C8.7596 4.00793 9.06001 4.29177 9.06001 4.67723C9.06001 6.18896 9.29248 7.64188 9.72337 8.99924C9.79678 9.24562 9.74059 9.50949 9.55956 9.6977L7.08517 12.2702Z" fill="#568BD7" stroke="#568BD7"/>
</g>
<defs>
<clipPath id="clip0_310_1171">
<rect width="26.9934" height="28.0632" fill="white"/>
</clipPath>
</defs>
</svg>
