<svg width="889" height="1047" viewBox="0 0 889 1047" fill="none" xmlns="http://www.w3.org/2000/svg">
<path d="M204.911 600.996C196.667 594.146 192.704 583.419 194.514 572.855L218.971 430.129C220.781 419.565 228.089 410.769 238.143 407.055L373.975 356.872C384.029 353.157 395.301 355.089 403.544 361.938L514.92 454.481C523.164 461.331 527.127 472.058 525.317 482.622L500.861 625.347C499.05 635.911 491.742 644.707 481.688 648.422L345.856 698.605C335.802 702.319 324.531 700.388 316.287 693.538L204.911 600.996Z" fill="#578AD6"/>
<path d="M526.958 658.013C518.714 651.164 514.751 640.436 516.561 629.872L541.017 487.147C542.828 476.583 550.136 467.787 560.19 464.073L696.022 413.889C706.076 410.175 717.347 412.106 725.591 418.956L836.967 511.499C845.211 518.348 849.174 529.076 847.364 539.64L822.907 682.365C821.097 692.929 813.789 701.725 803.735 705.439L667.903 755.623C657.849 759.337 646.577 757.405 638.334 750.556L526.958 658.013Z" fill="#B9CEED"/>
<path d="M413.775 351.659C405.532 344.809 401.568 334.082 403.379 323.518L427.835 180.793C429.645 170.229 436.953 161.433 447.007 157.718L582.839 107.535C592.893 103.821 604.165 105.752 612.408 112.602L723.784 205.144C732.028 211.994 735.991 222.721 734.181 233.285L709.725 376.011C707.915 386.575 700.606 395.371 690.552 399.085L554.72 449.268C544.666 452.983 533.395 451.051 525.151 444.202L413.775 351.659Z" fill="#244D89"/>
</svg>
