<svg width="24" height="30" viewBox="0 0 24 30" fill="none" xmlns="http://www.w3.org/2000/svg">
<path d="M2.50153 28.6948L2.04102 29.5825L2.04102 29.5825L2.50153 28.6948ZM1.29973 27.4712L0.405457 27.9187L0.405458 27.9187L1.29973 27.4712ZM22.7003 27.4712L23.5945 27.9187V27.9187L22.7003 27.4712ZM21.4985 28.6948L21.959 29.5825L21.959 29.5825L21.4985 28.6948ZM21.4985 4.10526L21.959 3.21761L21.4985 4.10526ZM22.7003 5.32891L21.806 5.77643L22.7003 5.32891ZM2.50153 4.10526L2.96203 4.99292H2.96203L2.50153 4.10526ZM1.29973 5.32891L0.405458 4.88139L1.29973 5.32891ZM6.5 9.8C5.94772 9.8 5.5 10.2477 5.5 10.8C5.5 11.3523 5.94772 11.8 6.5 11.8V9.8ZM17.5 11.8C18.0523 11.8 18.5 11.3523 18.5 10.8C18.5 10.2477 18.0523 9.8 17.5 9.8V11.8ZM6.5 15.4C5.94772 15.4 5.5 15.8477 5.5 16.4C5.5 16.9523 5.94772 17.4 6.5 17.4V15.4ZM12 17.4C12.5523 17.4 13 16.9523 13 16.4C13 15.8477 12.5523 15.4 12 15.4V17.4ZM6.5 21C5.94772 21 5.5 21.4477 5.5 22C5.5 22.5523 5.94772 23 6.5 23V21ZM17.5 23C18.0523 23 18.5 22.5523 18.5 22C18.5 21.4477 18.0523 21 17.5 21V23ZM22 8.28008V24.52H24V8.28008H22ZM18.6 28H5.4V30H18.6V28ZM2 24.52V8.28008H0V24.52H2ZM5.4 28C4.61313 28 4.08421 27.9992 3.67671 27.9653C3.28142 27.9324 3.09012 27.8736 2.96203 27.8072L2.04102 29.5825C2.50119 29.8212 2.98905 29.915 3.5109 29.9584C4.02054 30.0008 4.64673 30 5.4 30V28ZM0 24.52C0 25.2879 -0.000750422 25.9228 0.0406706 26.439C0.0829868 26.9664 0.17409 27.4564 0.405457 27.9187L2.19401 27.0237C2.12564 26.887 2.06688 26.6855 2.03426 26.279C2.00075 25.8614 2 25.3203 2 24.52H0ZM2.96203 27.8072C2.63415 27.6371 2.36424 27.3638 2.19401 27.0237L0.405458 27.9187C0.762523 28.6322 1.33401 29.2157 2.04102 29.5825L2.96203 27.8072ZM22 24.52C22 25.3203 21.9993 25.8614 21.9657 26.279C21.9331 26.6855 21.8744 26.887 21.806 27.0237L23.5945 27.9187C23.8259 27.4564 23.917 26.9664 23.9593 26.439C24.0007 25.9228 24 25.2879 24 24.52H22ZM18.6 30C19.3533 30 19.9795 30.0008 20.4891 29.9584C21.011 29.915 21.4988 29.8212 21.959 29.5825L21.038 27.8072C20.9099 27.8736 20.7186 27.9324 20.3233 27.9653C19.9158 27.9992 19.3869 28 18.6 28V30ZM21.806 27.0237C21.6358 27.3638 21.3658 27.6371 21.038 27.8072L21.959 29.5825C22.666 29.2157 23.2375 28.6322 23.5945 27.9187L21.806 27.0237ZM18.6 4.80008C19.3869 4.80008 19.9158 4.80089 20.3233 4.83479C20.7186 4.86767 20.9099 4.92647 21.038 4.99292L21.959 3.21761C21.4988 2.97888 21.011 2.88509 20.4891 2.84167C19.9795 2.79928 19.3533 2.80008 18.6 2.80008V4.80008ZM24 8.28008C24 7.51222 24.0007 6.87725 23.9593 6.36106C23.917 5.83372 23.8259 5.34373 23.5945 4.88139L21.806 5.77643C21.8744 5.91304 21.9331 6.11457 21.9657 6.52104C21.9993 6.93866 22 7.4798 22 8.28008H24ZM21.038 4.99292C21.3658 5.16302 21.6358 5.43624 21.806 5.77643L23.5945 4.88139C23.2375 4.16787 22.666 3.5844 21.959 3.21761L21.038 4.99292ZM5.4 2.80008C4.64673 2.80008 4.02054 2.79928 3.5109 2.84167C2.98905 2.88509 2.50119 2.97888 2.04102 3.21761L2.96203 4.99292C3.09012 4.92647 3.28142 4.86767 3.67671 4.83479C4.08421 4.80089 4.61313 4.80008 5.4 4.80008V2.80008ZM2 8.28008C2 7.4798 2.00075 6.93866 2.03426 6.52104C2.06688 6.11457 2.12564 5.91304 2.19401 5.77643L0.405458 4.88139C0.17409 5.34373 0.0829867 5.83372 0.0406706 6.36106C-0.000750422 6.87725 0 7.51222 0 8.28008H2ZM2.04102 3.21761C1.33401 3.5844 0.762522 4.16787 0.405458 4.88139L2.19401 5.77643C2.36425 5.43624 2.63415 5.16302 2.96203 4.99292L2.04102 3.21761ZM5.4 4.80008H6.5V2.80008H5.4V4.80008ZM18.6 2.80008H17.5V4.80008H18.6V2.80008ZM7.1875 2H16.8125V0H7.1875V2ZM16.5 1.7V4.5H18.5V1.7H16.5ZM16.8125 4.2H7.1875V6.2H16.8125V4.2ZM7.5 4.5V1.7H5.5V4.5H7.5ZM7.1875 4.2C7.377 4.2 7.5 4.35138 7.5 4.5H5.5C5.5 5.42182 6.23861 6.2 7.1875 6.2V4.2ZM16.5 4.5C16.5 4.35138 16.623 4.2 16.8125 4.2V6.2C17.7614 6.2 18.5 5.42182 18.5 4.5H16.5ZM16.8125 2C16.623 2 16.5 1.84862 16.5 1.7H18.5C18.5 0.778179 17.7614 0 16.8125 0V2ZM7.1875 0C6.23861 0 5.5 0.77818 5.5 1.7H7.5C7.5 1.84862 7.377 2 7.1875 2V0ZM6.5 11.8H17.5V9.8H6.5V11.8ZM6.5 17.4H12V15.4H6.5V17.4ZM6.5 23H17.5V21H6.5V23Z" fill="#222222"/>
</svg>
