<svg width="29" height="31" viewBox="0 0 29 31" fill="none" xmlns="http://www.w3.org/2000/svg">
<path d="M10.3755 4.16766C10.3755 2.83242 11.4579 1.75 12.7931 1.75H16.2078C17.543 1.75 18.6255 2.83243 18.6255 4.16768C18.6255 6.0288 20.6402 7.19199 22.252 6.26142C23.4084 5.59379 24.8871 5.98998 25.5547 7.14636L27.262 10.1035C27.9296 11.2598 27.5334 12.7385 26.377 13.4061C24.7652 14.3367 24.7652 16.6631 26.377 17.5937C27.5334 18.2613 27.9296 19.74 27.262 20.8963L25.5547 23.8535C24.8871 25.0098 23.4084 25.406 22.252 24.7384C20.6402 23.8078 18.6255 24.9711 18.6255 26.8322C18.6255 28.1675 17.543 29.25 16.2077 29.25H12.7932C11.4579 29.25 10.3755 28.1675 10.3755 26.8322C10.3755 24.9711 8.36071 23.8078 6.74892 24.7384C5.59255 25.406 4.11392 25.0098 3.44629 23.8535L1.73899 20.8963C1.07136 19.74 1.46756 18.2613 2.62393 17.5937C4.23573 16.6631 4.23573 14.3367 2.62393 13.4061C1.46756 12.7385 1.07136 11.2598 1.73899 10.1035L3.44629 7.14633C4.11392 5.98997 5.59257 5.59378 6.74893 6.2614C8.36071 7.19196 10.3755 6.02878 10.3755 4.16766Z" stroke="#222222" stroke-width="2"/>
<path d="M20.0005 15.5C20.0005 18.5376 17.538 21 14.5005 21C11.4629 21 9.00045 18.5376 9.00045 15.5C9.00045 12.4624 11.4629 10 14.5005 10C17.538 10 20.0005 12.4624 20.0005 15.5Z" stroke="#222222" stroke-width="2"/>
</svg>
