<svg width="37" height="37" viewBox="0 0 37 37" fill="none" xmlns="http://www.w3.org/2000/svg">
<path d="M14.5555 7.08369C16.2271 2.91657 17.0628 0.833008 18.5 0.833008C19.9372 0.833008 20.773 2.91657 22.4445 7.08369L22.5223 7.27774C23.4667 9.63196 23.9388 10.8091 24.9012 11.5245C25.8635 12.24 27.1267 12.3531 29.6531 12.5794L30.1099 12.6203C34.2447 12.9906 36.3122 13.1758 36.7545 14.4911C37.1969 15.8064 35.6616 17.2033 32.5908 19.997L31.566 20.9294C30.0115 22.3436 29.2343 23.0507 28.8721 23.9775C28.8045 24.1504 28.7483 24.3275 28.7039 24.5077C28.4658 25.4739 28.6934 26.4997 29.1486 28.5513L29.2902 29.1899C30.1268 32.9604 30.5451 34.8456 29.8148 35.6588C29.5419 35.9626 29.1872 36.1814 28.7932 36.2889C27.7387 36.5766 26.2417 35.3568 23.2477 32.9171C21.2817 31.3151 20.2987 30.5141 19.1701 30.3339C18.7262 30.263 18.2738 30.263 17.8299 30.3339C16.7013 30.5141 15.7183 31.3151 13.7523 32.9171C10.7583 35.3568 9.2613 36.5766 8.20687 36.2889C7.81285 36.1814 7.45817 35.9626 7.18527 35.6588C6.45495 34.8456 6.87323 32.9604 7.70979 29.1899L7.85147 28.5513C8.30667 26.4997 8.53427 25.4739 8.29615 24.5077C8.25173 24.3275 8.19555 24.1504 8.12798 23.9775C7.76572 23.0507 6.9885 22.3436 5.43404 20.9294L4.4092 19.997C1.33848 17.2033 -0.196881 15.8064 0.245498 14.4911C0.687878 13.1758 2.75531 12.9906 6.89016 12.6203L7.3469 12.5794C9.87335 12.3531 11.1366 12.24 12.0989 11.5245C13.0612 10.8091 13.5334 9.63196 14.4777 7.27774L14.5555 7.08369Z" fill="#E67A79"/>
</svg>
