<svg width="564" height="435" viewBox="0 0 564 435" fill="none" xmlns="http://www.w3.org/2000/svg">
<path d="M501.213 434.711C539.967 383.819 563.131 319.176 563.131 248.813C563.155 84.7468 458.294 0 281.578 0C112.655 0 0 84.7468 0 248.813C0 319.176 23.1887 383.819 61.9179 434.711H501.213Z" fill="#E9EFFD"/>
<path d="M448.551 400.223H449.647C450.013 396.499 450.719 392.386 452.01 388.078C456.833 371.795 454.714 369.702 462.874 359.504C471.009 349.331 471.618 328.229 471.618 328.229C471.618 328.229 475.54 304.256 471.618 293.717C467.697 283.154 467.404 272.616 457.88 261.469C457.88 261.469 456.078 276.388 453.813 283.179C451.547 289.969 449.404 296.443 451.085 312.726C452.765 329.008 453.813 330.371 454.178 334.582C454.568 338.792 453.959 356.584 454.86 359.529C455.761 362.474 449.574 382.821 449.136 391.558C449.014 394.162 448.77 397.156 448.551 400.223Z" fill="#244D89"/>
<path d="M452.034 400.223C453.618 396.597 456.37 392.994 461.217 390.828C473.883 385.182 482.433 385.304 488.328 371.747C494.222 358.19 494.222 339.644 496.244 335.799C496.244 335.799 490.812 334.898 485.38 344.609C479.949 354.321 476.271 361.573 473.128 367.22C469.986 372.867 465.456 371.284 461.631 375.592C458.416 379.195 455.42 387.567 454.3 391.826C453.934 393.214 453.398 394.528 452.692 395.769C452.059 396.889 451.304 398.276 450.841 399.249C450.743 399.469 450.646 399.809 450.549 400.223H452.034Z" fill="#B9CEED"/>
<path d="M416.277 335.92C415.376 347.53 422.756 346.629 423.073 354.004C423.365 361.379 433.035 373.913 437.493 382.796C439.831 387.421 440.684 394.503 440.976 400.223H444.581C443.192 385.741 437.298 375.665 433.79 367.585C429.26 357.192 428.578 352.446 432.426 344.293C436.275 336.164 430.624 315.135 436.104 305.741C441.585 296.37 438.784 281.645 437.517 275.999C436.25 270.352 437.639 266.507 438.784 260.544C439.904 254.581 437.517 245.917 437.517 245.917C437.322 253.291 431.695 263.392 427.603 269.89C423.536 276.364 415.838 294.009 416.74 301.993C417.641 309.976 417.202 310.584 417.202 310.584C414.304 321.293 417.178 324.311 416.277 335.92Z" fill="#244D89"/>
<path d="M437.834 390.78C438.297 392.167 439.782 395.696 441.122 400.223H443.314C442.316 394.479 440.586 387.835 437.663 384.013C431.769 376.322 420.004 373.012 418.664 367.439C417.3 361.865 418.81 345.12 410.212 335.774C410.212 335.774 411.43 346.191 410.212 348.966C408.994 351.741 398.739 364.713 404.78 375.568C410.821 386.423 424.388 385.06 428.627 387.469C432.865 389.879 437.079 388.516 437.834 390.78Z" fill="#B9CEED"/>
<path d="M432.402 340.715C432.256 351.862 441 356.097 440.854 362.279C440.708 368.461 442.657 375.081 444.313 380.071C445.36 383.21 444.776 391.997 444.605 400.223H447.041C447.65 394.187 448.332 385.449 448.113 381.58C447.821 376.298 450.232 372.088 450.524 362.888C450.817 353.688 452.79 345.413 448.722 333.803C444.654 322.194 445.409 308.321 428.359 295.519C428.359 295.519 425.338 309.075 427.603 316.474C429.844 323.849 432.548 329.568 432.402 340.715Z" fill="#B9CEED"/>
<path d="M449.672 390.682H448.04H426.313C424.705 390.682 423.536 392.167 423.901 393.724L432.426 429.624C432.694 430.743 433.693 431.522 434.838 431.522H448.064H449.696H462.923C464.067 431.522 465.066 430.743 465.334 429.624L473.859 393.724C474.225 392.167 473.056 390.682 471.448 390.682H449.672Z" fill="#578AD6"/>
<path d="M141.714 372.355H137.866V428.455H141.714V372.355Z" fill="#578AD6"/>
<path d="M196.227 414.096C196.227 414.096 197.055 422.858 196.519 425.706C196.446 426.095 196.276 426.582 196.081 427.117C195.521 428.724 197.08 433.616 197.08 433.616L217.979 433.689C219.124 433.689 218.344 433.007 217.419 432.374C215.908 431.328 214.69 430.646 209.868 428.505C209.551 428.359 208.406 427.677 207.992 427.458C206.945 426.874 205.873 425.925 204.972 424.976C203.461 423.394 203.218 415.678 203.218 415.678L196.227 414.096Z" fill="#F7A491"/>
<path d="M207.968 427.434C202.463 428.845 198.371 427.969 196.081 427.117C195.521 428.724 194.449 434.127 195.083 434.127C200.32 434.127 204.753 435.076 219.757 434.857C220.293 434.857 220.22 433.08 219.879 432.691C218.905 431.62 208.382 427.677 207.968 427.434Z" fill="#244D89"/>
<path d="M219.855 399.591C219.855 399.591 224.434 407.233 225.165 410.032C225.262 410.397 225.336 410.908 225.384 411.468C225.555 413.147 229.111 416.969 229.111 416.969L248.159 408.742C249.206 408.304 248.208 407.963 247.087 407.769C245.26 407.428 243.848 407.282 238.513 407.233C238.172 407.233 236.832 407.063 236.345 407.014C235.127 406.892 233.763 406.454 232.521 405.943C230.451 405.116 226.894 398.179 226.894 398.179L219.855 399.591Z" fill="#F7A491"/>
<path d="M236.345 407.062C231.961 410.543 227.844 411.37 225.384 411.492C225.555 413.171 226.943 418.502 227.528 418.258C232.302 416.189 236.735 415.289 250.302 409.131C250.79 408.912 249.961 407.33 249.474 407.111C248.135 406.527 236.833 407.111 236.345 407.062Z" fill="#244D89"/>
<path d="M154.892 334.387V338.89L199.175 347.798L210.16 379.341L204.022 375.349L205.435 423.929L196.105 424.002C196.105 424.002 179.956 383.259 185.266 362.742L136.234 363.448C136.234 363.448 114.019 355.246 125.492 330.542L154.892 334.387Z" fill="#6598D6"/>
<path d="M154.892 338.89C154.892 338.89 200.831 339.182 204.095 341.592C207.359 344.001 231.839 403.631 231.839 403.631L221.17 407.452C221.17 407.452 199.93 373.621 198.809 371.187C197.689 368.778 189.456 351.132 186.314 349.331C183.147 347.53 154.892 338.89 154.892 338.89Z" fill="#4D7BB2"/>
<path d="M119.451 430.962H157.596C159.349 430.962 160.787 432.374 160.787 434.151C160.787 434.467 160.543 434.711 160.226 434.711H116.82C116.504 434.711 116.26 434.467 116.26 434.151C116.285 432.374 117.697 430.962 119.451 430.962Z" fill="#578AD6"/>
<path d="M136.648 428.456H141.324C142.713 428.456 143.833 429.576 143.833 430.963C143.833 432.35 142.713 433.47 141.324 433.47H136.648C135.259 433.47 134.139 432.35 134.139 430.963C134.139 429.576 135.259 428.456 136.648 428.456Z" fill="#86B1F2"/>
<path d="M158.132 259.108C158.351 254.119 157.596 249.178 155.355 244.529C153.431 240.538 148.681 238.25 144.321 238.25C130.535 238.226 128.781 256.431 120.012 263.465C117.333 265.607 114.337 267.359 111.803 269.671C102.425 278.214 106.664 294.034 115.262 301.53C121.23 306.739 130.608 309.684 137.988 305.619C141.837 303.502 144.735 299.973 146.83 296.103C149.777 290.627 151.677 284.299 153.772 278.457C155.989 272.227 157.864 265.753 158.132 259.108Z" fill="#13375B"/>
<path d="M196.179 311.461L166.17 303.113C166.17 303.113 159.837 294.619 151.725 283.252C149.07 285.881 147.585 289.921 144.905 292.525L164.757 314.479C165.463 315.282 166.486 315.72 167.558 315.72L195.131 315.817L204.558 316.572V310.536L196.179 311.461Z" fill="#F48C7F"/>
<path d="M152.968 305.083C152.968 305.083 142.665 294.545 140.01 289.945C137.355 285.369 141.812 288.339 146.367 287.146C148.096 286.684 147.658 276.607 150.922 279.869C156.256 285.248 162.979 294.667 162.979 294.667L152.968 305.083Z" fill="#B9CEED"/>
<path d="M138.329 275.269C138.329 275.269 129.097 273.444 124.859 276.973C120.645 280.502 125.76 311.801 125.76 316.986C125.76 322.17 122.861 336.846 122.861 336.846C122.861 336.846 150.873 341.738 155.33 333.95C155.33 333.95 156.597 304.281 156.402 300.533C156.207 296.809 152.066 281.549 150.922 279.894C149.777 278.263 138.329 275.269 138.329 275.269Z" fill="#578AD6"/>
<path d="M138.28 260.982C138.28 260.982 138.231 261.25 138.134 261.737C137.72 264 136.112 271.472 135.016 273.517C133.701 275.999 139.522 283.934 145.149 282.96C146.83 282.668 143.736 275.683 143.882 274.953C144.175 273.541 144.54 271.594 144.954 269.623C145.173 268.503 145.393 267.359 145.612 266.313C146.221 263.295 146.708 260.812 146.708 260.812L138.28 260.982Z" fill="#F7A491"/>
<path d="M138.134 261.712C138.232 261.25 138.28 260.958 138.28 260.958L146.684 260.739C146.684 260.739 146.197 263.221 145.588 266.239C145.368 267.31 145.149 268.43 144.93 269.549C143.639 269.355 142.275 268.722 140.911 267.554C139.425 266.264 138.451 264.706 137.866 263.051C137.988 262.515 138.085 262.077 138.134 261.712Z" fill="#F47458"/>
<path d="M143.931 241.925C143.931 241.925 139.961 241.463 137.476 244.676C134.992 247.888 132.312 257.794 138.475 263.173C144.637 268.552 150.751 262.467 151.652 255.993C152.578 249.519 152.919 241.682 143.931 241.925Z" fill="#F7A491"/>
<path d="M153.504 255.895C152.773 257.331 151.531 258.11 150.752 257.672C149.972 257.21 149.923 255.701 150.654 254.265C151.385 252.829 152.627 252.05 153.407 252.488C154.186 252.95 154.235 254.459 153.504 255.895Z" fill="#F7A491"/>
<path d="M144.37 240.855C144.37 240.855 139.084 250.274 135.284 250.712C131.509 251.15 130.997 256.164 130.997 256.164C130.997 256.164 132.361 244.627 136.112 242.413C139.863 240.173 144.37 240.855 144.37 240.855Z" fill="#13375B"/>
<path d="M136.283 253.072C136.599 254.752 135.966 256.285 134.894 256.504C133.823 256.723 132.702 255.555 132.385 253.876C132.069 252.196 132.702 250.663 133.774 250.444C134.87 250.225 135.99 251.417 136.283 253.072Z" fill="#F7A491"/>
<path d="M179.566 310.463L153.552 304.719C153.552 304.719 144.15 292.647 135.113 282.254C132.458 284.883 130.972 288.923 128.293 291.527L148.145 313.481C148.851 314.284 149.874 314.722 150.946 314.722L178.519 314.819L187.946 315.574V309.538L179.566 310.463Z" fill="#F7A491"/>
<path d="M136.38 304.086C136.38 304.086 126.077 293.548 123.422 288.948C120.766 284.372 122.739 276.681 127.294 275.489C131.849 274.272 146.391 293.669 146.391 293.669L136.38 304.086Z" fill="#B9CEED"/>
<path d="M233.008 280.867H190.114C188.969 280.867 187.946 281.549 187.532 282.595L174.33 314.795H150.678C150.021 314.795 149.485 315.331 149.485 315.988C149.485 316.645 150.021 317.18 150.678 317.18H218.004C219.855 317.18 221.536 316.085 222.291 314.406L235.59 284.81C236.394 282.96 235.03 280.867 233.008 280.867Z" fill="#244D89"/>
<path d="M209.917 299.608C209.624 301.044 208.358 302.017 207.091 301.774C205.824 301.531 205.021 300.143 205.313 298.707C205.605 297.271 206.872 296.298 208.138 296.541C209.405 296.785 210.209 298.172 209.917 299.608Z" fill="white"/>
<path d="M146.318 259.595L140.497 259.303C140.497 259.303 140.521 261.518 143.079 261.712C146.196 261.98 146.318 259.595 146.318 259.595Z" fill="white"/>
<path d="M164.514 365.881L161.883 354.953C160.056 347.311 153.285 341.762 145.417 341.445L112.169 340.107L111.146 336.724L145.563 338.111C154.892 338.5 162.955 345.096 165.123 354.174L167.924 365.784C166.974 365.833 165.829 365.857 164.514 365.881Z" fill="#355389"/>
<path d="M119.914 360.065C119.914 360.065 165.585 360.843 170.359 360.065C175.133 359.286 177.179 365.249 175.767 368.364C174.354 371.479 170.432 372.696 164.684 372.988C158.935 373.28 111.023 374.619 109.659 373.353C108.563 372.307 94.0214 322.705 88.7601 304.548C87.7127 300.922 89.7831 297.125 93.4124 296.079C97.0174 295.032 100.817 297.076 101.913 300.654L119.914 360.065Z" fill="#244D89"/>
<path d="M145.879 324.36H328.661C330.659 324.36 332.266 322.754 332.266 320.758C332.266 318.762 330.659 317.156 328.661 317.156H145.879C143.882 317.156 142.274 318.762 142.274 320.758C142.274 322.754 143.906 324.36 145.879 324.36Z" fill="#13375B"/>
<path d="M187.946 434.686H193.061L182.027 324.36H176.912L187.946 434.686Z" fill="#13375B"/>
<path d="M144.442 434.686H139.327L150.361 324.36H155.476L144.442 434.686Z" fill="#13375B"/>
<path d="M327.152 434.686H332.267L321.233 324.36H316.118L327.152 434.686Z" fill="#13375B"/>
<path d="M283.648 434.686H278.533L289.567 324.36H294.683L283.648 434.686Z" fill="#13375B"/>
<path d="M253.186 117.964L253.09 118.712L330.984 128.669L331.08 127.921L253.186 117.964Z" fill="#9BC1F9"/>
<path d="M253.737 126.585L254.102 125.928L146.123 67.8317L189.285 57.0984L189.091 56.3926L144.077 67.5883L253.737 126.585Z" fill="#9BC1F9"/>
<path d="M77.0786 146.309L76.8384 147.024L218.134 194.413L218.374 193.697L77.0786 146.309Z" fill="#9BC1F9"/>
<path d="M490.763 197.581L491.275 197.07L421.002 125.271L420.929 125.222L300.723 73.4055L259.265 67.3452L259.144 68.0754L300.576 74.1357L420.564 125.879L490.763 197.581Z" fill="#9BC1F9"/>
<path d="M266.743 214.641L272.102 176.138L271.834 176.016L210.696 152.043L156.085 128.799L155.793 129.481L210.403 152.748L271.274 176.625L265.988 214.544L266.743 214.641Z" fill="#9BC1F9"/>
<path d="M262.602 214.933L262.943 214.252L214.008 188.697V149.073L163.88 191.349L75.3384 147.905L166.267 123.055L166.34 122.885L193.84 60.7001L257.925 68.026L251.812 118.309L252.567 118.407L258.754 67.3689L258.388 67.3446L193.377 59.897L193.28 60.1404L165.731 122.423L73.2437 147.71L164.001 192.226L164.172 192.08L213.253 150.68V189.135L262.602 214.933Z" fill="#9BC1F9"/>
<path d="M417.129 130.211V129.457L333.85 127.753L357.526 57.6579L356.819 57.4146L332.827 128.483L417.129 130.211Z" fill="#9BC1F9"/>
<path d="M522.964 175.335L523.33 174.678L428.918 122.983L367.609 67.8071L367.098 68.3669L428.48 123.591L522.964 175.335Z" fill="#9BC1F9"/>
<path d="M444.199 187.559L443.941 188.268L490.948 205.312L491.205 204.603L444.199 187.559Z" fill="#9BC1F9"/>
<path d="M443.954 186.596L398.872 198.46L399.064 199.19L444.147 187.325L443.954 186.596Z" fill="#9BC1F9"/>
<path d="M396.452 198.289L344.111 201.956L344.163 202.709L396.504 199.042L396.452 198.289Z" fill="#9BC1F9"/>
<path d="M295.948 145.618H296.07L410.163 136.37L410.089 135.639L296.119 144.864L261.141 124.103L260.751 124.76L295.948 145.618Z" fill="#9BC1F9"/>
<path d="M321.694 194.782L322.352 194.417L296.07 145.935L273.222 176.918L273.831 177.38L295.972 147.322L321.694 194.782Z" fill="#9BC1F9"/>
<path d="M253.395 121.815L298.677 75.7418L361.277 57.9016L361.082 57.1958L298.287 75.0603L298.214 75.1333L252.859 121.279L253.395 121.815Z" fill="#9BC1F9"/>
<path d="M102.898 113.504L102.75 114.244L148.175 123.335L148.323 122.596L102.898 113.504Z" fill="#9BC1F9"/>
<path d="M113.24 205.442L113.483 204.736L73.0247 189.768V144.012L105.908 118.505L105.835 118.262L92.1213 71.7993L91.4149 72.0184L105.055 118.213L72.2939 143.647V190.304L113.24 205.442Z" fill="#9BC1F9"/>
<path d="M153.35 137.753L74.0908 187.563L74.4928 188.202L153.752 138.392L153.35 137.753Z" fill="#9BC1F9"/>
<path d="M361.281 61.8799L361.064 62.6025L410.006 77.288L410.223 76.5654L361.281 61.8799Z" fill="#9BC1F9"/>
<path d="M335.441 130.14L332.954 198.775L333.708 198.802L336.195 130.167L335.441 130.14Z" fill="#9BC1F9"/>
<path d="M216.298 197.897L246.039 113.101L245.332 112.833L215.591 197.653L216.298 197.897Z" fill="#9BC1F9"/>
<path d="M96.5142 68.4644L96.0044 69.021L158.877 126.513L159.387 125.956L96.5142 68.4644Z" fill="#9BC1F9"/>
<path d="M71.6848 147.614V190.717L113.58 206.221L114.262 204.42L73.6334 189.354V187.943L74.2911 189.013L110.17 166.476L164.074 192.932L164.562 192.518L177.666 181.469L216.127 194.392L214.861 197.994L216.688 198.627L217.954 195.001L218.514 195.195L219.123 193.37L218.587 193.2L218.758 192.689L262.846 215.713L263.747 214.009L219.391 190.839L229.841 161L270.592 176.99L265.306 215.056L267.23 215.323L272.54 177.185L273.953 178.232L295.9 148.465L321.451 195.609L323.156 194.684L296.874 146.178L334.409 143.135L332.363 199.357L334.288 199.43L336.334 142.989L410.796 136.953L410.65 135.031L336.407 141.042L336.821 129.603L334.897 129.53L334.482 141.188L296.265 144.279L260.946 123.324L259.972 124.979L295.364 145.983L272.638 176.796L272.784 175.773L272.077 175.506L230.547 159.223L243.652 121.839L254.028 127.413L254.954 125.709L244.309 119.989L246.843 112.761L245.016 112.128L242.58 119.089L182.879 86.9376L194.205 61.3335L257.268 68.562L251.154 118.845L252.445 118.991L252.421 119.235L253.858 119.43L252.031 121.304L253.419 122.667L256.269 119.746L331.487 129.335L331.73 127.413L257.974 118.018L298.993 76.2773L302.013 75.4255L344.006 93.5334L331.998 129.068L417.689 130.82L417.738 128.897L334.677 127.218L345.785 94.3122L420.222 126.415L426.482 132.816L399.591 192.251L375.964 149.901L336.675 203.836L338.307 204.882L375.745 153.844L399.689 196.826L427.993 134.325L490.812 198.481L492.2 197.118L428.869 132.426L429.941 130.041L428.187 129.238L427.408 130.942L421.416 124.808L346.491 92.4868L357.574 59.6298L362.08 58.3398L361.544 56.4901L358.305 57.415L358.329 57.342L356.502 56.7335L356.039 58.0721L302.184 73.4054L300.942 72.8699L258.802 66.7123L258.778 66.834L258.486 66.8097L193.06 59.3134L192.768 59.9705L181.222 86.0858L147.803 68.0996L189.991 57.5367L189.528 55.6626L142.42 67.3694L180.394 87.7895L165.292 121.936L158.034 123.908L96.4812 67.6372L95.1658 69.0731L155.817 124.541L77.7012 145.886L76.7025 145.545L76.4833 146.202L73.6091 146.981V144.304L106.565 118.724L106.37 118.091L105.591 115.438L148.631 124.054L149.021 122.156L104.982 113.345L92.5108 71.0689L90.6596 71.6043L102.863 112.907L102.424 112.81L102.035 114.708L103.472 115L104.349 117.994L71.6848 143.354V147.516L71.563 147.541L71.6848 147.614ZM304.936 74.5736L355.235 60.2382L344.615 91.6836L304.936 74.5736ZM259.192 68.6837L298.408 74.4276L297.946 74.5493L297.775 74.744L255.538 117.702L253.249 117.409L259.192 68.6837ZM77.6768 147.881L115.773 160.683L110.049 164.261L76.9948 148.052L77.6768 147.881ZM228.696 158.493L214.593 152.944V147.808L210.452 151.313L155.793 128.021L155.038 129.798L208.796 152.7L177.252 179.302L120.254 160.148L154.575 138.584L153.552 136.953L117.892 159.369L81.0139 146.981L157.522 126.074L158.935 127.364L160.25 125.928L159.739 125.466L166.705 123.567L166.9 123.153L182.124 88.7387L241.922 120.914L228.696 158.493ZM212.668 151.97V152.189L212.498 152.116L212.668 151.97ZM217.686 189.938L214.593 188.332V155.013L228.063 160.294L217.686 189.938ZM179.396 180.033L210.817 153.552L212.668 154.282V189.525L217.029 191.788L216.761 192.567L179.396 180.033ZM112.095 165.283L118.135 161.487L175.523 180.763L163.806 190.644L112.095 165.283ZM73.6334 148.563L108.124 165.478L73.6334 187.164V148.563Z" fill="#9BC1F9"/>
<path d="M520.991 174.921L433.595 127.072L425.265 127.218L425.24 125.271L430.161 125.198L428.139 124.078L425.898 122.058L424.29 126.39L422.464 125.733L424.339 120.671L366.27 68.3916L367.561 66.9799L425.07 118.724L446.943 59.7271L448.746 60.3842L426.604 120.111L429.259 122.496L434.058 125.125L508.277 129.019L508.325 130.942L437.468 126.999L520.504 172.463L506.133 130.163L508.009 129.798L522.721 173.656L524.134 174.435L523.208 176.138L524.231 181.347L497.486 198.554L496.439 196.948L522.063 180.446L520.991 174.921Z" fill="#9BC1F9"/>
<path d="M444.678 187.091L491.932 204.225L491.275 206.051L443.168 188.6L443.314 188.186L398.641 199.942L398.154 198.068L444.386 185.898L444.678 187.091Z" fill="#9BC1F9"/>
<path d="M397.018 197.664L343.487 201.414L343.621 203.332L397.153 199.582L397.018 197.664Z" fill="#9BC1F9"/>
<path d="M360.881 61.1275L360.328 62.9692L410.423 77.9768L410.976 76.1351L360.881 61.1275Z" fill="#9BC1F9"/>
<path d="M447.289 60.5099L423.231 125.394L423.94 125.656L447.997 60.772L447.289 60.5099Z" fill="#9BC1F9"/>
<path d="M207.667 71.9072C213.247 62.8861 210.451 51.0534 201.423 45.478C192.395 39.9026 180.553 42.696 174.973 51.7171C169.393 60.7382 172.189 72.571 181.217 78.1463C190.245 83.7217 202.087 80.9284 207.667 71.9072Z" fill="white"/>
<path d="M134.795 205.423C136.516 194.822 129.311 184.833 118.701 183.112C108.092 181.392 98.0946 188.591 96.3727 199.193C94.6508 209.794 101.856 219.783 112.466 221.504C123.076 223.224 133.073 216.025 134.795 205.423Z" fill="white"/>
<path d="M347.587 128.118C347.587 135.98 341.206 142.356 333.338 142.356C325.47 142.356 319.089 135.98 319.089 128.118C319.089 120.257 325.47 113.88 333.338 113.88C341.206 113.88 347.587 120.257 347.587 128.118Z" fill="white"/>
<path d="M431.083 152.361C445.515 149.478 454.874 135.45 451.988 121.03C449.102 106.61 435.063 97.2581 420.632 100.142C406.2 103.026 396.841 117.053 399.727 131.473C402.613 145.893 416.651 155.245 431.083 152.361Z" fill="white"/>
<path d="M304.801 85.5532C311.313 83.2708 314.74 76.1457 312.456 69.639C310.172 63.1323 303.041 59.7078 296.529 61.9903C290.017 64.2727 286.59 71.3978 288.874 77.9045C291.159 84.4113 298.289 87.8357 304.801 85.5532Z" fill="white"/>
<path d="M463.271 68.1766C464.258 58.2115 456.974 49.3333 447.001 48.3465C437.028 47.3597 428.143 54.638 427.155 64.6031C426.168 74.5682 433.452 83.4464 443.425 84.4332C453.398 85.42 462.283 78.1416 463.271 68.1766Z" fill="white"/>
<path d="M98.3081 90.8561C107.214 90.8561 114.433 83.6424 114.433 74.744C114.433 65.8455 107.214 58.6318 98.3081 58.6318C89.4025 58.6318 82.1831 65.8455 82.1831 74.744C82.1831 83.6424 89.4025 90.8561 98.3081 90.8561Z" fill="white"/>
<path d="M278.591 123.489C280.286 110.562 271.172 98.7087 258.234 97.015C245.296 95.3213 233.433 104.428 231.738 117.356C230.043 130.284 239.157 142.137 252.095 143.83C265.033 145.524 276.896 136.417 278.591 123.489Z" fill="white"/>
<path d="M94.099 150.31C96.8967 138.471 89.5597 126.608 77.7115 123.812C65.8632 121.017 53.9904 128.348 51.1926 140.186C48.3949 152.025 55.7319 163.889 67.5801 166.684C79.4284 169.48 91.3012 162.149 94.099 150.31Z" fill="white"/>
<path d="M522.55 131.112C522.55 139.728 515.559 146.738 506.912 146.738C498.265 146.738 491.274 139.752 491.274 131.112C491.274 122.496 498.265 115.487 506.912 115.487C515.559 115.487 522.55 122.472 522.55 131.112Z" fill="white"/>
<path d="M283.98 179.626C285.344 173.857 281.768 168.076 275.995 166.713C270.221 165.351 264.436 168.924 263.072 174.693C261.709 180.462 265.284 186.242 271.058 187.605C276.832 188.967 282.617 185.395 283.98 179.626Z" fill="white"/>
<path d="M413.208 194.49C413.208 201.986 407.118 208.071 399.616 208.071C392.114 208.071 386.024 201.986 386.024 194.49C386.024 186.993 392.114 180.909 399.616 180.909C407.118 180.909 413.208 186.993 413.208 194.49Z" fill="white"/>
<path d="M382.451 65.3519C385.105 53.6174 377.736 41.9553 365.992 39.3038C354.248 36.6523 342.577 44.0155 339.923 55.7499C337.269 67.4844 344.638 79.1465 356.382 81.798C368.126 84.4495 379.797 77.0863 382.451 65.3519Z" fill="white"/>
<mask id="mask0_232_1593" style="mask-type:luminance" maskUnits="userSpaceOnUse" x="340" y="38" width="43" height="43">
<path d="M382.133 60.2443C382.438 48.6744 373.298 39.0485 361.719 38.7443C350.14 38.44 340.506 47.5727 340.201 59.1426C339.897 70.7125 349.037 80.3384 360.616 80.6427C372.195 80.9469 381.829 71.8143 382.133 60.2443Z" fill="white"/>
</mask>
<g mask="url(#mask0_232_1593)">
<path d="M371.214 56.7336C371.336 53.813 370.898 50.9167 369.607 48.1907C368.486 45.8542 365.685 44.5156 363.152 44.5156C355.089 44.5156 354.042 55.1516 348.902 59.2648C347.344 60.5304 345.565 61.5526 344.08 62.8912C338.599 67.905 341.059 77.1536 346.101 81.5345C349.609 84.5769 355.089 86.3049 359.401 83.9197C361.642 82.6785 363.347 80.6097 364.565 78.3462C366.294 75.1335 367.414 71.4341 368.632 68.0023C369.948 64.4002 371.044 60.6277 371.214 56.7336Z" fill="#13375B"/>
<path d="M368.194 83.6519C368.194 83.6519 362.153 77.4699 360.619 74.7927C359.06 72.1155 361.666 73.8678 364.345 73.162C365.344 72.8943 365.1 66.98 367 68.9028C370.118 72.0425 374.064 77.5673 374.064 77.5673L368.194 83.6519Z" fill="#96D9C9"/>
<path d="M359.62 66.177C359.62 66.177 354.213 65.1061 351.752 67.1749C349.292 69.2436 352.288 87.5706 352.288 90.5886C352.288 93.6309 350.583 101.565 350.583 101.565C350.583 101.565 366.976 105.094 369.582 100.519C369.582 100.519 370.313 83.141 370.216 80.9505C370.094 78.76 367.682 69.8278 367 68.8786C366.318 67.9294 359.62 66.177 359.62 66.177Z" fill="#50BFA5"/>
<path d="M359.596 57.8288C359.596 57.8288 359.571 57.9992 359.523 58.2669C359.279 59.5812 358.329 63.9621 357.696 65.179C356.916 66.6393 360.326 71.2637 363.615 70.7039C364.589 70.5335 362.787 66.4446 362.884 66.0066C363.055 65.179 363.274 64.0351 363.517 62.8912C363.639 62.2341 363.785 61.5769 363.907 60.9441C364.248 59.1674 364.54 57.7314 364.54 57.7314L359.596 57.8288Z" fill="#F7A491"/>
<path d="M359.498 58.2429C359.547 57.9752 359.571 57.8048 359.571 57.8048L364.492 57.6831C364.492 57.6831 364.199 59.1434 363.858 60.8958C363.736 61.5043 363.615 62.1857 363.469 62.8185C362.713 62.6968 361.91 62.3318 361.13 61.6503C360.253 60.8958 359.693 59.9709 359.352 59.0217C359.425 58.7297 359.474 58.4619 359.498 58.2429Z" fill="#F47458"/>
<path d="M362.908 46.6578C362.908 46.6578 360.594 46.39 359.133 48.2641C357.671 50.1382 356.112 55.9307 359.717 59.0947C363.322 62.2588 366.903 58.681 367.439 54.8842C367.95 51.1117 368.169 46.5361 362.908 46.6578Z" fill="#F7A491"/>
<path d="M366.513 45.7077C366.513 45.7077 361.983 52.1818 357.696 51.3056L357.574 48.5553L357.964 47.5088L360.156 46.0971L363.712 45.2939L366.513 45.7077Z" fill="#13375B"/>
<path d="M368.486 54.8355C368.048 55.663 367.341 56.1254 366.878 55.8577C366.416 55.59 366.391 54.6894 366.83 53.8619C367.268 53.0344 367.975 52.572 368.437 52.8397C368.9 53.1074 368.925 54.008 368.486 54.8355Z" fill="#F7A491"/>
<path d="M358.426 53.2044C358.597 54.1779 358.256 55.0785 357.623 55.2001C356.989 55.3218 356.332 54.6404 356.161 53.6668C355.991 52.6933 356.332 51.7928 356.965 51.6711C357.574 51.525 358.232 52.2065 358.426 53.2044Z" fill="#F7A491"/>
<path d="M364.297 57.0258L360.886 56.8555C360.886 56.8555 360.886 58.1454 362.397 58.2671C364.224 58.4131 364.297 57.0258 364.297 57.0258Z" fill="white"/>
<path d="M364.297 57.0258L360.886 56.8555C360.886 56.8555 360.886 58.1454 362.397 58.2671C364.224 58.4131 364.297 57.0258 364.297 57.0258Z" fill="white"/>
<path d="M353.774 83.433C353.774 83.433 350.218 75.5717 349.682 72.505C349.146 69.4627 351.752 65.6172 354.505 65.8606C357.257 66.104 361.374 79.6849 361.374 79.6849L353.774 83.433Z" fill="#96D9C9"/>
</g>
<path d="M183.352 131.969C186.509 118.613 178.231 105.229 164.864 102.075C151.497 98.9212 138.103 107.192 134.946 120.548C131.79 133.905 140.067 147.289 153.434 150.442C166.801 153.596 180.196 145.325 183.352 131.969Z" fill="white"/>
<path d="M229.061 190.596C229.061 198.019 223.045 204.03 215.616 204.03C208.186 204.03 202.17 198.019 202.17 190.596C202.17 183.172 208.186 177.161 215.616 177.161C223.045 177.136 229.061 183.172 229.061 190.596Z" fill="white"/>
<path d="M334.66 222.797C349.144 222.075 360.3 209.757 359.578 195.284C358.856 180.812 346.528 169.664 332.044 170.386C317.559 171.108 306.403 183.425 307.125 197.898C307.848 212.371 320.175 223.519 334.66 222.797Z" fill="white"/>
<path d="M508.374 195.244C508.374 204.687 500.701 212.354 491.25 212.354C481.799 212.354 474.127 204.687 474.127 195.244C474.127 185.8 481.799 178.134 491.25 178.134C500.701 178.134 508.374 185.8 508.374 195.244Z" fill="white"/>
<path d="M368.657 152.871C368.657 156.814 371.872 160.026 375.818 160.026C379.764 160.026 382.979 156.814 382.979 152.871C382.979 148.928 379.764 145.715 375.818 145.715C371.872 145.715 368.657 148.904 368.657 152.871Z" fill="white"/>
<path d="M405.876 76.8857C405.876 79.2465 407.776 81.145 410.138 81.145C412.501 81.145 414.401 79.2465 414.401 76.8857C414.401 74.5249 412.501 72.6265 410.138 72.6265C407.776 72.6265 405.876 74.5492 405.876 76.8857Z" fill="white"/>
<path d="M449.731 190.233C451.028 187.104 449.541 183.516 446.409 182.22C443.277 180.923 439.686 182.409 438.388 185.539C437.091 188.669 438.578 192.256 441.71 193.553C444.842 194.849 448.433 193.363 449.731 190.233Z" fill="white"/>
<path d="M253.127 67.7097C253.127 71.0684 255.856 73.77 259.193 73.77C262.554 73.77 265.258 71.0441 265.258 67.7097C265.258 64.351 262.53 61.6494 259.193 61.6494C255.856 61.6494 253.127 64.351 253.127 67.7097Z" fill="white"/>
<path d="M149.249 71.8512C151.542 69.5605 151.542 65.8467 149.249 63.5561C146.957 61.2654 143.24 61.2654 140.948 63.556C138.655 65.8467 138.655 69.5605 140.948 71.8512C143.24 74.1418 146.957 74.1418 149.249 71.8512Z" fill="white"/>
<path d="M207.042 152.408C207.042 156.351 210.257 159.564 214.203 159.564C218.149 159.564 221.364 156.351 221.364 152.408C221.364 148.465 218.149 145.253 214.203 145.253C210.257 145.228 207.042 148.441 207.042 152.408Z" fill="white"/>
<path d="M259.192 214.593C259.192 218.536 262.408 221.749 266.354 221.749C270.3 221.749 273.515 218.536 273.515 214.593C273.515 210.65 270.3 207.438 266.354 207.438C262.408 207.438 259.192 210.65 259.192 214.593Z" fill="white"/>
<path d="M291.369 145.228C291.369 147.784 293.44 149.877 296.022 149.877C298.579 149.877 300.674 147.808 300.674 145.228C300.674 142.673 298.603 140.58 296.022 140.58C293.464 140.604 291.369 142.673 291.369 145.228Z" fill="white"/>
<path d="M159.129 191.788C159.129 194.441 161.273 196.583 163.928 196.583C166.583 196.583 168.726 194.441 168.726 191.788C168.726 189.135 166.583 186.994 163.928 186.994C161.297 186.994 159.129 189.135 159.129 191.788Z" fill="white"/>
<path d="M73.1679 197.176C77.1131 196.896 80.084 193.473 79.8036 189.531C79.5232 185.589 76.0978 182.621 72.1526 182.901C68.2075 183.181 65.2366 186.604 65.5169 190.546C65.7973 194.488 69.2228 197.456 73.1679 197.176Z" fill="white"/>
<path d="M98.3081 113.88C98.3081 117.823 101.523 121.036 105.469 121.036C109.415 121.036 112.631 117.823 112.631 113.88C112.631 109.937 109.415 106.725 105.469 106.725C101.523 106.725 98.3081 109.937 98.3081 113.88Z" fill="white"/>
<path d="M515.973 177.136C515.973 181.079 519.189 184.292 523.135 184.292C527.081 184.292 530.296 181.079 530.296 177.136C530.296 173.194 527.081 169.981 523.135 169.981C519.189 169.981 515.973 173.194 515.973 177.136Z" fill="white"/>
<mask id="mask1_232_1593" style="mask-type:luminance" maskUnits="userSpaceOnUse" x="235" y="96" width="44" height="45">
<path d="M278.54 122.173C280.478 110.245 272.371 99.0057 260.433 97.0698C248.495 95.1339 237.247 103.234 235.31 115.163C233.372 127.091 241.479 138.33 253.417 140.266C265.355 142.202 276.603 134.101 278.54 122.173Z" fill="white"/>
</mask>
<g mask="url(#mask1_232_1593)">
<path d="M249.328 105.143C255.32 101.954 262.311 104.802 262.847 113.175C263.359 121.547 257.464 124.492 251.789 123.932C246.113 123.397 240.56 108.672 249.328 105.143Z" fill="#13375B"/>
<path d="M252.958 127.364C252.958 130.65 255.637 133.327 258.925 133.327C262.214 133.327 264.893 130.65 264.893 127.364C264.893 124.079 262.214 121.401 258.925 121.401C255.637 121.401 252.958 124.079 252.958 127.364Z" fill="#13375B"/>
<path d="M246.113 130.796L225.725 130.09C225.725 130.09 209.844 125.125 209.357 125.003C208.869 124.857 206.434 118.505 205.776 119.065C205.143 119.6 207.189 122.253 206.361 122.715C205.532 123.202 197.787 120.647 197.787 121.28C197.811 122.448 202.463 123.032 202.39 123.567C202.293 124.127 197.592 122.521 197.105 123.373C196.642 124.249 201.708 124.468 201.854 124.906C202.001 125.344 197.056 125.344 197.421 126.293C197.616 126.804 201.806 126.172 201.708 126.804C201.586 127.437 198.444 128.435 198.737 128.971C199.029 129.53 201.27 127.778 202.975 128.021C204.68 128.265 206.02 127.51 208.626 128.703C211.232 129.895 219.879 135.201 225.701 135.81C231.522 136.418 244.408 137.781 244.408 137.781L246.113 130.796Z" fill="#F29383"/>
<path d="M249.986 129.871C261.142 130.382 251.325 139.728 251.325 139.728L234.835 137.392C234.348 134.106 235.176 130.187 235.225 129.311C238.659 129.092 247.258 129.725 249.986 129.871Z" fill="#C24C32"/>
<path d="M258.632 128.07C258.632 128.07 263.431 127.972 265.988 130.771C268.546 133.546 261.969 155.232 261.507 158.785C261.044 162.338 263.869 171.733 263.869 171.733C263.869 171.733 248.743 174.775 244.407 171.928C244.407 171.928 243.945 146.47 244.407 143.938C244.87 141.407 248.743 131.112 249.669 130.114C250.57 129.092 258.632 128.07 258.632 128.07Z" fill="#F47458"/>
<path d="M256.465 119.454C256.465 119.454 256.489 119.649 256.562 119.965C256.854 121.523 257.951 126.658 258.706 128.07C259.607 129.774 255.612 135.225 251.764 134.568C250.619 134.374 252.738 129.555 252.641 129.043C252.446 128.07 252.178 126.731 251.91 125.368C251.764 124.589 251.593 123.811 251.447 123.081C251.033 120.987 250.692 119.284 250.692 119.284L256.465 119.454Z" fill="#F7A491"/>
<path d="M256.562 119.966C256.513 119.649 256.465 119.455 256.465 119.455L250.692 119.309C250.692 119.309 251.033 121.012 251.447 123.105C251.593 123.836 251.739 124.614 251.885 125.369C252.787 125.247 253.712 124.809 254.638 123.982C255.661 123.081 256.319 122.01 256.733 120.866C256.684 120.526 256.611 120.209 256.562 119.966Z" fill="#F47458"/>
<path d="M252.592 106.336C252.592 106.336 255.32 106.02 257.001 108.234C258.706 110.449 260.533 117.264 256.319 120.963C252.081 124.663 247.915 120.477 247.282 116.023C246.673 111.569 246.43 106.19 252.592 106.336Z" fill="#F7A491"/>
<path d="M246.04 115.949C246.551 116.923 247.404 117.482 247.94 117.166C248.476 116.85 248.5 115.803 248.013 114.829C247.501 113.856 246.649 113.296 246.113 113.613C245.577 113.929 245.553 114.976 246.04 115.949Z" fill="#F7A491"/>
<path d="M252.3 105.605C252.3 105.605 255.929 112.08 258.535 112.396C261.142 112.688 261.483 116.144 261.483 116.144C261.483 116.144 260.557 108.21 257.975 106.676C255.393 105.143 252.3 105.605 252.3 105.605Z" fill="#13375B"/>
<path d="M257.829 114.026C257.61 115.17 258.048 116.241 258.779 116.387C259.51 116.533 260.289 115.73 260.484 114.586C260.703 113.442 260.265 112.371 259.534 112.225C258.828 112.055 258.048 112.883 257.829 114.026Z" fill="#F7A491"/>
<path d="M252.178 150.072C252.178 150.072 263.894 144.085 266.476 140.872C269.058 137.684 268.498 131.551 265.161 130.09C261.824 128.63 248.305 142.162 248.305 142.162L252.178 150.072Z" fill="#C24C32"/>
</g>
<mask id="mask2_232_1593" style="mask-type:luminance" maskUnits="userSpaceOnUse" x="288" y="61" width="25" height="25">
<path d="M288.86 73.2598C288.86 79.7825 294.146 85.064 300.674 85.064C307.202 85.064 312.488 79.7825 312.488 73.2598C312.488 66.737 307.202 61.4556 300.674 61.4556C294.146 61.4556 288.86 66.7614 288.86 73.2598Z" fill="white"/>
</mask>
<g mask="url(#mask2_232_1593)">
<path d="M304.766 65.9824C301.526 64.2543 297.751 65.812 297.483 70.3146C297.191 74.8173 300.382 76.4236 303.451 76.1072C306.495 75.8151 309.516 67.8564 304.766 65.9824Z" fill="#13375B"/>
<path d="M299.431 73.3571C299.431 74.2089 298.749 74.8904 297.897 74.8904C297.044 74.8904 296.362 74.2089 296.362 73.3571C296.362 72.5052 297.044 71.8237 297.897 71.8237C298.749 71.8237 299.431 72.5052 299.431 73.3571Z" fill="#13375B"/>
<path d="M300.966 74.8171C300.966 75.669 300.284 76.3505 299.432 76.3505C298.579 76.3505 297.897 75.669 297.897 74.8171C297.897 73.9653 298.579 73.2838 299.432 73.2838C300.284 73.2595 300.966 73.9653 300.966 74.8171Z" fill="#13375B"/>
<path d="M302.988 75.9122C302.988 76.7641 302.306 77.4456 301.453 77.4456C300.601 77.4456 299.919 76.7641 299.919 75.9122C299.919 75.0604 300.601 74.3789 301.453 74.3789C302.306 74.3789 302.988 75.0604 302.988 75.9122Z" fill="#13375B"/>
<path d="M298.749 70.8258C298.749 71.6777 298.067 72.3591 297.215 72.3591C296.362 72.3591 295.68 71.6777 295.68 70.8258C295.68 69.974 296.362 69.2925 297.215 69.2925C298.067 69.2925 298.749 69.974 298.749 70.8258Z" fill="#13375B"/>
<path d="M299.285 68.1725C299.285 69.0243 298.603 69.7058 297.751 69.7058C296.898 69.7058 296.216 69.0243 296.216 68.1725C296.216 67.3206 296.898 66.6392 297.751 66.6392C298.603 66.6392 299.285 67.3206 299.285 68.1725Z" fill="#13375B"/>
<path d="M301.064 66.4933C301.064 67.3451 300.382 68.0266 299.529 68.0266C298.677 68.0266 297.995 67.3451 297.995 66.4933C297.995 65.6414 298.677 64.96 299.529 64.96C300.382 64.96 301.064 65.6414 301.064 66.4933Z" fill="#13375B"/>
<path d="M303.427 65.8121C303.427 66.664 302.745 67.3455 301.892 67.3455C301.039 67.3455 300.357 66.664 300.357 65.8121C300.357 64.9603 301.039 64.2788 301.892 64.2788C302.745 64.2788 303.427 64.9603 303.427 65.8121Z" fill="#13375B"/>
<path d="M305.862 65.9826C305.862 66.8344 305.18 67.5159 304.327 67.5159C303.475 67.5159 302.792 66.8344 302.792 65.9826C302.792 65.1307 303.475 64.4492 304.327 64.4492C305.18 64.4492 305.862 65.155 305.862 65.9826Z" fill="#13375B"/>
<path d="M307.689 67.9049C307.689 68.7568 307.007 69.4382 306.154 69.4382C305.302 69.4382 304.62 68.7568 304.62 67.9049C304.62 67.0531 305.302 66.3716 306.154 66.3716C307.007 66.3716 307.689 67.0531 307.689 67.9049Z" fill="#13375B"/>
<path d="M307.64 72.8215C307.64 73.6734 306.958 74.3549 306.105 74.3549C305.253 74.3549 304.571 73.6734 304.571 72.8215C304.571 71.9697 305.253 71.2882 306.105 71.2882C306.958 71.2639 307.64 71.9697 307.64 72.8215Z" fill="#13375B"/>
<path d="M306.106 75.109C306.106 75.9609 305.424 76.6423 304.571 76.6423C303.719 76.6423 303.037 75.9609 303.037 75.109C303.037 74.2572 303.719 73.5757 304.571 73.5757C305.424 73.5757 306.106 74.2572 306.106 75.109Z" fill="#13375B"/>
<path d="M308.274 70.2169C308.274 71.0688 307.592 71.7502 306.739 71.7502C305.887 71.7502 305.205 71.0688 305.205 70.2169C305.205 69.3651 305.887 68.6836 306.739 68.6836C307.567 68.6836 308.274 69.3651 308.274 70.2169Z" fill="#13375B"/>
<path d="M303.987 75.693C303.987 76.5448 303.305 77.2263 302.452 77.2263C301.599 77.2263 300.917 76.5448 300.917 75.693C300.917 74.8411 301.599 74.1597 302.452 74.1597C303.305 74.1597 303.987 74.8411 303.987 75.693Z" fill="#13375B"/>
<path d="M306.52 79.8065L317.505 79.4171C317.505 79.4171 326.079 76.7399 326.347 76.6668C326.615 76.5938 327.931 73.1621 328.272 73.4542C328.613 73.7462 327.517 75.1822 327.955 75.4256C328.393 75.6933 332.583 74.306 332.583 74.6468C332.559 75.2796 330.05 75.5959 330.098 75.888C330.147 76.1801 332.68 75.3282 332.948 75.7907C333.192 76.2531 330.464 76.3748 330.391 76.6182C330.318 76.8616 332.973 76.8616 332.778 77.3727C332.68 77.6404 330.415 77.2996 330.464 77.6404C330.537 77.9811 332.218 78.5166 332.071 78.8086C331.925 79.1007 330.707 78.1758 329.782 78.2975C328.856 78.4192 328.126 78.0298 326.737 78.6626C325.349 79.2954 320.672 82.1674 317.53 82.4838C314.388 82.8002 307.446 83.5547 307.446 83.5547L306.52 79.8065Z" fill="#F29383"/>
<path d="M304.425 79.2958C298.408 79.5878 303.694 84.6259 303.694 84.6259L312.585 83.3603C312.853 81.5836 312.39 79.4661 312.366 79.0037C310.514 78.882 305.886 79.2471 304.425 79.2958Z" fill="#C24C32"/>
<path d="M299.748 78.3469C299.748 78.3469 297.166 78.2982 295.778 79.8072C294.414 81.3162 297.945 92.9987 298.189 94.9214C298.433 96.8442 296.922 101.907 296.922 101.907C296.922 101.907 305.082 103.562 307.421 102.004C307.421 102.004 307.664 88.2526 307.421 86.8897C307.177 85.5267 305.082 79.9775 304.595 79.4178C304.108 78.8823 299.748 78.3469 299.748 78.3469Z" fill="#F47458"/>
<path d="M300.917 73.6975C300.917 73.6975 300.892 73.7949 300.868 73.9652C300.722 74.7928 300.113 77.5674 299.723 78.3462C299.236 79.2711 301.38 82.216 303.474 81.8509C304.083 81.7536 302.963 79.1494 303.012 78.8816C303.109 78.3462 303.255 77.6404 303.401 76.9102C303.474 76.4965 303.572 76.0827 303.645 75.6689C303.864 74.5494 304.059 73.6245 304.059 73.6245L300.917 73.6975Z" fill="#BF7154"/>
<path d="M300.869 73.9652C300.893 73.7949 300.918 73.6975 300.918 73.6975L304.035 73.6245C304.035 73.6245 303.865 74.5494 303.621 75.6689C303.548 76.0584 303.451 76.4721 303.378 76.8859C302.891 76.8129 302.403 76.5695 301.892 76.1314C301.332 75.6446 300.991 75.0848 300.771 74.452C300.82 74.2573 300.845 74.0869 300.869 73.9652Z" fill="#A85D42"/>
<path d="M303.012 66.6153C303.012 66.6153 301.551 66.445 300.625 67.6376C299.699 68.8302 298.725 72.5053 300.99 74.501C303.28 76.4968 305.521 74.2333 305.862 71.8481C306.203 69.4386 306.325 66.518 303.012 66.6153Z" fill="#BF7154"/>
<path d="M306.544 71.7995C306.276 72.3349 305.813 72.627 305.521 72.4566C305.229 72.2863 305.204 71.7265 305.496 71.191C305.764 70.6556 306.227 70.3635 306.52 70.5339C306.812 70.7043 306.812 71.2641 306.544 71.7995Z" fill="#BF7154"/>
<path d="M303.182 66.2259C303.182 66.2259 301.234 69.7306 299.821 69.8767C298.408 70.047 298.238 71.8968 298.238 71.8968C298.238 71.8968 298.749 67.6132 300.113 66.7857C301.502 65.9582 303.182 66.2259 303.182 66.2259Z" fill="#13375B"/>
<path d="M300.186 70.7525C300.308 71.3853 300.065 71.9451 299.675 72.0181C299.285 72.0911 298.871 71.653 298.749 71.0445C298.628 70.4117 298.871 69.852 299.261 69.7789C299.651 69.7059 300.065 70.144 300.186 70.7525Z" fill="#BF7154"/>
<path d="M303.231 90.199C303.231 90.199 296.898 86.9619 295.51 85.2339C294.121 83.5059 294.414 80.1958 296.216 79.417C298.019 78.6138 305.326 85.9397 305.326 85.9397L303.231 90.199Z" fill="#C24C32"/>
</g>
<mask id="mask3_232_1593" style="mask-type:luminance" maskUnits="userSpaceOnUse" x="402" y="102" width="48" height="48">
<path d="M433.753 148.519C446.066 144.203 452.546 130.731 448.227 118.428C443.908 106.125 430.424 99.6496 418.112 103.965C405.799 108.281 399.318 121.753 403.637 134.057C407.957 146.36 421.44 152.835 433.753 148.519Z" fill="white"/>
</mask>
<g mask="url(#mask3_232_1593)">
<path d="M434.131 111.641C429.089 108.964 421.514 110.376 419.541 120.306C418.371 126.22 415.448 132.451 415.448 132.451C423.097 135.858 431.305 136.004 437.882 134.86C437.906 134.86 443.606 115.438 434.131 111.641Z" fill="#F47458"/>
<path d="M437.59 139.314L459.585 138.56C459.585 138.56 476.733 133.205 477.245 133.059C477.78 132.913 480.411 126.05 481.093 126.634C481.799 127.218 479.583 130.066 480.46 130.577C481.361 131.088 489.716 128.338 489.716 129.019C489.691 130.285 484.649 130.893 484.747 131.502C484.844 132.11 489.935 130.358 490.447 131.307C490.958 132.232 485.478 132.475 485.331 132.962C485.185 133.449 490.52 133.449 490.13 134.447C489.911 134.982 485.38 134.325 485.502 135.006C485.624 135.688 489.009 136.759 488.717 137.367C488.4 137.976 485.989 136.077 484.162 136.345C482.335 136.588 480.874 135.81 478.073 137.099C475.272 138.389 465.918 144.109 459.634 144.766C453.349 145.423 439.465 146.884 439.465 146.884L437.59 139.314Z" fill="#F29383"/>
<path d="M433.425 138.316C421.392 138.876 431.963 148.952 431.963 148.952L449.769 146.421C450.305 142.867 449.379 138.632 449.355 137.708C445.628 137.489 436.372 138.17 433.425 138.316Z" fill="#C5DBFC"/>
<path d="M424.096 136.393C424.096 136.393 418.932 136.296 416.179 139.314C413.427 142.308 420.515 165.721 421.002 169.543C421.489 173.364 418.445 183.537 418.445 183.537C418.445 183.537 434.789 186.823 439.441 183.732C439.441 183.732 439.953 156.254 439.441 153.528C438.93 150.802 434.764 139.703 433.766 138.608C432.791 137.489 424.096 136.393 424.096 136.393Z" fill="#9BC1F9"/>
<path d="M426.409 127.096C426.409 127.096 426.385 127.291 426.312 127.656C425.995 129.335 424.802 134.885 423.998 136.418C423.024 138.268 427.335 144.158 431.476 143.427C432.718 143.208 430.428 138.024 430.55 137.464C430.769 136.418 431.037 134.982 431.33 133.497C431.5 132.67 431.671 131.818 431.817 131.039C432.255 128.8 432.621 126.95 432.621 126.95L426.409 127.096Z" fill="#F7A491"/>
<path d="M426.312 127.632C426.385 127.291 426.41 127.072 426.41 127.072L432.621 126.926C432.621 126.926 432.256 128.776 431.817 131.015C431.671 131.793 431.501 132.645 431.33 133.473C430.38 133.327 429.357 132.864 428.358 131.988C427.262 131.039 426.532 129.871 426.117 128.629C426.215 128.24 426.264 127.899 426.312 127.632Z" fill="#F5866E"/>
<path d="M430.599 112.931C430.599 112.931 427.676 112.59 425.825 114.975C423.998 117.361 422.001 124.711 426.58 128.727C431.135 132.718 435.666 128.191 436.323 123.396C437.005 118.577 437.249 112.761 430.599 112.931Z" fill="#F7A491"/>
<path d="M437.687 123.324C437.152 124.395 436.226 124.979 435.641 124.638C435.057 124.297 435.032 123.178 435.568 122.107C436.104 121.036 437.03 120.452 437.614 120.792C438.199 121.109 438.223 122.253 437.687 123.324Z" fill="#F7A491"/>
<path d="M430.94 112.152C430.94 112.152 427.019 119.162 424.218 119.478C421.416 119.794 421.051 123.518 421.051 123.518C421.051 123.518 422.05 114.951 424.827 113.296C427.603 111.641 430.94 112.152 430.94 112.152Z" fill="#F47458"/>
<path d="M424.948 121.23C425.168 122.472 424.729 123.616 423.925 123.786C423.121 123.956 422.293 123.08 422.074 121.839C421.855 120.598 422.293 119.454 423.097 119.283C423.901 119.113 424.729 119.989 424.948 121.23Z" fill="#F7A491"/>
<path d="M431.038 160.123C431.038 160.123 418.396 153.649 415.595 150.193C412.818 146.737 413.427 140.141 417.007 138.559C420.588 136.977 435.203 151.58 435.203 151.58L431.038 160.123Z" fill="#C5DBFC"/>
</g>
<mask id="mask4_232_1593" style="mask-type:luminance" maskUnits="userSpaceOnUse" x="474" y="178" width="34" height="34">
<path d="M491.177 211.162C500.231 211.162 507.57 203.828 507.57 194.782C507.57 185.735 500.231 178.402 491.177 178.402C482.124 178.402 474.784 185.735 474.784 194.782C474.784 203.828 482.124 211.162 491.177 211.162Z" fill="white"/>
</mask>
<g mask="url(#mask4_232_1593)">
<path d="M485.502 184.657C489.984 182.272 495.221 184.413 495.61 190.668C496 196.923 491.591 199.138 487.329 198.724C483.09 198.286 478.925 187.285 485.502 184.657Z" fill="#F7CC7F"/>
<path d="M488.206 201.28C488.206 203.738 490.203 205.734 492.663 205.734C495.123 205.734 497.121 203.738 497.121 201.28C497.121 198.821 495.123 196.826 492.663 196.826C490.203 196.826 488.206 198.821 488.206 201.28Z" fill="#F7CC7F"/>
<path d="M483.09 203.835L467.842 203.3C467.842 203.3 455.956 199.6 455.59 199.478C455.225 199.381 453.398 194.611 452.911 195.024C452.424 195.438 453.958 197.41 453.349 197.75C452.74 198.115 446.919 196.217 446.943 196.679C446.967 197.556 450.451 197.994 450.378 198.408C450.304 198.821 446.773 197.629 446.432 198.261C446.091 198.919 449.89 199.089 449.988 199.405C450.085 199.746 446.383 199.746 446.675 200.428C446.821 200.817 449.963 200.33 449.89 200.817C449.793 201.279 447.455 202.034 447.674 202.448C447.893 202.861 449.574 201.547 450.84 201.742C452.107 201.912 453.13 201.377 455.079 202.253C457.027 203.154 463.506 207.121 467.867 207.559C472.227 208.021 481.848 209.043 481.848 209.043L483.09 203.835Z" fill="#F29383"/>
<path d="M485.989 203.129C494.344 203.518 486.988 210.503 486.988 210.503L474.638 208.751C474.273 206.293 474.906 203.348 474.93 202.715C477.512 202.569 483.943 203.056 485.989 203.129Z" fill="#96D9C9"/>
<path d="M492.444 201.815C492.444 201.815 496.024 201.742 497.949 203.835C499.849 205.928 494.953 222.138 494.612 224.791C494.271 227.444 496.39 234.478 496.39 234.478C496.39 234.478 485.063 236.765 481.824 234.624C481.824 234.624 481.483 215.567 481.824 213.668C482.165 211.77 485.063 204.079 485.745 203.324C486.427 202.57 492.444 201.815 492.444 201.815Z" fill="#50BFA5"/>
<path d="M490.836 195.341C490.836 195.341 490.861 195.487 490.909 195.73C491.129 196.899 491.957 200.744 492.517 201.791C493.199 203.081 490.203 207.145 487.329 206.658C486.476 206.512 488.06 202.91 487.986 202.521C487.84 201.791 487.645 200.793 487.451 199.771C487.329 199.186 487.231 198.602 487.11 198.067C486.793 196.509 486.549 195.219 486.549 195.219L490.836 195.341Z" fill="#F7A491"/>
<path d="M490.909 195.73C490.861 195.487 490.836 195.341 490.836 195.341L486.525 195.244C486.525 195.244 486.768 196.509 487.085 198.091C487.183 198.627 487.304 199.211 487.426 199.795C488.084 199.698 488.79 199.381 489.497 198.773C490.252 198.116 490.763 197.312 491.055 196.461C490.982 196.144 490.958 195.925 490.909 195.73Z" fill="#F47458"/>
<path d="M487.938 185.533C487.938 185.533 489.959 185.289 491.25 186.944C492.517 188.599 493.905 193.686 490.739 196.461C487.572 199.235 484.454 196.096 483.992 192.761C483.504 189.451 483.334 185.411 487.938 185.533Z" fill="#F7A491"/>
<path d="M483.042 192.737C483.432 193.467 484.065 193.881 484.455 193.637C484.869 193.394 484.869 192.615 484.503 191.885C484.114 191.155 483.48 190.741 483.091 190.984C482.676 191.204 482.652 192.007 483.042 192.737Z" fill="#F7A491"/>
<path d="M487.718 184.997C487.718 184.997 490.422 189.84 492.371 190.084C494.319 190.327 494.563 192.883 494.563 192.883C494.563 192.883 493.856 186.944 491.957 185.8C490.032 184.632 487.718 184.997 487.718 184.997Z" fill="#F7CC7F"/>
<path d="M491.859 191.277C491.713 192.128 492.03 192.932 492.565 193.053C493.101 193.175 493.686 192.566 493.856 191.69C494.003 190.838 493.686 190.035 493.15 189.914C492.59 189.816 492.03 190.425 491.859 191.277Z" fill="#F7A491"/>
<path d="M487.645 218.243C487.645 218.243 496.414 213.765 498.338 211.356C500.263 208.97 499.849 204.395 497.364 203.275C494.879 202.18 484.747 212.305 484.747 212.305L487.645 218.243Z" fill="#96D9C9"/>
</g>
<mask id="mask5_232_1593" style="mask-type:luminance" maskUnits="userSpaceOnUse" x="319" y="113" width="29" height="29">
<path d="M346.827 129.922C348.117 122.478 343.125 115.399 335.676 114.11C328.226 112.82 321.141 117.809 319.851 125.252C318.56 132.695 323.553 139.774 331.002 141.064C338.451 142.353 345.536 137.365 346.827 129.922Z" fill="white"/>
</mask>
<g mask="url(#mask5_232_1593)">
<path d="M309.321 136.443C309.321 136.443 314.144 135.153 314.217 135.542C315.459 144.061 315.995 147.152 316.19 147.225C316.799 147.517 324.423 140.167 325.787 139.656C326.444 139.412 327.175 139.437 327.857 139.437C329.514 139.437 329.855 139.437 329.855 139.437C329.903 139.437 329.903 139.437 329.903 139.437L329.928 140.994C328.101 142.722 326.323 176.091 325.957 176.066C325.543 176.066 317.968 176.017 318.333 175.385C318.333 175.385 320.16 165.114 321.597 158.348C322.084 156.084 323.424 151.314 323.424 151.314C321.573 152.312 314.339 156.109 313.169 155.646C309.54 154.283 309.321 136.443 309.321 136.443Z" fill="#F47458"/>
<path d="M323.643 156.741C324.471 152.652 326.59 145.959 327.224 144.426C328.661 140.945 329.854 139.46 329.854 139.46L335.505 139.631C335.505 139.631 335.627 139.655 335.676 139.68C336.139 139.753 336.163 156.23 335.895 162.387C335.652 168.545 334.288 176.552 334.288 176.552L332.68 176.406C332.656 177.234 332.631 177.794 332.631 177.794C324.447 179.23 319.868 175.214 319.868 175.214C319.868 175.214 322.547 162.047 323.643 156.741Z" fill="#466EB6"/>
<path d="M335.506 139.631C335.506 139.631 341.108 139.217 342.521 138.536C343.398 138.122 350.437 132.135 350.437 132.135L349.95 116.607L354.992 116.096C354.992 116.096 358.061 133.181 357.208 135.08C356.332 137.051 346.004 145.302 343.982 148.831C342.813 150.851 343.933 178.378 343.544 178.646C340.864 180.13 329.538 181.445 329.733 180.593C334.58 156.644 335.506 139.631 335.506 139.631Z" fill="#F47458"/>
<path d="M335.213 134.642L335.505 139.631C335.505 139.631 332.022 146.032 330.122 145.204C328.539 144.499 329.806 139.68 329.806 139.68C329.806 139.68 330.049 138.584 330.39 137.294C330.634 136.394 330.829 135.445 330.78 134.739C330.682 133.035 335.213 134.642 335.213 134.642Z" fill="#F7A491"/>
<path d="M330.78 134.739C330.707 133.035 335.213 134.642 335.213 134.642L335.237 135.128C335.091 135.347 334.921 135.566 334.75 135.712C333.581 136.71 331.852 137.197 330.439 137.075C330.658 136.248 330.804 135.372 330.78 134.739Z" fill="#F47458"/>
<path d="M330.536 123.373C330.536 123.373 328.734 126.221 328.661 128.606C328.588 130.967 329.124 132.573 329.124 132.573L334.921 125.271L330.536 123.373Z" fill="#184655"/>
<path d="M328.052 128.144C327.979 128.971 328.32 129.677 328.807 129.701C329.294 129.75 329.733 129.093 329.806 128.265C329.879 127.438 329.538 126.732 329.051 126.708C328.539 126.659 328.101 127.316 328.052 128.144Z" fill="#F48C7F"/>
<path d="M336.894 126.367C337.04 126.343 337.187 133.206 335.238 134.885C333.289 136.565 329.806 136.784 328.759 135.177C327.589 133.401 328.466 126.123 331.389 124.517C334.337 122.911 336.894 126.367 336.894 126.367Z" fill="#F7A491"/>
<path d="M337.308 122.083C338.867 123.373 339.622 124.322 340.718 126.683C342.058 129.555 339.622 132.646 337.551 133.912C335.481 135.177 335.335 136.613 335.335 136.613L335.213 135.713C335.164 135.396 335.164 135.129 335.213 134.885C335.262 134.618 335.384 134.398 335.505 134.155C335.676 133.766 336.212 132.427 336.431 132.086C336.991 131.161 337.113 130.967 336.796 130.091C336.553 129.433 336.772 127.949 336.407 126.854L333.557 126.318C333.557 126.318 331.779 125.929 330.853 124.931C328.174 122.059 333.191 118.603 337.308 122.083Z" fill="#184655"/>
<path d="M336.139 130.894C335.798 131.648 335.895 132.427 336.358 132.622C336.797 132.816 337.43 132.354 337.771 131.575C338.112 130.821 338.015 130.042 337.552 129.847C337.089 129.652 336.48 130.115 336.139 130.894Z" fill="#F7A491"/>
</g>
<mask id="mask6_232_1593" style="mask-type:luminance" maskUnits="userSpaceOnUse" x="51" y="123" width="42" height="43">
<path d="M77.5482 164.494C88.5608 161.571 95.1171 150.281 92.1922 139.278C89.2673 128.274 77.9687 121.723 66.9561 124.645C55.9436 127.568 49.3872 138.857 52.3121 149.861C55.237 160.865 66.5356 167.416 77.5482 164.494Z" fill="white"/>
</mask>
<g mask="url(#mask6_232_1593)">
<path d="M36.0249 157.958C36.0249 157.958 43.3079 156.011 43.4054 156.595C45.2809 169.445 46.1091 174.094 46.3527 174.216C47.2539 174.654 58.7509 163.58 60.8213 162.801C61.82 162.436 62.9161 162.46 63.9635 162.46C66.4723 162.46 66.9595 162.46 66.9595 162.46C67.0326 162.46 67.0569 162.46 67.0569 162.46L67.1056 164.797C64.3532 167.401 61.6494 217.709 61.1136 217.684C60.5046 217.66 49.0808 217.611 49.6166 216.662C49.6166 216.662 52.3691 201.183 54.5613 190.961C55.292 187.529 57.3381 180.373 57.3381 180.373C54.5369 181.858 43.6246 187.602 41.8708 186.92C36.3416 184.827 36.0249 157.958 36.0249 157.958Z" fill="#F7CC7F"/>
<path d="M57.6066 188.551C58.8488 182.394 62.0641 172.269 63.014 169.981C65.1575 164.724 66.9844 162.485 66.9844 162.485L75.5096 162.728C75.5096 162.728 75.7045 162.777 75.7776 162.801C76.4839 162.923 76.4839 187.748 76.1186 197.021C75.7532 206.294 73.6828 218.39 73.6828 218.39L71.247 218.171C71.1983 219.413 71.1739 220.24 71.1739 220.24C58.8245 222.406 51.9312 216.346 51.9312 216.346C51.9312 216.346 55.9746 196.534 57.6066 188.551Z" fill="#F7CC7F"/>
<path d="M75.5095 162.728C75.5095 162.728 83.9374 162.119 86.1052 161.073C87.4205 160.44 98.0406 151.41 98.0406 151.41L97.3099 128.021L104.934 127.242C104.934 127.242 109.562 152.992 108.271 155.864C106.931 158.834 91.3665 171.271 88.3218 176.576C86.568 179.643 88.2243 221.14 87.6641 221.505C83.6207 223.745 66.5701 225.74 66.8381 224.426C74.1211 188.405 75.5095 162.728 75.5095 162.728Z" fill="#F7CC7F"/>
<path d="M75.0707 155.232L75.5092 162.753C75.5092 162.753 70.2479 172.391 67.3736 171.15C64.9622 170.103 66.8865 162.826 66.8865 162.826C66.8865 162.826 67.2519 161.171 67.7634 159.248C68.1287 157.909 68.421 156.449 68.3723 155.403C68.2505 152.798 75.0707 155.232 75.0707 155.232Z" fill="#BF7154"/>
<path d="M68.3723 155.378C68.2505 152.823 75.0464 155.232 75.0464 155.232L75.0951 155.962C74.8759 156.303 74.6323 156.595 74.3643 156.838C72.5862 158.347 69.9799 159.078 67.8364 158.907C68.1774 157.642 68.421 156.352 68.3723 155.378Z" fill="#A3573C"/>
<path d="M68.0316 138.244C68.0316 138.244 65.3279 142.552 65.2061 146.129C65.0843 149.707 65.9125 152.117 65.9125 152.117L74.6569 141.116L68.0316 138.244Z" fill="#184655"/>
<path d="M64.256 145.423C64.1586 146.665 64.6701 147.735 65.4009 147.784C66.1316 147.833 66.7893 146.859 66.8867 145.618C66.9841 144.377 66.4726 143.306 65.7419 143.257C65.0111 143.208 64.3535 144.182 64.256 145.423Z" fill="#A3573C"/>
<path d="M77.6042 142.746C77.799 142.697 78.067 153.065 75.1197 155.597C72.1723 158.128 66.9354 158.469 65.3521 156.059C63.5984 153.382 64.9137 142.405 69.3225 139.971C73.7313 137.513 77.6042 142.746 77.6042 142.746Z" fill="#BF7154"/>
<path d="M78.2131 136.296C80.5515 138.243 81.7206 139.679 83.3526 143.233C85.3743 147.589 81.6963 152.238 78.5785 154.137C75.4363 156.035 75.2414 158.225 75.2414 158.225L75.0709 156.887C74.9978 156.4 74.9978 155.986 75.0709 155.646C75.1684 155.232 75.3389 154.891 75.485 154.55C75.7286 153.966 76.5568 151.97 76.8734 151.435C77.7259 150.023 77.8964 149.731 77.4336 148.441C77.0683 147.443 77.4093 145.204 76.8247 143.549L72.5133 142.746C72.5133 142.746 69.8096 142.162 68.4212 140.653C64.4509 136.248 72.0018 131.039 78.2131 136.296Z" fill="#184655"/>
<path d="M76.4591 149.561C75.9719 150.705 76.0937 151.873 76.7757 152.165C77.4577 152.457 78.3833 151.751 78.8949 150.607C79.382 149.463 79.2602 148.295 78.5782 148.003C77.8962 147.711 76.9706 148.417 76.4591 149.561Z" fill="#BF7154"/>
</g>
<mask id="mask7_232_1593" style="mask-type:luminance" maskUnits="userSpaceOnUse" x="174" y="44" width="35" height="35">
<path d="M174.305 61.9175C174.305 71.3122 181.929 78.9301 191.331 78.9301C200.734 78.9301 208.358 71.3122 208.358 61.9175C208.358 52.5228 200.734 44.9048 191.331 44.9048C181.929 44.8805 174.305 52.4985 174.305 61.9175Z" fill="white"/>
</mask>
<g mask="url(#mask7_232_1593)">
<path d="M221.243 72.9673C221.243 72.9673 215.227 71.3609 215.154 71.8477C213.595 82.4593 212.937 86.2805 212.718 86.4022C211.963 86.7672 202.488 77.6159 200.758 76.9831C199.93 76.6667 199.029 76.6911 198.176 76.6911C196.106 76.6911 195.716 76.6911 195.716 76.6911C195.667 76.6911 195.643 76.6911 195.643 76.6911L195.594 78.6382C197.86 80.78 200.1 122.302 200.539 122.302C201.05 122.302 210.477 122.253 210.014 121.45C210.014 121.45 207.724 108.672 205.946 100.226C205.337 97.4032 203.657 91.4889 203.657 91.4889C205.971 92.7302 214.959 97.4519 216.42 96.8921C220.975 95.1397 221.243 72.9673 221.243 72.9673Z" fill="#13375B"/>
<path d="M203.413 98.2057C202.39 93.1189 199.735 84.7708 198.956 82.8724C197.177 78.5158 195.667 76.6904 195.667 76.6904L188.628 76.9095C188.628 76.9095 188.457 76.9582 188.409 76.9582C187.824 77.0555 187.824 97.5486 188.116 105.191C188.433 112.858 190.138 122.812 190.138 122.812L192.135 122.617C192.16 123.639 192.184 124.321 192.184 124.321C202.366 126.122 208.065 121.108 208.065 121.108C208.065 121.108 204.777 104.801 203.413 98.2057Z" fill="#466EB6"/>
<path d="M188.652 76.9102C188.652 76.9102 181.686 76.3991 179.908 75.5472C178.836 75.0361 170.067 67.5885 170.067 67.5885L170.676 48.2881L164.392 47.6553C164.392 47.6553 160.567 68.9272 161.639 71.288C162.735 73.7218 175.596 84.0171 178.105 88.398C179.542 90.9292 178.178 125.174 178.641 125.49C181.978 127.34 196.057 128.995 195.838 127.899C189.797 98.1091 188.652 76.9102 188.652 76.9102Z" fill="#13375B"/>
<path d="M189.017 70.7037L188.652 76.91C188.652 76.91 192.988 84.8687 195.375 83.8465C197.372 82.9703 195.764 76.983 195.764 76.983C195.764 76.983 195.472 75.5957 195.034 74.0137C194.741 72.9185 194.498 71.7015 194.522 70.8497C194.644 68.7079 189.017 70.7037 189.017 70.7037Z" fill="#F7A491"/>
<path d="M194.522 70.8253C194.62 68.7078 188.993 70.7036 188.993 70.7036L188.969 71.312C189.139 71.6041 189.358 71.8475 189.578 72.0422C191.039 73.2835 193.183 73.8919 194.961 73.7459C194.693 72.6993 194.498 71.6284 194.522 70.8253Z" fill="#F47458"/>
<path d="M194.815 56.709C194.815 56.709 197.031 60.2624 197.129 63.2074C197.226 66.1523 196.544 68.1481 196.544 68.1481L189.334 59.0698L194.815 56.709Z" fill="#F47458"/>
<path d="M197.932 62.6236C198.005 63.6458 197.591 64.522 196.982 64.5707C196.373 64.6194 195.837 63.8162 195.764 62.794C195.691 61.7718 196.105 60.8956 196.714 60.8469C197.299 60.7982 197.859 61.577 197.932 62.6236Z" fill="#F48C7F"/>
<path d="M186.898 60.4082C186.727 60.3596 186.508 68.9267 188.944 70.9955C191.38 73.0643 195.691 73.3564 197.006 71.3606C198.468 69.1458 197.372 60.0918 193.718 58.0961C190.113 56.1003 186.898 60.4082 186.898 60.4082Z" fill="#F7A491"/>
<path d="M186.411 55.0782C184.462 56.6845 183.513 57.8771 182.173 60.7977C180.492 64.3755 183.537 68.221 186.119 69.803C188.701 71.3607 188.871 73.1861 188.871 73.1861L189.017 72.0665C189.09 71.6527 189.066 71.3363 189.017 71.0443C188.944 70.7035 188.798 70.4115 188.676 70.1194C188.457 69.6326 187.799 67.9776 187.532 67.5395C186.825 66.3713 186.679 66.1279 187.069 65.057C187.361 64.2295 187.093 62.3797 187.556 61.0168L191.112 60.3596C191.112 60.3596 193.329 59.8972 194.498 58.6316C197.762 55.0295 191.526 50.7459 186.411 55.0782Z" fill="#F47458"/>
<path d="M187.848 66.0307C188.262 66.9799 188.14 67.9535 187.58 68.1725C187.02 68.4159 186.24 67.8318 185.826 66.8826C185.412 65.9334 185.534 64.9599 186.094 64.7408C186.654 64.4974 187.458 65.0815 187.848 66.0307Z" fill="#F7A491"/>
</g>
<mask id="mask8_232_1593" style="mask-type:luminance" maskUnits="userSpaceOnUse" x="263" y="167" width="21" height="21">
<path d="M277.374 186.375C282.482 184.261 284.908 178.409 282.792 173.305C280.676 168.201 274.82 165.777 269.712 167.891C264.603 170.005 262.178 175.857 264.294 180.961C266.41 186.065 272.266 188.489 277.374 186.375Z" fill="white"/>
</mask>
<g mask="url(#mask8_232_1593)">
<path d="M255.977 183.635C255.977 183.635 259.509 182.686 259.558 182.978C260.459 189.208 260.873 191.448 260.995 191.521C261.433 191.74 267.011 186.361 268.01 185.996C268.497 185.825 269.033 185.825 269.52 185.825C270.738 185.825 270.982 185.825 270.982 185.825C271.006 185.825 271.03 185.825 271.03 185.825L271.055 186.969C269.715 188.235 268.424 212.598 268.156 212.598C267.864 212.598 262.334 212.573 262.578 212.111C262.578 212.111 263.918 204.615 264.965 199.65C265.331 197.995 266.305 194.514 266.305 194.514C264.941 195.244 259.655 198.019 258.803 197.678C256.123 196.656 255.977 183.635 255.977 183.635Z" fill="#F7CC7F"/>
<path d="M266.426 198.457C267.035 195.464 268.594 190.572 269.033 189.452C270.08 186.897 270.957 185.826 270.957 185.826L275.098 185.947C275.098 185.947 275.195 185.972 275.22 185.972C275.561 186.02 275.561 198.044 275.39 202.546C275.22 207.049 274.221 212.89 274.221 212.89L273.052 212.768C273.027 213.377 273.027 213.766 273.027 213.766C267.035 214.813 263.698 211.868 263.698 211.868C263.698 211.868 265.647 202.327 266.426 198.457Z" fill="#466EB6"/>
<path d="M275.098 185.947C275.098 185.947 279.19 185.655 280.238 185.144C280.871 184.828 286.011 180.471 286.011 180.471L285.645 169.129L289.348 168.74C289.348 168.74 291.588 181.225 290.955 182.613C290.298 184.049 282.771 190.085 281.285 192.64C280.433 194.125 281.236 214.228 280.968 214.423C278.995 215.518 270.738 216.468 270.884 215.835C274.44 198.384 275.098 185.947 275.098 185.947Z" fill="#F7CC7F"/>
<path d="M274.903 182.321L275.122 185.972C275.122 185.972 272.565 190.645 271.176 190.036C270.007 189.525 270.933 185.996 270.933 185.996C270.933 185.996 271.103 185.193 271.371 184.268C271.542 183.611 271.688 182.905 271.663 182.394C271.59 181.153 274.903 182.321 274.903 182.321Z" fill="#F7A491"/>
<path d="M271.663 182.394C271.59 181.153 274.903 182.321 274.903 182.321L274.927 182.686C274.83 182.856 274.708 183.002 274.562 183.1C273.71 183.83 272.443 184.195 271.396 184.098C271.566 183.489 271.688 182.856 271.663 182.394Z" fill="#F47458"/>
<path d="M271.493 174.095C271.493 174.095 270.178 176.188 270.129 177.916C270.08 179.644 270.47 180.812 270.47 180.812L274.709 175.482L271.493 174.095Z" fill="#13375B"/>
<path d="M269.666 177.575C269.618 178.183 269.861 178.694 270.227 178.719C270.568 178.743 270.909 178.281 270.957 177.672C271.006 177.064 270.762 176.553 270.397 176.528C270.032 176.48 269.715 176.966 269.666 177.575Z" fill="#F48C7F"/>
<path d="M276.121 176.261C276.219 176.236 276.34 181.25 274.928 182.491C273.491 183.708 270.957 183.879 270.202 182.71C269.35 181.42 269.983 176.09 272.126 174.922C274.246 173.729 276.121 176.261 276.121 176.261Z" fill="#F7A491"/>
<path d="M276.413 173.145C277.558 174.094 278.118 174.8 278.897 176.504C279.872 178.621 278.094 180.86 276.583 181.785C275.073 182.71 274.976 183.757 274.976 183.757L274.903 183.1C274.854 182.856 274.878 182.661 274.903 182.491C274.951 182.296 275.025 182.126 275.098 181.956C275.219 181.664 275.609 180.69 275.78 180.447C276.194 179.765 276.267 179.619 276.048 178.986C275.877 178.5 276.023 177.429 275.755 176.625L273.661 176.236C273.661 176.236 272.345 175.968 271.688 175.214C269.763 173.121 273.417 170.59 276.413 173.145Z" fill="#13375B"/>
<path d="M275.585 179.571C275.341 180.131 275.414 180.691 275.731 180.837C276.048 180.983 276.511 180.642 276.754 180.082C276.998 179.522 276.925 178.963 276.608 178.817C276.267 178.671 275.804 179.011 275.585 179.571Z" fill="#F7A491"/>
</g>
<mask id="mask9_232_1593" style="mask-type:luminance" maskUnits="userSpaceOnUse" x="387" y="182" width="25" height="25">
<path d="M387.291 194.319C387.291 200.988 392.698 206.367 399.348 206.367C406.022 206.367 411.405 200.964 411.405 194.319C411.405 187.65 405.997 182.272 399.348 182.272C392.698 182.247 387.291 187.65 387.291 194.319Z" fill="white"/>
</mask>
<g mask="url(#mask9_232_1593)">
<path d="M420.539 202.132C420.539 202.132 416.277 200.988 416.228 201.329C415.132 208.85 414.645 211.551 414.498 211.624C413.963 211.868 407.24 205.394 406.046 204.955C405.462 204.736 404.828 204.761 404.219 204.761C402.758 204.761 402.466 204.761 402.466 204.761C402.417 204.761 402.417 204.761 402.417 204.761L402.393 206.124C404 207.657 405.583 237.058 405.9 237.034C406.265 237.034 412.94 236.985 412.623 236.425C412.623 236.425 411.015 227.371 409.749 221.408C409.31 219.413 408.141 215.226 408.141 215.226C409.773 216.103 416.155 219.437 417.178 219.047C420.344 217.855 420.539 202.132 420.539 202.132Z" fill="#F47458"/>
<path d="M407.922 220.021C407.191 216.418 405.315 210.504 404.755 209.166C403.488 206.099 402.441 204.785 402.441 204.785L397.448 204.931C397.448 204.931 397.326 204.955 397.302 204.979C396.887 205.052 396.887 219.558 397.107 224.986C397.326 230.413 398.519 237.471 398.519 237.471L399.932 237.325C399.957 238.055 399.981 238.542 399.981 238.542C407.191 239.808 411.234 236.254 411.234 236.254C411.234 236.254 408.872 224.694 407.922 220.021Z" fill="#466EB6"/>
<path d="M397.448 204.931C397.448 204.931 392.527 204.566 391.261 203.957C390.506 203.592 384.294 198.311 384.294 198.311L384.733 184.632L380.275 184.17C380.275 184.17 377.572 199.235 378.327 200.891C379.106 202.619 388.216 209.896 389.994 213.011C391.017 214.788 390.043 239.053 390.384 239.272C392.747 240.587 402.709 241.755 402.563 240.976C398.252 219.948 397.448 204.931 397.448 204.931Z" fill="#F47458"/>
<path d="M397.716 200.55L397.448 204.931C397.448 204.931 400.517 210.577 402.198 209.847C403.61 209.239 402.49 204.979 402.49 204.979C402.49 204.979 402.271 204.006 401.978 202.886C401.759 202.107 401.589 201.256 401.613 200.647C401.686 199.138 397.716 200.55 397.716 200.55Z" fill="#F7A491"/>
<path d="M401.613 200.623C401.686 199.114 397.716 200.55 397.716 200.55L397.691 200.988C397.813 201.183 397.959 201.353 398.13 201.499C399.177 202.375 400.687 202.813 401.929 202.692C401.735 201.961 401.588 201.207 401.613 200.623Z" fill="#F47458"/>
<path d="M401.832 190.62C401.832 190.62 403.415 193.126 403.488 195.22C403.561 197.313 403.074 198.724 403.074 198.724L397.959 192.299L401.832 190.62Z" fill="#184655"/>
<path d="M404.024 194.806C404.073 195.536 403.781 196.145 403.342 196.193C402.928 196.218 402.539 195.658 402.465 194.928C402.417 194.197 402.709 193.589 403.148 193.54C403.586 193.516 403.976 194.076 404.024 194.806Z" fill="#F48C7F"/>
<path d="M396.23 193.249C396.108 193.224 395.962 199.284 397.691 200.745C399.421 202.229 402.465 202.424 403.391 201.013C404.414 199.455 403.659 193.029 401.077 191.618C398.495 190.206 396.23 193.249 396.23 193.249Z" fill="#F7A491"/>
<path d="M395.889 189.476C394.525 190.62 393.843 191.447 392.868 193.516C391.675 196.047 393.818 198.773 395.67 199.893C397.496 200.988 397.618 202.278 397.618 202.278L397.716 201.499C397.764 201.207 397.764 200.988 397.716 200.769C397.667 200.525 397.569 200.331 397.472 200.112C397.326 199.771 396.839 198.603 396.644 198.286C396.132 197.459 396.035 197.288 396.327 196.534C396.546 195.95 396.352 194.635 396.668 193.686L399.177 193.224C399.177 193.224 400.76 192.883 401.564 192.007C403.903 189.451 399.494 186.409 395.889 189.476Z" fill="#184655"/>
<path d="M396.888 197.24C397.18 197.922 397.107 198.603 396.693 198.773C396.303 198.944 395.743 198.53 395.45 197.849C395.158 197.167 395.231 196.486 395.645 196.315C396.059 196.145 396.595 196.559 396.888 197.24Z" fill="#F7A491"/>
</g>
<mask id="mask10_232_1593" style="mask-type:luminance" maskUnits="userSpaceOnUse" x="308" y="170" width="50" height="50">
<path d="M356.036 204.271C361.225 191.752 355.276 177.401 342.748 172.215C330.22 167.03 315.857 172.975 310.667 185.493C305.478 198.011 311.427 212.363 323.955 217.548C336.484 222.733 350.847 216.789 356.036 204.271Z" fill="white"/>
</mask>
<g mask="url(#mask10_232_1593)">
<path d="M327.273 224.037C327.273 224.037 332.802 216.662 334.824 213.157C336.846 209.653 333.46 211.94 329.977 211.016C328.662 210.675 329.758 203.495 327.273 206.002C323.205 210.115 319.113 218.999 319.113 218.999L327.273 224.037Z" fill="#13375B"/>
<path d="M327.882 205.516C331.462 204.42 338.161 203.861 338.161 203.861C338.161 203.861 342.375 203.179 343.739 203.471C345.761 203.909 349.512 204.104 349.877 212.817C350.121 219.048 350.827 234.479 351.558 244.92L325.982 246.477C327.102 230.438 324.496 206.538 327.882 205.516Z" fill="#47637F"/>
<path d="M334.653 196.413L338.672 203.788C338.672 203.788 335.652 209.191 332.778 209.313C330.366 209.434 330.756 205.881 330.756 205.881C330.756 205.881 330.366 201.281 329.221 199.236C328.077 197.192 334.653 196.413 334.653 196.413Z" fill="#F7A491"/>
<path d="M334.288 199.358C333.387 200.307 331.877 201.597 330.245 202.4C330.001 201.256 329.685 200.064 329.222 199.261C328.686 198.311 329.807 197.63 331.171 197.168C332.997 196.681 334.654 196.413 334.654 196.413L335.433 197.825C335.238 198.336 334.581 199.042 334.288 199.358Z" fill="#F47458"/>
<path d="M332.583 183.975C332.754 183.854 336.724 193.078 334.995 196.412C333.265 199.722 328.735 201.937 326.445 200.331C323.912 198.554 321.135 188.235 324.204 184.438C327.249 180.665 332.583 183.975 332.583 183.975Z" fill="#F7A491"/>
<path d="M324.228 178.913C327.346 178.694 329.758 179.959 330.683 180.544C332.072 180.325 334.093 180.568 336.846 183.148C340.231 186.336 339.696 191.033 337.576 193.857C335.457 196.68 336.164 199.065 336.164 199.065L335.384 197.946C334.8 197.094 334.41 196.12 334.239 195.122C334.142 194.514 334.093 193.832 334.191 193.248C334.459 191.691 332.169 191.326 331.268 190.328C330.586 189.549 330.001 187.529 328.881 186.263L327.736 185.363C327.736 185.363 325.422 184.413 323.668 185.338C321.914 186.263 320.209 179.181 324.228 178.913Z" fill="#F7CC7F"/>
<path d="M331.852 191.983C332.169 193.151 332.948 193.979 333.63 193.784C334.312 193.614 334.605 192.519 334.312 191.326C333.996 190.158 333.216 189.33 332.534 189.525C331.852 189.72 331.536 190.815 331.852 191.983Z" fill="#F7A491"/>
<path d="M328.613 195.804L324.862 196.632C324.862 196.632 325.276 198.043 326.932 197.727C328.954 197.338 328.613 195.804 328.613 195.804Z" fill="white"/>
<path d="M340.792 225.327C340.792 225.327 347.515 216.784 349.147 213.449C350.779 210.091 349.025 204.785 345.785 204.176C342.521 203.544 333.095 218.852 333.095 218.852L340.792 225.327Z" fill="#13375B"/>
</g>
<mask id="mask11_232_1593" style="mask-type:luminance" maskUnits="userSpaceOnUse" x="83" y="60" width="30" height="30">
<path d="M83.8394 75.1094C83.8394 83.0925 90.3186 89.5665 98.308 89.5665C106.297 89.5665 112.777 83.0925 112.777 75.1094C112.777 67.1264 106.297 60.6523 98.308 60.6523C90.3186 60.6523 83.8394 67.1264 83.8394 75.1094Z" fill="white"/>
</mask>
<g mask="url(#mask11_232_1593)">
<path d="M101.889 92.2684C101.889 92.2684 98.6247 87.9118 97.4312 85.8673C96.2376 83.7986 98.235 85.1372 100.281 84.6017C101.06 84.407 100.403 80.1721 101.889 81.6568C104.3 84.0663 106.687 89.2991 106.687 89.2991L101.889 92.2684Z" fill="#96D9C9"/>
<path d="M101.547 81.3643C99.4283 80.7315 95.4823 80.3908 95.4823 80.3908C95.4823 80.3908 92.9978 79.977 92.194 80.1717C91.0004 80.4395 88.7839 80.5368 88.589 85.6722C88.4429 89.3474 88.0288 98.45 87.5903 104.583L102.668 105.508C101.986 96.0405 103.545 81.9728 101.547 81.3643Z" fill="#50BFA5"/>
<path d="M97.5527 76.0098L95.1899 80.3664C95.1899 80.3664 96.9681 83.5547 98.6488 83.6277C100.062 83.7007 99.8423 81.6076 99.8423 81.6076C99.8423 81.6076 100.062 78.9061 100.744 77.6891C101.426 76.4722 97.5527 76.0098 97.5527 76.0098Z" fill="#F7A491"/>
<path d="M97.7475 77.7378C98.2834 78.2976 99.1603 79.0521 100.135 79.5145C100.281 78.833 100.476 78.1272 100.744 77.6648C101.06 77.105 100.403 76.7156 99.5987 76.4479C98.527 76.1558 97.5526 76.0098 97.5526 76.0098L97.0898 76.8373C97.2116 77.1293 97.577 77.5674 97.7475 77.7378Z" fill="#F47458"/>
<path d="M98.7459 68.6843C98.6484 68.6113 96.3101 74.0632 97.3331 76.0102C98.3561 77.9573 101.011 79.2473 102.375 78.3224C103.861 77.2758 105.493 71.1912 103.691 68.9764C101.912 66.7129 98.7459 68.6843 98.7459 68.6843Z" fill="#F7A491"/>
<path d="M103.691 65.6908C101.864 65.5691 100.427 66.2992 99.891 66.64C99.0872 66.5183 97.8936 66.64 96.2617 68.1733C94.2643 70.0474 94.581 72.822 95.8232 74.477C97.0655 76.132 96.6514 77.5436 96.6514 77.5436L97.1142 76.8865C97.4552 76.3754 97.6988 75.8156 97.7962 75.2071C97.8449 74.8421 97.8936 74.4527 97.8206 74.1119C97.6744 73.187 99.0141 72.968 99.55 72.3839C99.9641 71.9214 100.305 70.7289 100.963 69.9744L101.645 69.4389C101.645 69.4389 103.009 68.8791 104.056 69.4389C105.055 70.023 106.054 65.8611 103.691 65.6908Z" fill="#184655"/>
<path d="M99.185 73.4059C99.0145 74.0874 98.5273 74.5741 98.1376 74.4768C97.7478 74.3794 97.553 73.7223 97.7478 73.0408C97.9183 72.3593 98.4055 71.8726 98.7952 71.9699C99.2093 72.0673 99.3798 72.7001 99.185 73.4059Z" fill="#F7A491"/>
<path d="M101.109 75.645L103.326 76.1318C103.326 76.1318 103.082 76.9593 102.108 76.7646C100.915 76.5455 101.109 75.645 101.109 75.645Z" fill="white"/>
<path d="M93.9237 93.0473C93.9237 93.0473 89.9533 88.0092 89.0034 86.0378C88.0291 84.0663 89.0765 80.951 91.0007 80.5616C92.925 80.1965 98.4786 89.2018 98.4786 89.2018L93.9237 93.0473Z" fill="#96D9C9"/>
</g>
<mask id="mask12_232_1593" style="mask-type:luminance" maskUnits="userSpaceOnUse" x="135" y="103" width="48" height="47">
<path d="M160.775 149.335C173.537 148.429 183.147 137.357 182.24 124.606C181.333 111.855 170.253 102.252 157.491 103.159C144.73 104.065 135.12 115.136 136.027 127.887C136.934 140.639 148.014 150.241 160.775 149.335Z" fill="white"/>
</mask>
<g mask="url(#mask12_232_1593)">
<path d="M172.965 135.614C173.379 135.639 174.549 136.028 176.254 139.216C178.422 143.305 181.588 155.669 181.588 155.669L172.137 159.198L170.919 156.618L168.922 136.758C168.898 136.758 172.844 135.614 172.965 135.614Z" fill="#8CA5D2"/>
<path d="M160.47 133.837C163.174 133.837 169.872 134.641 172.966 135.614C172.966 135.614 175.255 155.207 170.92 170.102C169.945 173.436 171.724 183.926 171.724 183.926L143.712 183.561C143.712 183.561 147.025 158.225 145.782 154.136C144.54 150.047 144.491 135.784 144.491 135.784C144.491 135.784 144.686 135.76 150.776 134.689C153.626 134.178 157.572 133.837 160.47 133.837Z" fill="#466EB6"/>
<path d="M144.174 137.927C146.805 136.953 148.072 160.537 148.437 170.248C153.065 170.686 161.152 170.248 163.174 170.102C164.124 170.029 166.316 169.226 167.241 169.104C168.216 168.983 169.093 168.91 169.555 169.007C169.726 169.031 174.573 171.003 174.987 171.441C175.499 171.976 176.887 173.339 176.644 173.923C176.4 174.508 173.964 172.293 173.964 172.293L172.771 171.636C174.257 173.072 177.082 174.994 176.668 175.676C176.278 176.357 173.721 174.41 171.918 173.096C173.477 174.508 175.401 177.014 174.963 177.404C174.573 177.745 172.357 174.848 170.018 173.996C169.141 173.68 168.289 174.556 167.582 174.654C167.071 174.727 166.291 174.897 165.804 174.751L163.247 174.021C162.37 174.094 162.346 174.605 161.493 174.8C160.47 175.019 158.814 175.238 157.523 175.554C150.069 177.379 147.585 178.231 145.295 178.207C138.377 178.231 137.988 140.263 144.174 137.927Z" fill="#F7A491"/>
<path d="M139.205 160.075C138.718 150.12 138.791 137.878 144.369 135.785C146.561 134.957 150.458 139.922 149.752 160.269C146.756 160.537 142.396 160.732 139.205 160.075Z" fill="#8CA5D2"/>
<path d="M166.754 109.913C165.951 109.645 165.171 109.353 164.416 108.988C163.564 108.574 162.443 108.087 161.737 107.99C160.251 107.771 157.718 107.917 156.329 109.426C154.576 111.324 151.482 109.766 152.115 119.672C152.822 130.892 159.057 129.651 159.204 129.456C159.35 129.262 164.757 122.276 164.757 122.276C164.757 122.276 166.657 126.414 166.657 126.268C166.657 126.122 176.327 113.125 166.754 109.913Z" fill="#0E2E35"/>
<path d="M162.004 130.284L162.54 134.3C162.54 134.3 163.758 140.068 162.199 141.188C160.64 142.307 155.598 134.13 155.598 134.13L156.134 123.98L162.004 130.284Z" fill="#F7A491"/>
<path d="M155.964 127.266C157.255 130.722 160.3 132.864 162.467 133.692L162.005 130.284L156.134 123.98L155.964 127.266Z" fill="#F47458"/>
<path d="M161.687 112.931C164.976 112.395 167.923 115.048 167.85 118.334C167.826 119.77 167.704 121.547 167.412 123.469C166.705 128.094 163.539 132.158 161.444 131.793C159.349 131.428 154.112 127.437 155.038 120.865C155.598 116.801 158.229 113.466 161.687 112.931Z" fill="#F7A491"/>
<path d="M156.475 121.644C156.304 122.666 155.476 123.372 154.648 123.226C153.82 123.08 153.284 122.131 153.454 121.133C153.625 120.111 154.453 119.405 155.281 119.551C156.11 119.697 156.645 120.622 156.475 121.644Z" fill="#F7A491"/>
<path d="M155.282 119.551C155.282 119.551 157.815 120.183 158.741 118.553C159.666 116.922 163.028 113.417 167.29 114.878C171.553 116.338 163.539 111.349 163.198 111.349C162.857 111.349 158.765 111.324 158.765 111.324C158.765 111.324 155.623 113.904 155.501 114.196C155.379 114.488 154.478 117.579 154.478 117.579L155.282 119.551Z" fill="#0E2E35"/>
<path d="M159.91 126.317L164.513 127.193C164.513 127.193 164.075 128.921 162.053 128.605C159.544 128.191 159.91 126.317 159.91 126.317Z" fill="white"/>
</g>
<mask id="mask13_232_1593" style="mask-type:luminance" maskUnits="userSpaceOnUse" x="203" y="178" width="25" height="25">
<path d="M223.584 198.778C228.283 194.082 228.283 186.47 223.584 181.774C218.885 177.079 211.266 177.079 206.567 181.774C201.868 186.47 201.868 194.082 206.567 198.778C211.266 203.473 218.885 203.473 223.584 198.778Z" fill="white"/>
</mask>
<g mask="url(#mask13_232_1593)">
<path d="M222.266 195.171C222.485 195.171 223.094 195.39 223.971 197.045C225.091 199.163 226.747 205.588 226.747 205.588L221.827 207.413L221.194 206.075L220.146 195.755C220.146 195.755 222.193 195.147 222.266 195.171Z" fill="#FADFAE"/>
<path d="M215.763 194.222C217.175 194.222 220.634 194.636 222.266 195.147C222.266 195.147 223.46 205.321 221.194 213.06C220.683 214.788 221.609 220.24 221.609 220.24L207.042 220.045C207.042 220.045 208.772 206.878 208.114 204.736C207.457 202.619 207.457 195.196 207.457 195.196C207.457 195.196 207.554 195.171 210.721 194.636C212.206 194.417 214.252 194.222 215.763 194.222Z" fill="#F7CC7F"/>
<path d="M207.286 196.364C208.65 195.853 209.308 208.119 209.503 213.157C211.914 213.401 216.128 213.157 217.175 213.084C217.663 213.036 218.807 212.622 219.295 212.573C219.806 212.5 220.244 212.476 220.488 212.524C220.585 212.549 223.094 213.571 223.314 213.79C223.582 214.058 224.312 214.764 224.19 215.08C224.069 215.396 222.802 214.228 222.802 214.228L222.193 213.887C222.973 214.642 224.434 215.64 224.215 215.981C224.02 216.321 222.68 215.323 221.73 214.642C222.534 215.372 223.557 216.686 223.314 216.881C223.094 217.076 221.95 215.542 220.732 215.104C220.269 214.934 219.83 215.396 219.465 215.445C219.197 215.494 218.807 215.567 218.539 215.494L217.224 215.129C216.761 215.177 216.761 215.445 216.298 215.542C215.763 215.664 214.91 215.761 214.228 215.932C210.355 216.881 209.064 217.319 207.871 217.319C204.29 217.295 204.071 197.556 207.286 196.364Z" fill="#F7A491"/>
<path d="M204.704 207.876C204.46 202.716 204.485 196.339 207.383 195.244C208.528 194.806 210.55 197.386 210.185 207.973C208.65 208.095 206.36 208.217 204.704 207.876Z" fill="#FADFAE"/>
<path d="M219.026 181.785C218.612 181.639 218.198 181.493 217.808 181.298C217.37 181.079 216.785 180.835 216.42 180.787C215.64 180.665 214.325 180.738 213.594 181.541C212.693 182.515 211.085 181.712 211.402 186.871C211.767 192.688 215.007 192.056 215.08 191.958C215.153 191.861 217.979 188.234 217.979 188.234C217.979 188.234 218.953 190.376 218.953 190.303C218.977 190.23 224.019 183.464 219.026 181.785Z" fill="#0E2E35"/>
<path d="M216.566 192.373L216.834 194.466C216.834 194.466 217.467 197.459 216.663 198.043C215.86 198.628 213.229 194.368 213.229 194.368L213.497 189.087L216.566 192.373Z" fill="#BF7154"/>
<path d="M213.424 190.815C214.081 192.616 215.689 193.711 216.81 194.149L216.566 192.372L213.521 189.111L213.424 190.815Z" fill="#96482A"/>
<path d="M216.395 183.367C218.1 183.099 219.635 184.462 219.586 186.166C219.562 186.921 219.513 187.846 219.343 188.843C218.977 191.253 217.321 193.37 216.249 193.176C215.153 192.981 212.425 190.912 212.912 187.48C213.229 185.387 214.617 183.659 216.395 183.367Z" fill="#BF7154"/>
<path d="M213.692 187.894C213.595 188.43 213.181 188.795 212.742 188.722C212.304 188.649 212.036 188.162 212.133 187.626C212.231 187.091 212.645 186.726 213.083 186.799C213.497 186.872 213.79 187.359 213.692 187.894Z" fill="#BF7154"/>
<path d="M213.082 186.799C213.082 186.799 214.398 187.115 214.885 186.288C215.372 185.436 217.102 183.635 219.318 184.389C221.535 185.144 217.369 182.564 217.199 182.564C217.028 182.564 214.885 182.54 214.885 182.54C214.885 182.54 213.253 183.878 213.18 184.024C213.131 184.17 212.644 185.777 212.644 185.777L213.082 186.799Z" fill="#0E2E35"/>
<path d="M215.47 190.328L217.857 190.79C217.857 190.79 217.638 191.691 216.566 191.52C215.3 191.301 215.47 190.328 215.47 190.328Z" fill="white"/>
</g>
<mask id="mask14_232_1593" style="mask-type:luminance" maskUnits="userSpaceOnUse" x="428" y="50" width="34" height="33">
<path d="M460.888 71.1119C463.508 62.4665 458.618 53.336 449.965 50.7183C441.313 48.1005 432.175 52.9869 429.555 61.6323C426.936 70.2776 431.826 79.4082 440.478 82.026C449.13 84.6437 458.268 79.7573 460.888 71.1119Z" fill="white"/>
</mask>
<g mask="url(#mask14_232_1593)">
<path d="M432.012 90.0046L439.636 90.7834C439.636 90.7834 439.977 84.5284 439.977 81.5591C439.977 77.9327 439.66 73.284 439.222 73.3814C438.004 73.6734 436.347 74.3306 435.349 75.6935C431.963 80.3665 432.012 90.0046 432.012 90.0046Z" fill="#B75742"/>
<path d="M435.738 80.9024C435.568 81.9976 432.645 111.983 432.645 111.983C446.529 118.676 454.202 113.175 454.202 113.175C454.202 113.175 453.739 92.1225 454.299 89.2748C454.664 87.3764 455.103 74.7934 453.885 74.4283C452.302 73.9659 450.499 73.5035 448.526 73.2844C446.845 73.1141 440.318 73.0167 439.148 73.4061C439.124 73.4061 436.42 76.2781 435.738 80.9024Z" fill="#F47458"/>
<path d="M446.675 67.4916L447.577 73.3815C447.577 73.3815 444.313 80.391 442.364 79.7826C440.732 79.2715 441.731 73.0651 441.731 73.0651C441.731 73.0651 442.632 69.7307 442.364 68.0514C442.072 66.3964 446.675 67.4916 446.675 67.4916Z" fill="#F7A491"/>
<path d="M442.34 68.0757C442.072 66.3963 446.675 67.4915 446.675 67.4915L446.748 67.9783C446.602 68.2947 446.456 68.5868 446.261 68.8058C445.238 69.9011 443.631 70.5825 442.242 70.6312C442.364 69.7307 442.437 68.7571 442.34 68.0757Z" fill="#F47458"/>
<path d="M447.43 59.1676C447.552 59.1189 448.478 65.885 446.748 67.7347C445.019 69.5845 441.657 70.1929 440.439 68.7326C439.1 67.1019 439.173 59.8491 441.852 57.9263C444.532 56.0279 447.43 59.1676 447.43 59.1676Z" fill="#F7A491"/>
<path d="M442.876 54.3243C444.946 54.7381 446.31 56.028 446.797 56.5635C447.747 56.6852 449.014 57.1963 450.353 59.3867C451.985 62.0883 450.768 65.0576 448.892 66.5423C446.992 68.0026 447.016 69.7063 447.016 69.7063L446.724 68.8301C446.505 68.173 446.407 67.4671 446.481 66.7613C446.529 66.3476 446.602 65.8851 446.797 65.5201C447.26 64.5465 445.823 63.8894 445.409 63.0862C445.092 62.4534 445.092 61.0174 444.605 59.9952L444.02 59.192C444.02 59.192 442.681 58.1455 441.365 58.4375C440.001 58.7296 440.196 53.7645 442.876 54.3243Z" fill="#0E2E35"/>
<path d="M445.482 64.2547C445.457 65.0822 445.847 65.7637 446.31 65.7637C446.797 65.7637 447.187 65.1065 447.187 64.279C447.211 63.4515 446.821 62.77 446.358 62.77C445.871 62.77 445.482 63.4515 445.482 64.2547Z" fill="#F7A491"/>
<path d="M442.656 66.1768L440.05 66.0308C440.05 66.0308 440.05 67.0286 441.195 67.126C442.607 67.2234 442.656 66.1768 442.656 66.1768Z" fill="white"/>
<path d="M467.964 112.299C467.964 112.226 467.964 112.177 467.964 112.104C467.769 110.035 466.04 92.6087 465.747 91.8542C465.48 91.1971 457.758 80.123 457.758 80.123L453.958 85.3072L461.387 95.2129C461.558 95.8457 464.237 107.601 464.237 107.601C464.237 107.601 464.798 109.743 465.041 111.033C464.919 111.349 464.822 111.641 464.724 111.885C464.481 112.396 464.189 112.81 463.921 113.175C463.58 113.613 463.044 114.586 462.971 114.854C462.898 115.146 462.751 115.779 462.678 116.168C462.605 116.558 462.484 116.996 462.459 117.191C462.459 117.312 462.313 117.556 462.216 117.75C462.069 118.018 462.313 118.335 462.605 118.237C462.873 118.14 463.092 117.799 463.214 117.58C463.58 116.972 463.775 115.852 463.872 115.901C463.969 115.949 464.286 117.872 464.335 118.091C464.383 118.31 464.773 120.525 464.992 120.914C465.212 121.328 465.504 121.255 465.577 120.987C465.65 120.768 465.333 117.677 465.333 117.677C465.333 117.677 465.285 117.288 465.48 117.41C465.65 117.531 465.942 120.33 466.064 120.744C466.186 121.158 466.454 121.377 466.697 121.036C466.99 120.622 466.503 117.653 466.503 117.653C466.503 117.653 466.454 117.288 466.6 117.312C466.771 117.337 466.965 119.746 467.087 119.941C467.209 120.16 467.526 120.233 467.672 119.868C467.842 119.454 467.379 116.801 467.379 116.801C467.379 116.801 467.404 116.582 467.501 116.655C467.599 116.728 467.915 118.748 468.135 118.943C468.305 119.089 468.451 118.943 468.451 118.943C468.841 118.675 468.256 116.753 468.256 115.803C468.256 114.854 467.818 113.759 467.94 112.615C467.915 112.591 467.94 112.396 467.964 112.299Z" fill="#F8A492"/>
<path d="M463.799 87.1327L457.198 91.5624C457.198 91.5624 453.471 86.0375 451.474 84.0661C448.965 81.6079 452.375 74.0386 454.007 74.4524C457.587 75.4259 463.799 87.1327 463.799 87.1327Z" fill="#F47458"/>
</g>
<mask id="mask15_232_1593" style="mask-type:luminance" maskUnits="userSpaceOnUse" x="493" y="116" width="29" height="29">
<path d="M521.113 130.771C521.113 138.511 514.829 144.79 507.083 144.79C499.337 144.79 493.053 138.511 493.053 130.771C493.053 123.032 499.337 116.752 507.083 116.752C514.829 116.752 521.113 123.032 521.113 130.771Z" fill="white"/>
</mask>
<g mask="url(#mask15_232_1593)">
<path d="M499.459 142.43C501.432 136.491 503.624 136.735 503.624 136.735L501.919 149.22C500.701 148.88 499.142 148.15 497.924 147.809C498.314 145.959 498.972 143.89 499.459 142.43Z" fill="#47637F"/>
<path d="M500.068 126.975C500.677 123.056 504.209 120.257 507.911 122.156C508.74 122.594 509.86 123.446 510.445 124.176C512.004 126.172 512.393 128.63 514.001 130.577C513.416 131.015 512.71 131.502 511.857 131.94L510.859 130.601L511.2 132.256C508.715 133.449 505.208 134.422 500.409 134.398C499.8 131.697 499.752 129.068 500.068 126.975Z" fill="#F7CC7F"/>
<path d="M508.618 135.688C508.618 135.688 511.808 135.274 513.221 136.832C514.658 138.39 510.469 150.924 510.225 152.895C509.957 154.891 512.052 159.856 512.052 159.856C512.052 159.856 502.942 161.56 500.531 159.954C500.531 159.954 500.385 145.983 500.653 144.547C500.92 143.136 503.088 137.367 503.6 136.783C504.111 136.248 508.618 135.688 508.618 135.688Z" fill="#13375B"/>
<path d="M507.424 130.845C507.424 130.845 507.448 130.942 507.473 131.137C507.643 132.013 508.252 134.885 508.666 135.688C509.178 136.638 506.937 139.704 504.769 139.339C504.136 139.217 505.305 136.54 505.256 136.248C505.159 135.713 504.988 134.958 504.842 134.179C504.769 133.741 504.672 133.303 504.598 132.889C504.379 131.721 504.184 130.772 504.184 130.772L507.424 130.845Z" fill="#F7A491"/>
<path opacity="0.5" d="M507.473 131.137C507.448 130.967 507.424 130.845 507.424 130.845L504.184 130.772C504.184 130.772 504.379 131.721 504.598 132.889C504.672 133.303 504.769 133.741 504.842 134.155C505.329 134.082 505.865 133.839 506.377 133.376C506.937 132.865 507.327 132.281 507.546 131.624C507.546 131.453 507.497 131.259 507.473 131.137Z" fill="#F47458"/>
<path d="M505.256 123.494C505.256 123.494 506.791 123.324 507.741 124.565C508.691 125.806 509.714 129.628 507.351 131.696C504.988 133.765 502.626 131.429 502.285 128.922C501.944 126.415 501.797 123.397 505.256 123.494Z" fill="#F7A491"/>
<path d="M501.578 128.873C501.871 129.433 502.333 129.725 502.65 129.555C502.942 129.385 502.967 128.8 502.674 128.241C502.382 127.681 501.919 127.389 501.603 127.559C501.31 127.729 501.286 128.338 501.578 128.873Z" fill="#F7A491"/>
<path d="M505.086 123.081C505.086 123.081 507.132 126.707 508.569 126.878C510.03 127.048 510.225 128.971 510.225 128.971C510.225 128.971 509.714 124.517 508.252 123.665C506.815 122.813 505.086 123.081 505.086 123.081Z" fill="#F7CC7F"/>
<path d="M508.179 127.803C508.057 128.46 508.301 129.044 508.715 129.117C509.129 129.19 509.567 128.752 509.665 128.095C509.787 127.438 509.543 126.853 509.129 126.78C508.739 126.707 508.301 127.145 508.179 127.803Z" fill="#F7A491"/>
<path d="M506.401 130.139L504.209 130.577C504.209 130.577 504.428 131.405 505.402 131.234C506.571 131.04 506.401 130.139 506.401 130.139Z" fill="white"/>
<path d="M512.661 136.394C512.661 136.394 513.855 136.954 514.926 139.412C515.925 141.748 516.217 153.407 516.217 153.407L511.833 152.676L510.201 147.298C509.689 145.18 509.129 140.264 511.224 137.392C511.808 136.637 512.32 136.175 512.661 136.394Z" fill="#47637F"/>
</g>
<mask id="mask16_232_1593" style="mask-type:luminance" maskUnits="userSpaceOnUse" x="99" y="185" width="34" height="34">
<path d="M132.068 202.326C132.068 211.429 124.688 218.804 115.578 218.804C106.468 218.804 99.0874 211.429 99.0874 202.326C99.0874 193.224 106.468 185.849 115.578 185.849C124.688 185.825 132.068 193.224 132.068 202.326Z" fill="white"/>
</mask>
<g mask="url(#mask16_232_1593)">
<path d="M123.47 199.965C123.567 197.653 123.226 195.39 122.203 193.248C121.326 191.398 119.134 190.352 117.137 190.352C110.779 190.352 109.975 198.724 105.932 201.961C104.69 202.959 103.326 203.762 102.157 204.809C97.8452 208.752 99.7938 216.029 103.74 219.485C106.492 221.87 110.804 223.233 114.189 221.359C115.967 220.385 117.307 218.755 118.257 216.978C119.621 214.447 120.498 211.55 121.448 208.849C122.471 206.001 123.324 203.032 123.47 199.965Z" fill="#F7CC7F"/>
<path d="M121.082 221.14C121.082 221.14 116.332 216.272 115.114 214.179C113.896 212.062 115.942 213.449 118.037 212.889C118.841 212.67 118.622 208.021 120.132 209.555C122.592 212.037 125.686 216.37 125.686 216.37L121.082 221.14Z" fill="#F47458"/>
<path d="M114.335 207.413C114.335 207.413 110.073 206.585 108.148 208.192C106.2 209.822 108.562 224.231 108.562 226.616C108.562 229.001 107.223 235.256 107.223 235.256C107.223 235.256 120.108 238.031 122.178 234.429C122.178 234.429 122.763 220.775 122.666 219.047C122.568 217.319 120.668 210.309 120.132 209.555C119.621 208.776 114.335 207.413 114.335 207.413Z" fill="#B75742"/>
<path d="M114.311 200.817C114.311 200.817 114.287 200.939 114.238 201.158C114.043 202.204 113.312 205.636 112.801 206.585C112.192 207.729 114.871 211.38 117.453 210.942C118.233 210.82 116.796 207.583 116.869 207.242C116.99 206.585 117.185 205.709 117.356 204.784C117.453 204.273 117.551 203.738 117.648 203.251C117.916 201.864 118.16 200.72 118.16 200.72L114.311 200.817Z" fill="#F7A491"/>
<path d="M114.262 201.158C114.311 200.939 114.335 200.817 114.335 200.817L118.208 200.72C118.208 200.72 117.989 201.864 117.696 203.251C117.599 203.738 117.502 204.249 117.404 204.76C116.795 204.663 116.186 204.371 115.553 203.835C114.871 203.251 114.432 202.521 114.165 201.766C114.189 201.547 114.213 201.328 114.262 201.158Z" fill="#F47458"/>
<path d="M116.917 192.055C116.917 192.055 115.09 191.836 113.945 193.32C112.801 194.805 111.558 199.356 114.408 201.839C117.258 204.321 120.059 201.523 120.473 198.529C120.887 195.56 121.058 191.933 116.917 192.055Z" fill="#F7A491"/>
<path d="M119.767 191.301C119.767 191.301 116.211 196.388 112.825 195.706L112.728 193.54L113.045 192.712L114.75 191.617L117.527 190.984L119.767 191.301Z" fill="#F7CC7F"/>
<path d="M121.326 198.481C120.985 199.138 120.424 199.503 120.059 199.284C119.694 199.065 119.669 198.383 120.01 197.726C120.351 197.069 120.912 196.704 121.277 196.923C121.642 197.118 121.667 197.824 121.326 198.481Z" fill="#F7A491"/>
<path d="M113.41 197.19C113.556 197.969 113.263 198.675 112.776 198.772C112.289 198.87 111.778 198.334 111.632 197.555C111.485 196.777 111.778 196.071 112.265 195.973C112.752 195.876 113.263 196.411 113.41 197.19Z" fill="#F7A491"/>
<path d="M118.013 200.184L115.334 200.038C115.334 200.038 115.334 201.06 116.528 201.158C117.965 201.279 118.013 200.184 118.013 200.184Z" fill="white"/>
<path d="M118.013 200.184L115.334 200.038C115.334 200.038 115.334 201.06 116.528 201.158C117.965 201.279 118.013 200.184 118.013 200.184Z" fill="white"/>
<path d="M109.756 220.969C109.756 220.969 106.955 214.787 106.541 212.378C106.126 209.968 108.173 206.974 110.34 207.169C112.508 207.364 115.748 218.049 115.748 218.049L109.756 220.969Z" fill="#F47458"/>
</g>
</svg>
