<svg width="27" height="29" viewBox="0 0 27 29" fill="none" xmlns="http://www.w3.org/2000/svg">
<path d="M4.81841 20.1674L4.91039 19.9366L4.78187 19.7238C3.78429 18.0726 3.19922 16.1245 3.19922 14.0299C3.19922 8.08847 7.82793 3.30603 13.4966 3.30603C19.1644 3.30603 23.7939 8.0885 23.7939 14.0299C23.7939 19.9715 19.1642 24.7571 13.4966 24.7571C11.4942 24.7571 9.63075 24.1512 8.04642 23.1173L7.82173 22.9707L7.57534 23.0768L3.74657 24.7263C3.74655 24.7263 3.74652 24.7263 3.74649 24.7264C3.65445 24.7658 3.55154 24.7688 3.45288 24.7268C3.25279 24.6395 3.13845 24.3847 3.23228 24.1488C3.2323 24.1487 3.23232 24.1487 3.23234 24.1486L4.81841 20.1674ZM8.45562 22.371L8.45572 22.371C9.97255 23.3596 11.7161 23.8862 13.4966 23.8862C18.7521 23.8862 22.9943 19.4451 22.9943 14.0299C22.9943 8.61473 18.7519 4.17672 13.4966 4.17672C8.24123 4.17672 3.99887 8.61502 3.99887 14.0299C3.99887 15.8689 4.49943 17.6724 5.45021 19.2452C5.45026 19.2452 5.4503 19.2453 5.45035 19.2454L5.81556 19.8509L4.79692 22.4084L4.35001 23.5304L5.45924 23.0526L7.89312 22.0042L8.45562 22.371Z" fill="#568BD7" stroke="#568BD7"/>
<path d="M16.954 17.6512L16.9532 17.6521C16.4491 18.1774 15.636 18.1784 15.1283 17.6514L15.1277 17.6507L15.1249 17.6478L15.114 17.6365L15.0715 17.5923L14.91 17.4243L14.3335 16.825L12.5845 15.0062L10.8546 13.2072H10.8552L10.0409 12.3606C9.52414 11.8234 9.52414 10.9455 10.0409 10.4083L10.0409 10.4083L10.8516 9.56531L12.2396 11.9701L11.546 12.6912L11.2127 13.0377L11.5459 13.3844L14.0898 16.0302L14.4502 16.4049L14.8106 16.0302L15.4838 15.3304L17.7992 16.7747L16.954 17.6512ZM10.0435 12.3634C10.0435 12.3634 10.0435 12.3634 10.0436 12.3635L10.0435 12.3634ZM9.45572 12.4229C8.98794 11.6959 9.06286 10.7038 9.6805 10.0617L10.5914 9.11453L9.45572 12.4229Z" fill="#568BD7" stroke="#568BD7"/>
</svg>
