<svg width="784" height="477" viewBox="0 0 784 477" fill="none" xmlns="http://www.w3.org/2000/svg">
<g clip-path="url(#clip0_100_692)">
<path d="M724.137 372.847H632.329C642.158 363.832 648.432 350.14 648.432 334.854V323.618C648.432 291.034 672.116 264.643 701.342 264.643C731.299 264.643 755.585 237.572 755.585 204.179C755.585 170.785 731.299 143.714 701.342 143.714H692.454C663.228 143.714 639.544 117.297 639.544 84.7391C639.544 57.5641 619.781 35.5105 595.391 35.5105H250.328C223.193 35.5105 201.182 60.0464 201.182 90.2786C201.182 110.973 211.456 128.977 226.644 138.279H166.049C140.77 138.279 120.276 159.418 120.276 185.496C120.276 216.747 95.729 242.067 65.4314 242.067H56.2297C25.174 242.093 0 268.04 0 300.075C0 332.11 25.174 358.083 56.2297 358.083C86.5273 358.083 111.074 383.403 111.074 414.654V425.446C111.074 451.523 131.569 472.663 156.847 472.663H369.819C371.414 472.819 373.061 472.898 374.708 472.898H724.163C751.794 472.898 774.197 450.504 774.197 422.885C774.171 395.24 751.768 372.847 724.137 372.847Z" fill="#B9CEED"/>
<path d="M196.477 312.304H198.778C198.412 312.043 197.941 311.886 197.418 311.886H139.777C136.771 311.886 134.313 314.055 134.313 316.72V319.803C134.313 322.468 136.771 324.637 139.777 324.637L196.791 324.611L196.477 312.304Z" fill="#86B1F2"/>
<path d="M163.748 311.886C160.873 311.886 158.52 313.95 158.52 316.511V319.986C158.52 322.547 160.847 324.611 163.748 324.611H199.64V323.827H199.483L190.36 323.069L188.504 316.668C188.504 316.668 192.059 313.114 192.294 313.035C192.53 312.957 199.483 312.67 199.483 312.67H199.64V311.886H163.748Z" fill="#466EB6"/>
<path d="M197.314 318.235C197.314 314.499 199.51 312.67 199.51 312.67H164.48C161.84 312.67 159.67 314.577 159.67 316.929V319.594C159.67 321.946 161.814 323.853 164.48 323.853H199.483C199.51 323.853 197.314 322.965 197.314 318.235Z" fill="#FAE0B2"/>
<path d="M159.696 316.929V319.594C159.696 319.934 159.749 320.3 159.827 320.613C161.003 318.052 163.278 315.596 167.591 314.786C177.655 312.931 199.509 312.67 199.509 312.67H164.48C161.84 312.67 159.696 314.577 159.696 316.929Z" fill="#DAEEF7"/>
<path d="M195.536 337.78H198.15C197.732 337.467 197.183 337.258 196.608 337.258H131.333C127.909 337.258 125.164 339.975 125.164 343.32V347.161C125.164 350.506 127.935 353.223 131.333 353.223L195.85 353.197L195.536 337.78Z" fill="#50BFA5"/>
<path d="M158.494 337.284C155.226 337.284 152.586 339.871 152.586 343.085V347.422C152.586 350.61 155.226 353.223 158.494 353.223H199.117V352.256H198.934L188.608 351.29L186.517 343.268C186.517 343.268 190.543 338.826 190.804 338.721C191.066 338.617 198.934 338.251 198.934 338.251H199.091V337.284H158.494Z" fill="#3C8F7C"/>
<path d="M196.477 345.227C196.477 340.524 198.96 338.251 198.96 338.251H159.304C156.298 338.251 153.867 340.629 153.867 343.581V346.926C153.867 349.852 156.298 352.256 159.304 352.256H198.934C198.96 352.23 196.477 351.133 196.477 345.227Z" fill="#FAE0B2"/>
<path d="M153.893 343.581V346.926C153.893 347.37 153.945 347.788 154.05 348.206C155.383 344.992 157.945 341.909 162.833 340.916C174.231 338.59 198.96 338.251 198.96 338.251H159.304C156.324 338.251 153.893 340.629 153.893 343.581Z" fill="#DAEEF7"/>
<path d="M123.02 325.003H120.406C120.825 324.742 121.373 324.585 121.949 324.585H187.223C190.648 324.585 193.419 326.728 193.419 329.393V332.45C193.419 335.115 190.648 337.258 187.223 337.258L122.681 337.232L123.02 325.003Z" fill="#8BBF9F"/>
<path d="M160.062 324.611C163.33 324.611 165.97 326.675 165.97 329.21V332.659C165.97 335.194 163.33 337.258 160.062 337.258H119.439V336.474H119.596L129.922 335.716L132.013 329.341C132.013 329.341 127.987 325.813 127.726 325.735C127.464 325.656 119.596 325.369 119.596 325.369H119.439V324.611H160.062Z" fill="#B75742"/>
<path d="M122.079 330.908C122.079 327.198 119.596 325.369 119.596 325.369H159.252C162.258 325.369 164.689 327.25 164.689 329.602V332.267C164.689 334.592 162.258 336.5 159.252 336.5H119.596C119.596 336.474 122.079 335.585 122.079 330.908Z" fill="#FAE0B2"/>
<path d="M164.663 329.602V332.267C164.663 332.607 164.611 332.947 164.507 333.286C163.173 330.752 160.611 328.295 155.723 327.512C144.326 325.682 119.57 325.395 119.57 325.395H159.226C162.232 325.395 164.663 327.276 164.663 329.602Z" fill="#DAEEF7"/>
<path d="M362.62 331.782L356.507 330.624L329.93 470.796L336.043 471.954L362.62 331.782Z" fill="#184655"/>
<path d="M539.109 472.636H546.455L519.033 330.621L512.916 331.797L539.109 472.636Z" fill="#184655"/>
<path d="M404.325 472.636H411.671L384.249 330.621L378.132 331.797L404.325 472.636Z" fill="#184655"/>
<path d="M472.031 472.636L466.045 472.715L492.343 331.274L498.46 332.424L472.031 472.636Z" fill="#184655"/>
<path d="M445.315 139.377C469.548 141.963 500.917 144.707 532.391 198.116C566.793 256.49 548.677 343.686 521.516 367.908C494.356 392.13 405.659 422.049 331.078 377.263C331.078 377.263 286.063 350.114 309.172 305.066C344.724 235.743 339.705 221.294 355.598 194.119C371.492 166.944 393.869 133.863 445.315 139.377Z" fill="#75A0D3"/>
<path d="M532.417 198.116C510.929 161.665 489.493 148.809 470.358 143.505C477.756 151.161 485.285 161.012 492.787 173.763C527.189 232.137 509.073 319.333 481.913 343.555C457.837 365.034 385.347 391.007 317.223 365.347C324.229 373.082 331.104 377.236 331.104 377.236C405.685 422.023 494.382 392.104 521.543 367.882C548.703 343.686 566.819 256.49 532.417 198.116Z" fill="#578AD6"/>
<path d="M482.514 7.29633e-06C457.418 -0.156772 437.028 12.2288 436.924 27.6192C436.871 35.3275 441.917 42.3303 450.099 47.4256L439.773 70.0802L461.313 52.5471C467.561 54.5852 474.645 55.7349 482.174 55.7872C507.27 55.944 527.66 43.5584 527.764 28.168C527.869 12.7514 507.609 0.156786 482.514 7.29633e-06Z" fill="#578AD6"/>
<path d="M465.13 30.5457C467.352 38.9856 476.005 44.0287 484.475 41.8076C492.918 39.5866 497.964 30.9115 495.742 22.4716C493.52 14.0316 484.867 8.98857 476.397 11.2096C467.953 13.4306 462.908 22.1057 465.13 30.5457Z" fill="#244D89"/>
<path d="M489.259 26.783C490.461 31.3034 487.742 35.9284 483.22 37.1304C478.698 38.3323 474.071 35.6148 472.868 31.0944L489.259 26.783Z" fill="#EFEFEF"/>
<path d="M223.612 218.681L292.86 218.158C294.428 218.158 295.709 216.852 295.709 215.284L295.369 169.008C295.369 167.44 294.062 166.16 292.494 166.16L223.246 166.682C221.677 166.682 220.396 167.989 220.396 169.557L220.736 215.832C220.736 217.426 222.017 218.681 223.612 218.681Z" fill="#244D89"/>
<path d="M293.226 191.897L315.603 214.683L287.998 209.535L293.226 191.897Z" fill="#244D89"/>
<path d="M273.045 188.684L266.326 188.553C266.326 188.553 257.857 182.23 257.595 179.982C257.334 177.735 258.719 173.006 257.412 172.405C256.105 171.804 253.308 171.333 251.557 174.312C250.276 176.455 251.347 184.32 250.563 184.843C250.067 185.182 246.198 185.208 243.374 185.182C241.518 185.182 239.819 186.201 238.93 187.847C238.329 188.945 238.617 190.33 239.584 191.14L241.074 192.394L239.898 193.962C239.009 195.138 239.244 196.784 240.42 197.672L241.597 198.587L240.786 199.501C239.741 200.703 239.95 202.532 241.257 203.421L242.303 204.152L242.146 204.44C241.492 205.642 241.858 207.157 243.008 207.915L244.054 208.621L261.987 208.934C263.66 208.96 265.333 208.647 266.875 208.02L273.201 207.079C273.881 206.974 274.378 206.4 274.378 205.72L274.43 190.042C274.43 189.311 273.803 188.71 273.045 188.684Z" fill="white"/>
<path d="M367.519 228.114L361.271 246.796L380.276 239.323L367.519 228.114Z" fill="#F79C8D"/>
<path d="M387.072 172.509C385.818 172.562 382.341 173.711 377.269 183.275C370.786 195.477 361.323 232.294 361.323 232.294L389.582 242.772L393.215 235.09L399.202 175.906C399.202 175.906 387.438 172.509 387.072 172.509Z" fill="#042A44"/>
<path d="M424.428 167.205C416.35 167.205 396.352 169.557 387.072 172.509C387.072 172.509 380.249 230.857 393.215 275.226C396.117 285.155 390.81 316.38 390.81 316.38L474.541 315.283C474.541 315.283 464.633 239.793 468.371 227.617C472.11 215.414 472.188 172.927 472.188 172.927C472.188 172.927 471.613 172.849 453.366 169.687C444.87 168.224 433.055 167.205 424.428 167.205Z" fill="#07345A"/>
<path d="M434.179 424.688C434.179 424.688 432.323 445.984 428.924 451.889C425.526 457.795 429.107 467.802 429.29 469.187C429.473 470.572 436.453 472.532 447.563 471.356C458.673 470.18 458.49 467.62 457.601 463.491C456.712 459.363 450.778 454.058 450.438 450.113C450.072 446.193 453.837 432.031 453.837 432.031L434.179 424.688Z" fill="#F7A491"/>
<path d="M400.273 298.795C400.273 298.795 342.475 295.607 329.588 303.394C316.674 311.18 331.914 327.172 331.914 327.172C331.914 327.172 378.968 347.553 457.732 352.073C476.397 353.145 477.991 303.629 474.514 299.526C471.011 295.424 400.273 298.795 400.273 298.795Z" fill="#7DAA8D"/>
<path d="M448.949 473.002C460.398 471.8 458.987 466.182 458.046 461.949C457.471 459.284 454.177 456.148 452.216 453.17C451.197 453.98 449.524 455.417 444.557 456.88C439.407 458.396 432.323 455.391 427.826 453.509C426.232 459.467 426.153 467.071 426.284 468.22C426.493 469.631 437.499 474.204 448.949 473.002Z" fill="#355389"/>
<path d="M442.649 339.975C440.348 357.378 428.898 444.024 428.898 444.024L455.432 447.29C455.432 447.29 488.056 334.201 486.383 316.903C484.71 299.605 472.502 298.141 472.502 298.141C472.502 298.141 448.74 293.908 442.649 339.975Z" fill="#8BBF9F"/>
<path d="M417.239 93.5711C417.239 93.5711 426.049 84.295 433.133 95.5831C433.133 95.5831 438.597 92.5259 442.413 97.987C442.413 97.987 452.269 95.0082 454.674 109.772C454.674 109.772 459.745 108.805 460.425 114.841C461.104 120.877 458.02 124.901 458.02 124.901C458.02 124.901 460.869 127.043 459.588 132.583C458.49 137.286 454.595 138.018 454.595 138.018C454.595 138.018 453.55 145.961 450.099 148.365C446.648 150.769 441.969 149.62 441.969 149.62C441.969 149.62 440.714 153.931 436.688 153.539C432.663 153.147 427.696 149.332 423.174 151.057C418.677 152.781 406.992 150.952 406.992 150.952C406.992 150.952 393.869 145.099 397.79 131.695C397.79 131.695 390.889 125.476 396.928 118.002C396.928 118.002 392.51 106.322 401.241 99.4242C409.946 92.5259 417.239 93.5711 417.239 93.5711Z" fill="#07345A"/>
<path d="M418.703 156.648L417.109 168.485C417.109 168.485 413.527 185.522 418.128 188.814C422.729 192.107 437.682 167.989 437.682 167.989L436.113 138.018L418.703 156.648Z" fill="#F7A491"/>
<path d="M436.636 147.712C432.846 157.929 423.801 164.226 417.37 166.656L418.729 156.622L436.139 137.992L436.636 147.712Z" fill="#F47458"/>
<path d="M425.5 106.505C416.168 103.291 406.234 109.484 404.796 119.1C404.169 123.281 403.62 128.533 403.515 134.281C403.254 148.104 410.417 161.535 416.69 161.535C422.964 161.535 440.322 152.598 440.949 132.975C441.342 120.877 435.277 109.876 425.5 106.505Z" fill="#F7A491"/>
<path d="M436.322 134.543C436.322 137.6 438.335 140.056 440.845 140.056C443.354 140.056 445.367 137.574 445.367 134.543C445.367 131.486 443.354 129.029 440.845 129.029C438.335 129.029 436.322 131.486 436.322 134.543Z" fill="#F7A491"/>
<path d="M398.287 99.6331C391.804 104.755 389.53 112.567 393.215 117.062C396.901 121.556 405.136 121.033 411.619 115.886C418.102 110.764 420.376 102.952 416.69 98.4573C413.03 93.9891 404.77 94.5117 398.287 99.6331Z" fill="#07345A"/>
<path d="M473.103 179.408C465.287 176.481 461.444 246.744 460.398 275.67C446.544 277.002 422.363 275.67 416.35 275.226C413.527 275.017 406.992 272.639 404.195 272.273C401.319 271.907 398.705 271.698 397.267 271.959C396.745 272.038 382.288 277.943 381.06 279.223C379.518 280.817 375.387 284.868 376.093 286.618C376.799 288.369 384.066 281.758 384.066 281.758L387.621 279.772C383.203 284.084 374.76 289.754 375.988 291.818C377.165 293.83 384.772 288.082 390.209 284.162C385.556 288.343 379.779 295.842 381.112 297.018C382.315 298.063 388.876 289.388 395.908 286.906C398.522 285.991 401.11 288.552 403.149 288.865C404.665 289.101 406.966 289.571 408.456 289.153L416.063 287.01C418.651 287.245 418.729 288.761 421.343 289.336C424.376 289.989 429.369 290.668 433.238 291.609C455.51 297.044 462.96 299.553 469.783 299.553C490.408 299.422 491.585 186.306 473.103 179.408Z" fill="#F7A491"/>
<path d="M487.951 245.359C489.415 215.728 489.206 179.225 472.528 173.006C465.94 170.55 454.36 185.339 456.451 245.96C465.339 246.692 478.41 247.293 487.951 245.359Z" fill="#07345A"/>
<path d="M394.706 232.634H396.405L421.945 295.163L420.167 294.901L394.706 232.634Z" fill="#F79C8D"/>
<path d="M356.618 442.901C356.618 442.901 358.944 450.295 354.788 455.182C350.631 460.068 333.43 464.876 331.156 467.515C328.908 470.154 329.065 472.427 329.065 472.427L377.4 471.095L376.877 456.54L374.655 446.088L356.618 442.901Z" fill="#F7A491"/>
<path d="M351.782 457.638C351.782 457.638 364.199 462.655 370.211 459.676C376.198 456.723 376.041 455.887 377.766 456.985C379.491 458.082 380.119 471.722 380.119 471.722L325.771 473.316C321.981 473.237 320.072 470.441 323.157 468.09C325.275 466.47 327.706 465.372 329.091 464.588C333.326 462.132 351.782 457.638 351.782 457.638Z" fill="#355389"/>
<path d="M358.448 312.434C354.709 304.596 346.214 294.405 331.261 300.545C317.014 306.399 313.171 320.796 317.667 335.533C322.164 350.27 351.782 436.917 352.801 448.832L376.459 448.989C376.459 448.989 372.172 380.372 371.1 363.78C370.107 347.867 364.904 325.996 358.448 312.434Z" fill="#8BBF9F"/>
<path d="M320.072 232.634H399.123C401.215 232.634 403.097 233.888 403.881 235.822L428.218 295.163H471.796C473.024 295.163 473.992 296.156 473.992 297.358C473.992 298.586 472.998 299.553 471.796 299.553H347.782C344.384 299.553 341.273 297.541 339.887 294.431L315.393 239.872C313.825 236.475 316.334 232.634 320.072 232.634Z" fill="#244D89"/>
<path d="M362.63 267.178C363.153 269.843 365.48 271.62 367.833 271.149C370.159 270.679 371.623 268.144 371.1 265.479C370.577 262.814 368.251 261.037 365.898 261.507C363.545 261.978 362.081 264.512 362.63 267.178Z" fill="white"/>
<path opacity="0.3" d="M584.856 148.705C606.411 148.705 623.885 131.204 623.885 109.615C623.885 88.0257 606.411 70.5244 584.856 70.5244C563.301 70.5244 545.828 88.0257 545.828 109.615C545.828 131.204 563.301 148.705 584.856 148.705Z" fill="#9BC1F9"/>
<path d="M557.251 108.831H542.874V109.929H557.251V108.831Z" fill="#184655"/>
<path d="M626.892 108.831H612.514V109.929H626.892V108.831Z" fill="#184655"/>
<path d="M585.327 67.8594H584.229V82.283H585.327V67.8594Z" fill="#184655"/>
<path d="M585.327 137.339H584.229V151.762H585.327V137.339Z" fill="#184655"/>
<path d="M586.033 109.615C586.033 110.268 585.51 110.817 584.83 110.817C584.177 110.817 583.628 110.294 583.628 109.615C583.628 108.962 584.151 108.413 584.83 108.413C585.51 108.413 586.033 108.962 586.033 109.615Z" fill="#184655"/>
<path d="M584.857 110.137C584.726 110.137 584.595 110.085 584.491 109.981L563.081 88.5542C562.872 88.3452 562.872 88.0055 563.081 87.7964C563.29 87.5874 563.63 87.5874 563.839 87.7964L585.249 109.223C585.458 109.432 585.458 109.772 585.249 109.981C585.118 110.085 584.987 110.137 584.857 110.137Z" fill="#184655"/>
<path d="M591.732 131.276C591.653 131.224 591.575 131.146 591.549 131.041L584.621 110.111C584.543 109.902 584.673 109.693 584.856 109.615C585.066 109.536 585.275 109.667 585.353 109.85L592.28 130.78C592.359 130.989 592.228 131.198 592.045 131.276C591.915 131.329 591.81 131.329 591.732 131.276Z" fill="#184655"/>
<path d="M647.046 197.777L650.523 192.133L647.726 191.009C647.125 190.774 646.811 190.068 647.073 189.441C647.308 188.84 648.014 188.527 648.641 188.788L651.856 190.095L654.967 185.025L651.987 183.823C651.386 183.588 651.072 182.883 651.334 182.256C651.569 181.655 652.275 181.341 652.902 181.602L656.327 182.987L659.934 177.16C660.248 176.664 660.849 176.455 661.398 176.69L661.921 176.899C662.6 177.186 662.888 177.996 662.496 178.624L659.124 184.111L664.09 186.123L667.698 180.296C668.012 179.799 668.613 179.59 669.162 179.826L669.737 180.061C670.417 180.348 670.704 181.158 670.312 181.785L666.94 187.273L669.737 188.396C670.338 188.631 670.652 189.337 670.391 189.964C670.155 190.565 669.449 190.879 668.822 190.617L665.607 189.311L662.548 194.406L665.528 195.608C666.129 195.843 666.443 196.549 666.182 197.176C665.946 197.777 665.241 198.09 664.613 197.829L661.189 196.444L657.503 202.454C657.189 202.95 656.588 203.16 656.039 202.924L655.438 202.689C654.758 202.402 654.471 201.592 654.863 200.965L658.339 195.321L653.373 193.309L649.687 199.318C649.373 199.815 648.772 200.024 648.223 199.789L647.622 199.554C646.942 199.24 646.654 198.43 647.046 197.777ZM659.673 193.256L662.783 188.187L657.817 186.175L654.706 191.244L659.673 193.256Z" fill="#07345A"/>
<path d="M341.43 43.9504L344.985 35.9025L340.384 28.4032C339.861 27.5409 340.541 26.4696 341.534 26.5741L350.292 27.4887L355.99 20.7994C356.644 20.0417 357.873 20.3552 358.082 21.322L359.938 29.9187L368.068 33.2633C368.983 33.6553 369.087 34.9095 368.224 35.4321L360.617 39.8481L359.938 48.6016C359.859 49.5945 358.683 50.0648 357.925 49.4116L351.389 43.5324L342.841 45.5966C341.848 45.8318 341.038 44.865 341.43 43.9504Z" fill="#244D89"/>
<path d="M599.47 43.9243L602.136 37.8883L598.685 32.2704C598.293 31.6433 598.816 30.8071 599.548 30.8855L606.109 31.5649L610.397 26.548C610.893 25.9731 611.808 26.2083 611.965 26.9399L613.351 33.394L619.441 35.9025C620.147 36.1899 620.199 37.1567 619.546 37.5225L613.847 40.841L613.351 47.4257C613.298 48.1835 612.409 48.5232 611.834 48.0267L606.92 43.6369L600.515 45.1785C599.757 45.3615 599.156 44.6298 599.47 43.9243Z" fill="#F7CC7F"/>
<path d="M572.936 216.146L572.518 211.155L568.152 208.673C567.656 208.385 567.708 207.654 568.231 207.445L572.858 205.511L573.877 200.599C573.982 200.05 574.688 199.867 575.08 200.285L578.347 204.074L583.34 203.525C583.915 203.473 584.308 204.074 583.994 204.57L581.406 208.856L583.471 213.428C583.706 213.951 583.236 214.5 582.687 214.395L577.798 213.245L574.086 216.616C573.668 216.982 572.988 216.721 572.936 216.146Z" fill="#244D89"/>
<path d="M173.316 142.747L175.276 138.331L172.741 134.203C172.453 133.733 172.819 133.132 173.368 133.184L178.178 133.68L181.315 129.996C181.681 129.578 182.361 129.761 182.465 130.283L183.485 135.013L187.955 136.868C188.452 137.077 188.504 137.783 188.033 138.044L183.851 140.474L183.485 145.282C183.432 145.831 182.779 146.092 182.387 145.726L178.779 142.486L174.074 143.61C173.551 143.793 173.107 143.244 173.316 142.747Z" fill="#F7CC7F"/>
<path d="M324.961 134.752L326.921 130.336L324.386 126.207C324.098 125.737 324.464 125.136 325.013 125.188L329.823 125.685L332.96 122C333.326 121.582 334.006 121.765 334.11 122.288L335.13 127.017L339.6 128.873C340.097 129.082 340.149 129.787 339.678 130.048L335.496 132.478L335.13 137.286C335.078 137.835 334.424 138.096 334.032 137.731L330.424 134.49L325.719 135.614C325.196 135.797 324.752 135.248 324.961 134.752Z" fill="#50BFA5"/>
<path d="M249.465 63.1299L257.229 62.0063L260.418 74.3134L271.973 74.0521L275.868 82.8579L280.338 80.8982L275.11 69.1136L264.183 69.3488L260.837 56.5713L249.178 58.2697L249.465 63.1299Z" fill="#50BFA5"/>
<path d="M232.814 268.954L238.695 263.755L248.106 272.273L257.622 265.74L265.725 270.966L268.366 266.89L257.543 259.887L248.524 266.08L238.721 257.222L229.886 265.035L232.814 268.954Z" fill="#07345A"/>
<path d="M140.535 275.382L145.475 267.387L141.528 265.793C140.665 265.453 140.247 264.46 140.587 263.598C140.927 262.736 141.92 262.318 142.783 262.657L147.358 264.512L151.775 257.327L147.541 255.602C146.678 255.262 146.26 254.27 146.599 253.407C146.939 252.545 147.933 252.127 148.795 252.467L153.631 254.426L158.755 246.195C159.2 245.49 160.062 245.202 160.82 245.516L161.552 245.803C162.519 246.195 162.912 247.371 162.363 248.26L157.605 256.02L164.611 258.868L169.734 250.638C170.179 249.932 171.041 249.645 171.8 249.958L172.61 250.298C173.577 250.69 173.969 251.866 173.42 252.754L168.663 260.515L172.61 262.108C173.473 262.448 173.891 263.441 173.551 264.303C173.211 265.166 172.218 265.584 171.355 265.244L166.78 263.389L162.441 270.601L166.676 272.325C167.539 272.665 167.957 273.658 167.617 274.52C167.277 275.382 166.284 275.801 165.421 275.461L160.585 273.501L155.357 281.993C154.912 282.699 154.05 282.986 153.292 282.673L152.429 282.333C151.462 281.941 151.07 280.765 151.619 279.877L156.559 271.881L149.553 269.033L144.325 277.525C143.881 278.231 143.018 278.518 142.26 278.204L141.397 277.865C140.378 277.447 139.986 276.271 140.535 275.382ZM158.415 268.981L162.833 261.795L155.801 258.947L151.383 266.132L158.415 268.981Z" fill="#50BFA5"/>
<path d="M588.412 376.662C587.915 372.246 587.314 367.699 585.249 363.754C582.739 358.946 578.347 355.497 574.531 351.655C567.368 344.522 561.852 335.742 558.532 326.179C555.971 318.784 554.69 310.919 551.161 303.916C549.017 299.657 546.063 295.842 543.632 291.74C537.855 282.046 534.692 270.575 526.849 262.474C525.333 272.325 528.313 282.751 534.796 290.303C536.731 292.55 538.979 294.588 540.443 297.149C543.109 301.826 542.874 307.522 543.187 312.905C543.763 323.017 546.638 332.999 551.474 341.883C556.624 351.316 564.048 359.73 566.793 370.129C568.858 377.916 568.231 386.669 572.649 393.411C573.119 394.143 573.668 394.874 573.799 395.736C573.877 396.233 573.799 396.703 573.72 397.2C573.616 397.827 573.511 398.454 573.433 399.081C572.44 405.457 571.394 413.583 576.884 418.339C580.674 421.657 585.589 421.71 588.307 417.32C591.052 412.904 590.817 406.424 590.608 401.433C590.242 393.202 589.353 384.893 588.412 376.662Z" fill="#8BBF9F"/>
<path d="M598.293 371.514C596.15 364.119 592.856 357.09 591.183 349.591C589.562 342.301 589.562 334.776 589.562 327.329C589.562 319.15 589.562 310.997 589.536 302.819C589.536 297.723 589.536 292.628 588.673 287.611C586.869 276.82 581.249 266.838 580.308 255.942C579.89 251.238 580.386 246.457 579.864 241.753C579.576 239.062 578.87 236.318 577.642 233.941C576.308 231.38 572.596 231.484 571.394 234.123C568.675 240.029 566.95 246.404 568.048 252.728C568.701 256.517 570.348 260.07 571.577 263.702C577.04 279.955 574.139 297.959 578.374 314.577C579.654 319.594 581.589 324.507 581.798 329.68C582.347 342.066 573.093 353.38 573.93 365.739C574.635 375.878 581.903 384.265 584.987 393.96C586.713 399.395 587.079 405.169 588.908 410.552C590.346 414.733 593.64 419.802 598.79 418.548C603.678 417.346 602.214 413.348 601.979 409.533C601.247 396.625 601.927 384.109 598.293 371.514Z" fill="#7DAA8D"/>
<path d="M609.481 378.282C609.272 374.441 608.619 370.6 609.168 366.785C609.612 363.571 610.893 360.54 611.808 357.43C613.533 351.603 613.952 345.463 614.37 339.401C615.128 328.374 615.886 317.347 616.644 306.32C617.82 289.179 618.997 271.986 622.212 255.106C623.101 250.429 624.094 245.333 622.003 241.048C621.559 240.133 620.696 239.193 619.729 239.48C619.049 239.689 618.709 240.447 618.474 241.126C611.468 260.175 608.802 280.661 600.986 299.396C599.103 303.89 596.934 308.306 595.966 313.062C594.79 318.784 595.444 324.69 595.6 330.516C595.81 338.878 594.999 347.318 592.699 355.366C591.496 359.573 589.876 363.701 589.196 368.013C588.359 373.422 589.065 378.909 589.588 384.344C590.581 394.796 590.921 405.326 590.608 415.804C590.425 421.971 595.627 421.814 599.077 418.025C601.482 415.386 601.482 412.46 602.293 409.167C604.933 398.35 610.161 390.04 609.481 378.282Z" fill="#8BBF9F"/>
<path d="M576.936 395.031C572.335 387.636 563.159 383.429 560.205 375.224C559.447 373.134 559.16 370.887 558.245 368.875C556.206 364.381 551.579 361.846 547.03 359.782C546.403 359.494 545.671 359.965 545.671 360.644C545.645 361.741 546.168 362.813 547.083 363.414C550.585 365.766 553.252 369.371 554.428 373.422C555.84 378.229 555.212 383.508 556.964 388.211C558.428 392.157 561.434 395.371 562.872 399.342C564.179 402.974 564.022 406.92 564.649 410.709C565.251 414.498 566.95 418.548 570.427 420.142C583.053 425.942 579.916 399.813 576.936 395.031Z" fill="#7DAA8D"/>
<path d="M629.427 392.575C629.218 396.154 629.767 399.917 628.382 403.209C627.493 405.326 625.872 407.024 624.539 408.906C619.886 415.464 618.213 424.793 611.076 428.477C610.606 428.712 610.083 428.947 609.56 428.843C608.828 428.712 608.357 428.007 608.044 427.327C606.292 423.251 608.253 418.652 609.429 414.367C609.638 413.609 609.795 412.773 609.455 412.094C609.063 411.336 608.175 410.996 607.547 410.421C606.318 409.245 606.449 407.286 606.684 405.587C607.286 401.38 608.148 397.2 609.22 393.097C609.848 390.772 610.553 388.42 611.887 386.408C613.377 384.213 615.52 382.567 617.533 380.816C626.421 373.16 633.244 363.126 637.034 352.021C637.871 349.617 638.603 347.083 640.302 345.201C642.001 343.32 645.034 342.353 647.125 343.816C648.615 344.862 642.55 354.582 641.844 355.758C639.831 359.102 639.805 362.003 638.655 365.687C635.884 374.728 629.976 382.854 629.427 392.575Z" fill="#8BBF9F"/>
<path d="M622.395 396.703C623.729 393.28 625.036 389.831 625.48 386.199C625.977 382.149 625.323 378.02 626.003 374.023C626.892 368.875 629.898 364.328 631.388 359.312C632.46 355.679 632.721 351.891 633.375 348.154C635.231 337.519 640.224 327.12 638.786 316.406C638.472 314.081 637.427 311.363 635.1 310.971C633.009 310.606 631.1 312.513 630.551 314.577C630.002 316.642 630.421 318.81 630.551 320.927C630.97 326.832 629.271 332.894 625.846 337.728C622.552 342.379 617.795 345.881 614.814 350.741C611.181 356.725 610.684 364.015 608.828 370.756C605.142 384.161 595.914 395.867 594.215 409.664C593.536 415.151 594.843 421.84 599.914 424.035C614.658 430.385 619.075 405.3 622.395 396.703Z" fill="#7DAA8D"/>
<path d="M596.751 413.74H594.398H563.081C560.78 413.74 559.081 415.882 559.604 418.13L571.864 469.84C572.256 471.461 573.668 472.584 575.341 472.584H594.372H596.725H615.755C617.402 472.584 618.84 471.461 619.232 469.84L631.492 418.13C632.015 415.882 630.316 413.74 628.016 413.74H596.751Z" fill="#244D89"/>
<path d="M259.085 353.197H95.4678V361.637H259.085V353.197Z" fill="#184655"/>
<path d="M205.392 402.19H98.4219V409.585H205.392V402.19Z" fill="#184655"/>
<path d="M243.009 357.43H236.107V472.637H243.009V357.43Z" fill="#184655"/>
<path d="M145.424 357.43H138.522V472.637H145.424V357.43Z" fill="#184655"/>
<path d="M187.04 472.61L224.213 358.423L218.122 356.437L180.296 472.61H187.04Z" fill="#184655"/>
<path d="M82.4494 472.61L114.263 358.162L108.068 356.463L75.8096 472.61H82.4494Z" fill="#184655"/>
<path d="M584.856 63.9658C559.682 63.9658 539.266 84.3993 539.266 109.615C539.266 134.83 559.682 155.263 584.856 155.263C610.03 155.263 630.447 134.83 630.447 109.615C630.42 84.3993 610.03 63.9658 584.856 63.9658ZM587.288 148.626C565.773 149.985 547.239 133.602 545.88 112.071C544.521 90.5137 560.885 71.9615 582.399 70.6028C603.913 69.244 622.447 85.6274 623.807 107.158C625.14 128.716 608.802 147.268 587.288 148.626Z" fill="#184655"/>
<path d="M784 471.905H32.5459V477H784V471.905Z" fill="#042A44"/>
<path d="M411.018 146.223L423.173 146.014C423.173 146.014 422.964 150.639 417.631 150.874C411.096 151.187 411.018 146.223 411.018 146.223Z" fill="white"/>
</g>
<defs>
<clipPath id="clip0_100_692">
<rect width="784" height="477" fill="white"/>
</clipPath>
</defs>
</svg>
