<svg width="549" height="669" viewBox="0 0 549 669" fill="none" xmlns="http://www.w3.org/2000/svg">
<path d="M-125.802 -215.231C-119.542 -223.931 -109.117 -228.63 -98.4524 -227.559L45.6281 -213.084C56.2924 -212.013 65.5751 -205.333 69.9794 -195.562L129.484 -63.5471C133.888 -53.7759 132.745 -42.3972 126.485 -33.6974L41.9092 83.8425C35.6492 92.5424 25.2234 97.2417 14.5591 96.1703L-129.521 81.6954C-140.186 80.624 -149.468 73.9447 -153.873 64.1734L-213.377 -67.8414C-217.781 -77.6127 -216.638 -88.9913 -210.378 -97.6912L-125.802 -215.231Z" fill="#578AD6"/>
<path d="M-160.294 110C-154.034 101.301 -143.608 96.6012 -132.944 97.6726L11.1364 112.148C21.8007 113.219 31.0834 119.898 35.4877 129.669L94.9922 261.684C99.3965 271.456 98.2534 282.834 91.9934 291.534L7.41745 409.074C1.15747 417.774 -9.26832 422.473 -19.9326 421.402L-164.013 406.927C-174.677 405.855 -183.96 399.176 -188.364 389.405L-247.869 257.39C-252.273 247.619 -251.13 236.24 -244.87 227.54L-160.294 110Z" fill="#B9CEED"/>
<path d="M137.451 -24.2057C143.711 -32.9055 154.137 -37.6049 164.801 -36.5335L308.881 -22.0585C319.546 -20.9871 328.828 -14.3078 333.233 -4.53658L392.737 127.478C397.141 137.25 395.998 148.628 389.738 157.328L305.162 274.868C298.902 283.568 288.477 288.267 277.812 287.196L133.732 272.721C123.068 271.649 113.785 264.97 109.381 255.199L49.876 123.184C45.4718 113.413 46.6149 102.034 52.8749 93.3342L137.451 -24.2057Z" fill="#244D89"/>
</svg>
