<svg width="561" height="560" viewBox="0 0 561 560" fill="none" xmlns="http://www.w3.org/2000/svg">
<g clip-path="url(#clip0_100_578)">
<path d="M536.263 372.04C479.995 501.54 331.453 557.18 215.061 547.68C183.29 545.1 119.349 539.88 69.4157 493.4C-26.4554 404.14 -11.6891 217.54 80.0858 107.68C91.9148 93.5199 173.719 -1.26008 301.201 0.0199248C394.534 0.939925 460.054 52.8599 468.026 59.3399C478.097 67.5199 500.276 86.9199 520.298 117.72C567.294 190.08 571.43 291.1 536.263 372.04Z" fill="url(#paint0_linear_100_578)"/>
<g opacity="0.81">
<path d="M198.036 505.98C198.036 505.98 269.51 209.08 420.33 48.3999C430.461 37.5999 449.184 42.0199 453.3 56.2399C480.794 151.3 534.165 439.26 198.036 505.98Z" fill="#578AD6"/>
<path d="M228.728 487.14C227.969 487.84 228.988 488.98 229.827 488.38C260.918 466.38 380.987 357.9 424.267 139.42C424.406 138.72 423.327 138.44 423.128 139.12C408.281 189.72 347.418 376.18 228.728 487.14Z" fill="#91B3FA"/>
</g>
<path d="M220.336 527.04C220.336 527.04 357.189 283.92 532.906 181.94C544.715 175.08 560.62 183.92 560.9 197.56C562.778 288.7 541.318 556.88 220.336 527.04Z" fill="#578AD6"/>
<g opacity="0.34">
<path d="M252.746 518.52C251.886 518.94 252.526 520.2 253.445 519.9C286.974 508.7 422.169 444.66 514.423 263.3C514.723 262.72 513.804 262.18 513.464 262.74C487.708 303.46 387.281 451.92 252.746 518.52Z" fill="#BDD0FB"/>
</g>
<path d="M188.305 454.86C188.705 454.98 191.043 455.62 193.161 454.64C205.869 448.76 169.143 403.14 178.914 351.68C182.89 330.7 192.881 317.8 186.387 297.1C185.208 293.34 181.432 281.8 170.682 271.28C163.928 264.66 159.472 263.4 150.98 257.94C124.345 240.78 122.946 224.04 112.296 224.16C100.407 224.3 86.3398 245.32 90.9356 262.66C95.9909 281.76 120.528 284.5 122.087 301.32C123.306 314.4 108.779 316.26 108.279 332.16C107.6 353.28 132.497 370.64 135.674 372.78C149.781 382.36 153.558 377.58 162.889 384.96C188.225 405.04 173.459 450.78 188.305 454.86Z" fill="#578AD6"/>
<path d="M126.543 265.96C128.541 266.98 130.439 268.12 132.297 269.32C134.156 270.52 135.974 271.8 137.732 273.14C139.491 274.48 141.209 275.88 142.848 277.34C144.486 278.82 146.085 280.3 147.603 281.88C148.382 282.66 149.082 283.48 149.841 284.28C150.54 285.12 151.28 285.92 151.959 286.78C152.638 287.62 153.338 288.48 153.957 289.36C154.277 289.8 154.617 290.22 154.916 290.68L155.836 292.02C156.455 292.9 156.994 293.84 157.574 294.76C158.133 295.68 158.633 296.64 159.172 297.56C159.652 298.52 160.152 299.46 160.591 300.44L161.231 301.9C161.45 302.38 161.67 302.88 161.83 303.38C163.369 307.34 164.428 311.46 164.947 315.6L165.147 317.16L165.287 318.66L165.566 321.68C165.746 323.68 165.966 325.7 166.146 327.7C166.965 335.72 167.924 343.74 169.043 351.74C171.301 367.74 174.278 383.66 178.994 399.34C181.252 407.28 182.95 415.26 184.449 423.28C185.928 431.3 187.127 439.32 188.066 447.36L187.566 447.4C186.167 439.4 184.529 431.42 182.771 423.48C181.871 419.52 180.932 415.54 179.893 411.6C178.874 407.66 177.795 403.72 176.536 399.84C173.959 392.04 171.821 384.04 170.022 376.06C168.264 368.06 166.825 360.04 165.586 352C164.348 343.96 163.389 335.9 162.509 327.84C162.31 325.82 162.07 323.82 161.89 321.8L161.59 318.78L161.45 317.26L161.27 315.8C160.811 311.92 159.852 308.04 158.453 304.3C158.133 303.36 157.714 302.44 157.334 301.5C156.935 300.58 156.495 299.66 156.055 298.74C155.576 297.84 155.116 296.94 154.617 296.04C154.097 295.16 153.618 294.26 153.038 293.4C150.86 289.9 148.382 286.54 145.565 283.38C144.186 281.78 142.728 280.24 141.229 278.72C139.71 277.22 138.152 275.74 136.533 274.32C133.296 271.5 129.9 268.76 126.263 266.34L126.543 265.96Z" fill="#BDD0FB"/>
<path d="M156.315 402.84C158.333 403.54 161.37 403.5 162.989 402.06C169.243 396.5 146.844 376.72 135.934 346.44C123.305 311.38 136.993 292.44 118.61 277.3C109.778 270.02 103.724 272.02 95.0317 262.58C82.9229 249.44 88.6976 239.1 79.0865 228.84C68.0367 217.06 43.1997 212.42 28.5333 221.32C8.81162 233.26 12.768 266.44 27.4344 282.26C36.9655 292.54 52.2314 296.8 51.1524 300.12C50.1133 303.28 36.5659 298.28 30.5115 303.98C22.5988 311.44 29.3126 335.6 44.3387 342.66C58.1859 349.16 77.6478 340.5 79.3462 344.22C80.0056 345.68 77.0084 347.04 77.2282 348.96C77.6478 352.38 88.218 356.12 124.345 359.16C134.815 363.64 140.19 369.12 143.167 373.38C151.999 385.96 148.582 400.22 156.315 402.84Z" fill="#B9CEED"/>
<path d="M51.9515 245.26C53.59 252.68 55.9678 259.96 59.2847 266.92C62.5817 273.88 66.7778 280.44 71.8131 286.46C74.3308 289.46 77.0283 292.38 79.8457 295.2C81.2843 296.6 82.683 298 84.1617 299.38C85.6003 300.78 87.059 302.16 88.5376 303.54L97.3894 311.84L99.5874 313.94L101.765 316.08C103.224 317.5 104.643 318.94 106.061 320.38C108.919 323.26 111.676 326.2 114.414 329.18C115.772 330.68 117.131 332.16 118.43 333.7L120.408 335.98L122.346 338.28L124.284 340.58L126.183 342.92L128.081 345.26L129.939 347.62L131.778 350L133.556 352.4C134.735 354 135.934 355.6 137.073 357.24L138.791 359.68L139.65 360.9L140.469 362.14C141.548 363.8 142.667 365.46 143.726 367.12L146.844 372.16C147.863 373.84 148.802 375.58 149.781 377.28C153.577 384.16 156.954 391.24 159.612 398.48L159.172 398.6C155.855 391.58 152.059 384.74 147.923 378.1L146.344 375.62C145.805 374.8 145.325 373.96 144.746 373.14L141.429 368.26C139.131 365.06 136.853 361.84 134.455 358.7C133.276 357.12 132.057 355.56 130.818 354L128.98 351.66L127.082 349.36L125.204 347.06L123.285 344.78L121.367 342.5L119.409 340.26C114.154 334.28 108.739 328.4 103.084 322.72C97.4294 317.04 91.5548 311.54 85.6802 305.94C84.2216 304.54 82.743 303.14 81.3043 301.72C79.8457 300.3 78.447 298.82 77.0283 297.38C74.2309 294.42 71.5134 291.4 69.0157 288.22C68.3963 287.42 67.8168 286.6 67.1974 285.8L66.2982 284.58L65.459 283.32C64.8995 282.48 64.32 281.66 63.8005 280.8L62.262 278.24C61.7225 277.4 61.2829 276.5 60.8233 275.62L60.1239 274.3C59.8842 273.86 59.6644 273.42 59.4646 272.98C58.6453 271.18 57.7861 269.42 57.0668 267.6C54.1495 260.34 52.2512 252.82 51.4919 245.28L51.9515 245.26Z" fill="#B9CEED"/>
<path d="M206.488 470.04C208.866 470.18 212.023 469.24 213.182 467.2C217.678 459.32 187.046 444.74 164.587 415.36C138.591 381.34 145.945 356.8 121.227 346.02C109.339 340.84 103.744 344.82 91.2153 337.26C73.7515 326.74 76.0294 313.84 62.2222 305.68C46.3569 296.3 18.7025 298.78 6.63371 312.78C-9.61124 331.6 6.6337 366.2 27.7541 378.84C41.4614 387.04 59.0052 387.06 59.0851 390.96C59.165 394.68 43.1598 393.38 38.9238 401.34C33.3689 411.78 49.2142 435.8 67.5173 438.88C84.3617 441.72 101.546 426.52 104.683 430.02C105.922 431.4 103.264 433.76 104.203 435.76C105.902 439.34 118.31 440.18 157.174 432.56C169.743 434.24 177.375 438.52 182.051 442.22C195.798 453.14 197.437 469.54 206.488 470.04Z" fill="#578AD6"/>
<path d="M39.8229 331.54C44.2388 339.06 49.3941 346.18 55.3885 352.68C61.363 359.18 68.1567 365 75.6098 369.98C79.3463 372.46 83.2227 374.78 87.199 377C89.2171 378.08 91.1953 379.18 93.2334 380.22C95.2516 381.28 97.2897 382.34 99.3278 383.38L111.616 389.68L114.694 391.28L117.751 392.92C119.789 394 121.807 395.14 123.825 396.26C127.861 398.5 131.838 400.86 135.774 403.24C137.732 404.44 139.71 405.64 141.629 406.9L144.526 408.76L147.403 410.66L150.281 412.56L153.118 414.5L155.955 416.44L158.753 418.44L161.53 420.44L164.268 422.5C166.086 423.88 167.924 425.24 169.703 426.66L172.4 428.78L173.739 429.84L175.058 430.92C176.796 432.38 178.554 433.84 180.273 435.3L185.368 439.8C187.066 441.32 188.665 442.9 190.323 444.44C196.817 450.72 202.932 457.32 208.367 464.34L207.967 464.6C201.933 458.02 195.479 451.8 188.705 445.88L186.147 443.68C185.288 442.96 184.469 442.2 183.59 441.5L178.355 437.24C174.778 434.46 171.221 431.7 167.565 429.02C165.766 427.66 163.908 426.36 162.05 425.06L159.272 423.1L156.455 421.18L153.657 419.26L150.82 417.38L147.983 415.5L145.105 413.66C137.412 408.78 129.62 404.08 121.627 399.66C113.635 395.24 105.502 391.06 97.3096 386.8C95.2715 385.74 93.2134 384.66 91.1953 383.56C89.1572 382.46 87.1591 381.3 85.1409 380.16C81.1446 377.82 77.1883 375.36 73.4118 372.7C72.4727 372.02 71.5535 371.32 70.6344 370.62L69.2557 369.58L67.9169 368.48C67.0377 367.74 66.1186 367.04 65.2594 366.28L62.7017 363.98C61.8225 363.22 61.0433 362.4 60.244 361.6L59.0451 360.38C58.6455 359.98 58.2459 359.58 57.8662 359.14C56.3676 357.46 54.809 355.8 53.3904 354.06C47.6956 347.1 42.96 339.56 39.4033 331.66L39.8229 331.54Z" fill="url(#paint1_linear_100_578)"/>
<path d="M279.681 409.94H18.2031C21.1604 439.64 27.3347 468.38 36.7659 496.18C45.6577 522.4 67.917 541.86 95.0719 547.12C113.355 550.66 133.037 552.02 149.901 552.22C167.545 552.42 186.547 550.72 203.431 547.58C231.545 542.38 254.644 522.24 263.436 495.02C273.227 464.7 278.782 435.7 279.681 409.94Z" fill="#244D89"/>
<path d="M148.942 432.82C221.147 432.82 279.681 422.818 279.681 410.48C279.681 398.142 221.147 388.14 148.942 388.14C76.7369 388.14 18.2031 398.142 18.2031 410.48C18.2031 422.818 76.7369 432.82 148.942 432.82Z" fill="#B9CEED"/>
<path d="M148.942 428.22C221.147 428.22 279.681 419.248 279.681 408.18C279.681 397.112 221.147 388.14 148.942 388.14C76.7369 388.14 18.2031 397.112 18.2031 408.18C18.2031 419.248 76.7369 428.22 148.942 428.22Z" fill="#578AD6"/>
<path d="M148.942 390.42C217.758 390.42 274.146 399.52 279.301 411.08C279.561 410.52 279.681 409.94 279.681 409.36C279.681 397 221.155 386.98 148.942 386.98C76.7289 386.98 18.2031 397 18.2031 409.36C18.2031 409.94 18.323 410.52 18.5828 411.08C23.718 399.52 80.1257 390.42 148.942 390.42Z" fill="#B9CEED"/>
<path d="M41.961 318.26L80.9049 359.4C87.9783 365.98 93.4333 370.46 99.4277 374.52C124.984 391.74 140.43 408.52 162.09 428.24C119.789 428.24 134.315 428.56 95.3515 426.46C73.0921 391.38 89.4569 417.18 74.1911 393.1C69.7752 386.14 64.6799 379.64 59.0052 373.66L22.2393 335.08L41.961 318.26Z" fill="#244D89"/>
<path d="M42.9001 319.22L38.684 302.84C38.2245 301.06 36.606 300.58 34.7077 301.7C22.2193 309.74 12.7681 318.84 6.59378 328.46C6.07426 329.52 6.03429 330.84 7.2132 331.22L23.658 336.58C28.1738 330.1 34.5079 324.3 42.9001 319.22Z" fill="#244D89"/>
<path d="M308.414 305.82H206.529V333.46H308.414V305.82Z" fill="#578AD6"/>
<path d="M315.248 554.28H199.715C182.011 554.28 167.645 540.12 167.645 522.66V352.98C167.645 335.52 181.991 321.36 199.715 321.36H315.248C332.951 321.36 347.318 335.52 347.318 352.98V522.66C347.318 540.12 332.951 554.28 315.248 554.28Z" fill="#578AD6"/>
<path d="M313.929 517.92H201.034C195.159 517.92 190.384 513.22 190.384 507.42V380.28C190.384 374.48 195.139 369.78 201.034 369.78H313.929C319.804 369.78 324.579 374.48 324.579 380.28V507.42C324.579 513.22 319.804 517.92 313.929 517.92Z" fill="#B9CEED"/>
<path d="M319.664 314.7H195.299C192.202 314.7 189.684 312.22 189.684 309.16V281.74C189.684 275.96 194.44 271.26 200.314 271.26H314.688C320.563 271.26 325.318 275.94 325.318 281.74V309.16C325.278 312.22 322.761 314.7 319.664 314.7Z" fill="#244D89"/>
<path opacity="0.6" d="M204.83 277.46H199.955V308.98H204.83V277.46Z" fill="white"/>
<path opacity="0.6" d="M214.841 277.46H209.965V308.98H214.841V277.46Z" fill="white"/>
<path opacity="0.6" d="M224.852 277.46H219.976V308.98H224.852V277.46Z" fill="white"/>
<path opacity="0.6" d="M234.882 277.46H230.007V308.98H234.882V277.46Z" fill="white"/>
<path opacity="0.6" d="M244.893 277.46H240.017V308.98H244.893V277.46Z" fill="white"/>
<path opacity="0.6" d="M254.904 277.46H250.028V308.98H254.904V277.46Z" fill="white"/>
<path opacity="0.6" d="M264.934 277.46H260.059V308.98H264.934V277.46Z" fill="white"/>
<path opacity="0.6" d="M274.945 277.46H270.07V308.98H274.945V277.46Z" fill="white"/>
<path opacity="0.6" d="M284.956 277.46H280.08V308.98H284.956V277.46Z" fill="white"/>
<path opacity="0.6" d="M294.987 277.46H290.111V308.98H294.987V277.46Z" fill="white"/>
<path opacity="0.6" d="M304.997 277.46H300.122V308.98H304.997V277.46Z" fill="white"/>
<path opacity="0.6" d="M315.008 277.46H310.133V308.98H315.008V277.46Z" fill="white"/>
<path d="M318.505 559.98C347.451 559.98 370.916 536.842 370.916 508.3C370.916 479.758 347.451 456.62 318.505 456.62C289.559 456.62 266.093 479.758 266.093 508.3C266.093 536.842 289.559 559.98 318.505 559.98Z" fill="#244D89"/>
<path d="M354.791 501.54L286.574 528.88C285.136 529.46 283.517 528.78 282.918 527.36L279.98 520.22C279.401 518.8 280.08 517.2 281.519 516.62L349.736 489.28C351.174 488.7 352.793 489.38 353.392 490.8L356.33 497.94C356.929 499.36 356.23 500.96 354.791 501.54Z" fill="#B9CEED"/>
<path d="M465.928 76.86C465.928 109.3 435.536 135.58 403.146 135.58C370.736 135.58 344.481 109.3 344.481 76.86C344.481 44.42 370.736 18.14 403.146 18.14C435.536 18.14 465.928 44.44 465.928 76.86Z" fill="#244D89"/>
<path opacity="0.65" d="M453.1 76.86C453.1 83 451.921 89.18 449.603 94.88C447.285 100.6 443.869 105.86 439.553 110.32C435.257 114.76 430.081 118.42 424.347 120.94C418.632 123.46 412.398 124.88 406.104 125.02C399.809 125.18 393.435 124.1 387.501 121.78C381.566 119.46 376.071 115.96 371.476 111.5C366.88 107.04 363.163 101.64 360.646 95.7C359.387 92.72 358.428 89.64 357.788 86.46C357.149 83.3 356.829 80.06 356.829 76.84C356.849 73.62 357.169 70.4 357.788 67.22C358.428 64.06 359.387 60.96 360.646 57.98C363.163 52.04 366.88 46.64 371.476 42.18C376.071 37.72 381.566 34.22 387.501 31.9C393.435 29.58 399.809 28.5 406.104 28.66C412.398 28.82 418.632 30.22 424.347 32.74C430.061 35.24 435.237 38.9 439.553 43.36C443.849 47.82 447.285 53.08 449.603 58.8C451.921 64.56 453.1 70.72 453.1 76.86ZM446.686 76.86C446.666 74.2 446.406 71.54 445.847 68.94C445.307 66.34 444.468 63.8 443.389 61.36C441.211 56.48 438.014 52.04 434.038 48.38C430.061 44.72 425.306 41.86 420.231 39.98C415.135 38.1 409.68 37.26 404.265 37.4C393.435 37.68 383.025 42.2 375.712 49.54C372.055 53.2 369.138 57.5 367.18 62.16C365.222 66.82 364.203 71.82 364.222 76.84C364.222 81.86 365.222 86.88 367.18 91.52C369.138 96.18 372.055 100.48 375.712 104.14C383.005 111.48 393.435 116 404.265 116.28C409.68 116.42 415.135 115.58 420.231 113.7C425.326 111.82 430.061 108.96 434.038 105.3C438.014 101.64 441.231 97.2 443.389 92.32C444.468 89.88 445.307 87.34 445.847 84.74C446.386 82.18 446.666 79.54 446.686 76.86Z" fill="white"/>
<path d="M418.692 53.7001C413.237 53.7001 408.362 56.5601 405.204 61.0401C402.047 56.5801 397.192 53.7001 391.717 53.7001C382.206 53.7001 374.493 62.3801 374.493 73.1001C374.493 73.9601 374.633 74.9001 374.893 75.8801H378.629L387.541 66.1001C388.08 65.5201 388.88 65.2401 389.659 65.3601C390.438 65.4801 391.118 66.0001 391.437 66.7201L398.651 82.6201L406.004 69.3201C406.443 68.5201 407.303 68.0601 408.202 68.1001C409.101 68.1401 409.9 68.7001 410.26 69.5401L413.317 76.8001H421.749C423.048 76.8001 424.107 77.8601 424.107 79.1601C424.107 80.4601 423.048 81.5201 421.749 81.5201H411.738C410.779 81.5201 409.92 80.9401 409.56 80.0801L407.782 75.8601L400.509 89.0201C400.089 89.7801 399.29 90.2401 398.431 90.2401C398.391 90.2401 398.371 90.2401 398.331 90.2401C397.432 90.2001 396.632 89.6601 396.273 88.8601L388.58 71.9401L381.367 79.8401C380.927 80.3401 380.288 80.6201 379.628 80.6201H376.751C381.646 90.0601 393.395 101.74 401.688 107.06C403.786 108.4 406.503 108.28 408.481 106.78C417.713 99.7001 435.876 82.5401 435.876 73.1201C435.896 62.3801 428.203 53.7001 418.692 53.7001Z" fill="white"/>
<path d="M330.534 62.0599C330.534 96.1 298.643 123.68 264.635 123.68C230.626 123.68 203.072 96.0799 203.072 62.0599C203.072 28.0199 230.646 0.439952 264.635 0.439952C298.623 0.419952 330.534 28.0199 330.534 62.0599Z" fill="#578AD6"/>
<path opacity="0.65" d="M317.066 62.06C317.086 68.52 315.827 74.98 313.39 80.98C310.972 86.98 307.375 92.52 302.859 97.18C298.343 101.86 292.909 105.68 286.914 108.32C280.92 110.98 274.366 112.44 267.772 112.6C261.178 112.76 254.484 111.62 248.25 109.2C242.036 106.76 236.261 103.1 231.426 98.42C226.59 93.74 222.694 88.06 220.056 81.84C218.737 78.72 217.718 75.48 217.059 72.14C216.399 68.82 216.06 65.44 216.04 62.06C216.06 58.68 216.379 55.3 217.059 51.98C217.718 48.66 218.737 45.4 220.056 42.28C222.694 36.04 226.59 30.38 231.426 25.7C236.261 21.02 242.016 17.34 248.25 14.92C254.484 12.48 261.158 11.36 267.772 11.52C274.366 11.68 280.92 13.16 286.914 15.8C292.929 18.44 298.343 22.26 302.859 26.94C307.375 31.62 310.972 37.14 313.39 43.14C315.807 49.12 317.066 55.6 317.066 62.06ZM310.332 62.06C310.312 59.26 310.033 56.48 309.453 53.74C308.874 51 307.995 48.34 306.856 45.78C304.578 40.66 301.201 36 297.025 32.16C292.849 28.32 287.873 25.32 282.518 23.36C277.163 21.4 271.428 20.5 265.754 20.66C254.384 20.96 243.454 25.7 235.782 33.4C231.945 37.24 228.888 41.76 226.83 46.64C224.772 51.52 223.713 56.78 223.713 62.06C223.713 67.34 224.772 72.58 226.83 77.48C228.888 82.36 231.945 86.88 235.782 90.72C243.454 98.44 254.364 103.16 265.754 103.46C271.428 103.62 277.163 102.72 282.518 100.76C287.853 98.78 292.849 95.8 297.025 91.96C301.201 88.12 304.578 83.46 306.856 78.34C307.995 75.78 308.874 73.12 309.453 70.38C310.013 67.64 310.312 64.84 310.332 62.06Z" fill="white"/>
<g opacity="0.96">
<path d="M248.05 85.82H237.46C237.18 85.82 236.96 85.6 236.96 85.32V41.58C236.96 41.3 237.18 41.08 237.46 41.08H248.05C248.33 41.08 248.55 41.3 248.55 41.58V85.32C248.55 85.6 248.33 85.82 248.05 85.82Z" fill="white"/>
<path d="M233.244 71.3199C232.105 71.3199 231.166 70.3999 231.166 69.2399V57.6399C231.166 56.4999 232.085 55.5599 233.244 55.5599C234.383 55.5599 235.322 56.4799 235.322 57.6399V69.2399C235.302 70.3999 234.383 71.3199 233.244 71.3199Z" fill="white"/>
<path d="M285.475 85.82H296.066C296.345 85.82 296.565 85.6 296.565 85.32V41.58C296.565 41.3 296.345 41.08 296.066 41.08H285.475C285.196 41.08 284.976 41.3 284.976 41.58V85.32C284.976 85.6 285.196 85.82 285.475 85.82Z" fill="white"/>
<path d="M300.282 71.3199C301.421 71.3199 302.36 70.3999 302.36 69.2399V57.6399C302.36 56.4999 301.441 55.5599 300.282 55.5599C299.143 55.5599 298.204 56.4799 298.204 57.6399V69.2399C298.224 70.3999 299.143 71.3199 300.282 71.3199Z" fill="white"/>
<path d="M282.818 66.4H250.708C250.428 66.4 250.208 66.18 250.208 65.9V60.6C250.208 60.32 250.428 60.1 250.708 60.1H282.818C283.098 60.1 283.317 60.32 283.317 60.6V65.9C283.317 66.16 283.098 66.4 282.818 66.4Z" fill="white"/>
</g>
<path d="M209.066 137.18C209.066 169.62 178.674 195.9 146.284 195.9C113.894 195.9 87.6187 169.6 87.6187 137.18C87.6187 104.74 113.874 78.46 146.284 78.46C178.694 78.46 209.066 104.74 209.066 137.18Z" fill="#244D89"/>
<path opacity="0.65" d="M196.238 137.18C196.238 143.32 195.059 149.5 192.741 155.2C190.423 160.92 187.007 166.18 182.691 170.64C178.395 175.08 173.219 178.74 167.485 181.26C161.77 183.78 155.536 185.2 149.242 185.34C142.947 185.5 136.573 184.42 130.639 182.1C124.704 179.78 119.209 176.28 114.614 171.82C110.018 167.36 106.301 161.96 103.784 156.02C102.525 153.04 101.566 149.96 100.926 146.78C100.287 143.62 99.9673 140.38 99.9673 137.16C99.9873 133.94 100.307 130.72 100.926 127.54C101.566 124.38 102.525 121.28 103.784 118.3C106.301 112.36 110.018 106.96 114.614 102.5C119.209 98.04 124.704 94.54 130.639 92.22C136.573 89.9 142.947 88.82 149.242 88.98C155.536 89.14 161.77 90.54 167.485 93.06C173.199 95.56 178.375 99.22 182.691 103.68C186.987 108.14 190.423 113.4 192.741 119.12C195.059 124.86 196.258 131.02 196.238 137.18ZM189.824 137.18C189.804 134.52 189.544 131.86 188.985 129.26C188.445 126.66 187.606 124.12 186.527 121.68C184.349 116.8 181.152 112.36 177.176 108.7C173.199 105.04 168.444 102.18 163.369 100.3C158.273 98.42 152.818 97.58 147.403 97.72C136.573 98 126.163 102.52 118.85 109.86C115.193 113.52 112.276 117.82 110.318 122.48C108.36 127.14 107.34 132.14 107.36 137.16C107.36 142.18 108.36 147.2 110.318 151.84C112.276 156.5 115.193 160.8 118.85 164.46C126.143 171.8 136.573 176.32 147.403 176.6C152.818 176.74 158.273 175.9 163.369 174.02C168.464 172.14 173.199 169.28 177.176 165.62C181.152 161.96 184.369 157.52 186.527 152.64C187.606 150.2 188.445 147.66 188.985 145.06C189.544 142.5 189.824 139.84 189.824 137.18Z" fill="white"/>
<g opacity="0.89">
<path d="M135.714 120.4C135.574 120.42 135.414 120.46 135.274 120.5C134.875 120.64 134.535 120.88 134.255 121.22C133.516 122.16 133.696 123.54 134.655 124.28C135.115 124.64 135.694 124.8 136.253 124.72C136.833 124.64 137.332 124.36 137.692 123.9C138.431 122.96 138.252 121.58 137.293 120.84C136.853 120.48 136.293 120.32 135.714 120.4Z" fill="white"/>
<path d="M147.183 115.66L145.345 113.32C145.285 113.26 145.205 113.22 145.125 113.26L142.787 114.08C141.848 113.34 140.829 112.76 139.73 112.36L139.211 109.94C139.191 109.86 139.131 109.8 139.031 109.78L136.074 109.4C135.994 109.38 135.914 109.44 135.874 109.52L134.795 111.76C133.636 111.88 132.497 112.2 131.418 112.7L129.34 111.36C129.26 111.32 129.18 111.32 129.1 111.38L126.762 113.22C126.702 113.28 126.662 113.36 126.702 113.44L127.522 115.78C126.782 116.72 126.203 117.74 125.803 118.84L123.385 119.36C123.306 119.38 123.246 119.44 123.226 119.54L122.866 122.5C122.846 122.58 122.906 122.66 122.986 122.7L125.224 123.78C125.344 124.94 125.663 126.08 126.163 127.16L124.824 129.24C124.784 129.32 124.784 129.4 124.844 129.48L126.682 131.82C126.742 131.88 126.822 131.92 126.902 131.88L129.24 131.06C130.179 131.8 131.198 132.38 132.297 132.78L132.817 135.2C132.837 135.28 132.897 135.34 132.997 135.36L135.954 135.72C136.034 135.74 136.114 135.68 136.154 135.6L137.233 133.36C138.392 133.24 139.53 132.92 140.609 132.42L142.688 133.76C142.767 133.8 142.847 133.8 142.927 133.74L145.265 131.9C145.325 131.84 145.365 131.76 145.325 131.68L144.506 129.34C145.245 128.4 145.825 127.38 146.224 126.28L148.642 125.76C148.722 125.74 148.782 125.68 148.802 125.58L149.162 122.62C149.182 122.54 149.122 122.46 149.042 122.42L146.804 121.34C146.684 120.18 146.364 119.04 145.865 117.96L147.203 115.88C147.243 115.82 147.223 115.72 147.183 115.66ZM142.588 119.84C142.348 119.96 142.068 119.86 141.968 119.62C141.768 119.2 141.509 118.78 141.209 118.4C140.11 116.98 138.511 116.1 136.733 115.88C134.955 115.66 133.196 116.16 131.798 117.26C130.379 118.36 129.5 119.96 129.28 121.74C129.16 122.76 129.26 123.78 129.58 124.72C129.819 125.42 130.179 126.1 130.659 126.7C131.758 128.12 133.356 129 135.135 129.22C136.913 129.44 138.671 128.94 140.07 127.84C141.029 127.08 141.768 126.1 142.188 124.96C142.288 124.72 142.548 124.6 142.787 124.7C142.927 124.76 143.027 124.86 143.067 124.98C143.107 125.08 143.107 125.2 143.067 125.3C142.568 126.58 141.748 127.72 140.649 128.58C139.97 129.12 139.211 129.54 138.392 129.8C137.313 130.16 136.174 130.3 135.015 130.16C132.997 129.92 131.178 128.9 129.919 127.28C129.38 126.6 128.96 125.84 128.701 125.04C128.341 123.96 128.201 122.82 128.341 121.66C128.581 119.64 129.6 117.82 131.218 116.56C132.817 115.3 134.815 114.74 136.853 114.98C138.871 115.22 140.689 116.24 141.948 117.86C141.968 117.88 141.988 117.92 142.008 117.94C142.268 118.28 142.488 118.62 142.688 119C142.708 119.02 142.708 119.06 142.728 119.08C142.728 119.08 142.728 119.1 142.748 119.1C142.767 119.14 142.787 119.18 142.807 119.22C142.807 119.24 142.827 119.26 142.827 119.28C142.887 119.48 142.807 119.72 142.588 119.84ZM138.451 124.46C138.072 124.96 137.552 125.3 137.013 125.5C136.054 125.82 134.955 125.68 134.096 125.02C132.737 123.98 132.497 122.02 133.536 120.66C134.036 120 134.775 119.58 135.594 119.48C136.413 119.38 137.233 119.6 137.892 120.1C139.251 121.14 139.491 123.1 138.451 124.46Z" fill="white"/>
</g>
<g opacity="0.85">
<path d="M158.253 143.9C158.014 143.86 157.794 143.82 157.554 143.82C156.875 143.82 156.235 144.02 155.656 144.4C154.057 145.46 153.618 147.6 154.677 149.2C155.196 149.98 155.975 150.5 156.875 150.68C157.774 150.86 158.713 150.68 159.472 150.18C161.071 149.12 161.51 146.98 160.451 145.38C159.932 144.62 159.152 144.08 158.253 143.9Z" fill="white"/>
<path d="M177.975 142.66L176.416 138.18C176.376 138.04 176.257 137.96 176.117 137.96L172.16 137.98C171.141 136.38 169.882 134.98 168.444 133.82L168.903 129.9C168.923 129.76 168.843 129.62 168.723 129.56L164.447 127.5C164.328 127.44 164.168 127.46 164.068 127.56L161.29 130.36C159.492 129.96 157.614 129.84 155.716 130.04L153.278 126.94C153.198 126.84 153.038 126.78 152.918 126.84L148.442 128.4C148.302 128.44 148.222 128.56 148.222 128.7L148.242 132.66C146.644 133.68 145.245 134.94 144.086 136.38L140.17 135.92C140.03 135.9 139.89 135.98 139.83 136.1L137.772 140.38C137.712 140.5 137.732 140.66 137.832 140.76L140.63 143.54C140.23 145.34 140.11 147.22 140.31 149.12L137.213 151.56C137.113 151.64 137.053 151.8 137.113 151.92L138.671 156.4C138.711 156.54 138.831 156.62 138.971 156.62L142.927 156.6C143.946 158.2 145.205 159.6 146.644 160.76L146.184 164.68C146.164 164.82 146.244 164.96 146.364 165.02L150.64 167.08C150.76 167.14 150.92 167.12 151.02 167.02L153.797 164.22C155.596 164.62 157.474 164.74 159.372 164.54L161.81 167.64C161.89 167.74 162.05 167.8 162.17 167.74L166.645 166.18C166.785 166.14 166.865 166.02 166.865 165.88L166.845 161.92C168.444 160.9 169.842 159.64 171.001 158.2L174.918 158.66C175.058 158.68 175.197 158.6 175.257 158.48L177.316 154.2C177.375 154.08 177.355 153.92 177.256 153.82L174.458 151.04C174.858 149.24 174.978 147.36 174.778 145.46L177.875 143.02C177.975 142.94 178.015 142.8 177.975 142.66ZM168.903 146.6C168.504 146.66 168.124 146.36 168.084 145.96C167.984 145.2 167.824 144.46 167.565 143.74C166.625 141.04 164.687 138.88 162.11 137.62C159.532 136.38 156.635 136.22 153.937 137.16C151.24 138.1 149.082 140.04 147.823 142.62C147.104 144.1 146.764 145.68 146.764 147.26C146.764 148.44 146.964 149.64 147.363 150.8C148.302 153.5 150.241 155.66 152.818 156.92C155.396 158.16 158.293 158.32 160.991 157.38C162.829 156.74 164.447 155.62 165.666 154.14C165.926 153.82 166.406 153.78 166.705 154.04C166.885 154.18 166.965 154.4 166.965 154.62C166.965 154.78 166.905 154.96 166.785 155.1C165.387 156.78 163.528 158.06 161.45 158.8C160.131 159.26 158.773 159.48 157.434 159.48C155.636 159.48 153.837 159.08 152.159 158.26C149.222 156.84 147.024 154.38 145.945 151.3C145.485 149.98 145.265 148.62 145.265 147.28C145.265 145.48 145.665 143.66 146.484 142C147.903 139.06 150.361 136.86 153.438 135.78C156.515 134.7 159.812 134.9 162.749 136.3C165.686 137.72 167.884 140.18 168.963 143.26C168.983 143.32 169.003 143.38 169.023 143.42C169.243 144.06 169.403 144.7 169.503 145.36C169.503 145.4 169.523 145.46 169.523 145.5C169.523 145.52 169.523 145.54 169.523 145.56C169.543 145.64 169.543 145.7 169.543 145.78C169.543 145.82 169.543 145.84 169.543 145.88C169.543 146.22 169.283 146.56 168.903 146.6ZM160.271 151.44C159.432 152 158.493 152.26 157.554 152.26C155.935 152.26 154.357 151.48 153.418 150.04C151.919 147.76 152.538 144.68 154.816 143.18C155.915 142.46 157.234 142.2 158.533 142.46C159.832 142.72 160.951 143.48 161.67 144.58C163.189 146.84 162.549 149.92 160.271 151.44Z" fill="white"/>
</g>
<path d="M452.001 535.32C452.001 535.32 453.44 543.46 454.139 551.54C454.419 554.7 451.981 557.42 448.824 557.56C438.094 558 415.135 558.88 406.903 558.5C405.664 558.44 404.865 557.18 405.304 556.02C405.684 555.06 406.423 554.28 407.382 553.84L445.307 536.4L452.001 535.32Z" fill="#578AD6"/>
<path d="M453.18 530.54L452.021 540.28C452.021 540.28 445.387 543.38 440.851 539.88L443.609 529.02L453.18 530.54Z" fill="url(#paint2_linear_100_578)"/>
<path d="M452.301 347.3C452.8 349.84 454.978 474.32 441.691 530.1C441.471 531.02 441.931 531.94 442.81 532.3C444.848 533.14 448.844 534.34 453.64 534.5C455.118 534.54 456.457 533.58 456.877 532.16C460.673 519.22 478.876 454.38 481.254 392.44C483.912 323.22 481.254 390.08 481.254 390.08L479.695 347.3H452.301Z" fill="#B9CEED"/>
<path d="M495.62 539.58C495.62 539.58 497.918 543.7 500.116 554.62C500.516 556.6 499.137 558.48 497.139 558.68C493.602 559.02 488.147 559.48 483.771 559.44C481.753 559.42 480.195 557.68 480.435 555.66C480.914 551.68 482.433 545.12 487.088 540.02L495.62 539.58Z" fill="#578AD6"/>
<path d="M497.619 527.04L494.921 541.78C494.921 541.78 492.244 543.76 486.969 542.32L488.248 526.46L497.619 527.04Z" fill="url(#paint3_linear_100_578)"/>
<path d="M504.912 351.12C515.782 416.8 502.554 513.44 498.098 532.34C497.819 533.5 496.9 534.38 495.721 534.58C493.722 534.92 490.446 535.18 487.209 534.24C486.09 533.92 485.31 532.92 485.27 531.76C484.671 516.46 485.75 422.58 475.619 385.48C475.1 383.6 473.961 381.96 472.362 380.84L452.701 366.84L451.202 344.22L504.912 351.12Z" fill="#B9CEED"/>
<path d="M436.835 229.9C467.846 220.46 494.142 244.4 494.142 244.4C503.853 301.12 505.851 357.38 505.851 357.38C480.635 364 452.181 353.34 452.181 353.34C447.985 329.64 428.423 262.92 428.423 262.92C412.498 260.94 415.955 247.86 405.165 241.78C413.397 232.22 400.709 236.86 402.407 229.66C413.936 233.24 427.224 232.82 436.835 229.9Z" fill="#B9CEED"/>
<path d="M339.406 178.64C342.603 174.78 346.659 176.6 346.659 176.6C351.454 196.88 376.591 213.3 402.427 221.34C400.749 228.52 396.852 240.68 388.62 250.24C345.76 226.12 339.406 178.64 339.406 178.64Z" fill="url(#paint4_linear_100_578)"/>
<path d="M340.185 179.62C339.845 180.68 343.721 182.3 346.019 177.94C346.099 175.86 347.378 166.9 346.119 165.2C339.485 156.14 326.597 144.78 326.597 144.78C324.419 146.92 326.218 149.04 326.218 149.04L332.472 155.56C331.173 157.92 329.575 159.92 328.815 162.78C328.256 164.94 328.595 167.26 329.694 169.22C330.793 171.2 332.292 173.76 333.711 175.78C336.368 179.6 340.185 179.62 340.185 179.62Z" fill="url(#paint5_linear_100_578)"/>
<path d="M335.189 159.8L340.884 164.62L342.662 169.42L337.587 175.06C337.587 175.06 335.889 165.52 334.61 163.46C333.351 161.4 334.01 160.4 335.189 159.8Z" fill="url(#paint6_linear_100_578)"/>
<path d="M491.684 266.82L504.173 235.24C504.173 235.24 534.605 255.94 539.6 282.18C533.845 282.6 523.395 284.1 513.144 289.28C510.907 276.88 491.684 266.82 491.684 266.82Z" fill="white"/>
<path d="M468.646 200.2L479.016 230.2C479.196 230.7 478.976 231.24 478.516 231.5C475.699 233.06 465.509 237.58 453.24 229.8C451.961 228.98 451.082 227.66 450.902 226.16L447.545 200.18H468.646V200.2Z" fill="url(#paint7_linear_100_578)"/>
<path d="M488.327 231.86L475.959 221.34L457.456 266.56L470.944 446.26L513.085 447.52C513.384 447.52 513.664 447.42 513.884 447.2C514.104 446.98 514.203 446.7 514.203 446.4L508.329 273.52C508.329 273.52 508.169 236.16 504.193 235.22C500.216 234.3 488.327 231.86 488.327 231.86Z" fill="url(#paint8_linear_100_578)"/>
<path d="M457.436 264.24L450.263 221.34L444.128 226.74L431.2 226.62L428.423 262.9L446.866 448.58C446.886 448.88 447.046 449.14 447.265 449.32C447.505 449.5 447.785 449.58 448.085 449.54L470.903 446.24L457.436 264.24Z" fill="url(#paint9_linear_100_578)"/>
<path d="M432.919 226.66C432.919 226.66 412.138 225.22 400.129 220.6C386.042 245.66 382.385 246.4 382.385 246.4C382.385 246.4 399.45 261.56 428.463 262.9C457.436 264.24 432.919 226.66 432.919 226.66Z" fill="url(#paint10_linear_100_578)"/>
<path d="M449.863 266.2V270.6L433.099 269.62V264.74L449.863 266.2Z" fill="#7D97F4"/>
<path d="M458.435 277.18C458.535 277.18 458.635 277.16 458.735 277.1L472.962 269.46C473.141 269.36 473.261 269.18 473.301 268.98L475.22 256L480.255 255.1C480.495 255.06 480.694 254.88 480.754 254.66L486.249 236.82C486.349 236.48 486.169 236.12 485.83 236.02C485.49 235.92 485.13 236.1 485.03 236.44L479.655 253.9L474.54 254.8C474.26 254.84 474.061 255.06 474.021 255.34L472.082 268.46L458.155 275.94C457.836 276.1 457.716 276.5 457.896 276.82C457.996 277.06 458.215 277.18 458.435 277.18Z" fill="#91B3FA"/>
<path d="M455.058 272.74C455.138 272.74 455.218 272.72 455.298 272.68C455.538 272.54 455.618 272.26 455.478 272.02L448.045 258.98L449.264 251.64C449.304 251.44 449.204 251.22 449.024 251.14L443.109 247.98L444.628 226.8C444.648 226.54 444.448 226.3 444.188 226.28C443.869 226.24 443.689 226.46 443.669 226.72L442.13 248.22C442.11 248.42 442.21 248.6 442.39 248.68L448.285 251.82L447.086 258.98C447.066 259.08 447.086 259.2 447.146 259.3L454.659 272.5C454.739 272.64 454.898 272.74 455.058 272.74Z" fill="#91B3FA"/>
<path d="M465.049 295.6C465.049 295.6 499.217 314.92 510.747 298.42C513.144 295 513.704 291.58 513.124 288.34C523.375 283.16 533.825 281.66 539.58 281.24C541.098 289.16 540.299 297.56 535.644 306.06C515.442 343.04 460.533 304.02 460.533 304.02L465.049 295.6Z" fill="white"/>
<path d="M469.145 320.06L450.502 254.88C450.283 254.14 449.663 253.6 448.904 253.52C445.527 253.12 435.736 252.02 424.427 251.06C410.819 249.9 394.994 248.98 385.543 249.76C384.204 249.88 383.385 251.3 383.984 252.5C389.359 263.38 411.459 307.64 422.528 322.14C422.888 322.62 423.468 322.9 424.067 322.9L467.327 322.5C468.606 322.48 469.505 321.26 469.145 320.06Z" fill="#B9CEED"/>
<path d="M422.488 245.4L408.961 243.14C408.242 243.02 407.642 243.7 407.882 244.4L409.221 248.46C409.341 248.82 409.64 249.06 410.02 249.12L423.028 250.86C423.707 250.94 424.247 250.34 424.107 249.68L423.288 246.14C423.188 245.74 422.888 245.46 422.488 245.4Z" fill="#578AD6"/>
<path d="M432.619 256.84L431.5 251.04C431.38 250.46 430.901 250.02 430.321 249.96L403.007 247.18C402.087 247.08 401.348 247.92 401.568 248.82L403.306 256.06C403.446 256.64 403.946 257.06 404.545 257.08L431.22 258.42C432.1 258.48 432.779 257.7 432.619 256.84Z" fill="#578AD6"/>
<path d="M464.649 304.3C464.649 304.3 467.247 293.6 466.208 289.82C465.169 286.02 463.131 281.16 456.357 282.24C449.583 283.32 441.611 286.18 441.611 286.18C441.611 286.18 442.01 291.12 447.165 289.52L443.968 291.98C443.968 291.98 444.428 295.94 448.764 293.82L445.807 297.1C445.807 297.1 447.665 300.34 450.862 298.26C454.059 296.18 455.578 305.6 464.649 304.3Z" fill="url(#paint11_linear_100_578)"/>
<path d="M497.219 305.4C500.436 305.4 503.373 304.92 505.611 303.7C505.931 303.52 506.031 303.14 505.871 302.82C505.691 302.5 505.312 302.4 504.992 302.56C495.98 307.52 473.581 298.98 473.361 298.9C473.301 298.88 469.005 297.38 467.487 294.42C467.327 294.1 466.927 293.98 466.608 294.14C466.288 294.3 466.168 294.7 466.328 295.02C468.086 298.46 472.722 300.08 472.922 300.14C473.621 300.38 486.789 305.4 497.219 305.4Z" fill="#91B3FA"/>
<path d="M509.528 322.62C509.867 322.62 510.167 322.34 510.167 322C510.187 321.64 509.907 321.34 509.548 321.32C483.692 320.42 468.945 308.58 468.806 308.46C468.526 308.24 468.126 308.28 467.886 308.56C467.667 308.84 467.707 309.24 467.986 309.48C468.126 309.6 483.192 321.72 509.508 322.64C509.528 322.62 509.528 322.62 509.528 322.62Z" fill="#91B3FA"/>
<path d="M444.208 166.64C443.869 167.1 433.358 203.8 433.358 203.8L454.419 209.36L469.545 176.08C469.545 176.08 449.863 158.8 444.208 166.64Z" fill="url(#paint12_linear_100_578)"/>
<path d="M461.173 178.54C461.692 179.36 461.792 180.38 461.472 181.28L454.978 199.16C454.878 199.44 454.759 199.68 454.579 199.92C453.64 201.2 450.323 205.06 446.486 201.44C443.209 198.34 440.152 195.54 437.315 194.7C435.656 194.2 433.918 195.2 433.438 196.86C432.459 200.3 430.641 207.3 429.882 213.74C429.702 215.36 430.801 216.84 432.379 217.14C436.575 217.96 444.848 219.32 451.861 218.94C453.02 218.88 454.039 218.18 454.519 217.14C456.677 212.54 462.791 199.66 465.069 196.28C467.187 193.14 472.242 193.2 474.54 193.4C475.419 193.48 476.279 193.2 476.938 192.6C478.896 190.84 482.113 186.76 477.497 181.8C476.339 180.56 476.438 178.62 477.637 177.44C479.795 175.32 481.893 171.74 478.377 167.28C474.82 162.76 470.104 163.22 467.027 164.22C465.668 164.66 464.11 164.2 463.311 163C462.951 162.46 462.391 162.06 461.492 162.06C459.774 162.04 458.395 160.74 458.395 159.02C458.395 156.08 457.276 152.46 452.261 150.86C443.069 147.9 437.235 156.76 436.595 163.4C435.956 170.04 446.107 172.68 452.101 172.3C456.497 172.04 459.754 176.28 461.173 178.54Z" fill="#B9CEED"/>
<path d="M462.631 202.9C462.631 202.9 464.23 191.36 469.025 190.84C473.821 190.32 478.457 194.32 473.641 200.74C467.627 208.76 462.631 202.9 462.631 202.9Z" fill="url(#paint13_linear_100_578)"/>
</g>
<defs>
<linearGradient id="paint0_linear_100_578" x1="590.669" y1="622.762" x2="184.301" y2="184.548" gradientUnits="userSpaceOnUse">
<stop stop-color="#DAE3FE"/>
<stop offset="1" stop-color="#E9EFFD"/>
</linearGradient>
<linearGradient id="paint1_linear_100_578" x1="62.7728" y1="415.241" x2="184.972" y2="380.979" gradientUnits="userSpaceOnUse">
<stop stop-color="#41A362"/>
<stop offset="1" stop-color="#204F2E"/>
</linearGradient>
<linearGradient id="paint2_linear_100_578" x1="453.175" y1="535.287" x2="440.841" y2="535.287" gradientUnits="userSpaceOnUse">
<stop stop-color="#FEBBBA"/>
<stop offset="1" stop-color="#FF928E"/>
</linearGradient>
<linearGradient id="paint3_linear_100_578" x1="497.627" y1="534.654" x2="486.977" y2="534.654" gradientUnits="userSpaceOnUse">
<stop stop-color="#FEBBBA"/>
<stop offset="1" stop-color="#FF928E"/>
</linearGradient>
<linearGradient id="paint4_linear_100_578" x1="376.836" y1="165.073" x2="364.34" y2="238.628" gradientUnits="userSpaceOnUse">
<stop stop-color="#DAE3FE"/>
<stop offset="1" stop-color="#E9EFFD"/>
</linearGradient>
<linearGradient id="paint5_linear_100_578" x1="353.446" y1="202.638" x2="395.794" y2="298.901" gradientUnits="userSpaceOnUse">
<stop stop-color="#FEBBBA"/>
<stop offset="1" stop-color="#FF928E"/>
</linearGradient>
<linearGradient id="paint6_linear_100_578" x1="339.711" y1="170.57" x2="322.045" y2="143.434" gradientUnits="userSpaceOnUse">
<stop stop-color="#FEBBBA"/>
<stop offset="1" stop-color="#FF928E"/>
</linearGradient>
<linearGradient id="paint7_linear_100_578" x1="479.073" y1="217.22" x2="447.546" y2="217.22" gradientUnits="userSpaceOnUse">
<stop stop-color="#FEBBBA"/>
<stop offset="1" stop-color="#FF928E"/>
</linearGradient>
<linearGradient id="paint8_linear_100_578" x1="457.446" y1="334.433" x2="514.185" y2="334.433" gradientUnits="userSpaceOnUse">
<stop stop-color="#DAE3FE"/>
<stop offset="1" stop-color="#E9EFFD"/>
</linearGradient>
<linearGradient id="paint9_linear_100_578" x1="428.445" y1="335.454" x2="470.94" y2="335.454" gradientUnits="userSpaceOnUse">
<stop stop-color="#DAE3FE"/>
<stop offset="1" stop-color="#E9EFFD"/>
</linearGradient>
<linearGradient id="paint10_linear_100_578" x1="425.484" y1="173.337" x2="412.988" y2="246.893" gradientUnits="userSpaceOnUse">
<stop stop-color="#DAE3FE"/>
<stop offset="1" stop-color="#E9EFFD"/>
</linearGradient>
<linearGradient id="paint11_linear_100_578" x1="466.444" y1="293.255" x2="441.602" y2="293.255" gradientUnits="userSpaceOnUse">
<stop stop-color="#FEBBBA"/>
<stop offset="1" stop-color="#FF928E"/>
</linearGradient>
<linearGradient id="paint12_linear_100_578" x1="451.032" y1="171.873" x2="452.724" y2="244.461" gradientUnits="userSpaceOnUse">
<stop stop-color="#FEBBBA"/>
<stop offset="1" stop-color="#FF928E"/>
</linearGradient>
<linearGradient id="paint13_linear_100_578" x1="476.25" y1="246.566" x2="468.794" y2="196.809" gradientUnits="userSpaceOnUse">
<stop stop-color="#FEBBBA"/>
<stop offset="1" stop-color="#FF928E"/>
</linearGradient>
<clipPath id="clip0_100_578">
<rect width="561" height="560" fill="white"/>
</clipPath>
</defs>
</svg>
