<svg width="593" height="594" viewBox="0 0 593 594" fill="none" xmlns="http://www.w3.org/2000/svg">
<path d="M522.185 506C510.063 518.567 498.583 526.667 489.518 533.079C382.923 608.329 256.809 586.402 230.021 581.037C190.449 573.13 113.934 557.827 58.6273 493.84C-25.0495 397.004 -12.0298 244.451 52.8764 143.747C64.7417 125.324 127.467 23.0809 254.949 6.6886C332.105 -3.22797 422.025 16.7761 487.145 70.4624C623.82 183.135 614.092 410.789 522.185 506Z" fill="#E9EFFD"/>
<path d="M264.142 367.66C251.358 327.524 226.601 295.53 197.291 276.723C171.08 259.903 152.203 233.722 145.212 203.481C144.485 200.297 143.608 197.112 142.582 193.928C127.211 145.649 85.0088 115.984 48.3441 127.653C11.7221 139.323 -5.5306 187.922 9.84079 236.201C12.9835 246.075 17.2592 255.158 22.3688 263.28C38.6809 289.182 45.0731 320.257 39.0657 350.327C33.6996 377.192 35.1533 407.433 44.7524 437.525C59.0549 482.406 88.3011 517.114 122.165 534.575C134.971 541.178 146.537 550.069 156.093 560.798C171.999 578.643 194.383 587.021 214.971 580.481C237.183 573.407 251.037 550.945 252.042 524.701C252.598 509.869 256.104 495.314 261.79 481.572C275.216 449.108 277.076 408.245 264.142 367.66Z" fill="#B9CEED"/>
<path opacity="0.57" d="M77.569 174.928C92.5342 205.319 106.495 236.159 120.113 267.127C123.533 274.864 126.804 282.664 130.118 290.465L135.078 302.155L139.952 313.889C143.159 321.711 146.494 329.511 149.616 337.376L159.001 360.971C165.051 376.786 171.23 392.537 177.002 408.459C179.888 416.41 182.945 424.317 185.66 432.332L193.955 456.332C204.688 488.454 214.607 520.854 222.86 553.703L221.449 554.066L214.329 529.724L212.555 523.633L210.631 517.584L206.783 505.509L202.956 493.434C201.695 489.395 200.262 485.42 198.915 481.423C196.179 473.43 193.506 465.415 190.727 457.422C179.375 425.578 167.617 393.884 155.196 362.446C148.867 346.78 142.668 331.05 136.233 315.406L131.444 303.673L126.548 291.982C123.277 284.182 120.027 276.381 116.692 268.623C110.15 253.043 103.48 237.484 96.703 221.989C89.9901 206.473 83.1488 191 76.2435 175.57L77.569 174.928Z" fill="white"/>
<path d="M371.143 287.879C365.157 244.045 345.403 206.473 318.594 181.703C294.607 159.562 279.856 129.064 278.081 96.5148C277.889 93.0953 277.568 89.633 277.098 86.1494C269.893 33.4249 231.753 -4.91629 191.882 0.512179C152.01 5.94064 125.522 53.0871 132.726 105.812C134.202 116.583 136.959 126.777 140.765 136.096C152.929 165.845 153.934 199.143 142.347 229.149C132 255.971 128.087 287.516 132.555 320.385C139.247 369.413 163.148 410.596 194.917 434.789C206.932 443.936 217.237 455.221 225.169 468.065C238.338 489.395 259.931 502.132 282.293 499.076C306.429 495.785 324.751 475.054 330.481 448.104C333.73 432.866 339.93 418.44 348.247 405.253C367.936 374.114 377.172 332.204 371.143 287.879Z" fill="#578AD6"/>
<path opacity="0.57" d="M213.496 54.6899C223.458 88.8209 232.309 123.251 240.796 157.767C242.913 166.401 244.901 175.057 246.932 183.712L249.947 196.706L252.854 209.722C254.757 218.399 256.788 227.054 258.605 235.753L264.035 261.869C267.434 279.309 270.983 296.748 274.062 314.252C275.601 323.014 277.333 331.734 278.701 340.518L282.934 366.848C288.236 402.005 292.64 437.333 295.248 472.789L293.73 472.917L290.759 446.458L290.032 439.833L289.134 433.229L287.317 420.043L285.542 406.856C284.965 402.454 284.195 398.072 283.554 393.691C282.164 384.929 280.86 376.145 279.428 367.382C273.463 332.396 267.007 297.475 259.866 262.703C256.146 245.349 252.598 227.952 248.749 210.619L245.906 197.604L242.956 184.61C240.989 175.954 239.043 167.299 236.991 158.664C233.036 141.353 228.974 124.063 224.762 106.816C220.636 89.5475 216.36 72.3004 212.021 55.096L213.496 54.6899Z" fill="white"/>
<path d="M554.36 589.18H206.376C203.661 589.18 201.459 586.979 201.459 584.264V114.189C201.459 111.475 203.661 109.274 206.376 109.274H554.36C557.075 109.274 559.277 111.475 559.277 114.189V584.264C559.277 586.979 557.075 589.18 554.36 589.18Z" fill="#244D89"/>
<path d="M498.369 525.962H261.619C252.64 525.962 245.372 518.695 245.372 509.719V197.625C245.372 188.649 252.64 181.382 261.619 181.382H498.369C507.348 181.382 514.617 188.649 514.617 197.625V509.719C514.617 518.695 507.348 525.962 498.369 525.962Z" fill="#578AD6"/>
<path d="M489.411 502.004H270.791C268.097 502.004 265.917 499.824 265.917 497.131V214.594C265.917 211.902 268.097 209.722 270.791 209.722H489.411C492.105 209.722 494.285 211.902 494.285 214.594V497.131C494.285 499.824 492.105 502.004 489.411 502.004Z" fill="#244D89"/>
<path d="M379.716 156.783C385.632 156.783 390.427 151.989 390.427 146.076C390.427 140.162 385.632 135.369 379.716 135.369C373.801 135.369 369.005 140.162 369.005 146.076C369.005 151.989 373.801 156.783 379.716 156.783Z" fill="url(#paint0_linear_221_1089)"/>
<path d="M448.877 318.825L311.154 321.112C300.679 321.283 292.148 329.426 292.148 339.321V426.027C292.148 435.9 300.679 443.573 311.154 443.145L448.877 437.61C458.775 437.204 466.771 429.147 466.771 419.615V335.816C466.749 326.263 458.775 318.654 448.877 318.825Z" fill="#B9CEED"/>
<path d="M455.846 303.138C451.677 303.202 448.278 299.975 448.278 295.957V276.979C448.278 257.937 432.18 242.506 412.233 242.549L367.359 242.677C346.9 242.741 330.139 258.642 330.139 278.112V297.539C330.139 301.664 326.59 305.062 322.207 305.126C317.803 305.19 314.254 301.899 314.254 297.753V278.283C314.254 250.478 338.22 227.866 367.381 227.866H412.255C440.582 227.866 463.393 249.837 463.393 276.851V295.765C463.372 299.762 460.015 303.074 455.846 303.138Z" fill="#B9CEED"/>
<path d="M402.292 366.869C402.292 357.23 393.869 349.665 383.65 350.37C374.607 350.99 367.124 358.235 366.632 366.869C366.247 373.58 369.946 379.372 375.547 382.321C377.942 383.561 379.118 386.189 378.647 388.797L374.714 410.853C374.222 413.652 376.467 416.131 379.438 416.025L389.55 415.661C392.501 415.554 394.745 412.926 394.254 410.169L390.32 388.305C389.85 385.698 391.197 383.112 393.591 381.68C398.807 378.581 402.292 373.067 402.292 366.869Z" fill="#578AD6"/>
<path d="M125.693 590.035C125.693 589.842 125.693 589.65 125.629 589.458C122.764 578.131 108.59 571.099 108.59 571.099L102.967 571.548C99.7388 581.529 100.145 587.641 100.68 590.377C100.701 590.462 100.722 590.526 100.744 590.59C105.404 590.975 114.939 591.253 125.693 590.035Z" fill="#244D89"/>
<path d="M100.765 590.569C101.022 591.488 101.684 592.193 102.539 592.364C109.124 593.754 119.6 592.642 124.004 592.065C124.966 591.937 125.693 591.039 125.693 590.035C114.939 591.253 105.404 590.975 100.765 590.569Z" fill="#244D89"/>
<path d="M100.744 563.17L103.117 574.626C103.288 575.459 103.929 576.1 104.72 576.164C105.682 576.25 107.029 576.314 108.397 576.1C109.616 575.929 110.471 574.668 110.257 573.343L108.611 563.17H100.744Z" fill="#244D89"/>
<path d="M150.022 590.419C143.822 590.248 140.615 589.522 138.948 588.838C138.948 589.458 138.948 590.077 138.969 590.74C138.99 591.424 139.503 591.98 140.145 591.98L174.201 591.766C175.292 591.766 175.933 590.505 175.463 589.5C170.995 589.864 159.621 590.697 150.022 590.419Z" fill="#244D89"/>
<path d="M175.463 589.5C175.42 589.415 175.377 589.329 175.334 589.244C172.32 585.034 164.666 576.677 149.53 573.044L142.261 572.809C142.261 572.809 139.033 578.43 138.969 588.838C140.637 589.522 143.843 590.248 150.043 590.419C159.621 590.697 170.995 589.864 175.463 589.5Z" fill="#244D89"/>
<path d="M140.572 562.145C140.679 562.679 142.197 570.821 142.774 573.985C142.924 574.733 143.501 575.288 144.185 575.331C145.425 575.395 147.435 575.416 149.167 574.946C150.107 574.69 150.727 573.749 150.663 572.702L149.851 559.815L140.572 562.145Z" fill="#244D89"/>
<path d="M135.078 411.75C135.078 411.75 145.062 480.375 152.288 562.038C152.416 563.555 151.219 564.88 149.723 565.201C147.521 565.671 144.292 566.205 141.599 566.141C140.166 566.098 138.969 565.03 138.734 563.619C136.275 549.214 118.745 471.955 114.148 454.943C114.148 454.943 108.868 527.18 110.557 564.666C110.599 565.607 109.915 566.397 108.996 566.504C107.585 566.675 105.34 566.782 102.475 566.483C101.385 566.376 100.508 565.542 100.359 564.474C98.6057 552.292 88.5363 479.756 88.9639 427.501C88.9853 424.552 92.4273 400.338 92.4273 400.338L135.078 411.75Z" fill="#244D89"/>
<path d="M138.948 296.342L140.294 332.247C144.1 333.551 147.713 334.576 151.155 335.324C153.314 328.4 158.06 319.873 161.93 313.546C147.649 308.524 138.948 296.342 138.948 296.342Z" fill="#578AD6"/>
<path d="M90.9094 415.704C89.8832 415.341 89.1563 414.401 89.0494 413.332C87.7239 400.445 81.2889 320.556 121.887 287.686C121.887 287.686 124.218 281.595 143.352 296.577C162.486 311.559 152.245 327.246 147.67 348.896C142.133 375.098 132.384 396.491 136.703 412.627C137.002 413.738 136.425 414.913 135.335 415.298C120.476 420.769 105.661 420.94 90.9094 415.704Z" fill="#578AD6"/>
<path d="M137.729 263.75C137.708 264.882 121.502 287.921 121.502 287.921C121.502 287.921 124.41 293.649 138.306 298.308L150.3 273.645L137.729 263.75Z" fill="url(#paint1_linear_221_1089)"/>
<path d="M129.712 342.527C129.605 342.527 129.498 342.505 129.413 342.441C116.457 333.7 110.364 319.573 110.3 319.424C110.193 319.146 110.321 318.847 110.578 318.74C110.856 318.633 111.155 318.74 111.262 319.018C111.326 319.146 117.291 332.995 129.99 341.565C130.225 341.736 130.289 342.056 130.14 342.292C130.033 342.463 129.883 342.527 129.712 342.527Z" fill="#244D89"/>
<path d="M148.996 322.971C148.825 322.971 148.654 322.886 148.547 322.736C148.504 322.672 144.549 316.517 137.002 303.031C134.693 298.885 131.636 296.257 127.938 295.231C121.823 293.521 115.944 296.791 115.88 296.834C115.623 296.983 115.303 296.898 115.153 296.641C115.003 296.385 115.089 296.064 115.345 295.915C115.602 295.765 121.652 292.388 128.194 294.205C132.171 295.316 135.442 298.116 137.9 302.518C145.425 315.983 149.359 322.117 149.402 322.181C149.552 322.416 149.487 322.758 149.252 322.907C149.188 322.929 149.103 322.971 148.996 322.971Z" fill="#244D89"/>
<path d="M150.514 250.563C150.514 250.563 156.286 263.814 156.671 270.76C157.056 277.706 158.552 282.236 150.514 283.626C142.475 285.036 135.698 281.018 132.021 274.094C132.021 274.094 126.27 263.429 127.553 259.048C128.835 254.688 150.514 250.563 150.514 250.563Z" fill="url(#paint2_linear_221_1089)"/>
<path d="M134.757 269.114L135.206 268.922C135.784 268.665 136.04 267.981 135.741 267.404C134.608 265.203 132.406 260.202 135.249 259.027C138.926 257.509 153.507 254.538 156.649 249.366C159.664 244.387 156.991 237.975 152.972 236.159C152.694 236.03 152.395 236.137 152.245 236.394L151.903 237.035C151.668 237.462 151.027 237.398 150.898 236.928C150.77 236.479 150.172 236.394 149.915 236.778C148.953 238.317 146.345 240.839 139.354 242.121C129.434 243.959 122.871 247.977 122.7 254.816C122.7 255.244 122.229 255.5 121.845 255.265C121.118 254.816 119.942 254.603 118.381 255.928C115.666 258.214 116.778 264.156 122.742 269.05C123.02 269.285 123.02 269.734 122.721 269.926C121.631 270.631 120.027 272.298 124.218 274.543C128.536 276.851 131.786 276.658 133.026 276.466C133.325 276.423 133.539 276.124 133.475 275.803L132.149 269.777C132.064 269.435 132.342 269.114 132.684 269.114H134.757Z" fill="#244D89"/>
<path d="M135.014 270.396C135.014 270.396 132.812 261.933 129.006 264.305C125.201 266.678 130.973 273.794 134.03 274.115L135.014 270.396Z" fill="url(#paint3_linear_221_1089)"/>
<path d="M209.733 293.649C209.733 293.649 206.847 288.52 207.018 286.041C207.21 283.54 205.65 279.886 207.296 280.163C208.942 280.441 209.284 280.206 209.733 283.198C210.182 286.169 215.398 299.227 209.733 293.649Z" fill="url(#paint4_linear_221_1089)"/>
<path d="M210.267 285.485L210.203 295.722C190.62 316.859 174.779 318.099 161.93 313.546C158.039 319.872 153.293 328.379 151.155 335.324C203.426 346.844 215.74 298.8 215.74 298.8C222.817 295.872 224.249 294.162 223.95 292.239L210.267 285.485Z" fill="url(#paint5_linear_221_1089)"/>
<path d="M225.318 275.333C223.651 274.649 220.38 268.43 219.76 270.482C219.14 272.534 220.016 275.333 219.76 276.21C219.503 277.086 215.42 287.109 216.232 289.332C216.809 290.935 220.059 290.7 220.551 293.328C220.722 294.205 221.406 294.824 222.218 294.824C223.031 294.824 223.736 294.205 223.886 293.328C223.95 292.986 226.986 276.017 225.318 275.333Z" fill="url(#paint6_linear_221_1089)"/>
<path d="M171.957 254.004C158.766 280.099 169.22 311.964 195.324 325.151C216.553 335.88 241.566 330.964 257.28 314.743L347.99 360.585C349.486 361.355 351.282 361.291 352.736 360.415L361.608 355.136C361.758 355.05 361.908 354.943 362.036 354.836C362.079 354.815 362.121 354.772 362.143 354.751C362.25 354.665 362.335 354.58 362.442 354.494C362.485 354.473 362.506 354.43 362.549 354.409C362.677 354.302 362.784 354.174 362.891 354.046C364.003 352.699 364.345 350.797 363.661 349.087L356.456 331.028C356.007 329.917 355.173 328.998 354.104 328.464L345.018 323.869L342.624 328.613L334.821 324.659L337.215 319.915L329.903 316.217L327.701 320.599L318.209 315.811L320.411 311.43L316.884 309.635L315.751 311.879L307.798 307.861L308.931 305.617L302.752 302.497L300.358 307.241L295.932 305.019L298.327 300.274L294.5 298.329L292.106 303.074L284.452 299.205L286.846 294.461L276.072 289.011L271.454 286.681C275.216 264.412 264.335 241.352 243.105 230.623C217.023 217.436 185.169 227.909 171.957 254.004ZM202.87 257.616C208.151 260.287 210.267 266.741 207.595 272.02C204.923 277.299 198.466 279.415 193.186 276.743C187.905 274.072 185.789 267.618 188.461 262.339C191.133 257.06 197.59 254.944 202.87 257.616Z" fill="#456C9B"/>
<path d="M245.5 270.012L288.514 291.747L286.12 296.492L293.773 300.36L296.168 295.615L299.994 297.56L297.6 302.305L302.025 304.527L304.42 299.783L310.598 302.903L309.465 305.147L317.418 309.165L318.551 306.921L322.079 308.716L319.877 313.097L329.369 317.885L331.571 313.504L338.883 317.201L336.488 321.945L344.291 325.899L346.686 321.155L355.772 325.75C356.841 326.284 357.675 327.203 358.124 328.314L365.328 346.374C366.226 348.618 365.35 351.204 363.276 352.443L354.404 357.722C352.95 358.577 351.154 358.641 349.658 357.893L240.155 302.54L245.5 270.012Z" fill="#E9EFFD"/>
<path d="M196.97 322.437C223.073 335.624 254.949 325.173 268.14 299.078C281.331 272.983 270.876 241.117 244.773 227.931C218.669 214.744 186.793 225.195 173.603 251.29C160.391 277.385 170.866 309.251 196.97 322.437ZM194.832 274.03C189.551 271.358 187.435 264.904 190.107 259.625C192.78 254.346 199.236 252.23 204.516 254.902C209.797 257.573 211.914 264.028 209.241 269.307C206.569 274.585 200.112 276.701 194.832 274.03Z" fill="url(#paint7_linear_221_1089)"/>
<path d="M258.926 312.029L349.636 357.872C351.133 358.641 352.928 358.577 354.382 357.701L363.254 352.422C364.601 351.631 365.414 350.285 365.606 348.831C357.333 339.877 278.744 305.575 275.815 298.501C274.767 295.979 274.596 292.175 277.718 286.276L273.1 283.946C276.863 261.677 265.981 238.617 244.752 227.888C218.648 214.701 186.772 225.152 173.581 251.247C160.391 277.342 170.845 309.208 196.948 322.394C218.199 333.166 243.212 328.272 258.926 312.029ZM204.495 254.881C209.776 257.552 211.892 264.006 209.22 269.285C206.548 274.564 200.091 276.68 194.811 274.008C189.53 271.337 187.413 264.883 190.086 259.604C192.758 254.325 199.215 252.209 204.495 254.881Z" fill="#578AD6"/>
<path d="M201.652 313.162C222.646 323.762 248.258 315.363 258.862 294.376C269.465 273.388 261.064 247.785 240.07 237.184C219.075 226.584 193.464 234.983 182.86 255.97C172.256 276.958 180.679 302.561 201.652 313.162ZM194.832 274.03C189.551 271.358 187.435 264.904 190.107 259.625C192.78 254.346 199.236 252.23 204.517 254.902C209.797 257.573 211.914 264.028 209.241 269.306C206.569 274.585 200.112 276.701 194.832 274.03Z" fill="#E9EFFD"/>
<path d="M129.712 342.527C129.712 342.527 179.589 359.218 207.51 337.974C209.241 336.649 211.422 336.072 213.581 336.436L224.249 338.167C228.717 338.893 232.993 335.987 233.955 331.563C234.511 329.041 234.768 326.284 234.212 323.89L214.094 322.672L214.671 320.065C214.671 320.065 205.778 322.245 205.607 329.191C205.607 329.191 184.741 342.847 146.687 321.646C146.623 321.689 131.807 333.294 129.712 342.527Z" fill="url(#paint8_linear_221_1089)"/>
<g opacity="0.3">
<path d="M515.023 92.4971C513.868 92.4543 512.949 91.4712 513.013 90.3171C513.099 88.0517 513.099 85.7649 512.992 83.4995C512.949 82.3454 513.826 81.3837 514.959 81.2982C514.98 81.2982 514.98 81.2982 515.001 81.2982C516.156 81.2554 517.139 82.1531 517.203 83.3071C517.31 85.7008 517.31 88.1158 517.225 90.4881C517.182 91.5781 516.327 92.433 515.258 92.4971C515.173 92.5184 515.108 92.5184 515.023 92.4971ZM511.752 72.493C511.346 70.2703 510.833 68.0262 510.234 65.8463C509.935 64.735 510.597 63.5595 511.709 63.2603C512.842 62.9611 513.997 63.6236 514.296 64.735C514.916 67.0218 515.45 69.3727 515.878 71.7236C516.092 72.8563 515.322 73.9676 514.189 74.1813C514.104 74.2027 514.018 74.2027 513.933 74.2027C512.906 74.2882 511.944 73.5616 511.752 72.493ZM506.6 55.3954C505.702 53.3224 504.718 51.2493 503.649 49.2617C503.093 48.2358 503.478 46.9535 504.504 46.4192C505.531 45.8636 506.813 46.2483 507.348 47.2741C508.481 49.3686 509.528 51.5485 510.469 53.7498C510.918 54.8184 510.426 56.058 509.357 56.5068C509.122 56.6136 508.887 56.6564 508.652 56.6778C507.797 56.7205 506.942 56.2503 506.6 55.3954ZM497.727 39.9008C496.381 38.0628 494.969 36.289 493.473 34.5792C492.703 33.703 492.81 32.3779 493.687 31.6085C494.563 30.8391 495.889 30.946 496.658 31.8222C498.219 33.6175 499.737 35.4982 501.148 37.4217C501.832 38.362 501.618 39.6871 500.699 40.371C500.357 40.6061 499.972 40.7557 499.587 40.7771C498.882 40.7984 498.176 40.4992 497.727 39.9008ZM485.648 26.7357C483.938 25.261 482.142 23.8291 480.325 22.4827C479.384 21.7988 479.192 20.4737 479.876 19.5334C480.56 18.593 481.886 18.4007 482.826 19.0846C484.75 20.4951 486.632 21.9911 488.428 23.5513C489.304 24.3207 489.39 25.6457 488.641 26.522C488.257 26.9708 487.722 27.2059 487.188 27.2486C486.632 27.2914 486.076 27.1204 485.648 26.7357ZM470.94 16.5841C468.951 15.5155 466.878 14.511 464.804 13.6134C463.735 13.1432 463.243 11.9036 463.714 10.8564C464.184 9.78779 465.403 9.29623 466.472 9.76642C468.652 10.7068 470.833 11.754 472.928 12.8867C473.954 13.4424 474.339 14.7033 473.783 15.7292C473.42 16.3917 472.757 16.7978 472.051 16.8405C471.688 16.8619 471.303 16.7764 470.94 16.5841ZM392.8 15.6009C392.244 14.5751 392.65 13.2928 393.677 12.7585C395.772 11.6471 397.952 10.5999 400.154 9.65956C401.223 9.21075 402.463 9.7023 402.912 10.7709C403.361 11.8395 402.869 13.0791 401.8 13.5279C399.705 14.4255 397.653 15.4086 395.643 16.4772C395.365 16.6268 395.088 16.7123 394.788 16.7123C393.976 16.7764 393.185 16.349 392.8 15.6009ZM454.371 9.93739C452.19 9.33898 449.946 8.82605 447.722 8.41999C446.589 8.20627 445.82 7.1163 446.033 5.96222C446.247 4.82951 447.337 4.06012 448.492 4.27384C450.844 4.70127 453.195 5.25694 455.483 5.87673C456.594 6.17594 457.257 7.35139 456.958 8.46273C456.723 9.36035 455.932 9.95876 455.055 10.0015C454.841 10.0443 454.606 10.0015 454.371 9.93739ZM409.668 8.41999C409.369 7.30865 410.031 6.13319 411.143 5.83399C413.452 5.2142 415.804 4.6799 418.155 4.25246C419.31 4.03874 420.4 4.80813 420.592 5.94084C420.806 7.07356 420.037 8.1849 418.904 8.37724C416.68 8.78331 414.435 9.27486 412.255 9.87328C412.105 9.91602 411.977 9.93739 411.827 9.93739C410.865 10.0229 409.924 9.40309 409.668 8.41999ZM436.734 7.18042C434.467 7.07356 432.18 7.07356 429.914 7.18042C428.759 7.22316 427.776 6.32554 427.712 5.17146C427.669 4.01737 428.545 3.05564 429.679 2.99152C429.7 2.99152 429.7 2.99152 429.721 2.99152C432.094 2.88466 434.51 2.88466 436.905 2.99152C438.059 3.03427 438.957 4.01737 438.914 5.19283C438.871 6.2828 438.016 7.13767 436.947 7.20179C436.883 7.18042 436.819 7.18042 436.734 7.18042Z" fill="#91B3FA"/>
<path d="M382.431 24.8119C382.837 24.7905 383.265 24.6409 383.607 24.3631C384.462 23.6792 385.339 23.0166 386.215 22.3755C387.156 21.6916 387.37 20.3665 386.686 19.4261C386.002 18.4858 384.676 18.2721 383.735 18.9773C382.816 19.6612 381.875 20.3665 380.999 21.0718C380.08 21.7984 379.93 23.1235 380.657 24.0211C381.084 24.5981 381.769 24.8546 382.431 24.8119Z" fill="#91B3FA"/>
</g>
<g opacity="0.3">
<path d="M351.731 81.1697C352.736 81.1056 353.591 80.3148 353.698 79.2676C353.805 78.1777 353.933 77.0877 354.083 76.0191C354.233 74.865 353.442 73.7964 352.287 73.6468C351.133 73.4972 350.064 74.288 349.914 75.4421C349.764 76.5748 349.615 77.7288 349.508 78.8616C349.401 80.0156 350.256 81.0415 351.411 81.1484C351.517 81.1697 351.624 81.1697 351.731 81.1697Z" fill="#91B3FA"/>
<path d="M434.318 170.996C433.163 171.017 432.201 170.077 432.18 168.923C432.158 167.769 433.099 166.807 434.254 166.786C436.477 166.764 438.722 166.636 440.945 166.401C442.1 166.294 443.126 167.128 443.254 168.282C443.361 169.436 442.527 170.462 441.373 170.59C440.411 170.675 439.427 170.761 438.465 170.825C437.076 170.91 435.686 170.975 434.318 170.996ZM450.138 167.149C449.86 166.016 450.566 164.884 451.699 164.627C453.879 164.114 456.039 163.494 458.155 162.811C459.267 162.447 460.443 163.046 460.806 164.157C461.17 165.268 460.571 166.444 459.459 166.807C457.236 167.534 454.948 168.175 452.661 168.731C452.533 168.752 452.426 168.773 452.297 168.773C451.314 168.837 450.373 168.153 450.138 167.149ZM422.859 170.376C420.528 170.098 418.198 169.692 415.889 169.222C414.756 168.987 414.029 167.876 414.264 166.722C414.5 165.589 415.611 164.862 416.766 165.097C418.946 165.546 421.17 165.931 423.372 166.209C424.526 166.358 425.339 167.405 425.21 168.56C425.082 169.585 424.248 170.333 423.265 170.398C423.115 170.398 422.987 170.376 422.859 170.376ZM467.284 161.528C466.771 160.481 467.198 159.22 468.246 158.707C470.256 157.724 472.222 156.655 474.147 155.523C475.151 154.924 476.434 155.245 477.033 156.249C477.631 157.254 477.311 158.536 476.306 159.135C474.296 160.331 472.201 161.464 470.085 162.49C469.828 162.618 469.571 162.682 469.294 162.704C468.481 162.746 467.669 162.298 467.284 161.528ZM404.858 166.08C402.656 165.29 400.454 164.392 398.316 163.409C397.268 162.917 396.798 161.678 397.268 160.631C397.76 159.583 399 159.113 400.047 159.583C402.078 160.502 404.174 161.357 406.247 162.105C407.338 162.49 407.915 163.708 407.509 164.798C407.209 165.61 406.482 166.145 405.67 166.187C405.435 166.23 405.136 166.187 404.858 166.08ZM388.246 157.959C386.258 156.698 384.313 155.352 382.453 153.941C381.533 153.236 381.341 151.911 382.046 150.992C382.752 150.073 384.077 149.881 384.997 150.586C386.771 151.932 388.631 153.215 390.512 154.411C391.496 155.031 391.795 156.335 391.154 157.318C390.769 157.916 390.149 158.258 389.508 158.301C389.08 158.322 388.631 158.216 388.246 157.959ZM373.794 146.418C372.127 144.751 370.523 143.02 369.005 141.225C368.257 140.327 368.364 139.002 369.241 138.254C370.138 137.506 371.464 137.613 372.212 138.489C373.645 140.178 375.184 141.845 376.766 143.426C377.578 144.238 377.6 145.585 376.766 146.397C376.381 146.782 375.911 146.974 375.419 147.017C374.82 147.059 374.243 146.846 373.794 146.418ZM362.207 131.971C360.946 129.983 359.748 127.932 358.679 125.858C358.145 124.833 358.53 123.55 359.577 123.016C360.603 122.482 361.886 122.888 362.421 123.914C363.447 125.88 364.58 127.846 365.777 129.727C366.397 130.71 366.119 132.014 365.136 132.633C364.815 132.826 364.494 132.933 364.152 132.954C363.383 132.997 362.634 132.655 362.207 131.971ZM354.062 115.344C353.271 113.142 352.565 110.877 351.966 108.611C351.667 107.479 352.33 106.346 353.463 106.047C354.575 105.748 355.729 106.41 356.028 107.543C356.606 109.701 357.268 111.86 358.017 113.954C358.401 115.044 357.846 116.263 356.734 116.647C356.542 116.711 356.349 116.754 356.157 116.775C355.259 116.797 354.382 116.263 354.062 115.344ZM349.786 97.3697C349.572 95.66 349.401 93.9289 349.294 92.1977C349.251 91.578 349.23 90.9582 349.187 90.3384C349.144 89.1843 350.021 88.1798 351.197 88.1584C352.351 88.1157 353.335 89.0133 353.377 90.1674C353.399 90.7658 353.442 91.3429 353.463 91.9413C353.57 93.5655 353.719 95.2326 353.933 96.8568C354.083 98.0109 353.249 99.0581 352.116 99.2077C352.073 99.2077 352.031 99.2077 351.988 99.2291C350.897 99.2718 349.914 98.4597 349.786 97.3697Z" fill="#91B3FA"/>
<path d="M484.601 153.001C485.028 152.979 485.435 152.83 485.777 152.552C486.674 151.847 487.551 151.099 488.428 150.329C489.304 149.56 489.39 148.235 488.62 147.359C487.85 146.482 486.525 146.397 485.648 147.166C484.815 147.893 483.981 148.598 483.126 149.261C482.228 149.987 482.078 151.312 482.805 152.21C483.275 152.766 483.938 153.043 484.601 153.001Z" fill="#91B3FA"/>
</g>
<path d="M488.577 117.139C488.812 116.797 488.812 116.348 488.577 116.006L481.651 106.239C483.788 101.067 485.114 95.5316 485.477 89.7826L495.996 84.0763C496.359 83.8839 496.573 83.4565 496.487 83.0504L494.136 68.8809C494.072 68.4748 493.751 68.1329 493.323 68.0687L481.522 66.0812C479.32 60.7809 476.263 55.9509 472.586 51.7406L476.006 40.2639C476.135 39.8578 475.985 39.4304 475.643 39.1739L463.97 30.8175C463.628 30.5824 463.179 30.5824 462.837 30.8175L453.067 37.742C447.893 35.6048 442.356 34.2797 436.605 33.9164L430.897 23.4014C430.705 23.0381 430.277 22.8244 429.871 22.9099L415.697 25.2608C415.291 25.3249 414.949 25.6455 414.884 26.0729L412.896 37.8702C407.594 40.0715 402.763 43.1277 398.551 46.8037L387.07 43.3842C386.664 43.256 386.237 43.4056 385.98 43.7475L377.621 55.4166C377.386 55.7585 377.386 56.2073 377.621 56.5493L384.548 66.3162C382.41 71.4882 381.084 77.0236 380.721 82.7726L370.203 88.4789C369.839 88.6712 369.625 89.0987 369.711 89.5048L372.063 103.674C372.127 104.08 372.447 104.422 372.875 104.486L384.676 106.474C386.878 111.774 389.935 116.604 393.612 120.815L390.192 132.291C390.064 132.697 390.213 133.125 390.555 133.381L402.228 141.738C402.57 141.973 403.019 141.973 403.361 141.738L413.131 134.813C418.305 136.95 423.842 138.275 429.593 138.639L435.301 149.154C435.494 149.517 435.921 149.731 436.327 149.645L450.501 147.294C450.908 147.23 451.25 146.91 451.314 146.482L453.302 134.685C458.604 132.484 463.436 129.427 467.647 125.752L479.128 129.171C479.534 129.299 479.962 129.15 480.218 128.808L488.577 117.139Z" fill="#91B3FA"/>
<path d="M431.923 100.682C423.992 100.02 418.07 93.031 418.733 85.102C419.053 81.2551 420.849 77.7715 423.799 75.2923C426.75 72.7918 430.47 71.595 434.318 71.9156C442.249 72.5781 448.171 79.5667 447.508 87.4957C446.91 94.7194 441.073 100.255 434.04 100.704C433.334 100.746 432.629 100.746 431.923 100.682ZM425.959 77.8569C423.692 79.759 422.324 82.4305 422.089 85.3799C421.576 91.4495 426.13 96.8138 432.201 97.3267C438.294 97.8397 443.639 93.2875 444.152 87.2178C444.665 81.1482 440.111 75.7839 434.04 75.2709C433.484 75.2282 432.949 75.2282 432.394 75.2496C430.021 75.4205 427.797 76.3182 425.959 77.8569Z" fill="#BDD0FB"/>
<path d="M435.066 121.52C436.263 121.434 437.482 121.306 438.7 121.114C439.085 121.05 439.47 120.986 439.834 120.9C441.693 120.537 443.532 120.003 445.307 119.361C445.328 119.361 445.349 119.34 445.371 119.34C445.435 119.319 445.499 119.297 445.584 119.255C445.713 119.212 445.841 119.148 445.991 119.105C446.333 118.977 446.546 118.635 446.525 118.271C446.525 118.186 446.504 118.1 446.461 118.015C446.29 117.588 445.798 117.374 445.371 117.545C443.147 118.421 440.817 119.062 438.423 119.468C426.6 121.435 415.184 116.968 407.701 108.654C403.554 104.038 400.625 98.2246 399.534 91.6421C399.342 90.488 399.214 89.3339 399.128 88.1798C398.636 80.4432 400.817 72.8348 405.392 66.4446C410.651 59.0926 418.455 54.2412 427.348 52.7666C445.755 49.7104 463.179 62.1916 466.236 80.5928C466.429 81.7255 466.557 82.8582 466.621 84.0123C466.942 88.9492 466.172 93.9075 464.355 98.5024C464.312 98.6307 464.291 98.7375 464.291 98.8658C464.312 99.1863 464.505 99.4642 464.825 99.5924C465.253 99.7634 465.745 99.5497 465.916 99.1222C467.818 94.2922 468.631 89.0988 468.31 83.9054C468.225 82.7086 468.096 81.5118 467.904 80.3149C464.697 61.0161 446.375 47.9151 427.07 51.1209C417.706 52.6811 409.518 57.7676 404.003 65.4828C399.192 72.1936 396.926 80.1867 397.439 88.308C397.525 89.5049 397.653 90.7231 397.845 91.9413C399.406 101.302 404.494 109.488 412.212 115.002C418.946 119.767 426.921 122.054 435.066 121.52Z" fill="#BDD0FB"/>
<g opacity="0.3">
<path d="M590.448 143.298C591.003 143.255 591.495 142.87 591.623 142.293C591.859 141.225 592.072 140.113 592.265 139.023C592.372 138.318 591.901 137.656 591.196 137.527C590.49 137.399 589.828 137.891 589.699 138.596C589.528 139.643 589.336 140.69 589.101 141.716C588.951 142.422 589.379 143.106 590.084 143.277C590.191 143.298 590.319 143.298 590.448 143.298Z" fill="#91B3FA"/>
<path d="M591.602 133.381C590.875 133.36 590.319 132.74 590.362 132.035C590.426 130.218 590.405 128.38 590.298 126.585C590.276 126.2 590.255 125.816 590.212 125.431C590.148 124.726 590.683 124.084 591.388 124.02C592.072 123.999 592.735 124.491 592.799 125.217C592.842 125.623 592.863 126.008 592.885 126.414C593.013 128.316 593.034 130.24 592.949 132.12C592.927 132.783 592.393 133.317 591.73 133.36C591.709 133.381 591.645 133.381 591.602 133.381ZM589.25 118.912C588.801 116.754 588.203 114.617 587.497 112.544C587.262 111.86 587.626 111.133 588.31 110.898C588.994 110.663 589.721 111.026 589.956 111.71C590.704 113.89 591.324 116.134 591.794 118.378C591.944 119.083 591.495 119.767 590.79 119.917C590.725 119.938 590.661 119.938 590.597 119.938C589.977 119.981 589.379 119.554 589.25 118.912ZM584.975 106.431C584.012 104.465 582.922 102.52 581.725 100.682C581.34 100.084 581.511 99.2717 582.11 98.887C582.708 98.5023 583.521 98.6733 583.906 99.2717C585.167 101.195 586.321 103.226 587.326 105.299C587.647 105.94 587.369 106.73 586.728 107.03C586.578 107.115 586.407 107.158 586.236 107.158C585.723 107.201 585.231 106.923 584.975 106.431ZM577.791 95.4034C576.38 93.7364 574.841 92.1121 573.238 90.6375C572.703 90.1459 572.682 89.3338 573.173 88.7995C573.665 88.2652 574.478 88.2438 575.012 88.7354C576.701 90.2955 578.304 91.9839 579.801 93.7364C580.271 94.2921 580.186 95.1042 579.651 95.5744C579.437 95.7667 579.159 95.8522 578.903 95.8736C578.454 95.8949 578.069 95.724 577.791 95.4034ZM568.107 86.4699C566.332 85.1876 564.451 84.0122 562.527 82.9436C561.907 82.6016 561.672 81.8109 562.014 81.1697C562.356 80.5499 563.147 80.3148 563.788 80.6568C565.798 81.7681 567.765 83.0077 569.646 84.3327C570.223 84.7602 570.351 85.5723 569.945 86.1494C569.71 86.4699 569.347 86.6623 568.962 86.6837C568.662 86.7264 568.363 86.6409 568.107 86.4699ZM556.562 80.1438C554.531 79.3317 552.415 78.6478 550.298 78.0921C549.614 77.9212 549.186 77.1945 549.357 76.5106C549.528 75.8267 550.255 75.3993 550.939 75.5703C553.163 76.1473 555.365 76.8739 557.524 77.7288C558.187 77.9853 558.507 78.7547 558.251 79.4172C558.059 79.9088 557.61 80.208 557.118 80.2293C556.926 80.2293 556.733 80.208 556.562 80.1438ZM543.799 76.8312C541.64 76.5534 539.416 76.4038 537.214 76.3824C536.487 76.3824 535.91 75.784 535.931 75.0787C535.931 74.3521 536.53 73.7964 537.236 73.7964C539.545 73.8178 541.875 73.9674 544.141 74.2666C544.846 74.3521 545.36 75.0146 545.253 75.7199C545.167 76.3396 544.654 76.8098 544.055 76.8526C543.97 76.8526 543.884 76.8526 543.799 76.8312ZM522.57 76.9594C522.399 76.2542 522.826 75.5489 523.532 75.3993C525.456 74.9291 527.444 74.5658 529.432 74.2879C529.732 74.2452 530.031 74.2025 530.33 74.1811C531.036 74.0742 531.698 74.6085 531.763 75.3138C531.848 76.0191 531.335 76.6816 530.629 76.7457C530.352 76.7671 530.074 76.8098 529.774 76.8526C527.872 77.109 525.969 77.451 524.13 77.8998C524.045 77.9212 523.981 77.9212 523.895 77.9425C523.297 77.9853 522.719 77.5792 522.57 76.9594Z" fill="#91B3FA"/>
</g>
<g opacity="0.3">
<path d="M539.63 185.978C537.364 186.085 535.076 186.063 532.831 185.914C532.126 185.871 531.57 185.251 531.634 184.524C531.677 183.798 532.318 183.285 533.024 183.328C535.162 183.477 537.364 183.499 539.523 183.392C540.25 183.349 540.849 183.905 540.891 184.631C540.891 185.337 540.357 185.935 539.63 185.978ZM544.889 184.182C544.761 183.477 545.253 182.793 545.958 182.686C548.096 182.323 550.212 181.832 552.286 181.212C552.97 181.019 553.697 181.404 553.911 182.088C554.125 182.772 553.719 183.499 553.034 183.712C550.875 184.353 548.63 184.888 546.407 185.272C546.364 185.272 546.322 185.294 546.257 185.294C545.595 185.294 544.996 184.824 544.889 184.182ZM526.076 185.016C523.852 184.589 521.629 184.011 519.491 183.306C518.807 183.092 518.443 182.344 518.657 181.661C518.871 180.977 519.619 180.613 520.303 180.827C522.356 181.49 524.472 182.045 526.589 182.451C527.294 182.58 527.743 183.263 527.615 183.969C527.508 184.567 526.995 184.973 526.418 185.016C526.29 185.059 526.183 185.037 526.076 185.016ZM557.695 180.656C557.417 179.994 557.716 179.224 558.358 178.946C560.346 178.07 562.27 177.087 564.13 175.976C564.75 175.612 565.541 175.805 565.905 176.424C566.268 177.044 566.076 177.835 565.456 178.198C563.51 179.352 561.479 180.4 559.405 181.319C559.256 181.383 559.106 181.425 558.956 181.425C558.443 181.468 557.93 181.169 557.695 180.656ZM513.142 180.806C511.089 179.844 509.08 178.754 507.155 177.557C506.557 177.172 506.364 176.382 506.749 175.762C507.134 175.142 507.925 174.971 508.545 175.356C510.384 176.489 512.286 177.536 514.253 178.455C514.895 178.754 515.194 179.523 514.873 180.186C514.659 180.635 514.232 180.913 513.783 180.934C513.569 180.934 513.355 180.913 513.142 180.806ZM501.618 173.625C499.844 172.193 498.155 170.654 496.594 169.051C496.103 168.538 496.103 167.705 496.616 167.213C497.129 166.722 497.963 166.722 498.454 167.235C499.951 168.773 501.576 170.248 503.265 171.594C503.82 172.043 503.906 172.855 503.457 173.432C503.222 173.732 502.88 173.881 502.516 173.924C502.196 173.924 501.875 173.838 501.618 173.625ZM492.148 163.879C490.779 162.084 489.497 160.182 488.363 158.216C488 157.596 488.214 156.805 488.834 156.442C489.454 156.078 490.245 156.292 490.608 156.912C491.699 158.771 492.917 160.588 494.221 162.298C494.649 162.875 494.542 163.687 493.965 164.114C493.751 164.285 493.516 164.371 493.259 164.371C492.832 164.435 492.404 164.242 492.148 163.879Z" fill="#91B3FA"/>
<path d="M570.437 174.629C570.693 174.607 570.929 174.522 571.142 174.351C572.019 173.667 572.896 172.962 573.708 172.235C574.242 171.765 574.307 170.931 573.836 170.397C573.366 169.863 572.553 169.799 571.998 170.269C571.207 170.953 570.394 171.637 569.539 172.278C568.962 172.727 568.876 173.539 569.304 174.094C569.603 174.479 570.031 174.65 570.437 174.629Z" fill="#91B3FA"/>
</g>
<path d="M573.9 150.137C574.071 149.902 574.071 149.602 573.9 149.367L569.261 142.828C570.693 139.365 571.57 135.668 571.827 131.821L578.86 128.017C579.117 127.889 579.245 127.611 579.202 127.333L577.62 117.865C577.577 117.587 577.364 117.374 577.086 117.331L569.197 115.984C567.722 112.437 565.691 109.21 563.211 106.388L565.498 98.716C565.584 98.4381 565.477 98.1603 565.242 97.9893L557.417 92.3899C557.182 92.2189 556.883 92.2189 556.648 92.3899L550.106 97.0276C546.642 95.5957 542.944 94.7194 539.096 94.463L535.29 87.4316C535.162 87.1751 534.884 87.0469 534.606 87.0896L525.135 88.6712C524.857 88.7139 524.643 88.9276 524.601 89.2055L523.254 97.0917C519.705 98.5664 516.477 100.597 513.655 103.076L505.98 100.789C505.702 100.704 505.424 100.81 505.253 101.045L499.652 108.868C499.481 109.103 499.481 109.402 499.652 109.637L504.291 116.177C502.858 119.639 501.982 123.336 501.725 127.183L494.692 130.988C494.435 131.116 494.307 131.394 494.35 131.671L495.932 141.139C495.974 141.417 496.188 141.631 496.466 141.674L504.355 143.02C505.83 146.568 507.861 149.795 510.341 152.616L508.054 160.288C507.968 160.566 508.075 160.844 508.31 161.015L516.135 166.615C516.37 166.785 516.669 166.785 516.904 166.615L523.446 161.977C526.91 163.409 530.608 164.285 534.456 164.541L538.262 171.573C538.39 171.829 538.668 171.957 538.946 171.915L548.417 170.333C548.695 170.29 548.908 170.077 548.951 169.799L550.298 161.913C553.847 160.438 557.075 158.408 559.897 155.929L567.572 158.215C567.85 158.301 568.128 158.194 568.299 157.959L573.9 150.137Z" fill="#E9EFFD"/>
<path d="M535.974 139.28C533.366 139.066 530.972 137.848 529.283 135.839C527.594 133.83 526.781 131.287 526.995 128.679C527.444 123.272 532.19 119.254 537.62 119.703C543.029 120.152 547.048 124.918 546.599 130.304C546.386 132.911 545.167 135.305 543.157 136.993C541.533 138.382 539.544 139.173 537.449 139.301C536.936 139.323 536.466 139.323 535.974 139.28ZM529.582 128.893C529.432 130.817 530.031 132.697 531.271 134.172C532.511 135.647 534.264 136.544 536.188 136.715C538.112 136.865 539.993 136.266 541.469 135.027C542.944 133.787 543.842 132.035 544.013 130.111C544.333 126.136 541.383 122.631 537.407 122.311C537.043 122.289 536.701 122.268 536.338 122.311C532.81 122.503 529.881 125.281 529.582 128.893Z" fill="#BDD0FB"/>
<path d="M538.155 153.791C538.967 153.749 539.801 153.642 540.635 153.514C542.281 153.236 543.906 152.808 545.445 152.21C545.509 152.189 545.595 152.146 545.659 152.124C546.193 151.911 546.514 151.376 546.471 150.842C546.471 150.714 546.428 150.564 546.386 150.436C546.129 149.774 545.36 149.453 544.697 149.709C543.243 150.286 541.746 150.693 540.207 150.949C540.122 150.97 540.036 150.97 539.951 150.992C536.316 151.569 532.66 151.205 529.283 149.987C527.444 149.325 525.691 148.427 524.045 147.273C524.023 147.273 524.023 147.252 524.002 147.252C523.959 147.23 523.917 147.188 523.874 147.166C519.128 143.768 515.964 138.724 515.023 132.954C514.895 132.206 514.809 131.458 514.766 130.71C514.446 125.709 515.857 120.772 518.807 116.626C522.206 111.881 527.252 108.718 533.024 107.778C538.796 106.816 544.59 108.162 549.336 111.561C554.082 114.959 557.246 120.002 558.187 125.773C558.315 126.5 558.401 127.248 558.443 127.974C558.636 131.18 558.144 134.386 556.968 137.356C556.904 137.549 556.861 137.72 556.883 137.912C556.904 138.404 557.225 138.853 557.695 139.045C558.358 139.301 559.127 138.981 559.384 138.318C560.71 134.984 561.265 131.394 561.03 127.825C560.987 126.991 560.881 126.179 560.752 125.345C559.683 118.891 556.156 113.249 550.832 109.445C545.509 105.641 539.031 104.123 532.575 105.213C526.119 106.282 520.475 109.808 516.669 115.13C513.355 119.767 511.773 125.281 512.137 130.881C512.18 131.714 512.286 132.548 512.415 133.381C514.531 145.862 525.776 154.582 538.155 153.791Z" fill="#BDD0FB"/>
<defs>
<linearGradient id="paint0_linear_221_1089" x1="397.88" y1="104.171" x2="467.322" y2="-56.1312" gradientUnits="userSpaceOnUse">
<stop stop-color="#09005D"/>
<stop offset="1" stop-color="#1A0F91"/>
</linearGradient>
<linearGradient id="paint1_linear_221_1089" x1="126.721" y1="305.862" x2="137.963" y2="275.152" gradientUnits="userSpaceOnUse">
<stop stop-color="#FEBBBA"/>
<stop offset="1" stop-color="#FF928E"/>
</linearGradient>
<linearGradient id="paint2_linear_221_1089" x1="154.369" y1="259.799" x2="87.3638" y2="313.184" gradientUnits="userSpaceOnUse">
<stop stop-color="#FEBBBA"/>
<stop offset="1" stop-color="#FF928E"/>
</linearGradient>
<linearGradient id="paint3_linear_221_1089" x1="147.623" y1="256.875" x2="114.647" y2="282.114" gradientUnits="userSpaceOnUse">
<stop stop-color="#FEBBBA"/>
<stop offset="1" stop-color="#FF928E"/>
</linearGradient>
<linearGradient id="paint4_linear_221_1089" x1="225.689" y1="273.543" x2="155.872" y2="333.872" gradientUnits="userSpaceOnUse">
<stop stop-color="#FEBBBA"/>
<stop offset="1" stop-color="#FF928E"/>
</linearGradient>
<linearGradient id="paint5_linear_221_1089" x1="227.145" y1="279.166" x2="159.185" y2="337.89" gradientUnits="userSpaceOnUse">
<stop stop-color="#FEBBBA"/>
<stop offset="1" stop-color="#FF928E"/>
</linearGradient>
<linearGradient id="paint6_linear_221_1089" x1="228.274" y1="276.535" x2="158.457" y2="336.863" gradientUnits="userSpaceOnUse">
<stop stop-color="#FEBBBA"/>
<stop offset="1" stop-color="#FF928E"/>
</linearGradient>
<linearGradient id="paint7_linear_221_1089" x1="159.352" y1="270.58" x2="436.297" y2="291.293" gradientUnits="userSpaceOnUse">
<stop stop-color="#FF9085"/>
<stop offset="1" stop-color="#FB6FBB"/>
</linearGradient>
<linearGradient id="paint8_linear_221_1089" x1="184.03" y1="326.014" x2="150.839" y2="491.64" gradientUnits="userSpaceOnUse">
<stop stop-color="#FEBBBA"/>
<stop offset="1" stop-color="#FF928E"/>
</linearGradient>
</defs>
</svg>
