<svg width="629" height="629" viewBox="0 0 629 629" fill="none" xmlns="http://www.w3.org/2000/svg">
<g clip-path="url(#clip0_221_1177)" filter="url(#filter0_d_221_1177)">
<path d="M553.798 534.165C541.188 547.45 529.25 556.008 519.82 562.774C408.974 642.328 277.835 619.141 249.95 613.473C208.783 605.116 129.226 588.941 71.7084 521.283C-15.3069 418.921 -1.75623 257.639 65.7282 151.178C78.0917 131.732 143.314 23.6357 275.864 6.31782C356.093 -4.16697 449.603 16.9818 517.334 73.7297C659.492 192.849 649.369 433.528 553.798 534.165Z" fill="#B7CAE7"/>
<path d="M174.133 408.84C174.133 408.84 176.037 328.748 139.148 307.308C102.259 285.868 32.1314 272.47 29.5109 157.451C27.9654 90.1066 26.308 60.6685 25.1881 47.8314C24.7626 42.813 29.1973 38.7804 34.1472 39.7213C69.0877 46.3079 182.555 73.3937 206.341 150.865C234.54 242.719 174.133 408.84 174.133 408.84Z" fill="#578AD6"/>
<path opacity="0.5" d="M61.1589 71.7134C99.5038 105.923 143.829 166.457 167.481 226.991C170.505 236.961 179.397 258.177 183.249 295.882C186.698 327.314 184.974 360.538 180.808 382.538C180.539 383.927 179.195 384.846 177.806 384.577C175.41 384.129 175.723 381.552 175.746 381.642C180.516 344.072 178.523 297.293 167.615 255.108C153.662 203.289 122.529 153.06 90.3431 110.449L87.0283 106.259C62.0996 74.2225 56.8361 73.9985 59.1655 71.7582C59.7254 71.2205 60.5989 71.2205 61.1589 71.7134Z" fill="white"/>
<path d="M233.398 562.841C238.392 565.283 186.161 499.596 169.788 396.406C162.083 347.791 161.971 286.853 134.288 263.375C111.24 243.839 32.8258 256.161 7.15797 260.865C3.9551 261.448 2.88 265.503 5.36615 267.609C17.6625 277.937 44.0023 302.334 50.856 326.911C59.9047 359.306 90.6792 379.895 118.251 385.473C145.822 391.052 161.143 396.451 174.581 440.541C187.997 484.631 219.22 555.896 233.398 562.841Z" fill="#B9CEED"/>
<path opacity="0.5" d="M43.2631 274.554C76.0086 275.921 111.151 290.864 128.979 318.89L130.659 321.556C134.556 327.829 156.573 372.39 168.825 409.333C168.982 409.803 168.735 410.296 168.265 410.453C167.481 410.722 167.1 409.848 167.167 409.938C158.634 389.058 146.405 362.599 136.639 342.817C126.18 321.22 118.855 306.591 95.0019 292.589C68.4606 277.511 43.0839 275.943 43.1511 275.965C42.7703 275.921 42.4792 275.585 42.524 275.204C42.5688 274.823 42.8823 274.532 43.2631 274.554Z" fill="white"/>
<path d="M211.022 571.489C213.979 573.057 194.336 539.228 192.835 509.431C191.335 479.635 184.615 428.779 158.925 398.378C133.235 367.954 105.103 365.176 69.6701 392.844C40.1274 415.875 21.6941 427.502 10.8984 429.675C8.23303 430.213 6.86677 433.237 8.16584 435.634C15.0867 448.404 34.6848 477.73 67.5871 475.647C109.56 473.003 160.403 445.738 175.903 468.5C191.402 491.262 189.408 503.987 189.879 514.786C190.349 525.562 191.424 561.161 211.022 571.489Z" fill="#578AD6"/>
<path opacity="0.5" d="M81.5632 429.361C94.4195 417.04 115.361 404.919 133.66 407.182C157.469 411.013 173.327 426.919 181.972 450.6C185.354 460.659 186.743 466.013 188.736 478.335C188.893 479.321 187.437 479.612 187.213 478.649C185.758 472.869 184.324 466.797 182.152 460.547C169.609 420.109 142.821 414.665 141.768 413.836C139.753 414.037 127.456 404.852 98.3392 420.512C92.8965 423.469 87.6106 426.852 82.6383 430.594L82.6159 430.616C82.2576 430.885 81.7424 430.818 81.4736 430.459C81.2273 430.101 81.2721 429.653 81.5632 429.361Z" fill="white"/>
<path d="M186.497 48.1674C172.61 49.3772 161.971 61.0045 161.949 74.9395C161.702 160.162 161.299 454.095 166.854 558.114C167.436 569.136 176.485 577.784 187.505 577.918C242.088 578.501 399.051 579.576 488.172 573.886C506.74 572.698 521.186 557.33 521.164 538.712C521.052 449.278 519.619 197.755 507.389 82.7807C505.911 69.0026 494.847 58.2489 481.05 57.1736C421.494 52.5361 263.433 41.4688 186.497 48.1674Z" fill="#244D89"/>
<path d="M183.831 97.2757C182.756 170.176 179.71 412.648 185.041 502.15C185.825 515.234 195.971 525.562 208.514 525.987C260.163 527.78 392.601 531.275 468.059 522.963C481.654 521.462 492.024 509.678 492.405 495.429C494.287 421.05 499.393 195.201 494.219 106.685C493.391 92.571 482.617 81.3021 469.089 80.3835C413.162 76.6198 269.57 67.9273 205.4 73.2593C193.35 74.2898 184.033 84.6626 183.831 97.2757Z" fill="#BACCE8"/>
<path d="M308.632 60.8477C308.676 62.864 310.289 64.477 312.305 64.5443C322.25 64.8355 350.247 65.7092 362.745 66.1573C365.208 66.2469 367.09 63.9842 366.575 61.5646C366.53 61.4974 366.216 58.3833 363.058 58.1817C354.592 57.5992 329.058 56.0086 312.193 56.9719C308.699 57.1735 308.497 61.1165 308.632 60.8477Z" fill="#BCCDE8"/>
<path d="M278.977 250.873C320.206 250.873 353.629 217.442 353.629 176.203C353.629 134.963 320.206 101.532 278.977 101.532C237.748 101.532 204.325 134.963 204.325 176.203C204.325 217.442 237.748 250.873 278.977 250.873Z" fill="white"/>
<mask id="mask0_221_1177" style="mask-type:luminance" maskUnits="userSpaceOnUse" x="224" y="104" width="134" height="134">
<path d="M338.096 218.466C364.065 192.49 364.065 150.375 338.096 124.4C312.127 98.4238 270.022 98.4239 244.053 124.4C218.084 150.375 218.084 192.49 244.053 218.466C270.022 244.442 312.127 244.442 338.096 218.466Z" fill="white"/>
</mask>
<g mask="url(#mask0_221_1177)">
<path d="M299.864 179.813C311.244 168.431 311.244 149.976 299.864 138.594C288.485 127.211 270.035 127.211 258.655 138.594C247.276 149.976 247.276 168.431 258.655 179.813C270.035 191.196 288.485 191.196 299.864 179.813Z" fill="#244D89"/>
</g>
<mask id="mask1_221_1177" style="mask-type:luminance" maskUnits="userSpaceOnUse" x="212" y="109" width="134" height="134">
<path d="M278.977 242.718C315.704 242.718 345.476 212.938 345.476 176.203C345.476 139.467 315.704 109.687 278.977 109.687C242.251 109.687 212.478 139.467 212.478 176.203C212.478 212.938 242.251 242.718 278.977 242.718Z" fill="white"/>
</mask>
<g mask="url(#mask1_221_1177)">
<path d="M235.01 246.729H327.849C333.538 246.729 336.943 239.38 333.896 233.757C326.012 219.307 309.505 198.091 280.948 199.054C253.399 199.973 237.093 219.15 228.873 232.883C225.379 238.731 228.918 246.729 235.01 246.729Z" fill="#244D89"/>
</g>
<g opacity="0.8">
<path d="M467.88 151.514L382.522 150.215C381.044 150.192 379.857 148.96 379.879 147.482L380.081 134.667C380.103 133.188 381.335 132.001 382.813 132.023L468.171 133.323C469.649 133.345 470.836 134.577 470.814 136.056L470.612 148.871C470.59 150.349 469.358 151.537 467.88 151.514Z" fill="white"/>
<path d="M467.342 188.749L381.984 187.449C380.506 187.427 379.319 186.195 379.341 184.716L379.543 171.901C379.565 170.423 380.797 169.235 382.275 169.258L467.633 170.557C469.112 170.579 470.299 171.812 470.276 173.29L470.075 186.105C470.052 187.584 468.82 188.771 467.342 188.749Z" fill="white"/>
<path d="M466.737 226.005L381.38 224.706C379.901 224.684 378.714 223.451 378.737 221.973L378.938 209.158C378.961 207.679 380.192 206.492 381.671 206.514L467.029 207.814C468.507 207.836 469.694 209.068 469.672 210.547L469.47 223.362C469.448 224.84 468.216 226.028 466.737 226.005Z" fill="white"/>
</g>
<path d="M392.892 94.632C392.601 94.52 392.377 94.2511 392.355 93.9375C392.265 92.8621 392.22 91.7868 392.175 90.7114C392.153 90.2633 392.511 89.9049 392.959 89.9049C394.057 89.8825 393.766 90.9802 393.967 93.8703C393.99 94.3184 393.654 94.6992 393.206 94.7216C393.116 94.6992 393.004 94.6768 392.892 94.632Z" fill="#BDD0FB"/>
<path d="M392.511 80.63C392.713 78.5913 393.004 76.5078 393.362 74.4914C393.43 74.0658 393.855 73.7745 394.303 73.8642C395.513 74.0882 394.729 74.7827 394.124 80.8092C394.079 81.2573 393.676 81.5709 393.228 81.5261C392.78 81.4589 392.467 81.0556 392.511 80.63ZM395.759 64.7236C396.386 62.7521 397.103 60.7582 397.842 58.8987C398.245 57.8905 399.746 58.5402 399.365 59.5036C398.604 61.363 397.932 63.2897 397.327 65.2164C397.192 65.6421 396.745 65.8661 396.319 65.7317C395.871 65.5973 395.625 65.1268 395.759 64.7236ZM402.21 49.8253C403.217 48.033 404.315 46.2632 405.48 44.5605C406.084 43.6868 407.428 44.5829 406.846 45.4566C405.726 47.1369 404.651 48.8619 403.643 50.6094C403.128 51.5504 401.694 50.7438 402.21 49.8253ZM411.751 37.7275C411.415 37.4362 411.37 36.9209 411.661 36.6073C413.028 35.0615 414.484 33.5604 415.962 32.1266C416.723 31.3873 417.866 32.5523 417.104 33.2692C415.648 34.6806 414.237 36.1592 412.893 37.6602C412.602 37.9963 412.087 38.0187 411.751 37.7275ZM423.532 26.705C423.263 26.3465 423.331 25.8537 423.689 25.5848C425.346 24.3526 427.093 23.1652 428.84 22.0675C429.736 21.5074 430.632 22.8516 429.736 23.4341C428.012 24.5094 426.31 25.6744 424.697 26.8842C424.316 27.1306 423.801 27.0634 423.532 26.705ZM437.822 18.707C437.62 18.6398 437.464 18.4829 437.374 18.3037C437.172 17.9004 437.352 17.43 437.755 17.2283C439.636 16.3546 441.585 15.5481 443.533 14.8312C443.959 14.6744 444.429 14.876 444.586 15.3017C444.743 15.7273 444.541 16.1754 444.116 16.3322C442.212 17.0491 440.308 17.8332 438.449 18.6846C438.248 18.7742 438.024 18.7742 437.822 18.707ZM453.209 13.4198C452.963 13.3302 452.761 13.1285 452.694 12.8597C452.582 12.434 452.851 11.9859 453.276 11.8963C455.315 11.4259 457.375 11.0226 459.458 10.709C459.906 10.6417 460.332 10.933 460.399 11.3811C460.466 11.8291 460.175 12.2324 459.727 12.2996C457.711 12.6132 455.673 12.9941 453.68 13.4646C453.523 13.487 453.366 13.4646 453.209 13.4198ZM468.888 10.5969C468.865 10.1489 469.224 9.79041 469.672 9.76801C471.755 9.7232 473.882 9.74561 475.988 9.83522C477.063 9.90243 476.996 11.4931 475.921 11.4259C473.86 11.3138 471.777 11.2914 469.739 11.3587C469.291 11.4035 468.91 11.045 468.888 10.5969ZM521.119 28.0044C516.237 24.2854 515.139 24.3302 515.811 23.3221C516.057 22.9636 516.55 22.8516 516.931 23.098C518.7 24.2406 520.425 25.4728 522.105 26.7498C522.956 27.3995 521.97 28.6765 521.119 28.0044ZM485.26 11.6723C485.328 11.2466 485.753 10.9554 486.201 11.0226C488.262 11.3811 490.345 11.8515 492.383 12.3668C493.436 12.6356 493.032 14.1815 492.002 13.9126C490.009 13.3974 487.971 12.9493 485.932 12.5908C485.484 12.5236 485.171 12.098 485.26 11.6723ZM507.255 19.4911C501.723 16.8251 500.648 17.0939 501.096 15.9738C501.387 15.2568 502.238 15.5257 502.148 15.5257C504.119 16.2874 506.068 17.1387 507.949 18.0573C508.352 18.2589 508.532 18.7294 508.33 19.1326C508.173 19.5135 507.703 19.7151 507.255 19.4911Z" fill="#BDD0FB"/>
<path d="M530.997 36.9434C529.115 34.9495 527.973 34.255 528.734 33.4933C529.048 33.1796 529.563 33.1796 529.877 33.4933C531.892 35.4872 532.9 36.2713 532.139 36.9882C531.915 37.2123 531.288 37.2795 530.997 36.9434Z" fill="#BDD0FB"/>
<path d="M552.79 95.3491C552.454 95.2371 552.23 94.9011 552.252 94.5426C552.319 93.4897 552.342 92.4143 552.364 91.3837C552.364 90.9357 552.745 90.5996 553.193 90.5996C553.641 90.622 553.999 90.9805 553.999 91.4285C553.977 92.5039 553.954 93.5793 553.887 94.6546C553.865 95.1027 553.484 95.4387 553.036 95.3939C552.946 95.3939 552.857 95.3939 552.79 95.3491Z" fill="#BDD0FB"/>
<path d="M442.861 162.671C440.756 161.82 438.673 160.857 436.657 159.826C436.254 159.625 436.097 159.132 436.299 158.751C436.859 157.653 437.329 158.684 443.466 161.193C443.892 161.372 444.093 161.842 443.914 162.246C443.623 162.94 442.749 162.671 442.861 162.671ZM452.761 165.203C453.075 163.993 453.791 164.912 460.264 166.077C460.712 166.144 461.004 166.57 460.936 167.018C460.869 167.443 460.444 167.735 459.996 167.667C457.778 167.264 455.538 166.794 453.344 166.211C452.918 166.054 452.649 165.606 452.761 165.203ZM427.161 154.158C425.302 152.881 423.465 151.492 421.718 150.058C421.36 149.767 421.315 149.274 421.606 148.938C422.412 147.975 422.636 149.095 428.079 152.859C428.46 153.105 428.549 153.62 428.28 153.979C428.034 154.315 427.519 154.405 427.161 154.158ZM470.747 168.765C470.433 168.653 470.209 168.339 470.209 167.981C470.231 167.533 470.59 167.197 471.038 167.219C473.255 167.309 475.495 167.309 477.69 167.219C478.138 167.197 478.519 167.533 478.541 167.981C478.563 168.429 478.227 168.788 477.779 168.81C475.54 168.9 473.233 168.9 470.993 168.81C470.903 168.81 470.814 168.81 470.747 168.765ZM488.306 167.555C488.06 167.466 487.836 167.242 487.791 166.95C487.702 166.525 487.993 166.099 488.441 166.01C490.613 165.629 492.786 165.136 494.914 164.553C495.339 164.441 495.787 164.688 495.922 165.113C496.056 165.539 495.787 165.987 495.362 166.099C493.189 166.682 490.972 167.174 488.754 167.578C488.598 167.623 488.441 167.623 488.306 167.555ZM505.105 162.582C504.903 162.515 504.724 162.358 504.634 162.156C504.455 161.753 504.634 161.282 505.06 161.103C507.076 160.252 509.092 159.311 511.04 158.303C511.443 158.101 511.936 158.258 512.138 158.639C512.362 159.02 512.205 159.513 511.802 159.714C509.831 160.745 507.77 161.708 505.709 162.582C505.53 162.671 505.306 162.671 505.105 162.582ZM520.38 154.113C520.246 154.068 520.111 153.956 519.999 153.822C519.73 153.464 519.82 152.971 520.178 152.702C521.948 151.447 523.695 150.081 525.375 148.669C525.711 148.378 526.226 148.423 526.517 148.759C526.808 149.095 526.786 149.61 526.45 149.879C524.748 151.313 522.978 152.702 521.141 153.979C520.895 154.181 520.626 154.203 520.38 154.113ZM533.079 142.396C532.116 141.567 533.259 141.411 537.156 136.191C537.783 135.339 539.105 136.303 538.477 137.154C537.156 138.924 535.722 140.671 534.244 142.329C533.931 142.665 533.415 142.688 533.079 142.396ZM543.248 128.372C542.128 127.767 543.181 127.364 545.824 121.427C546.249 120.463 547.75 121.113 547.324 122.076C546.429 124.093 545.443 126.109 544.368 128.058C544.122 128.439 543.629 128.573 543.248 128.372ZM549.923 112.421C549.519 112.264 549.295 111.838 549.43 111.435C550.035 109.329 550.55 107.201 550.953 105.072C551.043 104.647 551.468 104.355 551.916 104.445C552.364 104.535 552.655 104.96 552.566 105.386C552.14 107.559 551.625 109.732 550.998 111.86C550.886 112.286 550.438 112.533 549.99 112.398C549.967 112.443 549.945 112.443 549.923 112.421Z" fill="#BDD0FB"/>
<path d="M413.655 142.441C411.729 140.358 410.766 139.529 411.572 138.857C412.423 138.162 412.893 139.238 414.864 141.366C415.178 141.702 415.155 142.195 414.82 142.508C414.484 142.8 413.946 142.777 413.655 142.441Z" fill="#BDD0FB"/>
<path d="M422.569 122.188L434.149 120.754C437.687 124.899 441.898 128.551 446.714 131.486C447.162 142.665 446.4 143.471 447.61 143.875L460.959 148.333C461.339 148.467 461.787 148.333 462.034 148.019L469.067 138.946C474.666 139.484 480.221 139.103 485.529 137.893L493.951 146.003C494.242 146.294 494.69 146.361 495.048 146.182L507.546 140.089C507.904 139.909 508.128 139.528 508.061 139.125L506.426 127.722C510.592 124.317 514.243 120.217 517.132 115.534L528.824 115.49C529.227 115.49 529.585 115.221 529.72 114.84L534.043 101.779C534.177 101.398 534.043 100.972 533.707 100.726L524.367 93.6687C524.837 88.1574 524.367 82.691 523.045 77.471C530.795 69.3386 531.892 69.3162 531.332 68.2184C524.859 56.1878 525.218 55.1572 523.964 55.314L512.384 56.7478C508.845 52.6032 504.634 48.9515 499.819 46.0166C499.371 34.8597 500.132 34.0308 498.923 33.6275C485.574 29.4381 485.26 28.5196 484.499 29.4829L477.466 38.5563C471.866 38.0186 466.312 38.3995 461.004 39.6092C452.716 31.9473 452.604 30.7823 451.462 31.32C439.211 37.5705 438.27 37.1449 438.449 38.3771L440.084 49.7804C435.918 53.1857 432.267 57.2855 429.378 61.9678C418.224 62.2367 417.194 61.4526 416.79 62.6623C412.736 75.6563 411.796 76.0148 412.804 76.7765L422.143 83.8336C421.673 89.3448 422.143 94.7888 423.465 100.031C415.738 108.141 414.618 108.164 415.178 109.284C421.673 121.314 421.292 122.345 422.569 122.188Z" fill="#578AD6"/>
<path d="M459.593 87.6423C460.085 80.2491 466.625 74.7155 474.151 75.3204C481.677 75.9253 487.411 82.4223 486.895 89.8154C486.403 97.2085 479.862 102.742 472.337 102.137C464.834 101.532 459.1 95.0354 459.593 87.6423ZM473.994 77.7175C467.88 77.2247 462.459 81.6829 462.034 87.8439C461.631 93.9152 466.334 99.2696 472.516 99.7625C478.698 100.255 484.051 95.7075 484.476 89.6362C484.88 83.5424 480.176 78.2104 473.994 77.7175Z" fill="white"/>
<path d="M461.339 120.754C459.436 120.037 457.599 119.164 455.874 118.156C455.359 117.842 455.135 117.237 455.337 116.699C455.359 116.632 455.382 116.565 455.426 116.52C455.762 115.96 456.524 115.758 457.106 116.117C459.1 117.282 461.25 118.245 463.467 118.984C480.154 124.54 498.117 116.139 504.142 100.188C504.298 99.7847 504.433 99.3591 504.59 98.9558C510.167 82.1084 500.692 63.9393 483.603 58.2264C466.536 52.5359 448.058 61.4525 442.503 78.2551C439.188 88.2694 442.077 94.968 441.697 95.9986C441.271 97.1187 439.636 96.9843 439.367 95.8193C437.889 89.4792 438.203 82.6237 440.666 76.1491C451.216 48.2121 490.972 46.5094 504.813 73.3711C509.069 81.638 509.831 91.0026 506.941 99.7175C506.784 100.166 506.628 100.614 506.471 101.062C503.402 109.172 497.445 115.691 489.516 119.545C481.161 123.622 471.665 124.204 462.751 121.247C462.235 121.09 461.787 120.911 461.339 120.754Z" fill="white"/>
<path d="M558.994 62.7297C561.122 64.9028 563.608 66.7623 566.407 68.1961L566.99 74.6931C567.057 75.41 567.662 75.0964 574.986 77.0455C575.658 77.2023 575.546 76.5974 579.107 71.3326C582.243 71.3774 585.311 70.8845 588.2 69.9436L593.218 74.1106C593.777 74.5811 593.957 73.9314 600.542 70.1004C600.743 69.9884 600.833 69.7419 600.788 69.5403L599.422 63.1553C601.594 61.027 603.453 58.5402 604.887 55.7398C611.069 55.0453 611.673 55.4262 611.852 54.7541C613.577 47.2041 614.092 46.9577 613.487 46.5768L608.022 43.0371C608.067 39.9006 607.575 36.8313 606.634 33.9413L610.8 28.9229C611.27 28.3629 610.621 28.1836 606.791 21.597C606.432 20.9921 606.096 21.5074 599.847 22.7172C597.719 20.5441 595.233 18.6846 592.434 17.2508L591.851 10.7538C591.784 10.0369 591.179 10.3505 583.855 8.40142C583.183 8.24459 583.318 8.82708 579.734 14.1143C576.598 14.0695 573.53 14.5624 570.641 15.5033L565.623 11.3363C565.444 11.1794 565.198 11.1794 564.996 11.2915L558.299 15.3465C558.098 15.4585 558.008 15.7049 558.053 15.929L559.419 22.3139C557.247 24.4423 555.388 26.929 553.954 29.7295C547.772 30.424 547.168 30.0431 546.989 30.7152C545.264 38.2652 544.749 38.5116 545.354 38.8925L550.819 42.4322C550.774 45.5687 551.267 48.6379 552.207 51.528C548.31 56.3895 547.616 56.5463 547.996 57.1512L552.05 63.8498C552.409 64.4547 552.767 63.9395 558.994 62.7297Z" fill="#578AD6"/>
<path d="M571.245 42.7681C571.223 38.265 574.851 34.5908 579.353 34.546C583.855 34.5236 587.529 38.1529 587.573 42.656C587.596 47.1591 583.967 50.8333 579.465 50.8781C574.963 50.9229 571.29 47.2711 571.245 42.7681ZM573.687 42.7681C573.709 45.9269 576.285 48.4809 579.443 48.4585C584.527 48.4361 587.058 42.2304 583.43 38.6458C579.846 35.0837 573.664 37.6601 573.687 42.7681Z" fill="white"/>
<path d="M539.418 57.8009C539.037 56.7703 538.679 55.7174 538.365 54.6644C538.231 54.2388 538.477 53.7907 538.925 53.6563C540.001 53.3426 539.933 54.5748 540.941 57.2184C541.098 57.6441 540.896 58.1145 540.471 58.2714C540.045 58.4282 539.575 58.2266 539.418 57.8009Z" fill="#BDD0FB"/>
<path d="M536.686 43.9555C536.618 41.8048 536.73 39.542 537.022 37.2793C537.156 36.2039 538.769 36.428 538.634 37.4809C537.895 43.3506 538.881 44.6948 537.537 44.7396C537.066 44.762 536.708 44.4036 536.686 43.9555ZM540.202 27.8475C539.777 27.6906 539.575 27.1978 539.754 26.7945C540.583 24.7334 541.591 22.7171 542.733 20.8128C543.293 19.8942 544.682 20.7232 544.122 21.6417C543.024 23.4788 542.061 25.4279 541.255 27.3994C540.964 28.1163 540.09 27.8475 540.202 27.8475ZM549.699 13.5989C549.587 13.5541 549.497 13.4869 549.408 13.4197C549.094 13.106 549.094 12.5907 549.408 12.2771C550.998 10.7088 552.7 9.27503 554.514 7.97563C554.873 7.70679 555.388 7.79641 555.657 8.15486C555.925 8.51331 555.836 9.02859 555.477 9.29743C553.73 10.552 552.095 11.941 550.572 13.4421C550.303 13.6661 549.967 13.7109 549.699 13.5989ZM564.056 4.32388C563.854 4.23426 563.675 4.07744 563.585 3.85341C563.429 3.42774 563.63 2.95727 564.056 2.80045C566.139 1.99392 568.289 1.36663 570.461 0.896156C570.909 0.806542 571.335 1.07538 571.425 1.52345C571.514 1.97152 571.245 2.39718 570.797 2.4868C568.714 2.93487 566.631 3.53976 564.638 4.32388C564.436 4.39109 564.235 4.39109 564.056 4.32388ZM580.406 0.784139C580.428 0.33607 580.809 -0.022384 581.257 1.9361e-05C583.475 0.089633 585.714 0.358474 587.887 0.806542C588.94 1.00817 588.626 2.59881 587.573 2.39718C585.49 1.97152 583.34 1.72508 581.19 1.63547C580.72 1.59066 580.384 1.2098 580.406 0.784139Z" fill="#BDD0FB"/>
<path d="M600.273 7.25869C597.719 5.75766 596.622 5.64564 597.092 4.65989C597.294 4.25663 597.764 4.07741 598.167 4.27904C599.153 4.74951 600.138 5.28719 601.079 5.84727C601.46 6.07131 601.594 6.56418 601.37 6.96744C601.169 7.3483 600.676 7.48272 600.273 7.25869Z" fill="#BDD0FB"/>
<path d="M619.737 34.6134C619.154 31.6785 618.505 30.8272 619.557 30.5136C619.983 30.4015 620.431 30.648 620.565 31.0736C620.857 32.1266 621.125 33.202 621.349 34.2773C621.439 34.7254 621.148 35.1511 620.722 35.2407C620.274 35.3303 619.826 35.039 619.737 34.6134Z" fill="#BDD0FB"/>
<path d="M568.266 83.184C568.602 81.8846 569.655 83.1168 575.478 83.6769C576.554 83.7665 576.397 85.4019 575.322 85.2899C573.149 85.0883 570.954 84.7074 568.849 84.1697C568.423 84.0577 568.154 83.6096 568.266 83.184ZM585.042 84.3042C584.975 83.8561 585.289 83.4528 585.714 83.3856C591.56 82.4895 592.478 81.1901 592.882 82.4671C593.016 82.8927 592.792 83.3408 592.344 83.4752C590.261 84.1473 588.111 84.6402 585.938 84.9763C585.535 85.0435 585.11 84.7522 585.042 84.3042ZM600.922 78.7481C600.206 77.6055 601.818 77.7176 606.275 73.8866C607.082 73.1921 608.157 74.4243 607.328 75.1188C605.671 76.5526 603.901 77.852 602.042 79.017C601.661 79.241 601.169 79.129 600.922 78.7481ZM613.353 67.3896C612.233 66.6055 613.779 66.0902 616.377 60.8254C616.847 59.862 618.303 60.579 617.833 61.5423C616.87 63.5138 615.75 65.4181 614.495 67.2104C614.227 67.5688 613.711 67.6584 613.353 67.3896ZM619.692 51.1247C620.901 45.3446 619.983 44.0228 621.349 44.09C621.797 44.1124 622.133 44.4933 622.111 44.9414C621.999 47.1369 621.707 49.3324 621.282 51.4608C621.192 51.9088 620.767 52.1777 620.319 52.0881C619.871 51.976 619.602 51.5504 619.692 51.1247Z" fill="#BDD0FB"/>
<path d="M558.882 80.2266C557.919 79.6889 556.956 79.1288 556.037 78.524C555.657 78.2775 555.567 77.7846 555.813 77.4038C556.44 76.4628 557.18 77.4486 559.666 78.8152C560.069 79.0392 560.203 79.5321 559.979 79.913C559.778 80.3162 559.285 80.4506 558.882 80.2266Z" fill="#BDD0FB"/>
<path d="M570.775 60.7132C570.081 60.3772 569.902 59.6379 570.17 59.0554C570.461 58.4505 571.201 58.2041 571.805 58.4953C572.925 59.033 574.112 59.481 575.344 59.7723C575.613 59.7947 581.952 61.811 588.716 57.7336C602.11 49.6236 599.019 29.214 583.788 25.4727C575.031 23.3219 566.161 28.1387 563.048 36.3831C559.912 44.6724 564.392 48.5706 561.883 49.3323C561.234 49.5339 560.562 49.1755 560.36 48.5258C559.285 45.0533 559.195 41.3567 560.069 37.817C562.712 27.0857 573.597 20.4543 584.37 23.0979C595.973 25.9431 602.647 38.3546 598.347 49.758C594.875 58.9434 584.908 64.6338 574.762 62.1246C573.373 61.811 572.029 61.3181 570.775 60.7132Z" fill="white"/>
<path d="M391.906 506.832H299.045C295.999 506.832 293.513 504.345 293.513 501.299V474.885C293.513 471.838 295.999 469.351 299.045 469.351H391.906C394.953 469.351 397.439 471.838 397.439 474.885V501.299C397.416 504.345 394.93 506.832 391.906 506.832Z" fill="#244D89"/>
<g opacity="0.8">
<path d="M461.429 333.721H251.921C250.263 333.721 248.897 332.354 248.897 330.697V316.134C248.897 314.476 250.263 313.11 251.921 313.11H461.429C463.087 313.11 464.453 314.476 464.453 316.134V330.697C464.453 332.354 463.087 333.721 461.429 333.721Z" fill="white"/>
<path d="M221.236 335.849C228.138 335.849 233.734 330.252 233.734 323.348C233.734 316.444 228.138 310.847 221.236 310.847C214.333 310.847 208.738 316.444 208.738 323.348C208.738 330.252 214.333 335.849 221.236 335.849Z" fill="white"/>
<path d="M461.429 372.434H251.921C250.263 372.434 248.897 371.068 248.897 369.41V354.847C248.897 353.19 250.263 351.823 251.921 351.823H461.429C463.087 351.823 464.453 353.19 464.453 354.847V369.41C464.453 371.068 463.087 372.434 461.429 372.434Z" fill="white"/>
<path d="M226.033 373.615C232.41 370.973 235.438 363.66 232.797 357.281C230.155 350.902 222.844 347.873 216.467 350.516C210.09 353.158 207.062 360.471 209.703 366.85C212.345 373.228 219.656 376.257 226.033 373.615Z" fill="white"/>
<path d="M461.429 411.125H251.921C250.263 411.125 248.897 409.758 248.897 408.1V393.538C248.897 391.88 250.263 390.514 251.921 390.514H461.429C463.087 390.514 464.453 391.88 464.453 393.538V408.1C464.453 409.758 463.087 411.125 461.429 411.125Z" fill="white"/>
<path d="M221.236 413.253C228.138 413.253 233.734 407.656 233.734 400.752C233.734 393.848 228.138 388.251 221.236 388.251C214.333 388.251 208.738 393.848 208.738 400.752C208.738 407.656 214.333 413.253 221.236 413.253Z" fill="white"/>
<path d="M461.429 449.838H251.921C250.263 449.838 248.897 448.471 248.897 446.813V432.251C248.897 430.593 250.263 429.227 251.921 429.227H461.429C463.087 429.227 464.453 430.593 464.453 432.251V446.813C464.453 448.471 463.087 449.838 461.429 449.838Z" fill="white"/>
<path d="M226.033 451.021C232.41 448.378 235.439 441.065 232.797 434.687C230.156 428.308 222.844 425.279 216.467 427.921C210.09 430.563 207.062 437.876 209.703 444.255C212.345 450.634 219.656 453.663 226.033 451.021Z" fill="white"/>
</g>
<path d="M152.049 132.494L147.861 135.742C147.569 135.966 147.121 135.921 146.898 135.63C146.674 135.339 146.718 134.891 147.009 134.667L151.287 131.486C151.579 131.284 151.959 131.329 152.183 131.62C152.385 131.889 152.34 132.27 152.049 132.494Z" fill="white"/>
<path d="M137.401 144.435C134.758 146.742 132.137 149.117 129.584 151.537C129.226 151.873 128.643 151.85 128.307 151.492C127.971 151.133 127.994 150.551 128.352 150.215C130.973 147.818 133.638 145.488 136.348 143.203C136.684 142.911 137.199 142.956 137.491 143.292C137.782 143.628 137.737 144.144 137.401 144.435Z" fill="white"/>
<path d="M119.908 161.058C117.467 163.59 115.048 166.166 112.696 168.787C112.293 169.235 111.621 169.258 111.195 168.877C110.748 168.474 110.725 167.801 111.106 167.376C113.502 164.777 115.966 162.223 118.475 159.691C118.856 159.311 119.483 159.311 119.886 159.691C120.289 160.05 120.289 160.677 119.908 161.058Z" fill="white"/>
<path d="M103.871 179.07C101.654 181.804 99.4815 184.559 97.3537 187.36C96.9505 187.897 96.1666 188.009 95.6291 187.606C95.0915 187.203 94.9795 186.419 95.3827 185.881C95.3827 185.881 95.3827 185.881 95.3827 185.859C97.5553 183.058 99.795 180.303 102.08 177.569C102.483 177.076 103.222 177.009 103.715 177.435C104.207 177.861 104.275 178.578 103.871 179.07Z" fill="white"/>
<path d="M89.4473 198.404C87.4763 201.317 85.5501 204.252 83.6911 207.231C83.2879 207.881 82.4144 208.083 81.7649 207.679C81.1154 207.276 80.9138 206.402 81.3169 205.753V205.73C83.2431 202.751 85.2141 199.793 87.2523 196.881C87.6779 196.276 88.5066 196.142 89.1113 196.545C89.7161 196.971 89.8505 197.8 89.4473 198.404Z" fill="white"/>
<path d="M76.815 218.904C75.1128 221.973 73.4553 225.087 71.8875 228.223C71.5067 228.985 70.5884 229.276 69.8493 228.896C69.0878 228.515 68.7966 227.596 69.1773 226.857V226.834C70.8124 223.676 72.4922 220.539 74.2392 217.447C74.6424 216.73 75.5383 216.484 76.255 216.887C76.9494 217.291 77.2181 218.187 76.815 218.904Z" fill="white"/>
<path d="M66.1313 240.478C64.7202 243.704 63.3988 246.953 62.1221 250.224C61.8085 251.053 60.8678 251.478 60.0167 251.165C59.188 250.851 58.7624 249.91 59.076 249.059V249.036C60.3751 245.72 61.7637 242.45 63.2196 239.201C63.578 238.395 64.5187 238.036 65.3026 238.395C66.1089 238.753 66.4673 239.672 66.1313 240.478Z" fill="white"/>
<path d="M57.5977 262.971C56.5226 266.309 55.5147 269.67 54.574 273.053C54.3276 273.971 53.3645 274.509 52.4462 274.262C51.5279 274.016 50.9904 273.053 51.2367 272.134V272.112C52.1998 268.684 53.2525 265.279 54.3724 261.918C54.6636 261.044 55.6267 260.551 56.5002 260.843C57.4185 261.134 57.8889 262.097 57.5977 262.971Z" fill="white"/>
<path d="M51.3712 286.181C50.632 289.609 49.9825 293.059 49.3778 296.509C49.1986 297.495 48.2579 298.167 47.2724 298.01C46.2869 297.831 45.6149 296.89 45.7717 295.904V295.882C46.3989 292.387 47.0932 288.892 47.8771 285.419C48.1011 284.456 49.0418 283.851 50.0049 284.075C50.968 284.277 51.5727 285.24 51.3712 286.181Z" fill="white"/>
<path d="M47.6084 309.906C47.25 313.401 46.9364 316.896 46.6901 320.391C46.6229 321.444 45.7046 322.251 44.6295 322.183C43.5768 322.116 42.7705 321.198 42.8377 320.122V320.1C43.1064 316.56 43.4424 313.02 43.8456 309.481C43.9575 308.45 44.8982 307.711 45.9285 307.823C46.9812 307.957 47.7204 308.876 47.6084 309.906Z" fill="white"/>
<path d="M46.0405 333.923C45.9285 337.44 45.9061 340.935 45.9061 344.452C45.9061 345.572 44.9878 346.469 43.8903 346.469C42.7704 346.469 41.8745 345.55 41.8745 344.452C41.8745 340.89 41.9641 337.35 42.0985 333.788C42.1433 332.691 43.0616 331.839 44.1591 331.884C45.2118 331.929 46.0629 332.847 46.0405 333.923Z" fill="white"/>
<path d="M46.1749 358.006C46.3317 361.524 46.5333 365.019 46.802 368.514C46.8916 369.656 46.0405 370.642 44.8982 370.732C43.7559 370.821 42.7704 369.97 42.6808 368.827C42.4121 365.288 42.2329 361.725 42.0761 358.186C42.0313 357.065 42.9048 356.102 44.0471 356.057C45.167 356.013 46.1301 356.886 46.1749 358.006Z" fill="white"/>
<path d="M48.1235 381.978C48.549 385.451 49.0418 388.923 49.6017 392.396C49.7809 393.538 49.0194 394.614 47.8771 394.793C46.7348 394.972 45.6597 394.21 45.4805 393.068C44.9206 389.55 44.4279 386.033 44.0023 382.493C43.8679 381.351 44.6742 380.32 45.8165 380.186C46.9588 380.029 47.9891 380.835 48.1235 381.978Z" fill="white"/>
<path d="M52.1327 405.658C52.8718 409.086 53.7005 412.491 54.5964 415.874C54.91 417.017 54.2156 418.182 53.0958 418.473C51.9535 418.787 50.7888 418.092 50.4976 416.972C49.5793 413.522 48.7506 410.049 48.0115 406.577C47.7651 405.434 48.4818 404.314 49.6241 404.068C50.7664 403.799 51.8863 404.516 52.1327 405.658Z" fill="white"/>
<path d="M58.4936 428.779C59.6135 432.094 60.8006 435.365 62.0996 438.614C62.5476 439.712 62.01 440.989 60.8902 441.414C59.7927 441.862 58.516 441.325 58.0904 440.205C56.769 436.889 55.5595 433.528 54.4396 430.145C54.0588 429.025 54.6636 427.815 55.8059 427.435C56.9482 427.054 58.1128 427.659 58.4936 428.779Z" fill="white"/>
<path d="M67.5423 450.936C69.0654 454.072 70.7004 457.164 72.425 460.188C73.0298 461.241 72.649 462.586 71.5963 463.168C70.5436 463.773 69.1997 463.392 68.6174 462.339C66.848 459.225 65.1905 456.044 63.6451 452.818C63.13 451.742 63.5779 450.443 64.653 449.905C65.7057 449.412 67.0048 449.86 67.5423 450.936Z" fill="white"/>
<path d="M79.5475 471.569C81.5185 474.437 83.6015 477.237 85.7741 479.948C86.5356 480.911 86.3788 482.3 85.4381 483.085C84.475 483.846 83.0863 483.689 82.3024 482.749C80.0626 479.948 77.9348 477.058 75.8966 474.101C75.2023 473.093 75.4711 471.726 76.479 471.032C77.4869 470.315 78.8531 470.561 79.5475 471.569Z" fill="white"/>
<path d="M94.6436 490.007C97.0626 492.494 99.5935 494.891 102.192 497.199C103.132 498.028 103.222 499.461 102.393 500.38C101.565 501.321 100.131 501.411 99.2128 500.582C96.525 498.207 93.9269 495.72 91.4407 493.121C90.5896 492.225 90.612 490.814 91.4855 489.94C92.3591 489.089 93.7925 489.111 94.6436 490.007Z" fill="white"/>
<path d="M112.651 505.555C114.062 506.586 115.474 507.572 116.929 508.535C118.363 509.521 119.841 510.417 121.319 511.358L121.387 511.403C122.439 512.075 122.73 513.464 122.058 514.517C121.387 515.57 119.998 515.883 118.945 515.189C117.422 514.226 115.899 513.285 114.398 512.299C112.898 511.313 111.42 510.282 109.964 509.23C108.933 508.49 108.709 507.079 109.449 506.048C110.21 505.04 111.621 504.816 112.651 505.555Z" fill="white"/>
<path d="M133.056 517.855C136.169 519.378 139.35 520.812 142.575 522.089C143.717 522.537 144.255 523.836 143.807 524.957C143.359 526.099 142.082 526.637 140.94 526.189C137.603 524.867 134.31 523.411 131.085 521.843C129.965 521.305 129.517 519.961 130.054 518.863C130.592 517.765 131.936 517.317 133.056 517.855Z" fill="white"/>
<path d="M155.252 526.502C158.589 527.488 161.971 528.362 165.353 529.101C166.518 529.37 167.257 530.513 167.011 531.678C166.742 532.843 165.6 533.582 164.435 533.336C160.941 532.574 157.469 531.7 154.02 530.692C152.855 530.356 152.206 529.146 152.542 527.981C152.855 526.816 154.065 526.166 155.252 526.502Z" fill="white"/>
<path d="M178.59 531.431C182.04 531.902 185.511 532.238 189.005 532.484C190.17 532.574 191.043 533.582 190.976 534.747C190.887 535.912 189.879 536.808 188.714 536.718C185.153 536.472 181.592 536.136 178.03 535.665C176.866 535.509 176.037 534.433 176.171 533.268C176.328 532.103 177.403 531.297 178.59 531.431Z" fill="white"/>
<path d="M202.466 532.955C205.96 532.955 209.454 532.843 212.948 532.641C214.091 532.574 215.076 533.448 215.143 534.59C215.211 535.733 214.337 536.719 213.195 536.786C209.634 536.987 206.072 537.122 202.489 537.144C201.324 537.144 200.383 536.226 200.383 535.061C200.361 533.896 201.302 532.955 202.466 532.955Z" fill="white"/>
<path d="M226.387 531.454C229.859 531.05 233.33 530.557 236.78 529.975C237.877 529.796 238.93 530.535 239.109 531.655C239.288 532.753 238.549 533.806 237.452 533.985C233.935 534.568 230.419 535.083 226.88 535.531C225.76 535.665 224.73 534.859 224.595 533.739C224.461 532.619 225.245 531.588 226.387 531.454Z" fill="white"/>
<path d="M250.062 527.466C253.488 526.726 256.893 525.92 260.297 525.046C261.328 524.777 262.358 525.405 262.627 526.413C262.895 527.421 262.291 528.452 261.283 528.743C257.856 529.661 254.384 530.513 250.935 531.319C249.882 531.566 248.807 530.894 248.583 529.841C248.315 528.765 248.986 527.712 250.062 527.466Z" fill="white"/>
<path d="M273.333 521.372C276.693 520.341 280.03 519.266 283.345 518.124C284.263 517.81 285.271 518.303 285.607 519.221C285.92 520.14 285.45 521.148 284.532 521.462C281.194 522.649 277.812 523.792 274.43 524.867C273.467 525.181 272.437 524.643 272.123 523.68C271.81 522.716 272.347 521.686 273.333 521.372Z" fill="white"/>
<path d="M296.067 513.441C299.337 512.164 302.584 510.82 305.81 509.431C306.638 509.073 307.601 509.453 307.96 510.282C308.318 511.111 307.937 512.052 307.109 512.433C303.861 513.867 300.591 515.256 297.298 516.578C296.425 516.936 295.439 516.51 295.081 515.637C294.767 514.785 295.193 513.8 296.067 513.441Z" fill="white"/>
<path d="M318.173 503.83C321.354 502.307 324.489 500.739 327.603 499.103C328.342 498.722 329.238 499.014 329.618 499.753C329.999 500.492 329.708 501.388 328.991 501.769C325.856 503.427 322.72 505.062 319.517 506.631C318.755 507.012 317.815 506.698 317.434 505.914C317.053 505.152 317.389 504.211 318.173 503.83Z" fill="white"/>
<path d="M339.451 492.561C342.475 490.791 345.476 488.954 348.432 487.05C349.037 486.669 349.843 486.826 350.247 487.431C350.627 488.036 350.471 488.82 349.866 489.223C346.909 491.195 343.93 493.121 340.884 494.958C340.212 495.362 339.361 495.16 338.958 494.488C338.577 493.838 338.779 492.965 339.451 492.561Z" fill="white"/>
<path d="M359.654 479.41C362.498 477.349 365.32 475.243 368.075 473.048C368.546 472.667 369.24 472.757 369.598 473.227C369.957 473.698 369.89 474.37 369.442 474.751C366.687 476.991 363.909 479.186 361.065 481.315C360.55 481.718 359.811 481.606 359.407 481.068C359.004 480.553 359.094 479.814 359.654 479.41C359.631 479.41 359.631 479.41 359.654 479.41Z" fill="white"/>
<path d="M378.513 464.378C381.156 462.07 383.754 459.673 386.329 457.276C386.688 456.94 387.225 456.962 387.561 457.321C387.875 457.657 387.875 458.194 387.539 458.53C385.03 461.017 382.432 463.459 379.812 465.834C379.409 466.192 378.804 466.17 378.445 465.767C378.065 465.363 378.109 464.759 378.513 464.378Z" fill="white"/>
<path d="M395.961 447.687L399.589 443.811C399.835 443.565 400.238 443.543 400.485 443.789C400.731 444.035 400.754 444.416 400.53 444.685L396.968 448.651C396.7 448.942 396.274 448.964 395.983 448.695C395.714 448.449 395.692 448.001 395.961 447.687C395.961 447.71 395.961 447.71 395.961 447.687Z" fill="white"/>
<path d="M376.25 293.417H211.918C210.44 293.417 209.23 292.208 209.23 290.729V275.472C209.23 273.994 210.44 272.784 211.918 272.784H376.25C377.729 272.784 378.938 273.994 378.938 275.472V290.729C378.938 292.208 377.729 293.417 376.25 293.417Z" fill="white"/>
</g>
<defs>
<filter id="filter0_d_221_1177" x="0" y="0" width="629" height="629" filterUnits="userSpaceOnUse" color-interpolation-filters="sRGB">
<feFlood flood-opacity="0" result="BackgroundImageFix"/>
<feColorMatrix in="SourceAlpha" type="matrix" values="0 0 0 0 0 0 0 0 0 0 0 0 0 0 0 0 0 0 127 0" result="hardAlpha"/>
<feOffset dy="4"/>
<feGaussianBlur stdDeviation="2"/>
<feComposite in2="hardAlpha" operator="out"/>
<feColorMatrix type="matrix" values="0 0 0 0 0 0 0 0 0 0 0 0 0 0 0 0 0 0 0.24 0"/>
<feBlend mode="normal" in2="BackgroundImageFix" result="effect1_dropShadow_221_1177"/>
<feBlend mode="normal" in="SourceGraphic" in2="effect1_dropShadow_221_1177" result="shape"/>
</filter>
<clipPath id="clip0_221_1177">
<rect width="621" height="621" fill="white" transform="translate(4)"/>
</clipPath>
</defs>
</svg>
